<svg width="96" height="53" viewBox="0 0 96 53" fill="none" xmlns="http://www.w3.org/2000/svg">
<g id="Group 1171275657">
<path id="Vector" d="M74.8697 29.9045C74.9597 29.7845 75.0497 29.6746 75.1497 29.5546C75.1797 29.5146 75.2097 29.4846 75.2297 29.4446C75.2597 29.4046 75.2897 29.3645 75.3197 29.3245C75.4097 29.2145 75.4897 29.1146 75.5797 29.0046C75.6597 28.9046 75.7397 28.7946 75.8197 28.6946C75.8997 28.5946 75.9897 28.4846 76.0697 28.3846C76.1497 28.2846 76.2297 28.1845 76.3097 28.0945C76.3497 28.0445 76.3797 28.0045 76.4197 27.9545C76.4697 27.8945 76.5197 27.8245 76.5697 27.7645C76.6497 27.6645 76.7297 27.5645 76.8097 27.4645C76.8797 27.3845 76.9397 27.3045 77.0097 27.2245C77.0497 27.1745 77.0897 27.1345 77.1197 27.0845C77.1997 26.9845 77.2897 26.8845 77.3697 26.7845C77.4397 26.6945 77.5197 26.6045 77.5897 26.5145C77.6397 26.4545 77.6797 26.4046 77.7297 26.3546C77.7997 26.2746 77.8697 26.1946 77.9397 26.1046C78.0097 26.0146 78.0897 25.9245 78.1597 25.8445C78.1697 25.8345 78.1797 25.8146 78.1997 25.8046C78.2497 25.7446 78.3097 25.6846 78.3597 25.6146C78.4297 25.5346 78.4897 25.4546 78.5597 25.3746C78.6297 25.2946 78.6897 25.2146 78.7597 25.1346C78.7697 25.1146 78.7897 25.1045 78.7997 25.0845C78.7997 25.0745 78.8197 25.0646 78.8297 25.0546C78.8897 24.9846 78.9497 24.9145 79.0097 24.8445C79.0797 24.7645 79.1397 24.6946 79.2097 24.6146C79.2697 24.5446 79.3297 24.4745 79.3997 24.4045C79.4497 24.3545 79.4897 24.3046 79.5397 24.2446C79.5897 24.1846 79.6497 24.1246 79.6997 24.0646C79.7597 23.9946 79.8297 23.9145 79.8897 23.8445C79.9297 23.8045 79.9697 23.7545 80.0097 23.7145C80.0397 23.6845 80.0597 23.6546 80.0897 23.6346C80.1397 23.5746 80.1997 23.5145 80.2497 23.4545C80.3097 23.3845 80.3697 23.3146 80.4297 23.2446C80.4797 23.1846 80.5397 23.1246 80.5897 23.0646C80.5897 23.0646 80.5997 23.0446 80.6097 23.0446C80.6897 22.9546 80.7597 22.8745 80.8397 22.7845C80.8997 22.7245 80.9597 22.6545 81.0097 22.5945C81.0597 22.5345 81.1197 22.4746 81.1697 22.4146C81.2197 22.3646 81.2697 22.3046 81.3197 22.2546C81.3297 22.2446 81.3497 22.2245 81.3597 22.2045C81.5997 21.9445 81.8297 21.6846 82.0697 21.4346C82.1097 21.3846 82.1597 21.3345 82.1997 21.2845C88.1597 14.8345 92.7297 11.1545 95.3697 9.52454C95.3697 9.52454 77.5797 0.644531 38.6997 0.644531C-0.180328 0.644531 0.329679 20.0546 0.329679 20.0546C0.329679 20.0546 1.56967 51.6946 38.6997 51.6946C38.6997 51.6946 57.6197 52.1346 69.5797 36.6946C69.6297 36.6346 69.6797 36.5746 69.7297 36.5046C69.7797 36.4446 69.8297 36.3746 69.8797 36.3146C69.9297 36.2546 69.9797 36.1946 70.0297 36.1246C70.0797 36.0646 70.1297 36.0046 70.1697 35.9346C70.2197 35.8746 70.2697 35.8046 70.3197 35.7446C70.3697 35.6846 70.4197 35.6146 70.4697 35.5546C70.5197 35.4946 70.5697 35.4346 70.6097 35.3646C70.6597 35.3046 70.7097 35.2346 70.7597 35.1746C70.8097 35.1146 70.8597 35.0446 70.9097 34.9846C70.9597 34.9246 71.0097 34.8646 71.0597 34.7946C71.1097 34.7346 71.1597 34.6646 71.2097 34.6046C71.2597 34.5446 71.3097 34.4746 71.3597 34.4146C71.4097 34.3545 71.4597 34.2845 71.5097 34.2245C71.5597 34.1645 71.6097 34.0945 71.6597 34.0345C71.7297 33.9545 71.7897 33.8645 71.8597 33.7745C71.9497 33.6545 72.0497 33.5345 72.1397 33.4146C72.2297 33.2946 72.3197 33.1846 72.4197 33.0646C72.4797 32.9846 72.5397 32.9145 72.5997 32.8345C72.5997 32.8345 72.5997 32.8345 72.5997 32.8245C72.6397 32.7645 72.6897 32.7145 72.7297 32.6545C72.7297 32.6545 72.7397 32.6346 72.7497 32.6246C72.7897 32.5746 72.8297 32.5245 72.8697 32.4745C72.8797 32.4645 72.8897 32.4446 72.8997 32.4346C72.9397 32.3846 72.9697 32.3446 73.0097 32.2946C73.0197 32.2746 73.0397 32.2546 73.0497 32.2346C73.0797 32.1946 73.1097 32.1546 73.1397 32.1146C73.1597 32.0846 73.1797 32.0646 73.1997 32.0446C73.2297 32.0146 73.2497 31.9746 73.2797 31.9446C73.2997 31.9146 73.3297 31.8846 73.3497 31.8546C73.3697 31.8246 73.3997 31.7945 73.4197 31.7645C73.4497 31.7245 73.4697 31.6946 73.4997 31.6646C73.5197 31.6446 73.5397 31.6145 73.5597 31.5945C73.5897 31.5545 73.6197 31.5145 73.6497 31.4745C73.6597 31.4545 73.6797 31.4346 73.6897 31.4146C73.7297 31.3646 73.7597 31.3245 73.7997 31.2745C73.8097 31.2645 73.8197 31.2446 73.8297 31.2346C73.8697 31.1846 73.9097 31.1345 73.9497 31.0845C73.9497 31.0845 73.9597 31.0646 73.9697 31.0646C74.0097 31.0046 74.0597 30.9545 74.0997 30.8945C74.1797 30.7945 74.2497 30.7046 74.3297 30.6046C74.4197 30.4846 74.5097 30.3746 74.5997 30.2546C74.6897 30.1346 74.7897 30.0145 74.8797 29.8945L74.8697 29.9045Z" fill="url(#paint0_linear_1_11021)"/>
<g id="Group" style="mix-blend-mode:multiply">
<g id="Clip path group">
<mask id="mask0_1_11021" style="mask-type:luminance" maskUnits="userSpaceOnUse" x="0" y="0" width="96" height="52">
<g id="clippath-4">
<path id="Vector_2" d="M74.8697 29.9045C74.9597 29.7845 75.0497 29.6746 75.1497 29.5546C75.1797 29.5146 75.2097 29.4846 75.2297 29.4446C75.2597 29.4046 75.2897 29.3645 75.3197 29.3245C75.4097 29.2145 75.4897 29.1146 75.5797 29.0046C75.6597 28.9046 75.7397 28.7946 75.8197 28.6946C75.8997 28.5946 75.9897 28.4846 76.0697 28.3846C76.1497 28.2846 76.2297 28.1845 76.3097 28.0945C76.3497 28.0445 76.3797 28.0045 76.4197 27.9545C76.4697 27.8945 76.5197 27.8245 76.5697 27.7645C76.6497 27.6645 76.7297 27.5645 76.8097 27.4645C76.8797 27.3845 76.9397 27.3045 77.0097 27.2245C77.0497 27.1745 77.0897 27.1345 77.1197 27.0845C77.1997 26.9845 77.2897 26.8845 77.3697 26.7845C77.4397 26.6945 77.5197 26.6045 77.5897 26.5145C77.6397 26.4545 77.6797 26.4046 77.7297 26.3546C77.7997 26.2746 77.8697 26.1946 77.9397 26.1046C78.0097 26.0146 78.0897 25.9245 78.1597 25.8445C78.1697 25.8345 78.1797 25.8146 78.1997 25.8046C78.2497 25.7446 78.3097 25.6846 78.3597 25.6146C78.4297 25.5346 78.4897 25.4546 78.5597 25.3746C78.6297 25.2946 78.6897 25.2146 78.7597 25.1346C78.7697 25.1146 78.7897 25.1045 78.7997 25.0845C78.7997 25.0745 78.8197 25.0646 78.8297 25.0546C78.8897 24.9846 78.9497 24.9145 79.0097 24.8445C79.0797 24.7645 79.1397 24.6946 79.2097 24.6146C79.2697 24.5446 79.3297 24.4745 79.3997 24.4045C79.4497 24.3545 79.4897 24.3046 79.5397 24.2446C79.5897 24.1846 79.6497 24.1246 79.6997 24.0646C79.7597 23.9946 79.8297 23.9145 79.8897 23.8445C79.9297 23.8045 79.9697 23.7545 80.0097 23.7145C80.0397 23.6845 80.0597 23.6546 80.0897 23.6346C80.1397 23.5746 80.1997 23.5145 80.2497 23.4545C80.3097 23.3845 80.3697 23.3146 80.4297 23.2446C80.4797 23.1846 80.5397 23.1246 80.5897 23.0646C80.5897 23.0646 80.5997 23.0446 80.6097 23.0446C80.6897 22.9546 80.7597 22.8745 80.8397 22.7845C80.8997 22.7245 80.9597 22.6545 81.0097 22.5945C81.0597 22.5345 81.1197 22.4746 81.1697 22.4146C81.2197 22.3646 81.2697 22.3046 81.3197 22.2546C81.3297 22.2446 81.3497 22.2245 81.3597 22.2045C81.5997 21.9445 81.8297 21.6846 82.0697 21.4346C82.1097 21.3846 82.1597 21.3345 82.1997 21.2845C88.1597 14.8345 92.7297 11.1545 95.3697 9.52454C95.3697 9.52454 77.5797 0.644531 38.6997 0.644531C-0.180328 0.644531 0.329679 20.0546 0.329679 20.0546C0.329679 20.0546 1.56967 51.6946 38.6997 51.6946C38.6997 51.6946 57.6197 52.1346 69.5797 36.6946C69.6297 36.6346 69.6797 36.5746 69.7297 36.5046C69.7797 36.4446 69.8297 36.3746 69.8797 36.3146C69.9297 36.2546 69.9797 36.1946 70.0297 36.1246C70.0797 36.0646 70.1297 36.0046 70.1697 35.9346C70.2197 35.8746 70.2697 35.8046 70.3197 35.7446C70.3697 35.6846 70.4197 35.6146 70.4697 35.5546C70.5197 35.4946 70.5697 35.4346 70.6097 35.3646C70.6597 35.3046 70.7097 35.2346 70.7597 35.1746C70.8097 35.1146 70.8597 35.0446 70.9097 34.9846C70.9597 34.9246 71.0097 34.8646 71.0597 34.7946C71.1097 34.7346 71.1597 34.6646 71.2097 34.6046C71.2597 34.5446 71.3097 34.4746 71.3597 34.4146C71.4097 34.3545 71.4597 34.2845 71.5097 34.2245C71.5597 34.1645 71.6097 34.0945 71.6597 34.0345C71.7297 33.9545 71.7897 33.8645 71.8597 33.7745C71.9497 33.6545 72.0497 33.5345 72.1397 33.4146C72.2297 33.2946 72.3197 33.1846 72.4197 33.0646C72.4797 32.9846 72.5397 32.9145 72.5997 32.8345C72.5997 32.8345 72.5997 32.8345 72.5997 32.8245C72.6397 32.7645 72.6897 32.7145 72.7297 32.6545C72.7297 32.6545 72.7397 32.6346 72.7497 32.6246C72.7897 32.5746 72.8297 32.5245 72.8697 32.4745C72.8797 32.4645 72.8897 32.4446 72.8997 32.4346C72.9397 32.3846 72.9697 32.3446 73.0097 32.2946C73.0197 32.2746 73.0397 32.2546 73.0497 32.2346C73.0797 32.1946 73.1097 32.1546 73.1397 32.1146C73.1597 32.0846 73.1797 32.0646 73.1997 32.0446C73.2297 32.0146 73.2497 31.9746 73.2797 31.9446C73.2997 31.9146 73.3297 31.8846 73.3497 31.8546C73.3697 31.8246 73.3997 31.7945 73.4197 31.7645C73.4497 31.7245 73.4697 31.6946 73.4997 31.6646C73.5197 31.6446 73.5397 31.6145 73.5597 31.5945C73.5897 31.5545 73.6197 31.5145 73.6497 31.4745C73.6597 31.4545 73.6797 31.4346 73.6897 31.4146C73.7297 31.3646 73.7597 31.3245 73.7997 31.2745C73.8097 31.2645 73.8197 31.2446 73.8297 31.2346C73.8697 31.1846 73.9097 31.1345 73.9497 31.0845C73.9497 31.0845 73.9597 31.0646 73.9697 31.0646C74.0097 31.0046 74.0597 30.9545 74.0997 30.8945C74.1797 30.7945 74.2497 30.7046 74.3297 30.6046C74.4197 30.4846 74.5097 30.3746 74.5997 30.2546C74.6897 30.1346 74.7897 30.0145 74.8797 29.8945L74.8697 29.9045Z" fill="white"/>
</g>
</mask>
<g mask="url(#mask0_1_11021)">
<g id="Group_2">
<path id="Vector_3" d="M30.1797 41.7849C32.7097 40.3749 34.6697 37.9249 36.6197 35.1149C37.3197 34.1049 37.9697 32.8449 38.8097 32.1049C38.2397 32.2249 37.5897 32.0249 36.9897 31.9249C33.7297 31.3949 30.3397 30.6849 27.3797 32.1849C24.4097 33.6949 22.0497 38.0749 21.0597 43.0549C23.7897 41.9749 27.4897 43.2749 30.1697 41.7749L30.1797 41.7849Z" fill="#3DAAE1"/>
<path id="Vector_4" d="M24.4597 40.0746C25.7697 37.9846 26.3097 35.3946 26.6997 32.5446C26.8497 31.5246 26.8597 30.3546 27.1997 29.4546C26.8397 29.7846 26.2997 29.9146 25.8297 30.1146C23.2897 31.1346 20.5997 32.0746 19.0097 34.4146C17.4197 36.7746 17.2797 40.9146 18.3697 44.8946C19.9497 42.9546 23.0797 42.2946 24.4697 40.0646L24.4597 40.0746Z" fill="#79A3C8"/>
<path id="Vector_5" d="M19.7798 37.7746C19.6298 35.8846 18.8098 34.0946 17.7998 32.2546C17.4298 31.5846 16.9197 30.9046 16.7397 30.2046C16.6697 30.5846 16.4098 30.9446 16.2298 31.2946C15.1898 33.2146 14.0398 35.1646 14.1398 37.3446C14.2398 39.5446 15.9698 41.9946 18.3398 43.7346C18.4098 41.7846 19.9498 39.7746 19.7998 37.7646L19.7798 37.7746Z" fill="#D6E9F1"/>
<path id="Vector_6" d="M29.1197 38.835C31.2697 38.855 33.3497 39.785 35.5197 40.975C36.3097 41.395 37.1297 42.015 37.9297 42.205C37.5097 42.335 37.1297 42.715 36.7497 43.005C34.6897 44.585 32.5997 46.335 30.1397 46.405C27.6497 46.485 24.7097 44.385 22.5297 41.365C24.7197 41.085 26.8397 38.815 29.1197 38.845V38.835Z" fill="#B3CBE1"/>
<path id="Vector_7" d="M23.8897 40.8049C25.4197 41.7449 26.5697 43.3149 27.6997 45.0949C28.0997 45.7449 28.4697 46.5349 28.9697 47.0149C28.6197 46.9249 28.2097 47.0249 27.8397 47.0749C25.7997 47.3349 23.6897 47.6849 21.8997 46.6849C20.0897 45.6749 18.7597 42.9049 18.2797 39.7949C19.9397 40.5349 22.2697 39.8149 23.8897 40.8049Z" fill="#B3CBE1"/>
<path id="Vector_8" d="M21.1997 43.1245C21.6797 44.4645 21.6497 45.9845 21.5297 47.6145C21.4797 48.2045 21.3497 48.8545 21.4297 49.3945C21.2697 49.1645 20.9797 49.0145 20.7497 48.8545C19.4597 47.9345 18.0797 47.0445 17.4897 45.5245C16.8897 43.9945 17.3297 41.6745 18.4097 39.6045C19.0497 40.9045 20.7097 41.7045 21.2097 43.1345L21.1997 43.1245Z" fill="#B3CBE1"/>
<path id="Vector_9" d="M20.8897 50.8446C19.2697 51.9946 17.2697 52.4746 15.0697 52.8346C14.2797 52.9546 13.3697 52.9846 12.6797 53.2746C12.9297 52.9446 13.0297 52.4746 13.1797 52.0846C13.9397 49.8646 14.6597 47.5046 16.4497 46.1146C18.2697 44.7146 21.4797 44.5746 24.5797 45.4946C23.0797 46.8846 22.5997 49.6146 20.8897 50.8346V50.8446Z" fill="#B3CBE1"/>
<path id="Vector_10" d="M19.2497 47.7346C17.6597 47.9146 16.0397 47.4547 14.3197 46.8147C13.7097 46.5847 13.0397 46.2346 12.4397 46.1646C12.7397 46.0346 12.9997 45.7347 13.2497 45.5047C14.6397 44.2147 16.0597 42.8246 17.8797 42.5446C19.7097 42.2746 22.0697 43.4746 23.9297 45.3946C22.3297 45.7846 20.9397 47.5546 19.2497 47.7346Z" fill="#3DAAE1"/>
<path id="Vector_11" d="M16.5497 42.7649C15.5397 42.0849 14.8197 41.0149 14.1197 39.8049C13.8697 39.3649 13.6497 38.8449 13.3297 38.5049C13.5497 38.5749 13.8497 38.5349 14.0997 38.5249C15.5097 38.4549 16.9797 38.3449 18.1597 39.0749C19.3497 39.8249 20.1597 41.6749 20.3497 43.7049C19.2397 43.1449 17.6097 43.4849 16.5397 42.7649H16.5497Z" fill="#B9DBE7"/>
<path id="Vector_12" d="M11.3398 53.6649C9.52975 55.9249 8.62975 58.9349 7.87975 62.2649C7.60975 63.4649 7.48975 64.8749 6.98975 65.8749C7.46975 65.5549 8.14975 65.4949 8.73975 65.3549C11.9597 64.6149 15.3697 63.9949 17.5397 61.4949C19.7197 58.9749 20.2598 54.0349 19.2998 49.0449C17.1698 51.0749 13.2598 51.2549 11.3398 53.6649Z" fill="#79A3C8"/>
<path id="Vector_13" d="M14.5097 55.9546C14.0897 58.3846 14.5597 60.9846 15.2797 63.7746C15.5297 64.7746 15.9597 65.8646 15.9797 66.8246C16.1897 66.3846 16.6397 66.0546 16.9997 65.7046C18.9697 63.8046 21.0997 61.9246 21.6897 59.1546C22.2697 56.3646 20.8397 52.4846 18.3397 49.2046C17.6097 51.6046 14.9597 53.3946 14.5097 55.9746V55.9546Z" fill="#B3CBE1"/>
<path id="Vector_14" d="M19.5597 56.5446C20.4197 58.2346 21.8497 59.5846 23.4797 60.9046C24.0697 61.3846 24.7997 61.8246 25.2397 62.3946C25.1597 62.0146 25.2697 61.5846 25.2997 61.1846C25.5397 59.0146 25.8697 56.7746 24.9597 54.7946C24.0397 52.7946 21.5097 51.1746 18.6597 50.4546C19.3197 52.2846 18.6597 54.7346 19.5597 56.5346V56.5446Z" fill="#3DAAE1"/>
<path id="Vector_15" d="M14.4198 54.6949C12.4198 55.4849 10.1397 55.4049 7.67975 55.1249C6.78975 55.0349 5.78975 54.7748 4.98975 54.8948C5.32975 54.6148 5.53975 54.1249 5.77975 53.7149C7.08975 51.4749 8.36975 49.0748 10.6198 48.0748C12.8998 47.0648 16.3998 47.8949 19.5598 49.8749C17.6398 50.9649 16.5298 53.8549 14.4098 54.6949H14.4198Z" fill="#3DAAE1"/>
<path id="Vector_16" d="M13.6597 51.7447C11.8897 51.4447 10.2297 50.4347 8.50974 49.2047C7.88974 48.7547 7.24974 48.1647 6.60974 47.9047C6.95974 47.8547 7.30973 47.6047 7.62973 47.4247C9.41973 46.4147 11.2497 45.2947 13.2797 45.5447C15.3297 45.8047 17.6197 47.8647 19.2297 50.5647C17.4097 50.5047 15.5197 52.0547 13.6497 51.7447H13.6597Z" fill="#B3CBE1"/>
<path id="Vector_17" d="M19.5497 38.6347C20.6097 36.9547 22.2897 35.7647 24.1897 34.5947C24.8797 34.1847 25.7097 33.8147 26.2397 33.2847C26.1297 33.6847 26.2197 34.1546 26.2397 34.5746C26.3797 36.9146 26.5997 39.3747 25.4597 41.3347C24.2997 43.3147 21.3797 44.6547 18.1597 44.9647C19.0197 43.1147 18.4397 40.4047 19.5597 38.6247L19.5497 38.6347Z" fill="#B8DBE7"/>
<path id="Vector_18" d="M22.2796 49.0946C23.4796 49.3446 24.5396 50.0647 25.6396 50.9247C26.0396 51.2347 26.4396 51.6446 26.8596 51.8346C26.6297 51.8546 26.3696 52.0047 26.1396 52.1147C24.8596 52.7047 23.5396 53.3747 22.1696 53.1347C20.7896 52.8947 19.3396 51.4747 18.3896 49.6747C19.6296 49.7747 21.0096 48.8447 22.2696 49.1047L22.2796 49.0946Z" fill="#B3CBE1"/>
<path id="Vector_19" d="M39.3797 34.5048C40.7897 33.7448 42.4597 33.5548 44.2897 33.4948C44.9397 33.4748 45.6997 33.5548 46.2797 33.3848C46.0497 33.6148 45.9197 33.9947 45.7797 34.3047C44.9697 36.0247 44.1897 37.8447 42.6097 38.7847C41.0197 39.7247 38.3797 39.5048 35.9297 38.4348C37.2597 37.4748 37.8897 35.3048 39.3797 34.5048Z" fill="#3DAAE1"/>
<path id="Vector_20" d="M18.5197 42.8248C21.2197 43.8548 23.5197 45.9948 25.8597 48.4948C26.6997 49.3948 27.5197 50.5448 28.4597 51.1548C27.8797 51.1148 27.2697 51.4148 26.6897 51.5948C23.5397 52.5848 20.2897 53.7848 17.1497 52.7148C13.9897 51.6448 11.0197 47.6548 9.32971 42.8748C12.1897 43.5548 15.6597 41.7248 18.5297 42.8248H18.5197Z" fill="#3DAAE1"/>
<path id="Vector_21" d="M13.0997 45.3448C14.6897 47.2248 15.5997 49.7148 16.3997 52.4748C16.6897 53.4648 16.8797 54.6248 17.3397 55.4548C16.9297 55.1848 16.3797 55.1248 15.8897 55.0048C13.2297 54.3648 10.4397 53.8148 8.51968 51.7248C6.60968 49.6148 5.86968 45.5348 6.36968 41.4448C8.20968 43.1448 11.4097 43.3448 13.0997 45.3448Z" fill="#79A3C8"/>
<path id="Vector_22" d="M8.80974 48.2947C8.92974 50.1847 8.36974 52.0747 7.63974 54.0347C7.36974 54.7447 6.96973 55.4947 6.87973 56.2147C6.74973 55.8447 6.44973 55.5247 6.20973 55.2047C4.90973 53.4547 3.47973 51.6947 3.26973 49.5247C3.04973 47.3347 4.40974 44.6547 6.49974 42.5947C6.84974 44.5147 8.65974 46.2847 8.79974 48.2947H8.80974Z" fill="#D6E9F1"/>
<path id="Vector_23" d="M17.8898 45.8947C20.0198 45.5647 21.9398 44.3447 23.9198 42.8547C24.6398 42.3247 25.3698 41.5947 26.1198 41.2947C25.6898 41.2247 25.2498 40.9047 24.8398 40.6747C22.5698 39.4047 20.2498 37.9847 17.8098 38.2647C15.3298 38.5447 12.7298 41.0447 11.0098 44.3447C13.2198 44.3047 15.6398 46.2447 17.8898 45.8947Z" fill="#B3CBE1"/>
<path id="Vector_24" d="M12.4397 44.705C13.8197 43.555 14.7297 41.835 15.5997 39.915C15.8997 39.215 16.1597 38.385 16.5797 37.835C16.2497 37.975 15.8297 37.935 15.4497 37.935C13.3997 37.975 11.2497 37.935 9.61966 39.175C7.97966 40.435 7.04966 43.365 7.02966 46.515C8.56966 45.545 10.9797 45.925 12.4397 44.715V44.705Z" fill="#B3CBE1"/>
<path id="Vector_25" d="M9.43969 42.7949C9.71969 41.3949 9.47968 39.9049 9.11968 38.3049C8.98968 37.7349 8.75968 37.1049 8.75968 36.5649C8.63968 36.8149 8.36969 37.0049 8.15969 37.2049C7.01969 38.2949 5.77969 39.3849 5.40969 40.9749C5.03969 42.5749 5.79969 44.8049 7.16969 46.6949C7.61969 45.3149 9.13968 44.2849 9.42968 42.8049L9.43969 42.7949Z" fill="#B3CBE1"/>
<path id="Vector_26" d="M8.01967 35.1946C6.25967 34.2846 4.19968 34.1046 1.96968 34.0646C1.16968 34.0646 0.259673 34.1646 -0.460327 33.9746C-0.160327 34.2646 -0.000323474 34.7146 0.199677 35.0846C1.26968 37.1746 2.31967 39.4046 4.28967 40.5146C6.28967 41.6446 9.48967 41.3146 12.4297 39.9546C10.7497 38.7946 9.87967 36.1646 8.00967 35.2046L8.01967 35.1946Z" fill="#B3CBE1"/>
<path id="Vector_27" d="M6.83971 38.5149C5.23971 38.5649 3.6997 39.2549 2.0997 40.1349C1.5297 40.4449 0.909712 40.8949 0.329712 41.0449C0.639712 41.1249 0.949706 41.3849 1.22971 41.5849C2.78971 42.6549 4.38971 43.8349 6.22971 43.8449C8.07971 43.8449 10.2397 42.3249 11.8097 40.1549C10.1697 40.0049 8.53971 38.4549 6.83971 38.5149Z" fill="#3DAAE1"/>
<path id="Vector_28" d="M4.88971 43.8247C3.98971 44.6447 3.42971 45.8047 2.91971 47.1047C2.73971 47.5747 2.59971 48.1248 2.32971 48.5048C2.53971 48.4048 2.83971 48.4048 3.08971 48.3748C4.48971 48.2348 5.96971 48.1448 7.02971 47.2448C8.09971 46.3348 8.62971 44.3847 8.52971 42.3447C7.50971 43.0647 5.8497 42.9547 4.8997 43.8247H4.88971Z" fill="#B9DBE7"/>
<path id="Vector_29" d="M-1.83026 33.785C-3.95026 31.805 -5.27026 28.965 -6.49026 25.775C-6.93026 24.625 -7.26026 23.245 -7.89026 22.335C-7.37026 22.585 -6.69026 22.545 -6.08026 22.595C-2.79026 22.855 0.679733 22.985 3.17973 25.155C5.70973 27.335 6.94974 32.145 6.71974 37.225C4.31974 35.525 0.429733 35.905 -1.82027 33.805L-1.83026 33.785Z" fill="#79A3C8"/>
<path id="Vector_30" d="M0.979654 31.0645C0.209654 28.7245 0.309659 26.0745 0.609659 23.2245C0.709659 22.2045 0.979654 21.0545 0.869654 20.1045C1.13965 20.5145 1.62965 20.7745 2.03965 21.0645C4.25965 22.6645 6.64965 24.2145 7.62965 26.8745C8.60965 29.5545 7.74966 33.6045 5.74966 37.2045C4.67966 34.9345 1.79965 33.5445 0.979654 31.0545V31.0645Z" fill="#B3CBE1"/>
<path id="Vector_31" d="M5.88973 29.7448C6.48973 27.9448 7.71973 26.4147 9.13973 24.8647C9.65973 24.3047 10.3097 23.7648 10.6597 23.1348C10.6397 23.5248 10.7997 23.9347 10.8997 24.3247C11.4497 26.4347 12.0997 28.6048 11.4797 30.6948C10.8597 32.8048 8.58973 34.7747 5.86973 35.8947C6.25973 33.9847 5.25973 31.6648 5.88973 29.7448Z" fill="#3DAAE1"/>
<path id="Vector_32" d="M7.77974 7.34472C10.6697 7.22472 13.6297 8.28473 16.7597 9.66473C17.8897 10.1547 19.0997 10.8947 20.1997 11.0847C19.6597 11.2747 19.2097 11.7847 18.7497 12.1847C16.2497 14.3447 13.7297 16.7247 10.4197 16.9747C7.08974 17.2347 2.78973 14.7447 -0.650269 11.0147C2.24973 10.5047 4.70973 7.46472 7.78973 7.34472H7.77974Z" fill="#79A3C8"/>
<path id="Vector_33" d="M7.73965 11.2449C9.94965 12.3449 11.7597 14.2749 13.5797 16.4949C14.2397 17.2849 14.8697 18.2849 15.6197 18.8649C15.1397 18.7749 14.6097 18.9449 14.1097 19.0249C11.4097 19.4849 8.62967 20.0849 6.04967 18.9149C3.45967 17.7249 1.17965 14.2749 0.0196533 10.3149C2.37965 11.1449 5.39965 10.0749 7.73965 11.2449Z" fill="#B3CBE1"/>
<path id="Vector_34" d="M5.21977 15.665C6.07977 17.355 6.30978 19.305 6.40978 21.405C6.43978 22.165 6.36977 23.015 6.56977 23.705C6.30977 23.415 5.89977 23.245 5.55977 23.035C3.66977 21.945 1.66977 20.885 0.619769 18.975C-0.450231 17.055 -0.260226 14.055 0.859774 11.335C1.93977 12.955 4.29977 13.875 5.21977 15.665Z" fill="#3DAAE1"/>
<path id="Vector_35" d="M58.2998 45.9345C55.4498 45.4145 52.7998 43.7345 50.0498 41.7145C49.0598 40.9845 48.0398 40.0045 46.9998 39.5745C47.5698 39.5045 48.1198 39.1046 48.6598 38.8146C51.5698 37.2546 54.5498 35.4845 57.8298 35.9545C61.1298 36.4245 64.7798 39.7945 67.3298 44.1845C64.3898 44.0445 61.3197 46.4745 58.2897 45.9245L58.2998 45.9345Z" fill="#79A3C8"/>
<path id="Vector_36" d="M58.5997 40.8948C56.6897 39.3448 55.3297 37.0649 54.0497 34.4949C53.5797 33.5749 53.1797 32.4749 52.5797 31.7349C53.0297 31.9249 53.5797 31.8849 54.0897 31.9149C56.8197 32.0549 59.6697 32.0748 61.9297 33.7748C64.1997 35.4948 65.6697 39.3649 65.9397 43.4849C63.8097 42.1549 60.6397 42.5448 58.6097 40.8948H58.5997Z" fill="#B3CBE1"/>
<path id="Vector_37" d="M61.8197 37.3749C61.3497 35.5349 61.5498 33.5848 61.9098 31.5148C62.0398 30.7648 62.2997 29.9549 62.2497 29.2349C62.4397 29.5749 62.7997 29.8349 63.0897 30.1049C64.6897 31.5849 66.4197 33.0548 67.0297 35.1448C67.6497 37.2548 66.8097 40.1449 65.1297 42.5549C64.4297 40.7349 62.3197 39.3249 61.8197 37.3749Z" fill="#3DAAE1"/>
<path id="Vector_38" d="M1.05971 32.3248C-1.03029 31.8248 -3.28029 32.2348 -5.67029 32.8648C-6.54029 33.0848 -7.49029 33.4848 -8.30029 33.4848C-7.93029 33.7148 -7.6403 34.1748 -7.3503 34.5448C-5.7303 36.5748 -4.12029 38.7648 -1.75029 39.4248C0.64971 40.0948 3.99971 38.7648 6.83971 36.3548C4.77971 35.5548 3.26971 32.8448 1.04971 32.3248H1.05971Z" fill="#3DAAE1"/>
<path id="Vector_39" d="M0.7397 35.3547C-0.9703 35.9047 -2.4603 37.1447 -3.9903 38.6047C-4.5303 39.1347 -5.0803 39.8147 -5.6803 40.1647C-5.3203 40.1647 -4.9503 40.3547 -4.6003 40.4947C-2.6803 41.2347 -0.710296 42.0847 1.2597 41.5447C3.2597 40.9947 5.2197 38.6247 6.4297 35.7247C4.6397 36.0447 2.5497 34.7847 0.7397 35.3547Z" fill="#B3CBE1"/>
<path id="Vector_40" d="M8.45966 47.4749C9.74966 48.9749 11.5897 49.9249 13.6397 50.8049C14.3797 51.1149 15.2597 51.3549 15.8497 51.8049C15.6797 51.4249 15.6997 50.9449 15.6497 50.5249C15.4497 48.1849 15.3097 45.7249 13.8997 43.9449C12.4697 42.1449 9.37966 41.2449 6.14966 41.4049C7.26966 43.1149 7.08966 45.8749 8.44966 47.4749H8.45966Z" fill="#B8DBE7"/>
<path id="Vector_41" d="M9.64973 36.7346C10.7997 36.3146 11.7497 35.4546 12.7097 34.4446C13.0597 34.0846 13.3897 33.6246 13.7897 33.3746C13.5597 33.3946 13.2797 33.2746 13.0397 33.2046C11.6897 32.8046 10.2797 32.3346 8.96974 32.7646C7.62974 33.2046 6.40974 34.8146 5.72974 36.7346C6.94974 36.4546 8.43973 37.1846 9.64973 36.7346Z" fill="#B3CBE1"/>
<path id="Vector_42" d="M28.6697 48.7047C30.1697 49.2547 31.8597 49.1947 33.6697 48.9947C34.3097 48.9247 35.0497 48.7347 35.6497 48.8147C35.3897 48.6147 35.2097 48.2647 35.0197 47.9747C33.9697 46.3947 32.9397 44.6947 31.2397 43.9947C29.5297 43.2947 26.9497 43.8947 24.6797 45.3047C26.1397 46.0647 27.0697 48.1147 28.6697 48.6947V48.7047Z" fill="#3DAAE1"/>
</g>
</g>
</g>
</g>
<path id="Vector_43" d="M94.4494 10.5246C94.4494 10.5246 94.4594 10.5246 94.4694 10.5146C92.1494 10.4446 89.2694 10.5146 86.1294 10.9646C86.0394 10.9746 85.9494 10.9946 85.8594 11.0046C85.7594 11.0146 85.6594 11.0346 85.5594 11.0546C85.3594 11.0846 85.1494 11.1146 84.9494 11.1546C84.9294 11.1546 84.9094 11.1546 84.8994 11.1546C84.6394 11.1946 84.3794 11.2446 84.1094 11.2946C84.0894 11.2946 84.0694 11.2946 84.0494 11.3046C83.8494 11.3446 83.6594 11.3746 83.4594 11.4146C83.1094 11.4946 82.7494 11.5646 82.3994 11.6446C64.4094 24.6446 59.8394 47.6146 36.9594 49.4446C23.4694 50.5246 15.1494 46.4046 10.1594 41.8746C10.2294 41.9446 10.2994 42.0146 10.3694 42.0746C10.7694 42.4646 11.1894 42.8546 11.6294 43.2346C17.3194 48.3646 25.9594 52.3446 39.1194 52.3446C39.1194 52.3446 57.4694 52.6946 70.4794 36.7146C82.2694 22.2346 90.3194 13.9346 94.8694 10.8346L95.3294 10.5346C95.0494 10.5346 94.7694 10.5146 94.4794 10.5146L94.4494 10.5246Z" fill="#AAD3E4"/>
<path id="Vector_44" style="mix-blend-mode:multiply" d="M94.4494 10.5246C94.4494 10.5246 94.4594 10.5246 94.4694 10.5146C92.1494 10.4446 89.2694 10.5146 86.1294 10.9646C86.0394 10.9746 85.9494 10.9946 85.8594 11.0046C85.7594 11.0146 85.6594 11.0346 85.5594 11.0546C85.3594 11.0846 85.1494 11.1146 84.9494 11.1546C84.9294 11.1546 84.9094 11.1546 84.8994 11.1546C84.6394 11.1946 84.3794 11.2446 84.1094 11.2946C84.0894 11.2946 84.0694 11.2946 84.0494 11.3046C83.8494 11.3446 83.6594 11.3746 83.4594 11.4146C83.1094 11.4946 82.7494 11.5646 82.3994 11.6446C64.4094 24.6446 59.8394 47.6146 36.9594 49.4446C23.4694 50.5246 15.1494 46.4046 10.1594 41.8746C10.2294 41.9446 10.2994 42.0146 10.3694 42.0746C10.7694 42.4646 11.1894 42.8546 11.6294 43.2346C17.3194 48.3646 25.9594 52.3446 39.1194 52.3446C39.1194 52.3446 57.4694 52.6946 70.4794 36.7146C82.2694 22.2346 90.3194 13.9346 94.8694 10.8346L95.3294 10.5346C95.0494 10.5346 94.7694 10.5146 94.4794 10.5146L94.4494 10.5246Z" fill="url(#paint1_radial_1_11021)"/>
<path id="Vector_45" d="M0.349854 20.1345C0.349854 20.2845 0.349854 20.3645 0.349854 20.3645C0.349854 20.3645 0.349863 20.4445 0.359863 20.5945C0.359863 20.4345 0.359863 20.2845 0.359863 20.1245L0.349854 20.1345Z" fill="url(#paint2_radial_1_11021)"/>
<path id="Vector_46" d="M65.7593 20.2245C59.8893 25.6645 55.8893 32.0746 51.2793 36.7446C44.6693 43.4646 37.3593 47.3846 26.1593 46.3746C17.3693 45.5846 10.5193 42.2845 6.03931 37.1646C9.92931 42.8646 18.7093 50.9046 36.9493 49.4446C59.8293 47.6146 64.3993 24.6445 82.3893 11.6445C76.8993 12.9145 70.9393 15.4345 65.7693 20.2245H65.7593Z" fill="#409ECB"/>
<path id="Vector_47" style="mix-blend-mode:multiply" d="M65.7593 20.2245C59.8893 25.6645 55.8893 32.0746 51.2793 36.7446C44.6693 43.4646 37.3593 47.3846 26.1593 46.3746C17.3693 45.5846 10.5193 42.2845 6.03931 37.1646C9.92931 42.8646 18.7093 50.9046 36.9493 49.4446C59.8293 47.6146 64.3993 24.6445 82.3893 11.6445C76.8993 12.9145 70.9393 15.4345 65.7693 20.2245H65.7593Z" fill="url(#paint3_radial_1_11021)"/>
<g id="Clip path group_2">
<mask id="mask1_1_11021" style="mask-type:luminance" maskUnits="userSpaceOnUse" x="0" y="0" width="96" height="53">
<g id="clippath-5">
<path id="Vector_48" d="M95.5201 9.38477C95.5201 9.38477 77.7101 0.634766 38.8201 0.634766C-0.0699387 0.634766 0.110068 20.0447 0.110068 20.0447C0.110068 20.0447 -0.299941 25.5447 2.21006 31.1647C4.62006 36.5547 10.3001 42.0647 10.3401 42.0947C10.7401 42.4847 11.1601 42.8748 11.6001 43.2548C17.2901 48.3848 25.9301 52.3647 39.0901 52.3647C39.0901 52.3647 57.4401 52.7147 70.4501 36.7347C82.2401 22.2547 90.2901 13.9547 94.8401 10.8547L95.3001 10.5547C95.7901 10.5847 96.3701 9.74471 95.5301 9.39471L95.5201 9.38477ZM14.8001 45.2847C14.6701 45.2047 14.5401 45.1348 14.4101 45.0547C14.5301 45.1247 14.6501 45.1947 14.7801 45.2647C14.7801 45.2647 14.7901 45.2647 14.8001 45.2747V45.2847ZM11.3901 42.9547C11.5301 43.0647 11.6701 43.1747 11.8201 43.2947C11.6801 43.1847 11.5301 43.0747 11.3901 42.9547ZM10.6001 42.2947C10.7901 42.4547 10.9801 42.6147 11.1701 42.7747C10.9701 42.6147 10.7801 42.4547 10.6001 42.2947ZM14.1601 44.9047C13.9901 44.7947 13.8101 44.6947 13.6501 44.5847C13.8201 44.6947 13.9901 44.8047 14.1601 44.9047ZM13.4001 44.4247C13.1701 44.2747 12.9501 44.1247 12.7401 43.9747C12.9601 44.1247 13.1801 44.2747 13.4001 44.4247ZM12.6001 43.8748C12.4101 43.7448 12.2301 43.6047 12.0501 43.4747C12.2301 43.6147 12.4101 43.7448 12.6001 43.8748Z" fill="white"/>
</g>
</mask>
<g mask="url(#mask1_1_11021)">
<g id="Group_3">
<path id="Vector_49" d="M93.5501 7.06464C90.5301 5.49464 88.1301 4.63461 85.9501 4.47461L83.4601 5.48462C69.2501 11.7646 61.5201 22.4446 54.0001 30.9746C41.9101 43.7346 23.0101 49.2246 8.67009 35.3046C3.30009 30.0946 1.44009 23.6146 1.20009 16.3646C1.20009 15.9046 0.810089 15.8046 0.700089 15.8646L-0.0299072 16.2246V19.9746C-0.0299072 34.5646 9.63008 44.8946 26.1501 46.3946C37.3501 47.4046 44.6601 43.4846 51.2701 36.7646C55.8701 32.0946 59.8701 25.6846 65.7501 20.2446C80.0601 6.99463 100.31 11.1046 100.31 11.1046L93.5501 7.08459V7.06464Z" fill="white"/>
</g>
</g>
</g>
<path id="Vector_50" d="M22.8194 16.3646C22.6294 16.2146 22.3294 16.1445 21.8394 16.1445C20.7394 16.1445 20.6194 16.7545 20.6194 17.0245V26.9146C20.6194 27.4146 20.9994 27.8146 21.4694 27.8146H22.1994C22.6694 27.8146 23.0494 27.4046 23.0494 26.9146V16.9545C23.0494 16.8145 23.0494 16.5546 22.8094 16.3646H22.8194Z" fill="white"/>
<path id="Vector_51" d="M29.7894 16.1445C29.3194 16.1445 28.8794 16.1645 28.4594 16.2045C28.0394 16.2445 27.6294 16.3046 27.2494 16.3846C26.8194 16.4746 26.4594 16.5746 26.1194 16.6946C25.9494 16.7546 25.7494 16.8446 25.5994 17.0446C25.4694 17.2146 25.3894 17.4245 25.3694 17.6445V26.9446C25.3694 27.4246 25.7494 27.8146 26.2194 27.8146H26.8594C27.3294 27.8146 27.7094 27.4246 27.7094 26.9446V18.2145V18.2045C27.7094 18.1345 27.7494 18.0746 27.8094 18.0446C27.8094 18.0446 27.8094 18.0446 27.8294 18.0446H27.8494C28.2894 17.8846 28.7594 17.7745 29.6394 17.7745C30.5194 17.7745 31.0894 18.0045 31.4394 18.4545C31.7394 18.8445 31.7994 19.3446 31.7994 19.6946V26.9545C31.7994 27.4345 32.1794 27.8245 32.6494 27.8245H33.2894C33.7594 27.8245 34.1394 27.4345 34.1394 26.9545V19.6545C34.1394 19.1845 34.0494 18.2746 33.4094 17.5046C32.6794 16.6146 31.4594 16.1545 29.7794 16.1545L29.7894 16.1445Z" fill="white"/>
<path id="Vector_52" d="M45.1397 20.9645C45.1397 20.9645 45.1397 20.9346 45.1397 20.9246C45.0697 19.3946 44.6397 18.2145 43.8797 17.4045C43.0997 16.5745 41.9797 16.1445 40.5597 16.1445C39.1397 16.1445 37.8397 16.6746 36.9997 17.6846C36.1697 18.6746 35.7297 20.1045 35.7297 21.8245C35.7297 22.0345 35.7297 22.2445 35.7497 22.4545C35.7497 22.4745 35.7497 22.4945 35.7497 22.5145C35.7497 22.6445 35.7697 22.7745 35.7897 22.9045C35.8597 23.5045 35.9997 24.0546 36.1897 24.5546C36.5797 25.6146 37.1497 26.4046 37.8997 26.9346C39.0497 27.7246 40.2997 27.8245 41.2697 27.8245C41.6597 27.8245 42.0797 27.7746 42.5697 27.6646C42.9797 27.5746 43.3897 27.4346 43.7897 27.2546C43.8097 27.2446 43.8397 27.2345 43.8697 27.2245C43.9997 27.1745 44.1497 27.1046 44.2897 26.9846C44.4697 26.8246 44.5697 26.5946 44.5697 26.3546C44.5697 26.1946 44.5097 25.9945 44.3997 25.7845C44.2497 25.5045 43.9597 25.3245 43.6497 25.3245C43.4497 25.3245 43.2797 25.4045 43.1497 25.4645C43.1097 25.4845 43.0697 25.4945 43.0397 25.5145C42.3097 25.7945 40.8897 26.1646 39.5597 25.5446C38.9297 25.2546 38.1297 24.5645 37.8797 22.9045C37.8797 22.8445 37.8997 22.7945 37.9097 22.7745C37.9197 22.7545 37.9597 22.7245 38.0197 22.7145L38.1697 22.6946C38.3297 22.6746 38.4497 22.6545 38.4697 22.6545L44.3997 21.8646H44.4297C44.8497 21.8046 45.1597 21.4445 45.1597 21.0245V20.9846L45.1397 20.9645ZM40.5497 20.7346L39.7597 20.8445C39.0497 20.9245 38.4497 20.9446 38.0697 20.9346C38.0197 20.9346 37.9697 20.9046 37.9397 20.8646C37.8997 20.7946 37.9197 20.6446 37.9397 20.5046C37.9397 20.4646 37.9497 20.4345 37.9597 20.3945C38.0597 19.7045 38.2497 19.1646 38.5197 18.7546C38.5897 18.6546 38.6597 18.5545 38.7397 18.4645C38.7497 18.4445 38.7697 18.4346 38.7897 18.4146C39.1897 17.9846 39.7697 17.7445 40.5097 17.7145C40.5697 17.7145 40.6297 17.7145 40.6797 17.7145C42.0697 17.7145 42.7397 18.4545 42.8597 20.0845C42.8597 20.1645 42.8197 20.2346 42.7497 20.2546C42.2697 20.3946 41.5097 20.5946 40.5497 20.7346Z" fill="white"/>
<path id="Vector_53" d="M19.1599 14.5745C18.9799 14.4645 18.7899 14.4446 18.6499 14.4346C18.6299 14.4346 18.5999 14.4346 18.5799 14.4346C18.3199 14.4046 18.0399 14.3945 17.7599 14.3945C16.1399 14.3945 14.8299 14.6246 13.7699 15.1046C13.3899 15.2746 13.1799 15.6045 13.1799 16.0345V26.8546C13.1799 27.3846 13.5599 27.8245 14.0299 27.8245H14.6999C14.6999 27.8245 14.7199 27.8245 14.7299 27.8245C14.7399 27.8245 14.7599 27.8245 14.7699 27.8245C15.2199 27.8045 15.5699 27.4045 15.5799 26.8945C15.5799 26.8945 15.5799 26.8746 15.5799 26.8646C15.5799 26.8646 15.5799 26.8445 15.5799 26.8345V21.9045C15.5799 21.9045 15.5799 21.8246 15.5799 21.7946C15.5799 21.7446 15.5799 21.6745 15.5799 21.6545C15.5799 21.6545 15.6299 21.6445 15.7299 21.6445H17.4699C17.7799 21.6445 18.0499 21.4646 18.1899 21.1746C18.1899 21.1546 18.2099 21.1346 18.2099 21.1246C18.2299 21.0646 18.2499 21.0046 18.2699 20.9346C18.2799 20.8646 18.2899 20.7945 18.2899 20.7245C18.2899 20.7045 18.2899 20.6846 18.2899 20.6646C18.2699 20.1946 17.9099 19.8146 17.4799 19.8046C17.4299 19.8046 17.3799 19.8046 17.3299 19.8046C17.3299 19.8046 17.2999 19.8046 17.2899 19.8046C16.5399 19.8046 16.0799 19.8046 15.6999 19.8046H15.6699C15.6699 19.8046 15.6299 19.8046 15.6099 19.8046C15.5899 19.7846 15.5899 19.6546 15.5899 19.5446C15.5899 19.4846 15.5899 19.4246 15.5899 19.3546C15.5899 19.2846 15.5899 19.2046 15.5899 19.1246C15.5899 19.0846 15.5899 19.0446 15.5899 19.0046V17.5345C15.5899 17.4545 15.5899 17.3746 15.5899 17.3046C15.5899 17.1546 15.5899 16.9945 15.5899 16.8345C15.5899 16.7145 15.5999 16.6445 15.6399 16.5845C15.6599 16.5445 15.6899 16.5146 15.7299 16.4946C15.7299 16.4946 16.2499 16.2346 17.6099 16.1946C17.8599 16.1946 18.0799 16.1946 18.2699 16.1946C18.6799 16.1946 18.9399 16.2045 19.1699 16.0845C19.4199 15.9445 19.5799 15.6946 19.5899 15.4146C19.5999 15.0946 19.4299 14.7946 19.1599 14.6146V14.5745Z" fill="white"/>
<path id="Vector_54" d="M24.6697 6.60461C24.4897 6.42461 24.2897 6.26462 24.0797 6.11462C24.0797 6.10462 24.0697 6.09459 24.0597 6.08459C24.0597 6.08459 24.0697 6.10462 24.0797 6.11462C23.4397 5.68462 22.6897 5.45459 21.8997 5.45459C20.8497 5.45459 19.8697 5.86461 19.1297 6.60461C18.3897 7.34461 17.9797 8.33463 17.9797 9.37463C17.9797 9.57463 17.9997 9.77461 18.0297 9.97461C18.0297 10.0146 18.0297 10.0546 18.0497 10.0946C18.1897 10.8646 18.5597 11.5746 19.1297 12.1446C19.8697 12.8846 20.8597 13.2946 21.8997 13.2946C22.9397 13.2946 23.9297 12.8846 24.6697 12.1446C25.4097 11.4046 25.8197 10.4146 25.8197 9.37463C25.8197 8.33463 25.4097 7.34461 24.6697 6.60461ZM24.1797 11.6646C23.5697 12.2746 22.7597 12.6146 21.8997 12.6146C21.0397 12.6146 20.2297 12.2746 19.6197 11.6646C19.4497 11.4946 19.3097 11.3146 19.1797 11.1246C19.7097 11.4346 20.3197 11.6046 20.9797 11.6046C22.9797 11.6046 24.5997 9.98462 24.5997 7.98462C24.5997 7.84462 24.5997 7.70459 24.5697 7.57458C24.9297 8.10458 25.1297 8.72464 25.1297 9.38464C25.1297 10.2446 24.7897 11.0546 24.1797 11.6646Z" fill="white"/>
<path id="Vector_55" d="M45.6895 16.1045C45.2795 16.1045 44.9495 16.4345 44.9495 16.8445C44.9495 17.2545 45.2795 17.5845 45.6895 17.5845C46.0995 17.5845 46.4295 17.2545 46.4295 16.8445C46.4295 16.4345 46.0995 16.1045 45.6895 16.1045ZM45.6895 17.4845C45.3395 17.4845 45.0495 17.1945 45.0495 16.8445C45.0495 16.4945 45.3395 16.2045 45.6895 16.2045C46.0395 16.2045 46.3295 16.4945 46.3295 16.8445C46.3295 17.1945 46.0395 17.4845 45.6895 17.4845Z" fill="white"/>
<path id="Vector_56" d="M45.4299 16.4849H45.7399C45.7899 16.4849 45.8299 16.4848 45.8699 16.5148C45.9299 16.5448 45.9599 16.5949 45.9599 16.6749C45.9599 16.7149 45.9599 16.7548 45.9299 16.7748C45.9099 16.8048 45.8899 16.8248 45.8599 16.8348C45.8899 16.8448 45.9099 16.8649 45.9199 16.8849C45.9299 16.9049 45.9399 16.9248 45.9399 16.9648V17.0549C45.9399 17.0549 45.9399 17.0949 45.9499 17.1149L45.9799 17.1548V17.1749H45.8699V17.1548C45.8699 17.1548 45.8599 17.1249 45.8599 17.1049V16.9849C45.8599 16.9849 45.8399 16.9048 45.7999 16.8948C45.7799 16.8948 45.7599 16.8849 45.7199 16.8849H45.5199V17.1749H45.4299V16.4849ZM45.7299 16.7949C45.7299 16.7949 45.8099 16.7948 45.8299 16.7648C45.8499 16.7448 45.8699 16.7149 45.8699 16.6749C45.8699 16.6249 45.8499 16.5948 45.8199 16.5748C45.7999 16.5648 45.7799 16.5649 45.7499 16.5649H45.5299V16.7949H45.7399H45.7299Z" fill="white"/>
<path id="Vector_57" d="M28.66 31.1048H28.77V30.5148C28.77 30.3548 28.77 30.2348 28.78 30.1448C28.78 30.0548 28.81 29.9748 28.85 29.9148C28.89 29.8448 28.94 29.7948 29.02 29.7548C29.09 29.7148 29.17 29.6948 29.26 29.6948C29.38 29.6948 29.5 29.7448 29.6 29.8348C29.67 29.8948 29.71 29.9748 29.73 30.0648C29.75 30.1548 29.76 30.2848 29.76 30.4448V31.1048H30.12C30.26 31.1048 30.37 31.1348 30.44 31.2048C30.51 31.2748 30.55 31.3548 30.55 31.4548C30.55 31.5848 30.5 31.6748 30.39 31.7348C30.29 31.7848 30.14 31.8148 29.94 31.8148H29.76V33.6048C29.76 33.7548 29.76 33.8748 29.78 33.9548C29.79 34.0348 29.82 34.1048 29.87 34.1548C29.92 34.2048 29.99 34.2348 30.1 34.2348C30.16 34.2348 30.24 34.2348 30.33 34.2048C30.43 34.1848 30.51 34.1748 30.56 34.1748C30.64 34.1748 30.71 34.2048 30.77 34.2648C30.83 34.3248 30.87 34.4048 30.87 34.4948C30.87 34.6548 30.78 34.7748 30.61 34.8548C30.44 34.9348 30.19 34.9848 29.86 34.9848C29.55 34.9848 29.32 34.9348 29.16 34.8348C29 34.7348 28.9 34.5948 28.85 34.4048C28.8 34.2248 28.78 33.9848 28.78 33.6748V31.8048H28.65C28.51 31.8048 28.4 31.7748 28.33 31.7048C28.26 31.6348 28.22 31.5548 28.22 31.4548C28.22 31.3548 28.26 31.2648 28.34 31.2048C28.42 31.1348 28.53 31.1048 28.68 31.1048H28.66Z" fill="white"/>
<path id="Vector_58" d="M31.7795 30.5648C31.6395 30.5648 31.5295 30.5248 31.4295 30.4348C31.3295 30.3548 31.2795 30.2347 31.2795 30.0847C31.2795 29.9447 31.3295 29.8348 31.4295 29.7448C31.5295 29.6548 31.6495 29.6147 31.7795 29.6147C31.9095 29.6147 32.0195 29.6547 32.1195 29.7347C32.2195 29.8147 32.2695 29.9347 32.2695 30.0847C32.2695 30.2347 32.2195 30.3548 32.1295 30.4348C32.0295 30.5148 31.9195 30.5648 31.7895 30.5648H31.7795Z" fill="white"/>
<path id="Vector_59" d="M36.89 33.0045C36.89 33.2945 36.84 33.5644 36.75 33.8044C36.66 34.0544 36.53 34.2644 36.35 34.4344C36.18 34.6144 35.97 34.7444 35.73 34.8444C35.49 34.9344 35.22 34.9844 34.92 34.9844C34.62 34.9844 34.35 34.9344 34.12 34.8444C33.88 34.7444 33.68 34.6144 33.5 34.4344C33.33 34.2544 33.19 34.0444 33.1 33.8044C33.01 33.5644 32.97 33.2945 32.97 33.0045C32.97 32.7145 33.02 32.4345 33.11 32.1945C33.2 31.9445 33.33 31.7345 33.5 31.5645C33.67 31.3945 33.88 31.2544 34.12 31.1644C34.36 31.0744 34.63 31.0244 34.92 31.0244C35.21 31.0244 35.49 31.0744 35.73 31.1644C35.97 31.2644 36.18 31.3944 36.35 31.5744C36.52 31.7544 36.65 31.9644 36.74 32.2044C36.83 32.4444 36.87 32.7145 36.87 33.0045H36.89ZM35.95 33.0045C35.95 32.6045 35.86 32.2945 35.67 32.0645C35.48 31.8445 35.24 31.7244 34.92 31.7244C34.72 31.7244 34.54 31.7745 34.39 31.8745C34.24 31.9745 34.12 32.1245 34.03 32.3145C33.95 32.5045 33.9 32.7344 33.9 32.9944C33.9 33.2544 33.94 33.4744 34.02 33.6744C34.1 33.8644 34.22 34.0144 34.37 34.1144C34.52 34.2144 34.7 34.2644 34.91 34.2644C35.22 34.2644 35.47 34.1544 35.66 33.9244C35.85 33.6944 35.94 33.3844 35.94 32.9944L35.95 33.0045Z" fill="white"/>
<path id="Vector_60" d="M21.3792 33.0045C21.3792 33.2945 21.3292 33.5644 21.2392 33.8044C21.1492 34.0544 21.0192 34.2644 20.8392 34.4344C20.6692 34.6144 20.4592 34.7444 20.2192 34.8444C19.9792 34.9344 19.7092 34.9844 19.4092 34.9844C19.1092 34.9844 18.8392 34.9344 18.6092 34.8444C18.3792 34.7544 18.1692 34.6144 17.9892 34.4344C17.8192 34.2544 17.6792 34.0444 17.5892 33.8044C17.4992 33.5644 17.4592 33.2945 17.4592 33.0045C17.4592 32.7145 17.5092 32.4345 17.5992 32.1945C17.6892 31.9445 17.8192 31.7345 17.9892 31.5645C18.1592 31.3945 18.3692 31.2544 18.6092 31.1644C18.8492 31.0744 19.1192 31.0244 19.4092 31.0244C19.6992 31.0244 19.9792 31.0744 20.2192 31.1644C20.4592 31.2644 20.6692 31.3944 20.8392 31.5744C21.0092 31.7544 21.1392 31.9644 21.2292 32.2044C21.3192 32.4444 21.3692 32.7145 21.3692 33.0045H21.3792ZM20.4392 33.0045C20.4392 32.6045 20.3492 32.2945 20.1592 32.0645C19.9692 31.8345 19.7292 31.7244 19.4092 31.7244C19.2092 31.7244 19.0292 31.7745 18.8792 31.8745C18.7292 31.9745 18.6092 32.1245 18.5192 32.3145C18.4392 32.5045 18.3892 32.7344 18.3892 32.9944C18.3892 33.2544 18.4292 33.4744 18.5092 33.6744C18.5892 33.8644 18.7092 34.0144 18.8592 34.1144C19.0092 34.2144 19.1892 34.2644 19.3992 34.2644C19.7092 34.2644 19.9592 34.1544 20.1492 33.9244C20.3392 33.6944 20.4292 33.3844 20.4292 32.9944L20.4392 33.0045Z" fill="white"/>
<path id="Vector_61" d="M39.3901 30.9348C39.2001 30.9348 39.0301 30.9348 38.8601 30.9548C38.6901 30.9648 38.5301 30.9948 38.3801 31.0148C38.2101 31.0448 38.0701 31.0848 37.9301 31.1248C37.8601 31.1448 37.7801 31.1848 37.7201 31.2548C37.6701 31.3148 37.6301 31.3948 37.6301 31.4748V34.6548C37.6301 34.8348 37.7801 34.9748 37.9701 34.9748H38.2201C38.4101 34.9748 38.5601 34.8348 38.5601 34.6548V31.6848C38.5601 31.6848 38.5801 31.6248 38.6001 31.6148C38.7701 31.5548 38.9601 31.5148 39.3101 31.5148C39.6601 31.5148 39.8801 31.5948 40.0201 31.7648C40.1401 31.9048 40.1601 32.0948 40.1601 32.2148V34.6548C40.1601 34.8348 40.3101 34.9748 40.5001 34.9748H40.7501C40.9401 34.9748 41.0901 34.8348 41.0901 34.6548V32.2048C41.0901 32.0348 41.0501 31.6948 40.8001 31.4148C40.5101 31.0848 40.0301 30.9248 39.3601 30.9248L39.3901 30.9348Z" fill="white"/>
<path id="Vector_62" d="M25.8594 34.9848C26.0494 34.9848 26.2194 34.9848 26.3894 34.9648C26.5594 34.9548 26.7194 34.9248 26.8694 34.9048C27.0394 34.8748 27.1794 34.8348 27.3194 34.7948C27.3894 34.7748 27.4694 34.7348 27.5294 34.6648C27.5794 34.6048 27.6194 34.5248 27.6194 34.4448V31.2648C27.6194 31.0848 27.4694 30.9448 27.2794 30.9448H27.0294C26.8394 30.9448 26.6894 31.0848 26.6894 31.2648V34.2348C26.6894 34.2348 26.6694 34.2948 26.6494 34.3048C26.4694 34.3648 26.2894 34.4048 25.9394 34.4048C25.5894 34.4048 25.3694 34.3248 25.2294 34.1548C25.1094 34.0148 25.0894 33.8248 25.0894 33.7048V31.2648C25.0894 31.0848 24.9394 30.9448 24.7494 30.9448H24.4994C24.3094 30.9448 24.1594 31.0848 24.1594 31.2648V33.7148C24.1594 33.8848 24.1994 34.2248 24.4494 34.5048C24.7394 34.8348 25.2194 34.9948 25.8894 34.9948L25.8594 34.9848Z" fill="white"/>
<path id="Vector_63" d="M23.0497 29.6747C22.9697 29.6047 22.8497 29.5747 22.6497 29.5747C22.1997 29.5747 22.1497 29.8547 22.1497 29.9847V34.5747C22.1497 34.8047 22.3097 34.9948 22.4997 34.9948H22.7997C22.9897 34.9948 23.1497 34.8047 23.1497 34.5747V29.9547C23.1497 29.8847 23.1497 29.7647 23.0497 29.6747Z" fill="white"/>
<path id="Vector_64" d="M32.1795 31.1347C32.0995 31.0647 31.9795 31.0347 31.7795 31.0347C31.3295 31.0347 31.2795 31.3147 31.2795 31.4447V34.5746C31.2795 34.8046 31.4395 34.9947 31.6295 34.9947H31.9295C32.1195 34.9947 32.2795 34.8046 32.2795 34.5746V31.4147C32.2795 31.3447 32.2795 31.2247 32.1795 31.1347Z" fill="white"/>
<path id="Vector_65" d="M13.93 34.6346C13.64 34.4446 13.41 34.2146 13.23 33.9346C13.16 33.8246 13.14 33.7145 13.17 33.5845C13.2 33.4645 13.27 33.3646 13.38 33.2946C13.49 33.2246 13.61 33.2146 13.74 33.2446C13.87 33.2746 13.97 33.3445 14.03 33.4545C14.13 33.6145 14.27 33.7446 14.44 33.8546C14.63 33.9846 14.82 34.0446 15.01 34.0446C15.24 34.0446 15.43 33.9745 15.59 33.8345C15.75 33.6945 15.83 33.5345 15.83 33.3445C15.83 33.1545 15.76 33.0045 15.63 32.9045C15.51 32.8145 15.26 32.7246 14.87 32.6246C14.38 32.4946 14.02 32.3446 13.8 32.1946C13.41 31.9246 13.22 31.5345 13.22 31.0345C13.22 30.5845 13.39 30.2046 13.74 29.8846C14.09 29.5646 14.5 29.4146 14.99 29.4146C15.34 29.4146 15.67 29.5046 15.96 29.6846C16.25 29.8646 16.47 30.0945 16.61 30.3945C16.67 30.5145 16.67 30.6246 16.63 30.7546C16.59 30.8746 16.5 30.9545 16.38 31.0145C16.26 31.0645 16.14 31.0745 16.02 31.0245C15.9 30.9845 15.81 30.9045 15.75 30.7845C15.69 30.6545 15.59 30.5445 15.45 30.4645C15.31 30.3845 15.16 30.3445 14.99 30.3445C14.76 30.3445 14.57 30.4146 14.41 30.5546C14.25 30.6946 14.17 30.8546 14.17 31.0446C14.17 31.2346 14.23 31.3845 14.36 31.4745C14.47 31.5545 14.73 31.6446 15.12 31.7546C15.61 31.8946 15.97 32.0346 16.19 32.1846C16.58 32.4646 16.77 32.8546 16.77 33.3646C16.77 33.8146 16.6 34.1945 16.25 34.5145C15.9 34.8345 15.48 34.9846 15 34.9846C14.62 34.9846 14.25 34.8745 13.91 34.6445L13.93 34.6346Z" fill="white"/>
<path id="Vector_66" d="M42.3392 34.7446C42.1292 34.6046 41.9592 34.4346 41.8292 34.2346C41.7792 34.1546 41.7692 34.0746 41.7892 33.9846C41.8092 33.8946 41.8592 33.8245 41.9392 33.7745C42.0192 33.7245 42.1092 33.7146 42.1992 33.7346C42.2892 33.7546 42.3692 33.8046 42.4092 33.8846C42.4792 34.0046 42.5792 34.0946 42.7092 34.1746C42.8492 34.2646 42.9892 34.3146 43.1292 34.3146C43.2992 34.3146 43.4392 34.2646 43.5492 34.1646C43.6692 34.0646 43.7292 33.9446 43.7292 33.8046C43.7292 33.6646 43.6792 33.5546 43.5892 33.4846C43.5092 33.4246 43.3192 33.3545 43.0392 33.2745C42.6792 33.1745 42.4192 33.0745 42.2592 32.9545C41.9792 32.7545 41.8392 32.4746 41.8392 32.1046C41.8392 31.7746 41.9692 31.4945 42.2192 31.2645C42.4692 31.0345 42.7792 30.9146 43.1392 30.9146C43.3992 30.9146 43.6292 30.9846 43.8492 31.1046C44.0692 31.2346 44.2192 31.4046 44.3192 31.6246C44.3592 31.7046 44.3692 31.7946 44.3292 31.8846C44.2992 31.9746 44.2392 32.0345 44.1492 32.0745C44.0592 32.1145 43.9792 32.1145 43.8892 32.0845C43.7992 32.0545 43.7392 31.9945 43.6892 31.9045C43.6492 31.8045 43.5692 31.7346 43.4692 31.6746C43.3692 31.6146 43.2592 31.5845 43.1292 31.5845C42.9592 31.5845 42.8192 31.6346 42.6992 31.7346C42.5792 31.8346 42.5292 31.9545 42.5292 32.0945C42.5292 32.2345 42.5792 32.3445 42.6692 32.4045C42.7492 32.4645 42.9392 32.5346 43.2192 32.6046C43.5792 32.7046 43.8392 32.8046 43.9992 32.9246C44.2792 33.1246 44.4192 33.4145 44.4192 33.7845C44.4192 34.1145 44.2892 34.3946 44.0392 34.6246C43.7892 34.8546 43.4792 34.9745 43.1192 34.9745C42.8392 34.9745 42.5692 34.8945 42.3192 34.7245L42.3392 34.7446Z" fill="white" stroke="white" stroke-width="0.09" stroke-miterlimit="10"/>
</g>
<defs>
<linearGradient id="paint0_linear_1_11021" x1="14.7797" y1="46.1946" x2="73.4297" y2="-12.4454" gradientUnits="userSpaceOnUse">
<stop offset="0.1" stop-color="#2CA6DF"/>
<stop offset="0.21" stop-color="#2B79B5"/>
<stop offset="0.34" stop-color="#2B4F8C"/>
<stop offset="0.45" stop-color="#2B3473"/>
<stop offset="0.51" stop-color="#2B2B6A"/>
</linearGradient>
<radialGradient id="paint1_radial_1_11021" cx="0" cy="0" r="1" gradientUnits="userSpaceOnUse" gradientTransform="translate(52.7194 31.4046) scale(33.55 134.2)">
<stop stop-color="#01A3CD"/>
<stop offset="0.1" stop-color="#0FA8CF" stop-opacity="0.94"/>
<stop offset="0.29" stop-color="#36B6D7" stop-opacity="0.79"/>
<stop offset="0.54" stop-color="#76CDE4" stop-opacity="0.54"/>
<stop offset="0.84" stop-color="#CDECF5" stop-opacity="0.2"/>
<stop offset="1" stop-color="white" stop-opacity="0"/>
</radialGradient>
<radialGradient id="paint2_radial_1_11021" cx="0" cy="0" r="1" gradientUnits="userSpaceOnUse" gradientTransform="translate(0.349854 20.3645) scale(0.160156 0.15999)">
<stop stop-color="#1E76BA" stop-opacity="0.9"/>
<stop offset="1" stop-color="#1E76BA"/>
</radialGradient>
<radialGradient id="paint3_radial_1_11021" cx="0" cy="0" r="1" gradientUnits="userSpaceOnUse" gradientTransform="translate(44.1993 30.6346) scale(30.15 30.15)">
<stop stop-color="white" stop-opacity="0"/>
<stop offset="0.12" stop-color="#DEF1F6" stop-opacity="0.14"/>
<stop offset="0.43" stop-color="#8CCEDF" stop-opacity="0.51"/>
<stop offset="0.69" stop-color="#4FB5CE" stop-opacity="0.77"/>
<stop offset="0.89" stop-color="#2AA5C3" stop-opacity="0.94"/>
<stop offset="1" stop-color="#1CA0C0"/>
</radialGradient>
</defs>
</svg>
