<svg width="170" height="49" viewBox="0 0 170 49" fill="none" xmlns="http://www.w3.org/2000/svg">
<g id="Group 1171275655">
<path id="Vector" d="M169.276 0.635254H0.955688V45.7553H169.276V0.635254Z" fill="#26328C"/>
<path id="Vector_2" d="M169.276 38.0352H0.955688V48.3651H169.276V38.0352Z" fill="#BF388C"/>
<path id="Vector_3" d="M3.48596 32.4954C4.25596 32.4654 4.81594 32.3654 5.15594 32.1754C5.71594 31.8654 6.00598 31.2854 6.00598 30.4154V16.0854C6.00598 15.2154 5.73598 14.6253 5.19598 14.3253C4.87598 14.1453 4.30596 14.0254 3.48596 13.9754V13.2354H13.546V13.9754C12.366 14.0154 11.586 14.1854 11.196 14.4854C10.806 14.7854 10.616 15.5254 10.616 16.7054V30.6754C10.616 31.3254 10.786 31.7654 11.116 31.9754C11.446 32.1854 12.1059 32.2953 13.0859 32.2953C14.8259 32.2953 16.286 31.9054 17.476 31.1154C18.666 30.3354 19.6859 28.7954 20.5359 26.5254H21.386L20.226 33.2454H3.48596V32.5054V32.4954Z" fill="white"/>
<path id="Vector_4" d="M23.0553 32.4954C23.8653 32.4754 24.4553 32.3754 24.8253 32.1854C25.4053 31.8754 25.6953 31.2754 25.6953 30.3854V16.0753C25.6953 15.1953 25.4153 14.6054 24.8653 14.3054C24.5253 14.1254 23.9153 14.0154 23.0553 13.9754V13.2354H33.1953V13.9754C32.2853 14.0154 31.6653 14.1153 31.3153 14.2953C30.7553 14.5953 30.4753 15.1854 30.4753 16.0854V30.3954C30.4753 31.2354 30.7053 31.7953 31.1553 32.0753C31.6053 32.3553 32.2853 32.4954 33.1953 32.4954V33.2354H23.0553V32.4954Z" fill="white"/>
<path id="Vector_5" d="M34.6058 32.4954C35.4358 32.4654 36.0359 32.3554 36.3859 32.1454C36.9259 31.8354 37.1959 31.2554 37.1959 30.4054V16.0753C37.1959 15.2153 36.9258 14.6354 36.3958 14.3354C36.0658 14.1554 35.4658 14.0354 34.5958 13.9754V13.2354H51.0858V19.2154H50.3458C49.9858 17.3654 49.3858 16.0754 48.5358 15.3354C47.6858 14.5954 46.1159 14.2254 43.8159 14.2254C42.9659 14.2254 42.4259 14.3254 42.1959 14.5254C41.9659 14.7254 41.8458 15.0954 41.8458 15.6354V22.5154C43.4258 22.5454 44.4858 22.2154 45.0458 21.5254C45.5958 20.8354 46.0158 19.7354 46.2958 18.2254H47.0358V28.0854H46.2958C46.1058 26.4954 45.7058 25.3353 45.0958 24.6053C44.4958 23.8753 43.4058 23.5154 41.8358 23.5154V30.4254C41.8358 31.3454 42.0958 31.9254 42.6158 32.1654C43.1358 32.4154 43.9359 32.5254 45.0059 32.5054V33.2454H34.5758V32.5054L34.6058 32.4954Z" fill="white"/>
<path id="Vector_6" d="M52.6256 33.2451V32.5051C53.4556 32.4751 54.0556 32.3651 54.4156 32.1551C54.9556 31.8451 55.2256 31.2651 55.2256 30.4051V16.0951C55.2256 15.2251 54.9456 14.6351 54.3856 14.3351C54.0556 14.1551 53.4756 14.0351 52.6256 13.9851V13.2451H69.3656V19.2251H68.6256C68.2456 17.3151 67.6256 16.0051 66.7456 15.2951C65.8656 14.5851 64.2556 14.2351 61.9256 14.2351C61.0456 14.2351 60.4856 14.3251 60.2456 14.5151C60.0056 14.7051 59.8856 15.0751 59.8856 15.6451V22.5251C61.5356 22.5451 62.6556 22.2451 63.2356 21.6251C63.8156 21.0051 64.2656 19.8751 64.5856 18.2351H65.3256V28.0951H64.5856C64.3756 26.4151 63.9456 25.2351 63.3156 24.5451C62.6856 23.8651 61.5356 23.5151 59.8856 23.5151V30.6851C59.8856 31.3151 60.0456 31.7351 60.3556 31.9651C60.6756 32.1951 61.3256 32.3051 62.3056 32.3051C64.1556 32.3051 65.6656 31.9451 66.8456 31.2151C68.0156 30.4851 69.0556 29.1151 69.9656 27.1151H70.7656L69.6156 33.2551H52.6256V33.2451Z" fill="white"/>
<path id="Vector_7" d="M123.726 25.0854L123.306 25.2254C123.306 25.2254 123.256 25.2154 123.256 25.1754C123.006 25.1154 122.846 25.0654 122.786 25.0354L120.676 24.0154C120.986 23.5954 121.516 23.1454 122.266 22.6854C123.106 22.1354 123.846 21.8554 124.466 21.8554C125.466 21.8554 125.966 22.3654 125.966 23.3754C125.966 23.7154 125.886 24.0354 125.736 24.3454L123.726 25.0854ZM121.796 27.5554L123.526 28.2054H135.076V25.4054H127.086C128.386 24.1154 129.026 22.9654 129.026 21.9454C129.026 21.2454 128.716 20.6054 128.116 20.0554C127.506 19.5054 126.676 19.2254 125.616 19.2254C123.776 19.2254 121.406 20.5454 118.496 23.1954C117.586 24.0254 117.136 24.6554 117.136 25.0854C117.136 25.2054 117.166 25.3154 117.236 25.4054H106.436C105.286 25.4054 104.476 25.3954 104.006 25.3554C101.986 25.2054 100.976 24.3254 100.976 22.7154C100.976 22.1654 101.126 21.4654 101.446 20.6354C99.8861 22.0954 99.1061 23.5854 99.1061 25.0754C99.1061 26.3554 99.8261 27.2754 101.256 27.8354C101.756 28.0254 102.206 28.1354 102.616 28.1654C102.646 28.1654 103.146 28.1854 104.116 28.2154H120.476L121.826 27.5654L121.796 27.5554ZM123.896 13.7754L121.556 15.1354L124.436 16.8154L126.656 15.4954L123.896 13.7854V13.7754Z" fill="white"/>
<path id="Vector_8" d="M133.216 25.4051H141.156C141.156 24.3251 140.586 23.2851 139.426 22.2951L141.856 20.2051C143.286 21.2651 144.006 22.4051 144.006 23.6251C144.006 24.3451 143.676 25.2651 143.026 26.3851C142.896 26.6351 142.726 26.9651 142.506 27.3651C142.476 27.3951 142.276 27.6751 141.896 28.2051H133.206V25.4051H133.216ZM135.706 31.9651L138.036 30.6451L139.816 31.6751L141.776 30.6051L144.536 32.2951L142.186 33.5751L140.416 32.5551L138.496 33.5751L135.706 31.9751V31.9651Z" fill="white"/>
<path id="Vector_9" d="M159.916 24.7153C160.066 24.8653 160.146 25.0053 160.146 25.1253L160.056 25.4053H151.786L151.876 25.2253L154.536 23.7553L156.966 22.1853L159.916 24.7153ZM164.396 17.0853L166.736 15.1153L164.116 13.8153C163.336 13.4153 162.946 13.0453 162.946 12.7053L163.036 12.1953L161.026 13.4553L160.136 14.0653C159.916 14.1853 159.806 14.3553 159.806 14.5753C159.806 14.8253 160.066 15.0853 160.596 15.3653C159.906 16.7553 158.736 18.1253 157.086 19.4553L156.756 19.1253C155.136 17.6953 153.936 16.6653 153.156 16.0353C152.066 15.2253 150.976 14.4653 149.886 13.7453C149.356 13.4353 148.886 13.2753 148.486 13.2753C148.116 13.2753 147.686 13.5353 147.226 14.0653C146.576 14.8153 146.246 15.3853 146.246 15.7953C146.246 16.3853 146.896 17.1053 148.206 17.9453C148.456 18.0953 148.736 18.1753 149.046 18.1753C149.446 18.1753 149.796 17.9753 150.076 17.5653C151.196 18.1253 152.116 18.6553 152.836 19.1553L155.316 20.9353C154.506 21.5853 153.536 22.2453 152.416 22.8953C151.446 23.4853 150.326 24.1253 149.056 24.8153L148.306 27.8053L148.166 28.1753H160.966L161.996 26.4453C162.336 25.8553 162.506 25.3853 162.506 25.0453C162.506 24.6453 162.316 24.2553 161.946 23.8753L158.856 20.8853L159.186 20.6553C160.246 19.8753 161.006 19.2653 161.476 18.8353L163.396 16.9653L163.626 16.6853L164.376 17.0553L164.396 17.0853Z" fill="white"/>
<path id="Vector_10" d="M92.3353 9.67509L85.2653 2.9751L78.4453 9.6151C78.4453 9.6151 74.9853 12.5751 74.0153 16.0751C75.6653 16.8651 81.7053 20.1451 81.7053 26.1651C81.7053 29.4651 81.7753 35.6651 81.7853 36.5251H85.4553C85.3553 35.8951 84.2153 28.4851 83.1653 24.4951C82.0653 20.3351 79.6953 16.4851 79.6953 16.4851C79.6953 16.4851 80.6853 17.4351 80.7553 17.1951C80.8253 16.9451 80.9653 16.7351 80.9653 16.7351L81.0353 17.7651C81.0353 17.7651 82.3753 20.7251 85.1353 20.7651C87.8953 20.8051 89.3053 17.9451 89.3053 17.9451L89.3353 16.8851C89.3353 16.8851 89.4753 17.0251 89.6153 17.2051C89.7553 17.3851 90.6053 16.5651 90.6053 16.5651C90.6053 16.5651 89.0853 18.8251 87.7753 24.2251C86.5253 29.3851 85.5353 35.9451 85.4553 36.5351H89.0053C89.0053 35.6751 89.0853 29.4751 89.0853 26.1751C89.0853 20.0351 95.3753 16.7351 96.8653 16.0451C96.1053 13.1651 92.3353 9.69511 92.3353 9.69511M85.2553 19.7451C84.7653 19.7451 84.3553 19.1651 84.3553 18.4451C84.3553 17.7251 84.7653 17.1351 85.2553 17.1351C85.7453 17.1351 86.1553 17.7251 86.1553 18.4451C86.1553 19.1651 85.7553 19.7451 85.2553 19.7451Z" fill="white"/>
<path id="Vector_11" d="M89.8453 36.5252H97.0054V17.6152C95.7154 18.1852 89.8453 21.1652 89.8453 27.8952V36.5252Z" fill="white"/>
<path id="Vector_12" d="M73.7555 17.8152V36.5252H80.9355V27.8952C80.9355 21.1652 75.0555 18.1852 73.7755 17.6152C73.7755 17.6852 73.7654 17.7452 73.7654 17.8052" fill="white"/>
<path id="Vector_13" d="M8.26526 44.5652L8.10529 46.0652H4.3053V45.9452H4.44531C4.56531 45.9452 4.6653 45.9252 4.7453 45.8752C4.7953 45.8452 4.84531 45.7952 4.87531 45.7252C4.89531 45.6752 4.90527 45.5451 4.90527 45.3251V42.5151C4.90527 42.2951 4.89531 42.1551 4.87531 42.1051C4.85531 42.0551 4.80529 42.0051 4.73529 41.9651C4.66529 41.9251 4.56531 41.9052 4.44531 41.9052H4.3053V41.7852H6.58527V41.9052H6.39526C6.27526 41.9052 6.17528 41.9252 6.09528 41.9752C6.04528 42.0052 5.99527 42.0552 5.96527 42.1252C5.94527 42.1752 5.9353 42.3051 5.9353 42.5251V45.2552C5.9353 45.4752 5.94528 45.6151 5.97528 45.6751C6.00528 45.7351 6.04531 45.7751 6.12531 45.8051C6.17531 45.8251 6.30531 45.8351 6.50531 45.8351H6.8653C7.0953 45.8351 7.2853 45.7951 7.4353 45.7151C7.5853 45.6351 7.71526 45.5051 7.82526 45.3351C7.93526 45.1651 8.04532 44.9051 8.13531 44.5751H8.26526V44.5652Z" fill="white"/>
<path id="Vector_14" d="M9.8656 43.1151V45.455C9.8656 45.665 9.88561 45.795 9.93561 45.855C9.98561 45.915 10.0756 45.945 10.2156 45.955V46.0651H8.62561V45.955C8.75561 45.955 8.85559 45.9151 8.91559 45.8451C8.95559 45.7951 8.97559 45.6651 8.97559 45.4651V43.7451C8.97559 43.5351 8.95558 43.4051 8.90558 43.3451C8.85558 43.2851 8.76561 43.2551 8.62561 43.2451V43.1251H9.8656V43.1151ZM9.4256 41.6851C9.5656 41.6851 9.67557 41.735 9.77557 41.825C9.86557 41.925 9.91559 42.035 9.91559 42.175C9.91559 42.315 9.86557 42.425 9.77557 42.515C9.67557 42.605 9.5656 42.6551 9.4256 42.6551C9.2856 42.6551 9.17557 42.605 9.08557 42.515C8.99557 42.425 8.94562 42.305 8.94562 42.175C8.94562 42.045 8.99557 41.925 9.08557 41.825C9.17557 41.725 9.2956 41.6851 9.4256 41.6851Z" fill="white"/>
<path id="Vector_15" d="M11.806 43.4253V45.4753C11.806 45.6753 11.826 45.7953 11.866 45.8453C11.936 45.9253 12.056 45.9553 12.236 45.9553V46.0653H10.496V45.9553C10.626 45.9553 10.7259 45.9353 10.7759 45.9053C10.8359 45.8753 10.866 45.8353 10.886 45.7853C10.906 45.7353 10.916 45.6253 10.916 45.4653V43.4153H10.486V43.1053H10.916V42.7353C10.916 42.4353 11.026 42.1753 11.246 41.9753C11.466 41.7753 11.7659 41.6753 12.1459 41.6753C12.4059 41.6753 12.596 41.7253 12.726 41.8253C12.856 41.9253 12.916 42.0253 12.916 42.1453C12.916 42.2353 12.876 42.3253 12.796 42.3953C12.716 42.4653 12.616 42.4953 12.486 42.4953C12.376 42.4953 12.286 42.4653 12.226 42.4053C12.166 42.3453 12.126 42.2853 12.126 42.2153C12.126 42.1953 12.1259 42.1553 12.1459 42.0953C12.1459 42.0553 12.1559 42.0253 12.1559 41.9953C12.1559 41.9553 12.146 41.9153 12.116 41.8953C12.086 41.8653 12.046 41.8453 11.996 41.8453C11.936 41.8453 11.8859 41.8753 11.8459 41.9253C11.8059 41.9753 11.7859 42.0553 11.7859 42.1653V42.7153V43.0953H12.226V43.4053H11.7859L11.806 43.4253Z" fill="white"/>
<path id="Vector_16" d="M15.1659 44.4851H13.5459C13.5659 44.8751 13.6659 45.1852 13.8559 45.4152C13.9959 45.5852 14.1759 45.6751 14.3759 45.6751C14.5059 45.6751 14.6159 45.6352 14.7159 45.5652C14.8159 45.4952 14.9259 45.3652 15.0459 45.1852L15.1559 45.2552C14.9959 45.5852 14.8159 45.8152 14.6259 45.9452C14.4359 46.0852 14.2059 46.1451 13.9559 46.1451C13.5159 46.1451 13.1859 45.9751 12.9659 45.6451C12.7859 45.3751 12.6959 45.0352 12.6959 44.6352C12.6959 44.1452 12.8259 43.7551 13.0959 43.4551C13.3659 43.1551 13.6759 43.0151 14.0359 43.0151C14.3359 43.0151 14.5959 43.1352 14.8159 43.3852C15.0359 43.6352 15.1559 43.9952 15.1759 44.4752L15.1659 44.4851ZM14.3859 44.2751C14.3859 43.9351 14.3659 43.7051 14.3259 43.5751C14.2859 43.4451 14.2359 43.3552 14.1559 43.2852C14.1159 43.2452 14.0559 43.2252 13.9759 43.2252C13.8659 43.2252 13.7759 43.2752 13.7059 43.3852C13.5859 43.5752 13.5159 43.8252 13.5159 44.1552V44.2651H14.3759L14.3859 44.2751Z" fill="white"/>
<path id="Vector_17" d="M18.696 44.0052V45.3351C18.696 45.5551 18.706 45.6951 18.736 45.7451C18.756 45.8051 18.806 45.8452 18.876 45.8852C18.946 45.9252 19.046 45.9452 19.166 45.9452H19.306V46.0652H17.066V45.9452H17.206C17.326 45.9452 17.426 45.9252 17.506 45.8752C17.556 45.8452 17.606 45.7952 17.636 45.7252C17.656 45.6752 17.666 45.5451 17.666 45.3251V42.5151C17.666 42.2951 17.656 42.1551 17.636 42.1051C17.616 42.0551 17.566 42.0051 17.496 41.9651C17.426 41.9251 17.326 41.9052 17.206 41.9052H17.066V41.7852H19.306V41.9052H19.166C19.046 41.9052 18.946 41.9252 18.866 41.9752C18.816 42.0052 18.766 42.0552 18.736 42.1252C18.716 42.1752 18.696 42.3051 18.696 42.5251V43.7351H20.206V42.5251C20.206 42.3051 20.196 42.1651 20.176 42.1151C20.156 42.0651 20.106 42.0152 20.036 41.9752C19.966 41.9352 19.866 41.9152 19.746 41.9152H19.606V41.7951H21.836V41.9152H21.696C21.566 41.9152 21.466 41.9351 21.396 41.9851C21.346 42.0151 21.296 42.0652 21.266 42.1352C21.246 42.1852 21.226 42.3152 21.226 42.5352V45.3452C21.226 45.5652 21.236 45.7052 21.266 45.7552C21.286 45.8152 21.336 45.8551 21.406 45.8951C21.476 45.9351 21.576 45.9551 21.696 45.9551H21.836V46.0751H19.606V45.9551H19.746C19.876 45.9551 19.976 45.9352 20.046 45.8852C20.106 45.8552 20.146 45.8051 20.176 45.7351C20.196 45.6851 20.206 45.5551 20.206 45.3351V44.0052H18.696Z" fill="white"/>
<path id="Vector_18" d="M23.5662 43.0251C23.8262 43.0251 24.0661 43.0952 24.2861 43.2252C24.5061 43.3552 24.6761 43.5452 24.7861 43.7852C24.8961 44.0252 24.9561 44.2951 24.9561 44.5851C24.9561 45.0051 24.8462 45.3552 24.6362 45.6352C24.3762 45.9752 24.0261 46.1451 23.5761 46.1451C23.1261 46.1451 22.7861 45.9851 22.5461 45.6751C22.3061 45.3651 22.1862 45.0052 22.1862 44.5952C22.1862 44.1852 22.3062 43.8051 22.5562 43.4851C22.8062 43.1751 23.1362 43.0151 23.5662 43.0151V43.0251ZM23.5761 43.2451C23.4661 43.2451 23.3761 43.2851 23.2961 43.3651C23.2161 43.4451 23.1661 43.6052 23.1461 43.8452C23.1261 44.0852 23.1061 44.4152 23.1061 44.8452C23.1061 45.0752 23.1161 45.2852 23.1461 45.4752C23.1661 45.6252 23.2161 45.7352 23.2961 45.8152C23.3761 45.8952 23.4562 45.9352 23.5562 45.9352C23.6562 45.9352 23.7261 45.9051 23.7961 45.8551C23.8761 45.7851 23.9361 45.6851 23.9561 45.5551C23.9961 45.3551 24.0161 44.9552 24.0161 44.3452C24.0161 43.9852 23.9961 43.7451 23.9561 43.6051C23.9161 43.4751 23.8561 43.3752 23.7761 43.3152C23.7261 43.2752 23.6462 43.2451 23.5662 43.2451H23.5761Z" fill="white"/>
<path id="Vector_19" d="M26.6259 43.1151V43.5052C26.7859 43.3252 26.9359 43.2052 27.0759 43.1352C27.2159 43.0652 27.3659 43.0251 27.5259 43.0251C27.7159 43.0251 27.8759 43.0652 28.0059 43.1552C28.1359 43.2452 28.2359 43.3751 28.3059 43.5551C28.4759 43.3651 28.6359 43.2251 28.7859 43.1451C28.9359 43.0651 29.1059 43.0151 29.2659 43.0151C29.4659 43.0151 29.6359 43.0652 29.7559 43.1552C29.8759 43.2452 29.9659 43.3651 30.0059 43.5151C30.0559 43.6551 30.0759 43.8851 30.0759 44.2051V45.4152C30.0759 45.6452 30.0959 45.7851 30.1359 45.8351C30.1759 45.8851 30.2659 45.9252 30.3959 45.9452V46.0551H28.8759V45.9452C28.9959 45.9352 29.0859 45.8851 29.1359 45.8051C29.1759 45.7451 29.1959 45.6152 29.1959 45.4152V44.1451C29.1959 43.8851 29.1859 43.7151 29.1659 43.6451C29.1459 43.5751 29.1159 43.5251 29.0659 43.4851C29.0159 43.4451 28.9659 43.4352 28.9059 43.4352C28.8159 43.4352 28.7259 43.4652 28.6359 43.5352C28.5459 43.6052 28.4459 43.7051 28.3559 43.8351V45.4152C28.3559 45.6252 28.3759 45.7652 28.4059 45.8152C28.4559 45.8952 28.5459 45.9352 28.6859 45.9452V46.0551H27.1559V45.9452C27.2359 45.9452 27.3059 45.9252 27.3459 45.8852C27.3959 45.8452 27.4259 45.8052 27.4359 45.7552C27.4559 45.7052 27.4559 45.5952 27.4559 45.4152V44.1451C27.4559 43.8751 27.4459 43.7151 27.4259 43.6451C27.4059 43.5751 27.3659 43.5251 27.3159 43.4851C27.2659 43.4451 27.2159 43.4251 27.1559 43.4251C27.0759 43.4251 26.9959 43.4451 26.9259 43.4951C26.8259 43.5551 26.7259 43.6751 26.6059 43.8251V45.4052C26.6059 45.6152 26.6259 45.7552 26.6659 45.8152C26.7059 45.8852 26.7959 45.9252 26.9259 45.9352V46.0451H25.4059V45.9352C25.5259 45.9252 25.6159 45.8852 25.6759 45.8152C25.7159 45.7652 25.7259 45.6352 25.7259 45.4052V43.7351C25.7259 43.5151 25.7059 43.3752 25.6659 43.3152C25.6259 43.2552 25.5359 43.2251 25.4059 43.2051V43.0851H26.6059L26.6259 43.1151Z" fill="white"/>
<path id="Vector_20" d="M33.286 44.4851H31.666C31.686 44.8751 31.786 45.1852 31.976 45.4152C32.126 45.5852 32.296 45.6751 32.496 45.6751C32.626 45.6751 32.736 45.6352 32.836 45.5652C32.936 45.4952 33.046 45.3652 33.166 45.1852L33.276 45.2552C33.116 45.5852 32.936 45.8152 32.746 45.9452C32.556 46.0852 32.326 46.1451 32.076 46.1451C31.636 46.1451 31.306 45.9751 31.086 45.6451C30.906 45.3751 30.816 45.0352 30.816 44.6352C30.816 44.1452 30.946 43.7551 31.216 43.4551C31.486 43.1651 31.796 43.0151 32.156 43.0151C32.456 43.0151 32.716 43.1352 32.936 43.3852C33.156 43.6352 33.276 43.9952 33.296 44.4752L33.286 44.4851ZM32.506 44.2751C32.506 43.9351 32.486 43.7051 32.446 43.5751C32.406 43.4451 32.356 43.3552 32.276 43.2852C32.236 43.2452 32.176 43.2252 32.096 43.2252C31.986 43.2252 31.896 43.2752 31.826 43.3852C31.706 43.5752 31.636 43.8252 31.636 44.1552V44.2651H32.496L32.506 44.2751Z" fill="white"/>
<path id="Vector_21" d="M36.8259 44.0052V45.3351C36.8259 45.5551 36.8359 45.6951 36.8659 45.7451C36.8859 45.8051 36.9359 45.8452 37.0059 45.8852C37.0759 45.9252 37.1759 45.9452 37.2959 45.9452H37.4359V46.0652H35.1959V45.9452H35.3359C35.4559 45.9452 35.5559 45.9252 35.6359 45.8752C35.6859 45.8452 35.7359 45.7952 35.7659 45.7252C35.7859 45.6752 35.8059 45.5451 35.8059 45.3251V42.5151C35.8059 42.2951 35.7959 42.1551 35.7659 42.1051C35.7459 42.0551 35.6959 42.0051 35.6259 41.9651C35.5559 41.9251 35.4559 41.9052 35.3359 41.9052H35.1959V41.7852H37.4359V41.9052H37.2959C37.1759 41.9052 37.0759 41.9252 36.9959 41.9752C36.9459 42.0052 36.8959 42.0552 36.8659 42.1252C36.8459 42.1752 36.8359 42.3051 36.8359 42.5251V43.7351H38.3459V42.5251C38.3459 42.3051 38.3359 42.1651 38.3059 42.1151C38.2859 42.0651 38.2359 42.0152 38.1659 41.9752C38.0959 41.9352 37.9959 41.9152 37.8759 41.9152H37.7359V41.7951H39.9659V41.9152H39.8259C39.6959 41.9152 39.5959 41.9351 39.5259 41.9851C39.4759 42.0151 39.4259 42.0652 39.3959 42.1352C39.3759 42.1852 39.3559 42.3152 39.3559 42.5352V45.3452C39.3559 45.5652 39.3659 45.7052 39.3959 45.7552C39.4159 45.8152 39.4659 45.8551 39.5359 45.8951C39.6059 45.9351 39.7059 45.9551 39.8259 45.9551H39.9659V46.0751H37.7359V45.9551H37.8759C38.0059 45.9551 38.1059 45.9352 38.1759 45.8852C38.2259 45.8552 38.2759 45.8051 38.3059 45.7351C38.3259 45.6851 38.3459 45.5551 38.3459 45.3351V44.0052H36.8359H36.8259Z" fill="white"/>
<path id="Vector_22" d="M42.7958 44.4851H41.1758C41.1958 44.8751 41.2958 45.1852 41.4858 45.4152C41.6358 45.5852 41.8059 45.6751 42.0059 45.6751C42.1359 45.6751 42.2458 45.6352 42.3458 45.5652C42.4458 45.4952 42.5558 45.3652 42.6758 45.1852L42.7858 45.2552C42.6258 45.5852 42.4459 45.8152 42.2559 45.9452C42.0659 46.0852 41.8358 46.1451 41.5858 46.1451C41.1458 46.1451 40.8158 45.9751 40.5958 45.6451C40.4158 45.3751 40.3258 45.0352 40.3258 44.6352C40.3258 44.1452 40.4558 43.7551 40.7258 43.4551C40.9958 43.1551 41.3058 43.0151 41.6658 43.0151C41.9658 43.0151 42.2259 43.1352 42.4459 43.3852C42.6659 43.6352 42.7858 43.9952 42.8058 44.4752L42.7958 44.4851ZM42.0158 44.2751C42.0158 43.9351 41.9958 43.7051 41.9558 43.5751C41.9158 43.4451 41.8658 43.3552 41.7858 43.2852C41.7458 43.2452 41.6858 43.2252 41.6058 43.2252C41.4958 43.2252 41.4058 43.2752 41.3358 43.3852C41.2158 43.5752 41.1458 43.8252 41.1458 44.1552V44.2651H42.0059L42.0158 44.2751Z" fill="white"/>
<path id="Vector_23" d="M44.796 45.6254C44.436 45.9454 44.1159 46.1053 43.8259 46.1053C43.6559 46.1053 43.5159 46.0454 43.4059 45.9354C43.2959 45.8254 43.236 45.6854 43.236 45.5154C43.236 45.2854 43.3359 45.0854 43.5259 44.9054C43.7159 44.7254 44.146 44.4854 44.796 44.1854V43.8854C44.796 43.6654 44.786 43.5254 44.756 43.4654C44.736 43.4054 44.686 43.3554 44.616 43.3154C44.546 43.2754 44.476 43.2554 44.386 43.2554C44.246 43.2554 44.136 43.2854 44.046 43.3454C43.996 43.3854 43.9659 43.4254 43.9659 43.4754C43.9659 43.5154 43.996 43.5754 44.056 43.6354C44.136 43.7254 44.176 43.8154 44.176 43.8954C44.176 43.9954 44.136 44.0854 44.056 44.1554C43.976 44.2254 43.876 44.2654 43.756 44.2654C43.626 44.2654 43.516 44.2254 43.426 44.1454C43.336 44.0654 43.296 43.9754 43.296 43.8654C43.296 43.7154 43.356 43.5654 43.476 43.4354C43.596 43.2954 43.766 43.1954 43.976 43.1154C44.186 43.0454 44.4159 43.0054 44.6459 43.0054C44.9259 43.0054 45.146 43.0654 45.306 43.1854C45.466 43.3054 45.576 43.4353 45.626 43.5753C45.656 43.6653 45.666 43.8654 45.666 44.1854V45.3354C45.666 45.4654 45.666 45.5554 45.686 45.5854C45.696 45.6154 45.716 45.6454 45.736 45.6654C45.756 45.6854 45.786 45.6954 45.806 45.6954C45.856 45.6954 45.916 45.6553 45.976 45.5753L46.066 45.6554C45.956 45.8154 45.856 45.9254 45.736 45.9954C45.626 46.0654 45.496 46.1053 45.356 46.1053C45.186 46.1053 45.0559 46.0654 44.9659 45.9854C44.8759 45.9054 44.816 45.7854 44.796 45.6254ZM44.796 45.3954V44.4054C44.546 44.5554 44.356 44.7154 44.226 44.8854C44.146 44.9954 44.106 45.1154 44.106 45.2254C44.106 45.3254 44.1359 45.4054 44.2059 45.4854C44.2559 45.5454 44.336 45.5753 44.426 45.5753C44.536 45.5753 44.656 45.5154 44.796 45.3954Z" fill="white"/>
<path id="Vector_24" d="M47.556 41.7852V45.4551C47.556 45.6651 47.576 45.7951 47.626 45.8551C47.676 45.9151 47.766 45.9451 47.906 45.9551V46.0652H46.316V45.9551C46.446 45.9551 46.546 45.9152 46.606 45.8452C46.646 45.7952 46.666 45.6651 46.666 45.4651V42.4152C46.666 42.2052 46.646 42.0751 46.596 42.0151C46.546 41.9551 46.456 41.9252 46.316 41.9152V41.7951H47.556V41.7852Z" fill="white"/>
<path id="Vector_25" d="M49.3654 42.0352V43.1151H50.0654V43.4251H49.3654V45.2451C49.3654 45.4151 49.3654 45.5251 49.3854 45.5751C49.4054 45.6251 49.4253 45.6652 49.4653 45.6952C49.5053 45.7252 49.5453 45.7451 49.5753 45.7451C49.7153 45.7451 49.8453 45.6452 49.9653 45.4352L50.0554 45.5052C49.8854 45.9052 49.6053 46.1151 49.2253 46.1151C49.0353 46.1151 48.8754 46.0651 48.7554 45.9551C48.6254 45.8551 48.5454 45.7351 48.5054 45.6051C48.4854 45.5351 48.4753 45.3351 48.4753 45.0251V43.4352H48.0953V43.3251C48.3653 43.1351 48.5853 42.9451 48.7753 42.7351C48.9653 42.5251 49.1253 42.2951 49.2653 42.0451H49.3654V42.0352Z" fill="white"/>
<path id="Vector_26" d="M51.5556 41.7854V43.4954C51.7156 43.3254 51.8656 43.2054 51.9956 43.1354C52.1256 43.0654 52.2656 43.0254 52.4156 43.0254C52.5956 43.0254 52.7556 43.0754 52.8856 43.1854C53.0156 43.2954 53.1056 43.4154 53.1456 43.5554C53.1856 43.6954 53.2056 43.9354 53.2056 44.2754V45.4254C53.2056 45.6554 53.2256 45.7954 53.2656 45.8454C53.3056 45.9054 53.3956 45.9354 53.5256 45.9554V46.0654H52.0256V45.9554C52.1256 45.9454 52.2056 45.8953 52.2656 45.8253C52.3056 45.7753 52.3256 45.6354 52.3256 45.4254V44.1053C52.3256 43.8653 52.3256 43.7054 52.2956 43.6454C52.2756 43.5854 52.2456 43.5354 52.1956 43.4954C52.1456 43.4654 52.0956 43.4454 52.0456 43.4454C51.9656 43.4454 51.8756 43.4754 51.7956 43.5354C51.7156 43.5954 51.6256 43.6954 51.5356 43.8354V45.4154C51.5356 45.6254 51.5556 45.7554 51.5856 45.8054C51.6256 45.8754 51.7056 45.9254 51.8356 45.9354V46.0453H50.3356V45.9354C50.4556 45.9254 50.5456 45.8854 50.6056 45.8154C50.6456 45.7654 50.6556 45.6354 50.6556 45.4054V42.4054C50.6556 42.1854 50.6356 42.0454 50.5956 41.9854C50.5556 41.9354 50.4656 41.8954 50.3356 41.8754V41.7554H51.5356L51.5556 41.7854Z" fill="white"/>
<path id="Vector_27" d="M59.6553 41.6853V43.1653H59.5353C59.4453 42.7753 59.2753 42.4853 59.0153 42.2753C58.7653 42.0653 58.4753 41.9653 58.1553 41.9653C57.8853 41.9653 57.6454 42.0453 57.4254 42.1953C57.2054 42.3453 57.0354 42.5453 56.9354 42.7953C56.8054 43.1153 56.7354 43.4653 56.7354 43.8553C56.7354 44.2453 56.7854 44.5853 56.8854 44.9053C56.9854 45.2153 57.1353 45.4553 57.3353 45.6153C57.5453 45.7753 57.8054 45.8553 58.1354 45.8553C58.4054 45.8553 58.6554 45.7953 58.8754 45.6753C59.0954 45.5553 59.3353 45.3553 59.5853 45.0653V45.4353C59.3453 45.6853 59.0953 45.8653 58.8353 45.9753C58.5753 46.0853 58.2754 46.1453 57.9254 46.1453C57.4654 46.1453 57.0653 46.0553 56.7053 45.8753C56.3553 45.6953 56.0754 45.4253 55.8854 45.0853C55.6954 44.7453 55.5953 44.3753 55.5953 43.9853C55.5953 43.5753 55.7053 43.1853 55.9153 42.8253C56.1253 42.4553 56.4153 42.1753 56.7753 41.9753C57.1353 41.7753 57.5254 41.6753 57.9354 41.6753C58.2354 41.6753 58.5554 41.7453 58.8854 41.8753C59.0754 41.9553 59.2054 41.9853 59.2554 41.9853C59.3254 41.9853 59.3854 41.9653 59.4354 41.9153C59.4854 41.8653 59.5153 41.7853 59.5353 41.6853H59.6553Z" fill="white"/>
<path id="Vector_28" d="M61.8458 45.6254C61.4858 45.9454 61.1658 46.1053 60.8758 46.1053C60.7058 46.1053 60.5657 46.0454 60.4557 45.9354C60.3457 45.8254 60.2858 45.6854 60.2858 45.5154C60.2858 45.2854 60.3857 45.0854 60.5757 44.9054C60.7657 44.7254 61.1958 44.4854 61.8458 44.1854V43.8854C61.8458 43.6654 61.8358 43.5254 61.8058 43.4654C61.7858 43.4054 61.7358 43.3554 61.6658 43.3154C61.5958 43.2754 61.5258 43.2554 61.4358 43.2554C61.2958 43.2554 61.1858 43.2854 61.0958 43.3454C61.0358 43.3854 61.0157 43.4254 61.0157 43.4754C61.0157 43.5154 61.0458 43.5754 61.1058 43.6354C61.1858 43.7254 61.2258 43.8154 61.2258 43.8954C61.2258 43.9954 61.1858 44.0854 61.1058 44.1554C61.0258 44.2254 60.9258 44.2654 60.8058 44.2654C60.6758 44.2654 60.5658 44.2254 60.4758 44.1454C60.3858 44.0654 60.3458 43.9754 60.3458 43.8654C60.3458 43.7154 60.4058 43.5654 60.5258 43.4354C60.6458 43.2954 60.8158 43.1954 61.0258 43.1154C61.2358 43.0454 61.4658 43.0054 61.6958 43.0054C61.9758 43.0054 62.1958 43.0654 62.3558 43.1854C62.5158 43.3054 62.6258 43.4353 62.6758 43.5753C62.7058 43.6653 62.7158 43.8654 62.7158 44.1854V45.3354C62.7158 45.4654 62.7158 45.5554 62.7358 45.5854C62.7458 45.6154 62.7658 45.6454 62.7858 45.6654C62.8058 45.6854 62.8358 45.6954 62.8558 45.6954C62.9058 45.6954 62.9658 45.6553 63.0258 45.5753L63.1158 45.6554C63.0058 45.8154 62.9058 45.9254 62.7858 45.9954C62.6758 46.0654 62.5458 46.1053 62.4058 46.1053C62.2358 46.1053 62.1057 46.0654 62.0157 45.9854C61.9257 45.9054 61.8658 45.7854 61.8458 45.6254ZM61.8458 45.3954V44.4054C61.5958 44.5554 61.4058 44.7154 61.2758 44.8854C61.1958 44.9954 61.1558 45.1154 61.1558 45.2254C61.1558 45.3254 61.1858 45.4054 61.2558 45.4854C61.3058 45.5454 61.3858 45.5753 61.4758 45.5753C61.5858 45.5753 61.7058 45.5154 61.8458 45.3954Z" fill="white"/>
<path id="Vector_29" d="M64.6752 43.1154V43.7854C64.8752 43.4754 65.0452 43.2754 65.1852 43.1754C65.3352 43.0754 65.4752 43.0254 65.6152 43.0254C65.7352 43.0254 65.8252 43.0654 65.8952 43.1354C65.9652 43.2054 66.0052 43.3154 66.0052 43.4454C66.0052 43.5854 65.9752 43.6954 65.9052 43.7754C65.8352 43.8554 65.7552 43.8954 65.6552 43.8954C65.5452 43.8954 65.4452 43.8554 65.3652 43.7854C65.2852 43.7154 65.2352 43.6754 65.2152 43.6654C65.1952 43.6554 65.1652 43.6454 65.1452 43.6454C65.0852 43.6454 65.0252 43.6654 64.9752 43.7154C64.8852 43.7854 64.8252 43.8854 64.7752 44.0254C64.7052 44.2254 64.6752 44.4554 64.6752 44.7054V45.5654C64.6752 45.6854 64.6852 45.7654 64.7052 45.7954C64.7352 45.8554 64.7652 45.8954 64.8152 45.9154C64.8652 45.9454 64.9452 45.9554 65.0652 45.9654V46.0754H63.4752V45.9654C63.6052 45.9554 63.6852 45.9154 63.7352 45.8554C63.7852 45.7954 63.8052 45.6354 63.8052 45.3854V43.7554C63.8052 43.5854 63.8052 43.4754 63.7752 43.4354C63.7552 43.3754 63.7252 43.3354 63.6852 43.3054C63.6452 43.2754 63.5752 43.2554 63.4752 43.2454V43.1254H64.6752V43.1154Z" fill="white"/>
<path id="Vector_30" d="M68.7059 44.4851H67.0859C67.1059 44.8751 67.2059 45.1852 67.3959 45.4152C67.5459 45.5852 67.716 45.6751 67.916 45.6751C68.046 45.6751 68.156 45.6352 68.256 45.5652C68.356 45.4952 68.4659 45.3652 68.5859 45.1852L68.696 45.2552C68.536 45.5852 68.356 45.8152 68.166 45.9452C67.976 46.0852 67.746 46.1451 67.496 46.1451C67.056 46.1451 66.726 45.9751 66.506 45.6451C66.326 45.3751 66.236 45.0352 66.236 44.6352C66.236 44.1452 66.366 43.7551 66.636 43.4551C66.906 43.1651 67.2159 43.0151 67.5759 43.0151C67.8759 43.0151 68.136 43.1352 68.356 43.3852C68.576 43.6352 68.6959 43.9952 68.7159 44.4752L68.7059 44.4851ZM67.926 44.2751C67.926 43.9351 67.906 43.7051 67.866 43.5751C67.826 43.4451 67.776 43.3552 67.696 43.2852C67.656 43.2452 67.5959 43.2252 67.5159 43.2252C67.4059 43.2252 67.316 43.2752 67.246 43.3852C67.126 43.5752 67.056 43.8252 67.056 44.1552V44.2651H67.916L67.926 44.2751Z" fill="white"/>
<path id="Vector_31" d="M99.4459 44.0753H100.676V44.8353H99.4359C99.3059 45.2353 99.0858 45.6053 98.7458 45.9253C98.4158 46.2453 98.0958 46.4153 97.7958 46.4153C97.5258 46.4153 97.2058 46.2353 96.8358 45.8853C96.8058 45.8553 96.7458 45.7953 96.6458 45.7053C96.6358 45.6953 96.6058 45.6653 96.5758 45.6253C96.8258 45.7053 97.0659 45.7453 97.3159 45.7453C97.6459 45.7453 97.9558 45.6453 98.2658 45.4453C98.5658 45.2453 98.8159 44.9853 99.0059 44.6453C98.9459 44.4953 98.8458 44.3253 98.7158 44.1553C98.6058 44.0153 98.4658 43.8653 98.3058 43.7153L98.8859 43.2153C99.1659 43.4953 99.3459 43.7753 99.4459 44.0753Z" fill="white"/>
<path id="Vector_32" d="M102.605 43.0752L102.995 44.0852H104.165V44.8452H102.485L102.375 44.5952L102.085 44.8452H100.505V44.0852H102.175L101.955 43.5352L102.595 43.0752H102.605ZM101.385 45.8352L101.945 45.4852L102.355 45.7652L102.795 45.4852L103.465 45.9552L102.925 46.3052L102.505 46.0252L102.055 46.3052L101.375 45.8452L101.385 45.8352Z" fill="white"/>
<path id="Vector_33" d="M109.736 40.5251L109.306 41.2151L106.426 41.8351L108.696 43.6652C108.896 43.8252 108.986 43.9451 108.986 44.0151C108.986 44.0551 108.956 44.1152 108.906 44.1852L108.796 44.3351L108.456 44.8152H103.996V44.0551H108.016L106.226 42.6051L106.056 42.7351L105.676 42.4651C105.676 42.4651 105.606 42.4152 105.556 42.3852C105.486 42.3352 105.446 42.2752 105.446 42.2252C105.446 42.1852 105.466 42.1251 105.506 42.0551L105.556 41.9651L105.976 41.2852L109.716 40.5151L109.736 40.5251Z" fill="white"/>
<path id="Vector_34" d="M117.945 43.0752L118.345 44.0852H119.515V44.8452H117.835L117.725 44.5952L117.445 44.8452H113.315C113.195 44.8452 113.065 44.8052 112.905 44.7352C112.565 44.5952 112.395 44.3353 112.395 43.9753C112.395 43.5753 112.575 43.1752 112.945 42.7752C112.875 42.9552 112.835 43.1452 112.835 43.3452C112.835 43.6752 112.975 43.8952 113.245 44.0052C113.385 44.0552 113.675 44.0852 114.105 44.0852H117.525L117.295 43.5352L117.945 43.0752ZM116.285 42.5152L115.735 42.8652L115.315 42.5852L114.875 42.8652L114.215 42.3952L114.755 42.0452L115.165 42.3252L115.615 42.0452L116.295 42.5052L116.285 42.5152ZM115.695 41.5952L115.155 41.9453L114.475 41.4852L115.015 41.1152L115.695 41.5952Z" fill="white"/>
<path id="Vector_35" d="M121.506 40.5151V43.9251C121.506 44.0251 121.596 44.0851 121.776 44.0851H122.766V44.8452H121.126C120.866 44.8452 120.706 44.7651 120.666 44.6151L120.436 44.8452H119.356L119.386 44.0851H120.666V41.1852L121.516 40.5251L121.506 40.5151Z" fill="white"/>
<path id="Vector_36" d="M124.695 43.0752L125.085 44.0852H126.255V44.8452H124.575L124.465 44.5952L124.175 44.8452H122.595V44.0852H124.265L124.045 43.5352L124.685 43.0752H124.695ZM123.475 45.8352L124.035 45.4852L124.445 45.7652L124.885 45.4852L125.555 45.9552L125.015 46.3052L124.595 46.0252L124.145 46.3052L123.465 45.8452L123.475 45.8352Z" fill="white"/>
<path id="Vector_37" d="M128.835 41.9954C130.455 42.7854 131.265 43.3654 131.265 43.7254C131.265 43.8054 131.205 43.9554 131.075 44.1654L130.985 44.3154L130.715 44.8253H126.095V44.0654H127.505C127.465 43.9654 127.445 43.8754 127.445 43.8054C127.445 43.4454 127.645 43.1354 128.035 42.8854C128.145 42.8154 128.275 42.7454 128.425 42.6754C128.335 42.6354 128.295 42.5854 128.295 42.5254C128.295 42.4654 128.365 42.3854 128.515 42.2654L128.845 41.9854L128.835 41.9954ZM129.135 44.0753C129.175 43.9553 129.195 43.8554 129.195 43.7754C129.195 43.3954 128.995 43.2054 128.605 43.2054C128.445 43.2054 128.305 43.2553 128.185 43.3553C128.065 43.4553 128.015 43.5654 128.015 43.6854C128.015 43.8254 128.095 43.9354 128.255 44.0154C128.335 44.0654 128.515 44.0854 128.815 44.0854H129.135V44.0753ZM130.615 44.0753C130.575 43.9353 130.515 43.8054 130.415 43.6854C130.275 43.5254 130.045 43.3554 129.725 43.1854C129.725 43.2254 129.735 43.2653 129.735 43.2953C129.735 43.5653 129.655 43.8154 129.485 44.0654H130.615V44.0753Z" fill="white"/>
<path id="Vector_38" d="M134.666 44.0554L135.206 43.2254C135.296 43.0954 135.406 42.9354 135.546 42.7254C135.676 42.5754 135.836 42.5054 136.036 42.5054C136.196 42.5054 136.346 42.5353 136.486 42.6053C136.686 42.6953 136.896 42.8254 137.136 42.9854C137.616 43.3254 137.856 43.6454 137.856 43.9254C137.856 43.9854 137.806 44.1454 137.716 44.3854C137.676 44.4954 137.646 44.5654 137.626 44.5954L137.586 44.6754L137.506 44.8253H134.486L134.606 46.2654C134.606 46.3654 134.616 46.4054 134.616 46.3854C134.616 46.4354 134.596 46.4954 134.566 46.5654C134.536 46.6354 134.496 46.7054 134.456 46.7754C134.416 46.8454 134.326 46.9754 134.176 47.1654L134.036 47.3454L133.916 46.4954C133.916 46.4454 133.906 46.3753 133.896 46.2953C133.896 46.2153 133.866 46.0453 133.836 45.7953C133.826 45.6353 133.816 45.5054 133.816 45.4154C133.816 45.1754 133.916 44.8954 134.106 44.5854C134.336 44.2154 134.496 44.0354 134.606 44.0354C134.616 44.0354 134.636 44.0354 134.656 44.0354L134.666 44.0554ZM135.236 44.0753H137.296C137.246 43.9453 137.166 43.8154 137.066 43.7054C136.936 43.5654 136.766 43.4453 136.576 43.3253C136.386 43.2153 136.226 43.1554 136.106 43.1554C136.016 43.1554 135.926 43.1954 135.846 43.2754C135.786 43.3254 135.686 43.4554 135.526 43.6654L135.236 44.0654V44.0753Z" fill="white"/>
<path id="Vector_39" d="M141.075 44.075H142.315V44.835H141.035C140.975 45.075 140.855 45.325 140.675 45.575C140.275 46.135 139.865 46.415 139.455 46.415C139.165 46.415 138.755 46.165 138.225 45.655C138.485 45.725 138.725 45.765 138.925 45.765C139.255 45.765 139.565 45.685 139.835 45.515C140.105 45.345 140.325 45.125 140.465 44.835H139.725C139.465 44.835 139.285 44.835 139.185 44.815C138.995 44.795 138.835 44.725 138.705 44.615C138.575 44.505 138.515 44.375 138.515 44.235C138.515 44.015 138.595 43.775 138.755 43.515C138.915 43.255 139.115 43.025 139.365 42.835C139.515 42.725 139.675 42.665 139.865 42.665C140.125 42.665 140.375 42.805 140.615 43.085C140.855 43.365 141.005 43.695 141.065 44.075H141.075ZM140.395 44.075C140.315 43.585 140.115 43.335 139.785 43.335C139.645 43.335 139.515 43.385 139.395 43.495C139.275 43.605 139.215 43.715 139.215 43.835C139.215 43.995 139.355 44.075 139.625 44.075H140.395Z" fill="white"/>
<path id="Vector_40" d="M144.885 41.9954C146.505 42.7854 147.315 43.3654 147.315 43.7254C147.315 43.8054 147.255 43.9554 147.125 44.1654L147.035 44.3154L146.765 44.8253H142.145V44.0654H143.555C143.515 43.9654 143.495 43.8754 143.495 43.8054C143.495 43.4454 143.695 43.1354 144.085 42.8854C144.195 42.8154 144.325 42.7454 144.475 42.6754C144.385 42.6354 144.345 42.5854 144.345 42.5254C144.345 42.4654 144.415 42.3854 144.565 42.2654L144.895 41.9854L144.885 41.9954ZM145.185 44.0753C145.225 43.9553 145.245 43.8554 145.245 43.7754C145.245 43.3954 145.045 43.2054 144.655 43.2054C144.495 43.2054 144.355 43.2553 144.235 43.3553C144.115 43.4553 144.065 43.5654 144.065 43.6854C144.065 43.8254 144.145 43.9354 144.305 44.0154C144.385 44.0654 144.565 44.0854 144.865 44.0854H145.185V44.0753ZM146.665 44.0753C146.625 43.9353 146.565 43.8054 146.465 43.6854C146.325 43.5254 146.095 43.3554 145.775 43.1854C145.775 43.2254 145.785 43.2653 145.785 43.2953C145.785 43.5653 145.705 43.8154 145.535 44.0654H146.665V44.0753Z" fill="white"/>
<path id="Vector_41" d="M155.196 44.8353H151.356C151.046 44.8153 150.826 44.7853 150.686 44.7253C150.346 44.5753 150.186 44.3253 150.186 43.9853C150.186 43.5753 150.366 43.1753 150.736 42.7753C150.666 42.9953 150.626 43.1753 150.626 43.3353C150.626 43.6653 150.766 43.8853 151.036 43.9953C151.166 44.0453 151.456 44.0753 151.906 44.0753H154.436C154.436 44.0753 154.416 44.0253 154.416 43.9853C154.416 43.8653 154.526 43.6953 154.736 43.4753C155.426 42.7453 155.976 42.3753 156.406 42.3753C156.626 42.3753 156.816 42.4453 156.966 42.5853C157.126 42.7253 157.206 42.9053 157.206 43.1153C157.206 43.3953 157.056 43.7153 156.756 44.0653H158.416V44.8253H155.926L155.516 44.6453L155.196 44.8253V44.8353ZM156.436 43.7753C156.476 43.6953 156.486 43.6053 156.486 43.5053C156.486 43.2253 156.366 43.0853 156.136 43.0853C156.006 43.0853 155.846 43.1553 155.646 43.2853C155.456 43.4253 155.316 43.5553 155.246 43.6753L155.736 43.9553C155.796 43.9853 155.836 44.0053 155.856 44.0053C155.866 44.0053 155.906 43.9853 155.956 43.9753L156.426 43.7653L156.436 43.7753ZM156.676 41.3953L156.146 41.7453L155.456 41.2853L156.006 40.9253L156.676 41.3953Z" fill="white"/>
<path id="Vector_42" d="M158.246 44.0753H160.006C160.006 43.7753 159.866 43.4853 159.596 43.2253L160.166 42.6553C160.506 42.9453 160.666 43.2553 160.666 43.5853C160.666 43.7853 160.586 44.0353 160.436 44.3353C160.396 44.4353 160.306 44.5953 160.176 44.8353H158.246V44.0753ZM158.696 45.8353L159.256 45.4853L159.676 45.7653L160.116 45.4853L160.786 45.9553L160.246 46.3053L159.826 46.0253L159.376 46.3053L158.696 45.8453V45.8353Z" fill="white"/>
<path id="Vector_43" d="M165.315 41.7053L165.265 41.7753L164.815 42.2853C164.695 42.4253 164.515 42.5953 164.275 42.7853C164.265 42.7953 164.235 42.8153 164.195 42.8453L164.695 43.4153C164.755 43.4753 164.825 43.5653 164.915 43.6753C165.005 43.7853 165.045 43.8853 165.045 43.9853C165.045 44.0753 165.005 44.2053 164.925 44.3653L164.685 44.8453H161.675L161.705 44.7353L161.885 43.9253C162.145 43.7653 162.415 43.5853 162.695 43.3953C162.965 43.2053 163.185 43.0253 163.355 42.8753C163.185 42.7153 162.985 42.5553 162.765 42.3853C162.545 42.2153 162.335 42.0753 162.125 41.9553C162.065 42.0653 161.985 42.1253 161.885 42.1253C161.815 42.1253 161.745 42.1053 161.685 42.0553C161.375 41.8253 161.225 41.6253 161.225 41.4653C161.225 41.3653 161.305 41.2053 161.455 40.9953C161.565 40.8553 161.665 40.7753 161.745 40.7753C161.845 40.7753 161.955 40.8253 162.075 40.9153C162.715 41.3853 163.245 41.8653 163.685 42.3653L163.765 42.4553C164.145 42.0953 164.425 41.7253 164.585 41.3353C164.465 41.2553 164.395 41.1853 164.395 41.1153C164.395 41.0653 164.415 41.0153 164.465 40.9753C164.515 40.9353 164.585 40.8753 164.685 40.8053L165.155 40.4653C165.145 40.5453 165.135 40.5853 165.135 40.6053C165.135 40.7053 165.225 40.8053 165.405 40.9153L166.025 41.2653L165.475 41.8053L165.295 41.6953L165.315 41.7053ZM163.745 43.1953C163.385 43.4853 162.985 43.7653 162.555 44.0253L162.535 44.0753H164.475V44.0553C164.475 44.0553 164.495 44.0253 164.495 43.9953C164.495 43.9553 164.475 43.9253 164.445 43.8853L163.755 43.1853L163.745 43.1953Z" fill="white"/>
</g>
</svg>
