<svg width="81" height="80" viewBox="0 0 81 80" fill="none" xmlns="http://www.w3.org/2000/svg">
<g id="svgexport-16(9)" clip-path="url(#clip0_1_10930)">
<g id="Group">
<g id="22-Supermarket">
<path id="Vector" d="M4.25 32.5H6.75V35H4.25V32.5ZM75.5 75H5.5C5.16848 75 4.85054 74.8683 4.61612 74.6339C4.3817 74.3995 4.25 74.0815 4.25 73.75V37.5H6.75V72.5H74.25V28.75H76.75V73.75C76.75 74.0815 76.6183 74.3995 76.3839 74.6339C76.1495 74.8683 75.8315 75 75.5 75Z" fill="white"/>
<path id="Vector_2" d="M79.25 80H1.75C1.41848 80 1.10054 79.8683 0.866117 79.6339C0.631696 79.3995 0.5 79.0815 0.5 78.75V73.75C0.5 73.4185 0.631696 73.1005 0.866117 72.8661C1.10054 72.6317 1.41848 72.5 1.75 72.5H79.25C79.5815 72.5 79.8995 72.6317 80.1339 72.8661C80.3683 73.1005 80.5 73.4185 80.5 73.75V78.75C80.5 79.0815 80.3683 79.3995 80.1339 79.6339C79.8995 79.8683 79.5815 80 79.25 80ZM3 77.5H78V75H3V77.5ZM79.25 30H71.75V27.5H77.75L73.3937 3.52625C73.3413 3.23824 73.1895 2.97775 72.9647 2.7902C72.74 2.60266 72.4565 2.49996 72.1637 2.5H8.83625C8.54372 2.50025 8.26055 2.60308 8.03603 2.7906C7.81151 2.97812 7.65986 3.23845 7.6075 3.52625L3.25 27.5H64.25V30H1.75C1.56699 29.9998 1.38624 29.9595 1.22053 29.8818C1.05482 29.8042 0.908182 29.691 0.790985 29.5505C0.673787 29.4099 0.588886 29.2453 0.542277 29.0683C0.495669 28.8914 0.488491 28.7063 0.52125 28.5262L5.14625 3.08C5.30319 2.21573 5.75856 1.43397 6.43292 0.87109C7.10728 0.308207 7.95784 -7.9338e-05 8.83625 1.53154e-08H72.1637C73.0419 0.000213417 73.8922 0.308633 74.5663 0.87149C75.2404 1.43435 75.6956 2.21594 75.8525 3.08L80.4775 28.5262C80.5102 28.7062 80.5031 28.8911 80.4566 29.068C80.41 29.2449 80.3252 29.4094 80.2082 29.55C80.0911 29.6905 79.9446 29.8037 79.7791 29.8814C79.6135 29.9592 79.4329 29.9997 79.25 30Z" fill="white"/>
<path id="Vector_3" d="M66.75 27.4999H69.25V29.9999H66.75V27.4999ZM25.6825 13.7499H25.3175C24.8868 13.7892 24.4525 13.7429 24.0397 13.6138C23.6269 13.4847 23.2437 13.2752 22.9122 12.9974C22.5806 12.7197 22.3073 12.3791 22.1078 11.9953C21.9084 11.6115 21.7868 11.1921 21.75 10.7612V9.9999H24.25V10.7612C24.25 10.8862 24.6175 11.2499 25.3175 11.2499H25.6825C26.3825 11.2499 26.75 10.8874 26.75 10.7612C26.75 10.6899 26.6125 10.5012 26.2787 10.3774L23.8437 9.46365C23.2582 9.27767 22.7437 8.91682 22.3693 8.42965C21.995 7.94247 21.7789 7.35234 21.75 6.73865C21.7868 6.30769 21.9084 5.88826 22.1078 5.50447C22.3073 5.12068 22.5806 4.78011 22.9122 4.50235C23.2437 4.22459 23.6269 4.01512 24.0397 3.88598C24.4525 3.75685 24.8868 3.7106 25.3175 3.7499H25.6825C26.1132 3.7106 26.5475 3.75685 26.9603 3.88598C27.3731 4.01512 27.7563 4.22459 28.0878 4.50235C28.4194 4.78011 28.6927 5.12068 28.8922 5.50447C29.0916 5.88826 29.2132 6.30769 29.25 6.73865V7.4999H26.75V6.73865C26.75 6.61365 26.3825 6.2499 25.6825 6.2499H25.3175C24.6175 6.2499 24.25 6.6124 24.25 6.73865C24.25 6.8099 24.3875 6.99865 24.7213 7.1224L27.1563 8.03615C27.7418 8.22213 28.2563 8.58298 28.6307 9.07016C29.005 9.55733 29.2211 10.1475 29.25 10.7612C29.2132 11.1921 29.0916 11.6115 28.8922 11.9953C28.6927 12.3791 28.4194 12.7197 28.0878 12.9974C27.7563 13.2752 27.3731 13.4847 26.9603 13.6138C26.5475 13.7429 26.1132 13.7892 25.6825 13.7499ZM33.625 13.7499C32.7962 13.7499 32.0013 13.4207 31.4153 12.8346C30.8292 12.2486 30.5 11.4537 30.5 10.6249V3.7499H33V10.6249C33 10.7907 33.0658 10.9496 33.1831 11.0668C33.3003 11.1841 33.4592 11.2499 33.625 11.2499C33.7908 11.2499 33.9497 11.1841 34.0669 11.0668C34.1842 10.9496 34.25 10.7907 34.25 10.6249V3.7499H36.75V10.6249C36.75 11.4537 36.4208 12.2486 35.8347 12.8346C35.2487 13.4207 34.4538 13.7499 33.625 13.7499ZM40.5 13.7499H38V4.9999C38 4.66838 38.1317 4.35044 38.3661 4.11602C38.6005 3.8816 38.9185 3.7499 39.25 3.7499H41.125C41.9538 3.7499 42.7487 4.07914 43.3347 4.66519C43.9208 5.25124 44.25 6.0461 44.25 6.8749C44.25 7.7037 43.9208 8.49856 43.3347 9.08461C42.7487 9.67066 41.9538 9.9999 41.125 9.9999H40.5V13.7499ZM40.5 7.4999H41.125C41.2908 7.4999 41.4497 7.43405 41.5669 7.31684C41.6842 7.19963 41.75 7.04066 41.75 6.8749C41.75 6.70914 41.6842 6.55017 41.5669 6.43296C41.4497 6.31575 41.2908 6.2499 41.125 6.2499H40.5V7.4999ZM50.5 13.7499H46.75C46.4185 13.7499 46.1005 13.6182 45.8661 13.3838C45.6317 13.1494 45.5 12.8314 45.5 12.4999V4.9999C45.5 4.66838 45.6317 4.35044 45.8661 4.11602C46.1005 3.8816 46.4185 3.7499 46.75 3.7499H50.5V6.2499H48V11.2499H50.5V13.7499Z" fill="white"/>
<path id="Vector_4" d="M46.75 7.5H49.25V10H46.75V7.5ZM58 13.75H55.5V12.0225L54.25 11.3975V13.75H51.75V5C51.75 4.66848 51.8817 4.35054 52.1161 4.11612C52.3505 3.8817 52.6685 3.75 53 3.75H54.4325C55.147 3.75131 55.8446 3.96697 56.4352 4.36907C57.0257 4.77118 57.4821 5.34123 57.7451 6.0055C58.0082 6.66977 58.0659 7.3977 57.9108 8.09512C57.7557 8.79254 57.3948 9.42737 56.875 9.9175L57.3037 10.1312C57.5125 10.2344 57.6882 10.3938 57.8113 10.5914C57.9343 10.7891 57.9996 11.0172 58 11.25V13.75ZM54.25 6.25V8.6025L54.9088 8.2725C55.1239 8.16506 55.2964 7.98814 55.3984 7.7704C55.5004 7.55267 55.5259 7.30687 55.4708 7.07282C55.4157 6.83877 55.2832 6.63019 55.0947 6.48085C54.9063 6.33151 54.6729 6.25017 54.4325 6.25H54.25ZM24.25 26.25H21.75V21.25L20.25 23.25C20.1285 23.3976 19.9758 23.5166 19.8029 23.5982C19.63 23.6798 19.4412 23.7222 19.25 23.7222C19.0588 23.7222 18.87 23.6798 18.6971 23.5982C18.5242 23.5166 18.3715 23.3976 18.25 23.25L16.75 21.25V26.25H14.25V17.5C14.25 17.2376 14.3325 16.9819 14.4859 16.7691C14.6393 16.5563 14.8558 16.3971 15.1047 16.3141C15.3536 16.2312 15.6223 16.2286 15.8727 16.3069C16.1231 16.3851 16.3426 16.5401 16.5 16.75L19.25 20.4163L22 16.75C22.1574 16.5401 22.3769 16.3851 22.6273 16.3069C22.8777 16.2286 23.1464 16.2312 23.3953 16.3141C23.6442 16.3971 23.8607 16.5563 24.0141 16.7691C24.1675 16.9819 24.25 17.2376 24.25 17.5V26.25ZM33 26.25H30.5V20C30.5 19.6685 30.3683 19.3505 30.1339 19.1161C29.8995 18.8817 29.5815 18.75 29.25 18.75C28.9185 18.75 28.6005 18.8817 28.3661 19.1161C28.1317 19.3505 28 19.6685 28 20V26.25H25.5V20C25.5 19.0054 25.8951 18.0516 26.5983 17.3483C27.3016 16.6451 28.2554 16.25 29.25 16.25C30.2446 16.25 31.1984 16.6451 31.9017 17.3483C32.6049 18.0516 33 19.0054 33 20V26.25Z" fill="white"/>
<path id="Vector_5" d="M26.75 22.5H31.75V25H26.75V22.5ZM41.75 26.25H39.25V24.6513L36.75 23.8175V26.25H34.25V17.5C34.25 17.1685 34.3817 16.8505 34.6161 16.6161C34.8505 16.3817 35.1685 16.25 35.5 16.25H38.3212C39.0378 16.2504 39.7362 16.4751 40.3185 16.8927C40.9008 17.3103 41.3376 17.8998 41.5678 18.5783C41.7979 19.2569 41.8098 19.9905 41.6017 20.6761C41.3936 21.3618 40.976 21.9651 40.4075 22.4012L40.895 22.565C41.1438 22.6479 41.3602 22.8069 41.5137 23.0196C41.6671 23.2322 41.7498 23.4878 41.75 23.75V26.25ZM36.75 18.75V21.1825L38.6137 20.5575C38.8212 20.4866 38.9968 20.3445 39.1096 20.1566C39.2224 19.9686 39.2651 19.7468 39.23 19.5303C39.195 19.3139 39.0846 19.1169 38.9183 18.9741C38.7519 18.8313 38.5405 18.7519 38.3212 18.75H36.75ZM43 16.25H45.5V26.25H43V16.25Z" fill="white"/>
<path id="Vector_6" d="M50.4999 26.25H47.9999V24.5225L43.6912 22.375C43.4832 22.2713 43.3082 22.1117 43.1859 21.9141C43.0636 21.7165 42.9988 21.4887 42.9988 21.2562C42.9988 21.0238 43.0636 20.796 43.1859 20.5984C43.3082 20.4008 43.4832 20.2412 43.6912 20.1375L47.9999 17.9775V16.25H50.4999V18.75C50.5001 18.9823 50.4354 19.21 50.3133 19.4076C50.1912 19.6052 50.0165 19.7649 49.8087 19.8688L47.0449 21.25L49.8087 22.6312C50.0165 22.7351 50.1912 22.8948 50.3133 23.0924C50.4354 23.29 50.5001 23.5177 50.4999 23.75V26.25ZM56.7499 26.25H52.9999C52.6684 26.25 52.3505 26.1183 52.1161 25.8839C51.8816 25.6495 51.7499 25.3315 51.7499 25V17.5C51.7499 17.1685 51.8816 16.8505 52.1161 16.6161C52.3505 16.3817 52.6684 16.25 52.9999 16.25H56.7499V18.75H54.2499V23.75H56.7499V26.25Z" fill="white"/>
<path id="Vector_7" d="M53 20H55.5V22.5H53V20ZM58 16.25H65.5V18.75H58V16.25Z" fill="white"/>
<path id="Vector_8" d="M60.5 17.5H63V26.25H60.5V17.5ZM28 70H10.5C10.1685 70 9.85054 69.8683 9.61612 69.6339C9.3817 69.3995 9.25 69.0815 9.25 68.75V33.75C9.25 33.4185 9.3817 33.1005 9.61612 32.8661C9.85054 32.6317 10.1685 32.5 10.5 32.5H28C28.3315 32.5 28.6495 32.6317 28.8839 32.8661C29.1183 33.1005 29.25 33.4185 29.25 33.75V68.75C29.25 69.0815 29.1183 69.3995 28.8839 69.6339C28.6495 69.8683 28.3315 70 28 70ZM11.75 67.5H26.75V35H11.75V67.5ZM49.25 75H31.75C31.4185 75 31.1005 74.8683 30.8661 74.6339C30.6317 74.3995 30.5 74.0815 30.5 73.75V33.75C30.5 33.4185 30.6317 33.1005 30.8661 32.8661C31.1005 32.6317 31.4185 32.5 31.75 32.5H49.25C49.5815 32.5 49.8995 32.6317 50.1339 32.8661C50.3683 33.1005 50.5 33.4185 50.5 33.75V73.75C50.5 74.0815 50.3683 74.3995 50.1339 74.6339C49.8995 74.8683 49.5815 75 49.25 75ZM33 72.5H48V35H33V72.5ZM70.5 70H53C52.6685 70 52.3505 69.8683 52.1161 69.6339C51.8817 69.3995 51.75 69.0815 51.75 68.75V33.75C51.75 33.4185 51.8817 33.1005 52.1161 32.8661C52.3505 32.6317 52.6685 32.5 53 32.5H70.5C70.8315 32.5 71.1495 32.6317 71.3839 32.8661C71.6183 33.1005 71.75 33.4185 71.75 33.75V68.75C71.75 69.0815 71.6183 69.3995 71.3839 69.6339C71.1495 69.8683 70.8315 70 70.5 70ZM54.25 67.5H69.25V35H54.25V67.5Z" fill="white"/>
<path id="Vector_9" d="M52.1063 51.6165L69.6038 34.119L71.3713 35.8865L53.875 53.384L52.1063 51.6165ZM58.355 60.3665L69.6025 49.119L71.37 50.8865L60.1225 62.134L58.355 60.3665ZM52.1038 59.1165L60.8525 50.3677L62.62 52.1352L53.8713 60.884L52.1038 59.1165ZM63.3538 47.8677L65.8538 45.3677L67.6213 47.1352L65.1213 49.6352L63.3538 47.8677ZM9.61251 51.6127L27.1088 34.1152L28.8763 35.8827L11.3788 53.3802L9.61251 51.6127ZM15.8588 60.3627L27.1063 49.1127L28.8738 50.8815L17.6263 62.129L15.8588 60.3627ZM9.60876 59.1115L18.3575 50.3627L20.125 52.1302L11.375 60.879L9.60876 59.1115ZM20.8588 47.8627L23.3588 45.364L25.1263 47.1315L22.6263 49.6315L20.8588 47.8627Z" fill="white"/>
</g>
</g>
</g>
<defs>
<clipPath id="clip0_1_10930">
<rect width="80" height="80" fill="white" transform="translate(0.5)"/>
</clipPath>
</defs>
</svg>
