<svg width="64" height="75" viewBox="0 0 64 75" fill="none" xmlns="http://www.w3.org/2000/svg">
<g id="Group">
<path id="Vector" d="M30.4122 0.395313C30.2953 0.270531 30.154 0.171065 29.9971 0.10307C29.8402 0.0350742 29.671 -5.75501e-06 29.5 7.08157e-10H2C1.82899 3.62199e-07 1.6598 0.0350901 1.50289 0.103098C1.34599 0.171106 1.20471 0.270586 1.08779 0.395384C0.970871 0.520181 0.880803 0.667641 0.823158 0.828642C0.765513 0.989643 0.741517 1.16076 0.752654 1.33141L4.5 58.7905V68.75C4.50186 70.407 5.16094 71.9957 6.33264 73.1674C7.50433 74.3391 9.09297 74.9981 10.75 75H57C58.657 74.9981 60.2457 74.3391 61.4174 73.1674C62.5891 71.9957 63.2481 70.407 63.25 68.75V51.25C63.2487 50.0344 62.8933 48.8455 62.2274 47.8286C61.5614 46.8116 60.6137 46.0106 59.5 45.5234V41.25C59.5 37.0506 57.8428 33.3512 54.7075 30.5519C53.3 29.2844 51.6793 28.2758 49.9205 27.5728C49.6247 27.4553 49.2944 27.4595 49.0017 27.5845C48.7089 27.7096 48.4776 27.9453 48.358 28.2403C48.2964 28.3567 47.712 29.3922 45.9122 30.4255C44.0981 31.4669 40.673 32.7083 34.6578 32.7083C32.3573 32.7083 30.3565 32.9421 28.6553 33.4098L30.7473 1.33172C30.7585 1.16101 30.7346 0.989818 30.6769 0.828747C30.6193 0.667676 30.5292 0.520153 30.4122 0.395313ZM28.1658 2.5L28.0028 5H3.49719L3.33422 2.5H28.1658ZM20.75 67.5V52.5H60.75V67.5H20.75ZM13.25 67.5V66.25C13.2504 65.9186 13.3822 65.6009 13.6165 65.3665C13.8509 65.1322 14.1686 65.0004 14.5 65H17C17.3314 65.0004 17.6491 65.1322 17.8835 65.3665C18.1178 65.6009 18.2496 65.9186 18.25 66.25V67.5H13.25ZM18.25 62.715C17.8486 62.5725 17.4259 62.4998 17 62.5H14.5C13.5058 62.5011 12.5526 62.8966 11.8496 63.5996C11.1466 64.3026 10.7511 65.2558 10.75 66.25V67.5H7V60H18.25V62.715ZM7.215 70H18.3758C18.5611 70.9068 18.9464 71.7609 19.5034 72.5H10.75C9.97482 72.499 9.21894 72.2582 8.58604 71.8106C7.95314 71.363 7.47423 70.7305 7.215 70ZM57 72.5H24.5C23.7248 72.499 22.9689 72.2582 22.336 71.8106C21.7031 71.363 21.2242 70.7305 20.965 70H60.535C60.2758 70.7305 59.7969 71.363 59.164 71.8106C58.5311 72.2582 57.7752 72.499 57 72.5ZM60.535 50H20.965C21.2242 49.2695 21.7031 48.637 22.336 48.1894C22.9689 47.7418 23.7248 47.501 24.5 47.5H57C57.7752 47.501 58.5311 47.7418 59.164 48.1894C59.7969 48.637 60.2758 49.2695 60.535 50ZM24.5 45V42.5H57V45H24.5ZM47.4477 32.4219C48.393 31.8655 49.2381 31.1542 49.9477 30.3177C51.0924 30.8935 52.1552 31.6194 53.1081 32.4761C55.3758 34.5277 56.6611 37.0542 56.9409 40.0002H24.5684C24.7134 39.2334 25.0618 38.5197 25.5772 37.9338C27.1241 36.1508 30.2647 35.2084 34.6578 35.2084C40.1094 35.2083 44.4119 34.2708 47.4477 32.4219ZM23.6352 36.3572C22.512 37.6697 21.9313 39.3609 22.0112 41.0866C22.0039 41.1407 22.0002 41.1953 22 41.25V45.5234C20.8863 46.0106 19.9386 46.8116 19.2726 47.8286C18.6067 48.8455 18.2513 50.0344 18.25 51.25V57.5H6.92187L3.66015 7.5H27.8398L26.0844 34.4161C25.1533 34.9032 24.3225 35.5617 23.6358 36.357L23.6352 36.3572Z" fill="white"/>
<path id="Vector_2" d="M47.4295 56.1994C45.625 55.4261 43.2527 55 40.75 55C38.2473 55 35.875 55.4261 34.0705 56.1994C31.1814 57.4375 30.75 59.112 30.75 60C30.75 60.888 31.1814 62.5625 34.0705 63.8006C35.875 64.5739 38.2473 65 40.75 65C43.2527 65 45.625 64.5739 47.4295 63.8006C50.3186 62.5625 50.75 60.888 50.75 60C50.75 59.112 50.3186 57.4375 47.4295 56.1994ZM40.75 62.5C36.0975 62.5 33.25 60.8814 33.25 60C33.25 59.1186 36.0975 57.5 40.75 57.5C45.4025 57.5 48.25 59.1186 48.25 60C48.25 60.8814 45.4025 62.5 40.75 62.5ZM23.25 10H8.25C7.91848 10 7.60054 10.1317 7.36612 10.3661C7.1317 10.6005 7 10.9185 7 11.25V18.75C7 19.0815 7.1317 19.3995 7.36612 19.6339C7.60054 19.8683 7.91848 20 8.25 20H23.25C23.5815 20 23.8995 19.8683 24.1339 19.6339C24.3683 19.3995 24.5 19.0815 24.5 18.75V11.25C24.5 10.9185 24.3683 10.6005 24.1339 10.3661C23.8995 10.1317 23.5815 10 23.25 10ZM22 17.5H9.5V12.5H22V17.5ZM20.75 22.5H10.75C10.4185 22.5 10.1005 22.6317 9.86612 22.8661C9.6317 23.1005 9.5 23.4185 9.5 23.75C9.5 24.0815 9.6317 24.3995 9.86612 24.6339C10.1005 24.8683 10.4185 25 10.75 25H20.75C21.0815 25 21.3995 24.8683 21.6339 24.6339C21.8683 24.3995 22 24.0815 22 23.75C22 23.4185 21.8683 23.1005 21.6339 22.8661C21.3995 22.6317 21.0815 22.5 20.75 22.5Z" fill="white"/>
</g>
</svg>
