<svg width="130" height="130" viewBox="0 0 130 130" fill="none" xmlns="http://www.w3.org/2000/svg">
<g id="Group">
<path id="Vector" d="M130 116.19C130 118.273 128.324 119.946 126.243 119.946H3.75384C3.26036 119.947 2.77152 119.851 2.31542 119.663C1.85933 119.474 1.44496 119.197 1.09614 118.848C0.747312 118.499 0.470905 118.085 0.282797 117.628C0.0946884 117.172 -0.00141277 116.683 1.56937e-05 116.19C1.56937e-05 114.131 1.6738 112.436 3.75384 112.436H126.243C128.324 112.436 130 114.131 130 116.19Z" fill="#C7754F"/>
<path id="Vector_2" d="M31.902 119.947H3.76186C2.767 119.947 1.81289 119.551 1.10942 118.848C0.405948 118.144 0.0107422 117.19 0.0107422 116.195C0.0107422 115.201 0.405948 114.246 1.10942 113.543C1.81289 112.84 2.767 112.444 3.76186 112.444H31.902C29.8166 112.444 28.1644 114.124 28.1644 116.182C28.1644 118.267 29.8166 119.947 31.902 119.947Z" fill="#AB604B"/>
<path id="Vector_3" d="M77.4332 83.841V112.433H4.00879V83.841C4.01209 79.8924 5.34683 76.0603 7.79726 72.9641C10.2477 69.8679 13.6706 67.6885 17.5128 66.7781L27.4851 64.4164L40.7291 61.2747L49.4691 63.3547L63.9725 66.7808C67.806 67.7009 71.2183 69.8842 73.66 72.9794C76.1017 76.0745 77.4308 79.8986 77.4332 83.841Z" fill="#5B5E8B"/>
<path id="Vector_4" d="M39.794 99.8665H41.6438V112.436H39.794V99.8665ZM43.5641 61.9409L33.1313 64.4055L23.1645 66.7835C19.3214 67.692 15.897 69.8698 13.4446 72.965C10.9922 76.0602 9.65519 79.8919 9.64961 83.8409V112.433H4.01074V83.8409C4.01074 75.7185 9.60086 68.6739 17.5039 66.7835L27.4708 64.4055L40.723 61.28L43.5614 61.9409H43.5641Z" fill="#312E4B"/>
<path id="Vector_5" d="M53.9562 64.3948L48.339 81.956L40.7284 76.5582L33.1205 81.956L27.4844 64.4164L40.6201 61.2964H40.8611L49.4684 63.3548L53.9562 64.3948Z" fill="#DEDDFF"/>
<path id="Vector_6" d="M49.8047 59.3625V66.2689C49.8047 68.5575 48.8956 70.7523 47.2774 72.3705C45.6591 73.9888 43.4643 74.8979 41.1758 74.8979C38.8873 74.8979 36.6925 73.9888 35.0742 72.3705C33.456 70.7523 32.5469 68.5575 32.5469 66.2689V59.3653L49.8047 59.3625Z" fill="#FFAF93"/>
<path id="Vector_7" d="M37.7659 72.325L37.8201 72.3792C39.0955 73.6747 40.7586 74.519 42.5571 74.7842C37.8093 75.7321 32.5469 71.9296 32.5469 66.2717V62.0873C35.7785 64.1925 39.667 65.0466 43.4834 64.4896C39.4126 63.9019 35.7942 61.6621 33.6709 59.0051H49.8047V64.8282C46.7443 66.4532 43.2775 67.133 40.3118 66.9488C37.4464 66.8053 35.7536 70.2964 37.7659 72.325Z" fill="#EE8778"/>
<path id="Vector_8" d="M56.987 30.2041V48.8432C57.0144 50.9369 56.6257 53.0151 55.8435 54.9573C55.0613 56.8995 53.901 58.667 52.4302 60.1572C50.9594 61.6475 49.2072 62.8307 47.2754 63.6383C45.3436 64.4459 43.2706 64.8618 41.1768 64.8618C39.083 64.8618 37.01 64.4459 35.0782 63.6383C33.1464 62.8307 31.3942 61.6475 29.9234 60.1572C28.4526 58.667 27.2924 56.8995 26.5101 54.9573C25.7279 53.0151 25.3392 50.9369 25.3666 48.8432V30.2041H56.987Z" fill="#FFAF93"/>
<path id="Vector_9" d="M56.9817 30.196V48.8352C56.9817 49.3362 56.9627 49.8346 56.9113 50.314C56.8571 51.01 56.7325 51.6844 56.5727 52.3615C55.7846 55.853 53.8313 58.9722 51.0342 61.2056C48.2371 63.439 44.763 64.6536 41.1837 64.6495C39.1069 64.6498 37.0505 64.241 35.1318 63.4463C33.2131 62.6517 31.4698 61.4868 30.0014 60.0182C28.5331 58.5496 27.3685 56.8061 26.5742 54.8873C25.7798 52.9684 25.3714 50.9119 25.3721 48.8352V30.196H56.9817Z" fill="#FFAF93"/>
<path id="Vector_10" d="M60.3596 25.5918V45.4795H56.9904V30.1961H25.3727V45.4768H21.9141V25.5918H60.3596Z" fill="#8B4F4F"/>
<path id="Vector_11" d="M62.5503 44.7778C62.5532 45.5124 62.4106 46.2402 62.1308 46.9194C61.851 47.5986 61.4396 48.2157 60.9202 48.7351C60.4008 49.2545 59.7837 49.666 59.1045 49.9457C58.4253 50.2255 57.6974 50.3681 56.9629 50.3652V39.2229C60.064 39.2229 62.5503 41.7092 62.5503 44.7778Z" fill="#FFAF93"/>
<path id="Vector_12" d="M58.4553 39.4477C57.9711 39.3068 57.47 39.2321 56.9657 39.2257V50.3653C57.4857 50.3653 57.9787 50.2705 58.4553 50.1405V39.4477ZM29.9658 28.5654V48.835C29.9666 52.6315 31.332 56.3011 33.8129 59.1748C36.2938 62.0485 39.725 63.9347 43.4807 64.4895C39.6652 65.0458 35.7777 64.1917 32.5469 62.0872C30.3407 60.6517 28.5284 58.6873 27.2748 56.3728C26.0213 54.0583 25.3664 51.4671 25.3697 48.835V50.368C24.2098 50.3705 23.0779 50.0114 22.1316 49.3407C21.1852 48.6701 20.4714 47.7211 20.0895 46.6259C19.7075 45.5307 19.6764 44.3437 20.0005 43.23C20.3245 42.1163 20.9876 41.1313 21.8975 40.4119C22.859 39.6644 24.0534 39.2202 25.3724 39.2202V28.5654H29.9658ZM42.4271 46.7143V48.9731C42.4271 49.3409 42.281 49.6936 42.0209 49.9537C41.7609 50.2137 41.4082 50.3598 41.0404 50.3598C40.6726 50.3598 40.3199 50.2137 40.0599 49.9537C39.7998 49.6936 39.6537 49.3409 39.6537 48.9731V46.7143C39.6537 46.3466 39.7998 45.9939 40.0599 45.7338C40.3199 45.4737 40.6726 45.3276 41.0404 45.3276C41.4082 45.3276 41.7609 45.4737 42.0209 45.7338C42.281 45.9939 42.4271 46.3466 42.4271 46.7143Z" fill="#EE8778"/>
<path id="Vector_13" d="M36.2246 53.217C36.472 54.3434 37.0968 55.3515 37.9955 56.0742C38.8942 56.7969 40.0128 57.1909 41.1661 57.1909C42.3193 57.1909 43.4379 56.7969 44.3366 56.0742C45.2353 55.3515 45.8601 54.3434 46.1075 53.217H36.2246Z" fill="#EE8778"/>
<path id="Vector_14" d="M36.7017 41.1594C36.5423 40.4326 36.1392 39.7822 35.5595 39.3158C34.9797 38.8495 34.258 38.5952 33.5139 38.5952C32.7699 38.5952 32.0482 38.8495 31.4684 39.3158C30.8886 39.7822 30.4856 40.4326 30.3262 41.1594H36.7017ZM52.0258 41.1594C51.8652 40.434 51.4618 39.7851 50.8824 39.32C50.3031 38.8549 49.5823 38.6014 48.8394 38.6014C48.0964 38.6014 47.3757 38.8549 46.7963 39.32C46.2169 39.7851 45.8136 40.434 45.6529 41.1594H52.0258Z" fill="#312E4B"/>
<path id="Vector_15" d="M60.3597 28.7143C51.7551 44.1982 21.9141 28.7143 21.9141 28.7143V25.8163C21.9141 22.9644 22.9703 20.1775 25.0368 18.222C35.8 7.95181 49.0792 17.098 49.0792 17.098C49.0792 17.098 55.9775 14.2001 59.214 19.9283C60.8282 22.7667 60.2297 25.6728 60.3597 28.7143Z" fill="#AB604B"/>
<path id="Vector_16" d="M30.0771 14.8232C28.215 15.6582 26.5108 16.808 25.0395 18.2223C22.9703 20.1777 21.9141 22.962 21.9141 25.8166V28.7146C21.9141 28.7146 25.2833 30.4615 30.0771 32.1921V14.8232Z" fill="#8B4F4F"/>
<path id="Vector_17" d="M53.9566 64.3948L60.0071 78.7113H53.9566L57.659 84.7646L40.7207 105.719L53.9566 64.3948Z" fill="#312E4B"/>
<path id="Vector_18" d="M27.4871 64.3948L21.4365 78.7113H27.4871L23.7847 84.7646L40.7203 105.719L27.4871 64.3948Z" fill="#312E4B"/>
<path id="Vector_19" d="M48.3422 81.9559L40.7317 105.717L33.1211 81.9559L40.7317 76.5581L48.3422 81.9559Z" fill="#C6C6F7"/>
<path id="Vector_20" d="M42.5076 82.522L43.6993 96.416L40.7309 105.717L37.7598 96.416L38.9515 82.522L37.1748 79.0715L40.7309 76.5581L44.2654 79.0715L42.5076 82.522Z" fill="#E83D62"/>
<path id="Vector_21" d="M72.7553 94.363V97.6862C72.7571 97.7832 72.7397 97.8795 72.7042 97.9698C72.6686 98.06 72.6156 98.1423 72.5482 98.212C72.4807 98.2817 72.4002 98.3374 72.3112 98.3759C72.2222 98.4144 72.1264 98.435 72.0294 98.4364H56.7758C56.6788 98.435 56.5831 98.4144 56.494 98.3759C56.405 98.3374 56.3245 98.2817 56.257 98.212C56.1896 98.1423 56.1366 98.06 56.1011 97.9698C56.0655 97.8795 56.0481 97.7832 56.0499 97.6862V94.363C56.0499 93.9459 56.3804 93.6155 56.7758 93.6155H72.0294C72.4249 93.6155 72.7553 93.9459 72.7553 94.363Z" fill="#312E4B"/>
<path id="Vector_22" d="M106.031 3.95704V22.2387C106.031 24.4 104.265 26.1658 102.104 26.1658H81.6826L76.9267 30.4668C76.1385 31.1818 74.8791 30.5047 75.047 29.4349L75.5562 26.1658H72.1355C71.6283 26.1644 71.1264 26.0631 70.6584 25.8677C70.1903 25.6723 69.7654 25.3866 69.4077 25.027C69.0501 24.6673 68.7668 24.2408 68.574 23.7717C68.3813 23.3025 68.2828 22.8 68.2842 22.2928V4.03288C68.2842 1.87158 70.0501 0.105713 72.2114 0.105713H102.18C104.303 0.105713 106.031 1.83367 106.031 3.95704Z" fill="#E83D62"/>
<path id="Vector_23" d="M76.7585 26.1631H72.1272C70.0146 26.1631 68.2812 24.4297 68.2812 22.2901V4.03556C68.2812 1.86885 70.0417 0.108398 72.2084 0.108398H76.8398C74.673 0.108398 72.9126 1.86885 72.9126 4.03556V22.2901C72.9126 24.4297 74.646 26.1631 76.7585 26.1631ZM99.2165 7.76502C99.2158 7.90428 99.1874 8.04201 99.1329 8.17016C99.0783 8.29832 98.9988 8.41432 98.899 8.5114C98.7991 8.60848 98.6809 8.68468 98.5513 8.73557C98.4217 8.78645 98.2832 8.81099 98.144 8.80774H95.6251C95.4883 8.80775 95.3529 8.78076 95.2265 8.72832C95.1002 8.67589 94.9854 8.59904 94.8888 8.50217C94.7922 8.40531 94.7156 8.29034 94.6635 8.16385C94.6114 8.03735 94.5848 7.90182 94.5851 7.76502C94.5851 7.17459 95.051 6.70874 95.6251 6.70874H98.144C98.7506 6.70874 99.2165 7.17459 99.2165 7.76502Z" fill="#CE2955"/>
<path id="Vector_24" d="M98.8131 18.5227C98.8146 18.6599 98.7886 18.7961 98.7366 18.9231C98.6847 19.0501 98.6079 19.1655 98.5108 19.2624C98.4136 19.3593 98.2981 19.4357 98.1709 19.4873C98.0438 19.5389 97.9076 19.5646 97.7704 19.5628H77.5387C77.2609 19.5628 76.9943 19.4534 76.7965 19.2582C76.5988 19.063 76.486 18.7978 76.4824 18.52C76.4824 18.2399 76.5937 17.9712 76.7918 17.7731C76.9899 17.575 77.2586 17.4638 77.5387 17.4638H97.7704C98.3608 17.4638 98.8131 17.9323 98.8131 18.5227ZM76.4824 7.76501C76.4824 7.17458 76.951 6.70874 77.5252 6.70874H91.755C92.3319 6.70874 92.7978 7.17458 92.7978 7.76501C92.7981 7.90205 92.7714 8.0378 92.7191 8.16447C92.6668 8.29114 92.5901 8.40623 92.4932 8.50313C92.3963 8.60003 92.2812 8.67682 92.1545 8.7291C92.0278 8.78137 91.8921 8.8081 91.755 8.80774H77.5252C77.3881 8.8081 77.2524 8.78137 77.1257 8.7291C76.999 8.67682 76.8839 8.60003 76.787 8.50313C76.6901 8.40623 76.6133 8.29114 76.5611 8.16447C76.5088 8.0378 76.4821 7.90205 76.4824 7.76501ZM98.8131 13.1439C98.8146 13.2811 98.7886 13.4172 98.7366 13.5442C98.6847 13.6712 98.6079 13.7866 98.5108 13.8835C98.4136 13.9804 98.2981 14.0569 98.1709 14.1085C98.0438 14.1601 97.9076 14.1857 97.7704 14.1839H77.5387C77.2613 14.1839 76.9951 14.0749 76.7975 13.8803C76.5999 13.6857 76.4867 13.4212 76.4824 13.1439C76.4824 12.8637 76.5937 12.5951 76.7918 12.397C76.9899 12.1989 77.2586 12.0876 77.5387 12.0876H97.7704C98.3608 12.0876 98.8131 12.5534 98.8131 13.1439Z" fill="#CE2955"/>
<path id="Vector_25" d="M130 116.19C130 118.273 128.324 119.946 126.243 119.946H3.75384C3.26036 119.947 2.77152 119.851 2.31542 119.663C1.85933 119.474 1.44496 119.197 1.09614 118.848C0.747312 118.499 0.470905 118.085 0.282797 117.628C0.0946884 117.172 -0.00141277 116.683 1.56937e-05 116.19C1.56937e-05 114.131 1.6738 112.436 3.75384 112.436H126.243C128.324 112.436 130 114.131 130 116.19Z" fill="#C7754F"/>
<path id="Vector_26" d="M31.902 119.947H3.76186C2.767 119.947 1.81289 119.551 1.10942 118.848C0.405948 118.144 0.0107422 117.19 0.0107422 116.195C0.0107422 115.201 0.405948 114.246 1.10942 113.543C1.81289 112.84 2.767 112.444 3.76186 112.444H31.902C29.8166 112.444 28.1644 114.124 28.1644 116.182C28.1644 118.267 29.8166 119.947 31.902 119.947Z" fill="#AB604B"/>
<path id="Vector_27" d="M88.3184 60.7221C88.3363 61.6111 88.1767 62.4946 87.8489 63.3211C87.5211 64.1476 87.0317 64.9004 86.4093 65.5354C85.787 66.1704 85.0442 66.6748 84.2245 67.0192C83.4048 67.3636 82.5246 67.541 81.6355 67.541C80.7464 67.541 79.8662 67.3636 79.0465 67.0192C78.2267 66.6748 77.484 66.1704 76.8616 65.5354C76.2393 64.9004 75.7499 64.1476 75.4221 63.3211C75.0943 62.4946 74.9346 61.6111 74.9525 60.7221C74.9877 58.973 75.7073 57.3074 76.9568 56.0828C78.2062 54.8583 79.886 54.1724 81.6355 54.1724C83.385 54.1724 85.0647 54.8583 86.3142 56.0828C87.5637 57.3074 88.2832 58.973 88.3184 60.7221ZM116.556 60.7221C116.574 61.6111 116.414 62.4946 116.087 63.3211C115.759 64.1476 115.269 64.9004 114.647 65.5354C114.025 66.1704 113.282 66.6748 112.462 67.0192C111.642 67.3636 110.762 67.541 109.873 67.541C108.984 67.541 108.104 67.3636 107.284 67.0192C106.464 66.6748 105.722 66.1704 105.099 65.5354C104.477 64.9004 103.988 64.1476 103.66 63.3211C103.332 62.4946 103.172 61.6111 103.19 60.7221C103.225 58.973 103.945 57.3074 105.194 56.0828C106.444 54.8583 108.124 54.1724 109.873 54.1724C111.623 54.1724 113.302 54.8583 114.552 56.0828C115.801 57.3074 116.521 58.973 116.556 60.7221ZM85.2877 78.6381L87.2378 88.2692H103.737L105.682 78.6381H85.2877Z" fill="#FFAF93"/>
<path id="Vector_28" d="M130 108.254V130H60.7461V108.252C60.7457 106.222 61.1452 104.213 61.9218 102.338C62.6983 100.463 63.8367 98.759 65.2719 97.3241C66.707 95.8892 68.4108 94.7512 70.2859 93.975C72.161 93.1987 74.1707 92.7996 76.2002 92.8003H114.556C116.585 92.8003 118.593 93.2001 120.467 93.9767C122.341 94.7534 124.044 95.8918 125.477 97.3267C126.911 98.7617 128.048 100.465 128.823 102.34C129.598 104.214 129.996 106.223 129.994 108.252L130 108.254Z" fill="#65B9FF"/>
<path id="Vector_29" d="M86.5112 92.803C84.4824 92.8019 82.4733 93.2007 80.5986 93.9765C78.724 94.7523 77.0207 95.89 75.586 97.3244C74.1512 98.7589 73.0133 100.462 72.2371 102.337C71.461 104.211 71.0619 106.22 71.0626 108.249V130H60.749V108.252C60.748 106.223 61.1468 104.213 61.9228 102.338C62.6988 100.464 63.8367 98.7602 65.2715 97.3254C66.7062 95.8907 68.4097 94.7528 70.2845 93.9768C72.1593 93.2008 74.1686 92.8019 76.1977 92.803H86.5112Z" fill="#3E7FFF"/>
<path id="Vector_30" d="M109.825 90.4306V92.7978H80.2959V90.4333C80.2959 87.8279 82.4084 85.7153 85.0139 85.7153H105.11C107.716 85.7153 109.825 87.8252 109.825 90.4306Z" fill="#DEDDFF"/>
<path id="Vector_31" d="M89.6258 85.7097C87.0257 85.7097 84.9159 87.8223 84.9159 90.4331V92.803H80.3008V90.4331C80.3008 87.8196 82.4133 85.7097 85.0107 85.7097H89.6258Z" fill="#C6C6F7"/>
<path id="Vector_32" d="M108.558 76.9483C104.967 81.7448 100.075 84.0903 93.9867 83.3048C80.9594 81.6283 76.3632 64.6359 76.5339 51.4759C76.6016 46.4545 79.8923 41.4115 84.1092 40.3931C86.2055 39.8894 87.8603 38.7708 89.6614 37.7904C92.0746 36.4714 94.9184 35.5857 97.8137 36.5201L96.8387 36.9128C104.021 37.3733 111.518 39.7675 113.186 46.7822C116.905 62.415 111.469 73.0617 108.558 76.9483Z" fill="#5B5E8B"/>
<path id="Vector_33" d="M98.128 83.3535C96.8226 83.5051 95.4413 83.4889 93.9842 83.3074C80.9785 81.6174 76.3526 64.6845 76.5313 51.473C76.6072 46.4625 79.8897 41.4032 84.1094 40.3876C88.5647 39.3205 91.72 35.0574 97.218 36.3331C93.4696 37.0969 91.4221 39.5398 87.8768 40.3876C83.6706 41.4032 80.3745 46.4625 80.2987 51.473C80.1443 64.7224 84.7865 81.6228 97.7489 83.3074L98.128 83.3535Z" fill="#312E4B"/>
</g>
</svg>
