<svg width="130" height="130" viewBox="0 0 130 130" fill="none" xmlns="http://www.w3.org/2000/svg">
<g id="Group">
<path id="Vector" d="M53.5205 36.5191C53.4511 35.4865 53.7946 34.4685 54.4756 33.6892C55.1566 32.9099 56.1193 32.4329 57.1519 32.3633L74.4567 31.2005C74.9719 31.1588 75.4904 31.2198 75.9819 31.3801C76.4734 31.5404 76.9281 31.7968 77.3197 32.1343C77.7113 32.4718 78.0319 32.8838 78.2629 33.3462C78.494 33.8087 78.6308 34.3125 78.6656 34.8283C78.7003 35.3441 78.6322 35.8616 78.4653 36.3509C78.2983 36.8402 78.0358 37.2914 77.693 37.6784C77.3502 38.0653 76.934 38.3803 76.4684 38.6051C76.0028 38.8299 75.4973 38.9599 74.9811 38.9876L57.6763 40.1504C56.6437 40.2199 55.6258 39.8763 54.8464 39.1953C54.0671 38.5143 53.5902 37.5517 53.5205 36.5191Z" fill="#5B5476"/>
<path id="Vector_2" d="M53.5576 35.63C53.7014 34.7593 54.1353 33.9627 54.7888 33.3697C55.4423 32.7766 56.277 32.4219 57.1575 32.363L74.4571 31.1989C75.0299 31.16 75.6042 31.2481 76.139 31.4567C76.6739 31.6653 77.1561 31.9895 77.5513 32.4059C77.9465 32.8224 78.2449 33.3209 78.4252 33.866C78.6055 34.4111 78.6633 34.9892 78.5945 35.5592C78.4925 36.4109 78.1127 37.2053 77.5139 37.8196C76.9151 38.4338 76.1305 38.8336 75.2817 38.9572L75.3013 38.7946C75.3302 38.5508 75.3302 38.3174 75.3184 38.0684C75.161 35.9223 73.3086 34.2888 71.1626 34.433L53.85 35.5959C53.753 35.5972 53.6559 35.6142 53.5576 35.63Z" fill="#3F3B5B"/>
<path id="Vector_3" d="M58.5165 40.0938C55.8434 50.5605 54.7081 66.4114 55.6481 80.3929C57.2029 103.529 63.839 112.767 71.2145 112.272C78.59 111.776 83.9309 101.733 82.3748 78.5956C81.4361 64.6141 78.1889 49.0582 74.138 39.0437L58.5165 40.0938Z" fill="#C3C9FB"/>
<path id="Vector_4" d="M55.6511 80.397C54.7112 66.409 55.8465 50.5554 58.513 40.0978L74.1371 39.0491C74.6221 40.2552 75.1124 41.5451 75.566 42.9072C67.1837 43.471 60.4899 50.0284 59.6483 58.3871C58.8224 66.5859 58.6349 75.6919 59.2025 84.1123C60.0796 97.1721 62.5809 105.805 65.9081 110.762C60.8439 107.301 56.8192 97.7673 55.6511 80.397Z" fill="#8693E2"/>
<path id="Vector_5" d="M58.0124 32.3054C58.0124 32.3054 49.8936 29.0752 50.6605 17.4416C51.3356 7.20037 63.0976 2.73784 68.0046 1.31413C68.184 1.26126 68.3747 1.26052 68.5545 1.31199C68.7343 1.36346 68.8958 1.46502 69.0201 1.60481C69.1443 1.7446 69.2263 1.91686 69.2563 2.10146C69.2863 2.28607 69.2632 2.47541 69.1897 2.64738C67.8433 5.7937 66.1771 12.1257 72.5051 15.5368C82.3374 20.8344 74.621 31.1884 74.621 31.1884L58.0124 32.3054Z" fill="#DABCBC"/>
<path id="Vector_6" d="M50.6642 17.4444C51.3367 7.19522 63.0961 2.74448 68.0083 1.32077C68.8001 1.07824 69.5198 1.88449 69.1908 2.6514C68.3976 4.52609 67.4734 7.52034 68.2049 10.3717C61.0955 12.814 56.2227 19.7805 56.7523 27.6371C56.8572 29.2142 57.181 30.7284 57.6739 32.1534C56.1479 31.3839 49.9864 27.6476 50.6642 17.4444Z" fill="#BC9595"/>
<path id="Vector_7" d="M70.6593 113.273C67.7096 113.273 63.7269 111.854 60.3839 105.662C57.3346 100.016 55.4114 91.535 54.6668 80.4573C53.7216 66.3854 54.8595 50.4466 57.5654 39.8514C57.6165 39.6507 57.7297 39.4713 57.8889 39.3388C58.048 39.2062 58.245 39.1273 58.4516 39.1133L74.0731 38.0645C74.2796 38.0504 74.4854 38.1019 74.661 38.2116C74.8366 38.3213 74.9731 38.4836 75.051 38.6755C79.1504 48.8132 82.4108 64.4569 83.3573 78.5289C84.102 89.6065 83.3311 98.2681 81.0631 104.272C78.4006 111.331 74.2723 113.052 71.2807 113.252C71.0788 113.266 70.8717 113.273 70.6593 113.273ZM59.2985 41.026C56.7644 51.4325 55.7169 66.7472 56.6293 80.3262C57.3543 91.1207 59.2001 99.33 62.1144 104.727C64.5594 109.254 67.6847 111.527 71.1483 111.291C74.6145 111.058 77.4082 108.39 79.2239 103.578C81.3896 97.8394 82.1211 89.4571 81.3948 78.6613C80.4824 65.0823 77.3951 50.0455 73.4897 40.0729L59.2985 41.026Z" fill="#0F0F0F" fill-opacity="0.7"/>
<path id="Vector_8" d="M57.4066 41.1425C56.2266 41.1441 55.0865 40.7153 54.2 39.9364C53.7152 39.5153 53.3187 39.0021 53.0336 38.4267C52.7485 37.8513 52.5804 37.2251 52.539 36.5842C52.4945 35.944 52.5774 35.3013 52.7829 34.6933C52.9883 34.0853 53.3122 33.524 53.7359 33.042C54.1569 32.5575 54.6698 32.1613 55.245 31.8764C55.8202 31.5915 56.4462 31.4236 57.0868 31.3823L74.3915 30.2195C75.032 30.1734 75.6752 30.2554 76.2836 30.4607C76.892 30.666 77.4534 30.9904 77.9351 31.4151C78.9183 32.2738 79.5069 33.4641 79.5948 34.7659C79.6797 36.0586 79.2485 37.3322 78.3957 38.3074C77.5429 39.2825 76.3382 39.8797 75.0457 39.9678L57.7409 41.132C57.6295 41.1398 57.5181 41.1425 57.4066 41.1425ZM74.7245 32.1755C74.6576 32.1755 74.5908 32.1755 74.5239 32.1807L57.2192 33.3435C56.8362 33.368 56.4619 33.4684 56.118 33.6387C55.7741 33.8091 55.4675 34.0461 55.216 34.3359C54.9629 34.6241 54.7696 34.9596 54.6471 35.323C54.5247 35.6865 54.4757 36.0706 54.5028 36.4531C54.5274 36.8358 54.6276 37.2098 54.7977 37.5534C54.9678 37.8971 55.2045 38.2035 55.4939 38.455C55.7817 38.7084 56.1169 38.902 56.4801 39.0247C56.8434 39.1474 57.2274 39.1966 57.6098 39.1695L74.9146 38.0066C75.6868 37.9538 76.4065 37.5969 76.9159 37.0143C77.4254 36.4316 77.683 35.6706 77.6322 34.8983C77.6077 34.5154 77.5073 34.1411 77.3369 33.7972C77.1666 33.4534 76.9296 33.1468 76.6398 32.8952C76.11 32.4295 75.4285 32.1732 74.7232 32.1741L74.7245 32.1755Z" fill="#0F0F0F" fill-opacity="0.7"/>
<path id="Vector_9" d="M58.011 33.2886C57.8866 33.2886 57.7634 33.2651 57.6479 33.2191C57.56 33.1837 48.8749 29.5825 49.6785 17.3761C50.393 6.54228 62.5417 1.87523 67.7305 0.370242C68.0893 0.263856 68.4711 0.262643 68.8306 0.366745C69.1901 0.470848 69.5121 0.675896 69.7586 0.957555C70.2672 1.53176 70.3957 2.32752 70.0929 3.03413C68.7845 6.09655 67.4172 11.6786 72.9718 14.6716C75.8913 16.2447 77.6742 18.4026 78.2681 21.0822C79.4256 26.3117 75.574 31.5568 75.4102 31.7771C75.3253 31.8909 75.2168 31.985 75.0921 32.0529C74.9674 32.1208 74.8295 32.1609 74.6878 32.1704L58.0779 33.2873C58.056 33.2885 58.0329 33.289 58.011 33.2886ZM68.285 2.26197C63.4869 3.64766 52.2742 7.91223 51.641 17.5059C50.9934 27.3368 57.0474 30.7532 58.1919 31.3078L74.0808 30.2406C74.8595 29.0529 77.1577 25.1462 76.3462 21.5004C75.8795 19.4068 74.4309 17.692 72.0383 16.4034C66.9767 13.6752 65.608 8.52052 68.285 2.26197Z" fill="#0F0F0F" fill-opacity="0.7"/>
<path id="Vector_10" d="M126.019 30.2104L110.981 44.0974L99.3512 40.7453L94.0234 20.9851C93.2854 18.2478 94.7969 15.3519 97.5106 14.526C104.675 12.3432 111.459 7.22125 114.65 4.56654C114.858 4.39268 115.106 4.27251 115.371 4.21657C115.636 4.16063 115.911 4.17063 116.172 4.24568C116.432 4.32074 116.67 4.45857 116.865 4.64708C117.06 4.83558 117.206 5.06902 117.289 5.3269C118.582 9.27291 121.602 17.2213 126.509 22.8834C128.367 25.0281 128.106 28.2859 126.022 30.2104H126.019Z" fill="#5B5476"/>
<path id="Vector_11" d="M126.015 30.2129L110.978 44.0922L99.3502 40.7531L98.4941 37.5714C101.721 38.5044 105.134 38.5888 108.402 37.8164C111.671 37.0441 114.685 35.4411 117.153 33.1626L124.11 26.7389C124.753 26.1475 125.242 25.4077 125.533 24.5842C125.824 23.7606 125.91 22.8783 125.782 22.0142C126.026 22.3117 126.259 22.6041 126.51 22.8899C128.366 25.0215 128.1 28.2806 126.015 30.2129Z" fill="#3F3B5B"/>
<path id="Vector_12" d="M114.136 23.1419C114.02 23.558 113.823 23.9469 113.555 24.2864C113.288 24.6258 112.956 24.909 112.579 25.1196C112.202 25.3302 111.787 25.464 111.358 25.5133C110.929 25.5627 110.494 25.5265 110.079 25.407C109.664 25.2875 109.276 25.087 108.939 24.817C108.602 24.5471 108.321 24.213 108.114 23.8341C107.907 23.4552 107.776 23.039 107.73 22.6095C107.685 22.1799 107.724 21.7455 107.847 21.3314C108.096 20.508 108.659 19.8156 109.415 19.4042C110.17 18.9929 111.057 18.8956 111.884 19.1334C112.711 19.3712 113.411 19.9251 113.832 20.675C114.254 21.425 114.363 22.312 114.136 23.1419Z" fill="white"/>
<path id="Vector_13" d="M115.656 49.3664C115.519 49.8418 115.289 50.2855 114.981 50.6723C114.672 51.059 114.291 51.3812 113.858 51.6204C113.425 51.8596 112.949 52.0112 112.457 52.0665C111.965 52.1217 111.468 52.0796 110.992 51.9425L95.1756 47.3829C94.7003 47.2459 94.2566 47.0166 93.8699 46.7081C93.4832 46.3995 93.161 46.0179 92.9218 45.5849C92.6826 45.1519 92.531 44.676 92.4758 44.1844C92.4205 43.6928 92.4625 43.1951 92.5996 42.7198C92.7366 42.2445 92.9659 41.8008 93.2744 41.4141C93.5829 41.0274 93.9646 40.7052 94.3976 40.466C94.8306 40.2268 95.3065 40.0752 95.7981 40.0199C96.2897 39.9646 96.7874 40.0067 97.2627 40.1438L113.079 44.7033C113.555 44.8403 113.999 45.0696 114.385 45.378C114.772 45.6865 115.094 46.0682 115.334 46.5012C115.573 46.9342 115.724 47.4102 115.78 47.9018C115.835 48.3934 115.793 48.8911 115.656 49.3664Z" fill="#FFD9B0"/>
<path id="Vector_14" d="M110.986 51.9408L95.1781 47.3878C94.5003 47.1929 93.8909 46.8116 93.4193 46.2871C92.9477 45.7627 92.6329 45.1163 92.5109 44.4217C92.3888 43.7271 92.4644 43.0121 92.729 42.3583C92.9936 41.7046 93.4366 41.1383 94.0075 40.7241C93.8189 41.6467 93.9858 42.6065 94.475 43.4112C94.9641 44.2159 95.7393 44.8061 96.6451 45.0634L112.453 49.6164C113.005 49.7792 113.587 49.8115 114.153 49.7107C114.72 49.6099 115.255 49.3788 115.717 49.0357C115.711 49.1472 115.69 49.2575 115.654 49.3634C115.517 49.8394 115.288 50.2838 114.98 50.6711C114.671 51.0584 114.289 51.381 113.855 51.6204C113.422 51.8598 112.945 52.0113 112.453 52.0663C111.961 52.1213 111.461 52.0786 110.986 51.9408Z" fill="#EDB57E"/>
<path id="Vector_15" d="M101.305 86.6384L111.506 52.0865L94.6658 47.2307L84.4586 81.6541C84.1313 82.7602 84.0251 83.92 84.1461 85.0671C84.267 86.2143 84.6127 87.3264 85.1634 88.3399C85.7141 89.3535 86.4591 90.2487 87.3558 90.9743C88.2525 91.7 89.2833 92.2419 90.3894 92.5692C91.4955 92.8965 92.6553 93.0027 93.8025 92.8817C94.9496 92.7608 96.0617 92.4151 97.0753 91.8644C98.0889 91.3137 98.984 90.5687 99.7097 89.672C100.435 88.7753 100.977 87.7445 101.305 86.6384Z" fill="#C3C9FB"/>
<path id="Vector_16" d="M111.507 52.0893L101.308 86.6346C100.651 88.8677 99.1335 90.7484 97.0899 91.8633C95.0463 92.9781 92.6436 93.2359 90.4101 92.5798L90.3576 92.5654C85.7168 91.1692 83.0752 86.2963 84.4583 81.6529L94.6629 47.2361L111.507 52.0893Z" fill="#ABECEF"/>
<path id="Vector_17" d="M111.508 52.0894L101.309 86.6347C100.685 88.7504 99.2877 90.5541 97.3954 91.6877C95.5031 92.8213 93.2537 93.202 91.0938 92.7543C92.4267 91.6442 93.3988 90.1623 93.8861 88.4976L100.985 64.4544C101.391 63.08 101.521 61.6389 101.368 60.2141C101.215 58.7892 100.781 57.4087 100.092 56.1521C99.4032 54.8955 98.4725 53.7875 97.3536 52.8921C96.2348 51.9966 94.9498 51.3313 93.5728 50.9344L94.6635 47.2349L111.508 52.0894Z" fill="#75C5C9"/>
<path id="Vector_18" d="M110.979 45.0808C110.887 45.0808 110.796 45.0677 110.706 45.0415L99.0769 41.6894C98.9142 41.6427 98.7664 41.5548 98.6476 41.4342C98.5289 41.3136 98.4433 41.1645 98.3991 41.0011L93.0739 21.2409C92.1956 17.9845 94.0572 14.5497 97.2231 13.5848C104.152 11.4742 110.722 6.55544 114.022 3.81028C114.353 3.53457 114.747 3.34417 115.169 3.25569C115.591 3.16722 116.029 3.18335 116.443 3.30268C116.857 3.42202 117.236 3.64093 117.547 3.94032C117.857 4.23971 118.089 4.61048 118.224 5.0203C119.561 9.10134 122.51 16.7666 127.252 22.2412C129.421 24.7438 129.167 28.6439 126.688 30.9329L111.645 44.8199C111.464 44.9879 111.226 45.0802 110.979 45.0808ZM100.154 39.9549L110.718 42.999L125.353 29.4882C127.061 27.9111 127.246 25.2367 125.764 23.5285C120.796 17.7931 117.736 9.85515 116.353 5.63252C116.32 5.52669 116.261 5.43071 116.182 5.35319C116.102 5.27567 116.005 5.21904 115.899 5.18837C115.792 5.15771 115.68 5.15397 115.571 5.17749C115.463 5.20101 115.362 5.25105 115.278 5.32314C111.864 8.16269 105.054 13.2558 97.7947 15.4674C95.633 16.1255 94.3666 18.4866 94.9709 20.7283L100.154 39.9549Z" fill="#0F0F0F" fill-opacity="0.7"/>
<path id="Vector_19" d="M112.043 53.0753C111.6 53.0753 111.156 53.0137 110.719 52.8878L94.9035 48.3256C94.3033 48.1543 93.7431 47.8657 93.2552 47.4764C92.7673 47.0871 92.3616 46.6049 92.0613 46.0577C91.7582 45.5124 91.5661 44.9125 91.4964 44.2925C91.4266 43.6726 91.4805 43.0449 91.6549 42.446C91.8262 41.8458 92.1149 41.2855 92.5042 40.7977C92.8935 40.3098 93.3757 39.904 93.9229 39.6038C94.4683 39.301 95.0682 39.1091 95.6881 39.0394C96.308 38.9696 96.9356 39.0233 97.5346 39.1974L113.353 43.7569C114.572 44.1083 115.581 44.9145 116.195 46.0249C116.498 46.5703 116.69 47.1705 116.76 47.7907C116.83 48.4109 116.776 49.0387 116.601 49.6379C116.43 50.2381 116.141 50.7983 115.752 51.2862C115.363 51.7741 114.881 52.1799 114.333 52.4801C113.62 52.8734 112.836 53.074 112.044 53.074L112.043 53.0753ZM96.2145 40.9777C95.7491 40.9777 95.2902 41.0957 94.872 41.3264C94.5516 41.5024 94.2693 41.7401 94.0414 42.0259C93.8134 42.3117 93.6444 42.6398 93.544 42.9913C93.4415 43.3426 93.4096 43.7107 93.4504 44.0744C93.4911 44.438 93.6036 44.79 93.7813 45.1098C93.9573 45.4302 94.1951 45.7126 94.4808 45.9405C94.7666 46.1684 95.0947 46.3375 95.4462 46.4378L111.264 50.9974C111.98 51.2032 112.731 51.118 113.382 50.7601C113.702 50.5841 113.984 50.3463 114.212 50.0606C114.44 49.7748 114.609 49.4467 114.71 49.0952C114.812 48.7442 114.844 48.375 114.804 48.0116C114.763 47.6482 114.651 47.2964 114.474 46.9767C114.297 46.6561 114.059 46.3737 113.773 46.1458C113.487 45.9178 113.159 45.7489 112.807 45.6486L96.9892 41.0878C96.7374 41.0151 96.4766 40.978 96.2145 40.9777Z" fill="#0F0F0F" fill-opacity="0.7"/>
<path id="Vector_20" d="M105.171 43.4064C105.019 43.4064 104.868 43.3711 104.732 43.303C104.596 43.235 104.477 43.1362 104.385 43.0144C104.293 42.8926 104.231 42.7511 104.204 42.6012C104.176 42.4512 104.184 42.2969 104.226 42.1505L109.14 25.1079C109.173 24.9811 109.231 24.8622 109.311 24.7582C109.391 24.6543 109.491 24.5673 109.605 24.5025C109.719 24.4377 109.844 24.3964 109.975 24.3809C110.105 24.3654 110.237 24.3761 110.363 24.4124C110.489 24.4487 110.606 24.5098 110.708 24.5922C110.81 24.6745 110.895 24.7764 110.957 24.8919C111.019 25.0074 111.057 25.1341 111.07 25.2647C111.082 25.3952 111.068 25.5269 111.029 25.6519L106.115 42.6945C106.056 42.8995 105.932 43.0797 105.762 43.2081C105.592 43.3365 105.385 43.4061 105.171 43.4064Z" fill="#0F0F0F" fill-opacity="0.7"/>
<path id="Vector_21" d="M110.988 26.4912C110.329 26.49 109.679 26.3358 109.09 26.0409C108.5 25.7459 107.987 25.3182 107.591 24.7914C107.195 24.2646 106.926 23.653 106.806 23.0049C106.687 22.3567 106.719 21.6895 106.901 21.0559C107.215 19.9652 107.936 19.0619 108.933 18.5113C109.421 18.2391 109.959 18.0665 110.515 18.0035C111.071 17.9405 111.634 17.9883 112.171 18.1443C113.255 18.458 114.17 19.1892 114.716 20.1773C115.262 21.1654 115.393 22.3296 115.081 23.4143C114.824 24.3012 114.286 25.0805 113.548 25.6354C112.81 26.1902 111.912 26.4905 110.988 26.4912ZM110.991 19.9455C110.608 19.9455 110.231 20.0425 109.884 20.2326C109.347 20.5289 108.96 21.0153 108.791 21.6C108.623 22.1837 108.694 22.8102 108.988 23.3418C109.282 23.8734 109.774 24.2668 110.358 24.4356C110.941 24.6028 111.567 24.5318 112.098 24.2381C112.629 23.9444 113.022 23.452 113.191 22.869C113.288 22.5281 113.306 22.1691 113.241 21.8204C113.177 21.4717 113.032 21.1426 112.819 20.8593C112.606 20.5759 112.33 20.3459 112.012 20.1873C111.695 20.0287 111.346 19.946 110.991 19.9455ZM108.845 80.6C108.692 80.6005 108.54 80.5651 108.403 80.4967C108.266 80.4283 108.147 80.3288 108.055 80.2061C107.964 80.0834 107.902 79.941 107.875 79.7902C107.848 79.6394 107.857 79.4844 107.901 79.3376L111.894 65.8176C111.973 65.5737 112.144 65.3704 112.371 65.2509C112.598 65.1314 112.862 65.1052 113.108 65.1778C113.354 65.2505 113.562 65.4163 113.687 65.6398C113.812 65.8634 113.846 66.1271 113.779 66.3747L109.789 79.8934C109.729 80.0967 109.605 80.2752 109.435 80.4023C109.266 80.5294 109.059 80.5983 108.847 80.5987L108.845 80.6ZM114.264 62.2452C114.111 62.2456 113.96 62.2102 113.823 62.1419C113.686 62.0735 113.567 61.9742 113.476 61.8516C113.384 61.7291 113.322 61.5869 113.295 61.4362C113.268 61.2856 113.277 61.1307 113.32 60.984L113.927 58.9298C113.961 58.8029 114.02 58.6842 114.101 58.5805C114.181 58.4768 114.282 58.3904 114.396 58.3261C114.511 58.2619 114.637 58.2213 114.768 58.2067C114.898 58.192 115.03 58.2036 115.156 58.2408C115.282 58.278 115.399 58.3401 115.501 58.4233C115.602 58.5065 115.686 58.6092 115.747 58.7254C115.808 58.8415 115.846 58.9687 115.857 59.0995C115.868 59.2303 115.853 59.362 115.813 59.4869L115.207 61.5412C115.147 61.7445 115.022 61.9229 114.853 62.0497C114.683 62.1766 114.476 62.2452 114.264 62.2452ZM92.893 93.9234C91.9382 93.9228 90.9887 93.7828 90.0744 93.5078C84.9302 91.9661 81.9883 86.523 83.5143 81.3748L93.7228 46.9514C93.7967 46.703 93.9657 46.4938 94.193 46.3694C94.4204 46.2449 94.6877 46.2152 94.9368 46.2868L111.777 51.1413C111.902 51.1772 112.018 51.2373 112.12 51.3183C112.221 51.3993 112.305 51.4995 112.368 51.6132C112.43 51.7269 112.469 51.8518 112.483 51.9807C112.497 52.1096 112.485 52.24 112.449 52.3644L102.247 86.9163C101.886 88.1515 101.283 89.3026 100.474 90.3026C99.6638 91.3026 98.6631 92.1314 97.5299 92.7409C96.107 93.5155 94.513 93.922 92.893 93.9234ZM95.3314 48.4459L85.4008 81.9333C84.817 83.913 85.0402 86.0432 86.0218 87.8589C87.0033 89.6746 88.6633 91.0281 90.6394 91.624C91.6229 91.922 92.6559 92.0213 93.6781 91.9162C94.7004 91.8111 95.6916 91.5036 96.5938 91.0117C97.4989 90.5251 98.2982 89.8632 98.945 89.0646C99.5919 88.2661 100.073 87.3469 100.362 86.3604L110.282 52.7564L95.3314 48.4459Z" fill="#0F0F0F" fill-opacity="0.7"/>
<path id="Vector_22" d="M38.2541 24.5614L12.2497 33.0814C10.7723 24.6466 12.0662 15.871 16.142 6.74009C16.2784 6.43297 16.4778 6.15788 16.7272 5.9326C16.9766 5.70731 17.2704 5.53684 17.5898 5.4322C17.9091 5.32756 18.2469 5.29107 18.5813 5.32509C18.9156 5.35911 19.2391 5.46288 19.5308 5.6297C28.2186 10.5799 34.4549 16.8883 38.2541 24.5614Z" fill="#FFD9B0"/>
<path id="Vector_23" d="M38.2534 24.5669L12.253 33.0842C11.6851 29.8324 11.5243 26.5225 11.7745 23.231C14.3138 23.3096 17.1337 22.9164 19.9877 21.9816C24.9916 20.3429 28.9455 17.4326 30.9447 14.2915C33.9059 17.3108 36.3734 20.7786 38.2534 24.5669Z" fill="#EDB57E"/>
<path id="Vector_24" d="M12.2528 34.0672C12.0217 34.067 11.7981 33.9854 11.6212 33.8368C11.4443 33.6882 11.3254 33.482 11.2853 33.2544C10.1644 26.8766 10.6089 20.2155 12.6028 13.4588C13.3264 11.0284 14.2101 8.64858 15.2484 6.33502C15.4391 5.90286 15.7188 5.51573 16.0691 5.19883C16.4195 4.88192 16.8326 4.64236 17.2817 4.49574C17.7319 4.34755 18.2083 4.29607 18.6798 4.34464C19.1512 4.3932 19.6071 4.54074 20.0177 4.77759C22.2256 6.02329 24.3456 7.41881 26.3628 8.95434C31.9645 13.2189 36.2632 18.3264 39.1342 24.1314C39.1966 24.2577 39.2312 24.396 39.2355 24.5369C39.2398 24.6777 39.2138 24.8179 39.1592 24.9478C39.1046 25.0777 39.0227 25.1944 38.9191 25.2899C38.8155 25.3854 38.6926 25.4575 38.5587 25.5014L12.5596 34.0187C12.4606 34.0512 12.357 34.0676 12.2528 34.0672ZM18.3383 6.29176C18.0651 6.29282 17.7979 6.37249 17.5687 6.52126C17.3395 6.67004 17.1579 6.88163 17.0457 7.13078C16.0425 9.36687 15.1885 11.667 14.4893 14.016C12.6985 20.0818 12.2122 26.0559 13.042 31.7927L36.8531 23.9924C34.1263 18.877 30.1999 14.3477 25.1685 10.5157C23.2199 9.03325 21.1722 7.68592 19.0397 6.48316C18.827 6.35831 18.5849 6.29225 18.3383 6.29176Z" fill="#0F0F0F" fill-opacity="0.7"/>
<path id="Vector_25" d="M38.2228 24.4645L53.4995 71.0969L27.4939 79.6182L12.2172 32.9832C11.6692 31.3091 12.7901 29.4252 14.7146 28.7946C16.6391 28.1654 18.6566 29.0201 19.2046 30.6942C18.6566 29.0201 20.8958 26.7692 24.223 25.6798C27.5502 24.5903 30.6861 25.0793 31.2354 26.7534C30.6861 25.0793 31.807 23.1955 33.7315 22.5649C35.656 21.9343 37.6735 22.7904 38.2228 24.4645Z" fill="#FF84A0"/>
<path id="Vector_26" d="M38.218 24.4591L53.496 71.0967L38.8184 75.904C39.9812 69.2024 39.0216 59.6913 35.7546 49.7188C32.413 39.5195 27.4012 31.124 22.3867 26.4714C22.9765 26.1541 23.5933 25.89 24.2299 25.6822C27.5506 24.5941 30.6838 25.0765 31.2305 26.748C30.6838 25.0765 31.8139 23.1979 33.7371 22.5687C35.6589 21.9394 37.67 22.7876 38.218 24.4591Z" fill="#F76189"/>
<path id="Vector_27" d="M27.5257 80.6971C27.3187 80.6969 27.1171 80.6315 26.9495 80.51C26.7819 80.3885 26.6569 80.2173 26.5923 80.0206L11.3156 33.3869C10.9617 32.3027 11.1059 31.1334 11.7259 30.0924C12.3435 29.0765 13.3079 28.3184 14.441 27.9582C15.9682 27.4587 17.548 27.7157 18.6924 28.5154C18.9205 28.1286 19.2234 27.7458 19.597 27.3709C20.6536 26.3142 22.1979 25.4175 23.9494 24.8433C25.7009 24.2691 27.4785 24.079 28.9534 24.3058C29.4764 24.3871 29.9471 24.5169 30.36 24.6939C30.8084 23.3711 31.9293 22.2293 33.4578 21.7285C34.584 21.3481 35.8098 21.3886 36.9083 21.8425C38.0239 22.3145 38.8341 23.1718 39.1894 24.2547L54.4661 70.8911C54.5464 71.139 54.5253 71.4086 54.4074 71.641C54.2895 71.8734 54.0843 72.0497 53.8368 72.1312L27.8325 80.6499C27.7339 80.6821 27.6308 80.6984 27.527 80.6984L27.5257 80.6971ZM16.0443 29.6664C15.7205 29.6664 15.3862 29.7188 15.0532 29.8263C14.3479 30.0584 13.7671 30.5093 13.4158 31.098C13.092 31.6433 13.0094 32.2385 13.1851 32.7747L28.1563 78.475L52.2912 70.5672L37.32 24.8669C37.1443 24.3321 36.7261 23.9007 36.1427 23.6543C35.4818 23.3858 34.7462 23.3653 34.0714 23.5966C32.6582 24.0594 31.8204 25.3821 32.2019 26.545C32.2831 26.7929 32.2625 27.0629 32.1446 27.2956C32.0267 27.5283 31.8212 27.7046 31.5733 27.7858C31.3254 27.867 31.0554 27.8464 30.8227 27.7285C30.59 27.6106 30.4137 27.4051 30.3325 27.1572C30.1935 26.7298 29.5656 26.3903 28.6545 26.25C27.4956 26.0717 26.0024 26.2408 24.5616 26.7115C23.1196 27.1834 21.8178 27.9307 20.9892 28.7605C20.3377 29.4134 20.0322 30.0584 20.1725 30.4857C20.2407 30.73 20.2119 30.9911 20.0924 31.2146C19.9728 31.4382 19.7716 31.6071 19.5306 31.686C19.2896 31.7649 19.0275 31.7478 18.7989 31.6383C18.5702 31.5287 18.3926 31.3352 18.3031 31.098C18.012 30.2091 17.0917 29.6664 16.0443 29.6664Z" fill="#0F0F0F" fill-opacity="0.7"/>
<path id="Vector_28" d="M31.2672 26.8557L46.4771 73.2862L34.4502 77.227L19.2404 30.7965C18.6898 29.1119 20.9302 26.8701 24.2614 25.7781C27.5821 24.69 30.7153 25.1724 31.2672 26.8557Z" fill="#AFF2B6"/>
<path id="Vector_29" d="M31.2674 26.8557L46.4785 73.2901L38.2732 75.9776C37.6125 69.3966 35.5215 60.1503 32.2506 50.1647C29.1331 40.6471 25.5594 32.3224 22.3135 26.6158C22.9351 26.2759 23.5873 25.9955 24.2616 25.7781C27.5823 24.69 30.7155 25.1724 31.2674 26.8557Z" fill="#7FD685"/>
<path id="Vector_30" d="M34.4511 78.2104C34.2438 78.2105 34.0417 78.1449 33.8738 78.0232C33.7059 77.9015 33.5808 77.7298 33.5164 77.5327L18.3053 31.1022C17.9172 29.917 18.3761 28.5917 19.5992 27.3698C20.6532 26.3158 22.2001 25.4191 23.9555 24.8449C25.7044 24.2707 27.482 24.0793 28.9503 24.3061C30.6598 24.5683 31.8122 25.3654 32.2015 26.5505L47.4113 72.981C47.4515 73.1037 47.467 73.2332 47.4571 73.362C47.4472 73.4907 47.4121 73.6163 47.3536 73.7314C47.2952 73.8466 47.2146 73.9491 47.1166 74.0332C47.0185 74.1172 46.9048 74.1811 46.7821 74.2212L34.7566 78.1606C34.658 78.1933 34.5549 78.2101 34.4511 78.2104ZM27.6879 26.1808C26.7243 26.1808 25.6336 26.3643 24.5677 26.713C23.1218 27.1863 21.8173 27.9322 20.9888 28.7608C20.3373 29.4123 20.0331 30.0586 20.1747 30.4912L35.0791 75.9857L45.2365 72.6585L30.3308 27.1627C30.1892 26.7301 29.5625 26.3892 28.6514 26.2503C28.332 26.2026 28.0108 26.1794 27.6879 26.1808Z" fill="#0F0F0F" fill-opacity="0.7"/>
<path id="Vector_31" d="M25.7631 9.73443C24.5323 11.7424 22.6276 13.2474 20.3894 13.9806C18.1512 14.7138 15.7253 14.6274 13.5449 13.7368C14.2549 11.3481 15.1233 9.00938 16.1446 6.73625C16.2801 6.4295 16.4787 6.15468 16.7273 5.92961C16.9759 5.70454 17.2691 5.53426 17.5877 5.4298C17.9064 5.32535 18.2435 5.28906 18.5771 5.32328C18.9107 5.35751 19.2334 5.46149 19.5242 5.62848C21.6955 6.85257 23.78 8.22445 25.7631 9.73443Z" fill="#FF84A0"/>
<path id="Vector_32" d="M25.7631 9.73435C24.5323 11.7423 22.6276 13.2473 20.3894 13.9805C18.1512 14.7137 15.7253 14.6273 13.5449 13.7367C13.7389 13.0773 13.9579 12.4127 14.1755 11.7441C15.7172 11.8096 17.4988 11.5553 19.3145 10.9614C21.1892 10.3466 22.82 9.46822 24.0248 8.46533C24.6226 8.87829 25.1968 9.2978 25.7631 9.73435Z" fill="#F76189"/>
<path id="Vector_33" d="M17.3043 15.4554C15.8885 15.4558 14.4861 15.1815 13.1747 14.6479C12.9487 14.5558 12.765 14.3829 12.6594 14.1629C12.5537 13.9429 12.5337 13.6915 12.6032 13.4575C13.3265 11.0274 14.2103 8.64805 15.2487 6.33502C15.4395 5.90286 15.7191 5.51573 16.0695 5.19883C16.4198 4.88192 16.8329 4.64236 17.282 4.49574C17.7322 4.34755 18.2086 4.29607 18.6801 4.34464C19.1515 4.3932 19.6074 4.54074 20.018 4.77759C22.2259 6.02329 24.3459 7.41881 26.3631 8.95434C26.556 9.10247 26.6872 9.31687 26.7313 9.5561C26.7753 9.79533 26.7292 10.0424 26.6017 10.2496C25.2487 12.4528 23.1584 14.105 20.7023 14.9127C19.6055 15.2722 18.4585 15.4554 17.3043 15.4554ZM14.761 13.1219C16.5043 13.636 18.3625 13.609 20.0901 13.0446C21.8134 12.4774 23.3238 11.4003 24.4215 9.95592C22.6969 8.69451 20.8999 7.53495 19.04 6.48316C18.8688 6.38267 18.678 6.32013 18.4806 6.29977C18.2831 6.27942 18.0836 6.30172 17.8955 6.36518C17.7076 6.42461 17.5346 6.52357 17.3881 6.65539C17.2415 6.78721 17.1249 6.94886 17.046 7.12947C16.1711 9.08174 15.4073 11.0825 14.761 13.1219Z" fill="#0F0F0F" fill-opacity="0.7"/>
<path id="Vector_34" d="M122.79 105.085C122.79 115.183 112.844 123.395 100.565 123.395C96.5535 123.395 92.7478 122.521 89.5136 120.938C84.5201 125.886 76.99 129.017 68.5985 129.017C59.9225 129.017 52.1851 125.65 47.193 120.434C43.7137 122.319 39.5396 123.396 35.0783 123.396C22.7985 123.396 12.8535 115.183 12.8535 105.085C12.8535 98.7923 16.6999 93.2377 22.594 89.9734C22.5109 89.4615 22.4697 88.9437 22.4708 88.4251C22.4708 80.7166 30.0429 74.4895 39.4163 74.4895C39.5802 74.4895 39.7847 74.4895 39.9486 74.5236C43.3453 67.3553 51.8587 62.3054 61.7631 62.3054C69.5397 62.3054 76.4577 65.436 80.7144 70.2499C81.3699 70.1817 82.0241 70.1489 82.6782 70.1489C94.4245 70.1489 104.043 77.6542 104.82 87.1456C115.054 88.7948 122.79 96.1992 122.79 105.085Z" fill="white"/>
<path id="Vector_35" d="M122.785 105.09C122.785 115.182 112.838 123.4 100.564 123.4C96.5463 123.4 92.7432 122.526 89.509 120.944C84.5208 125.882 76.9906 129.022 68.5991 129.022C59.9139 129.022 52.1845 125.653 47.1949 120.436C43.7143 122.324 39.5415 123.399 35.0764 123.399C22.8031 123.399 12.8555 115.182 12.8555 105.09C12.8555 102.759 13.3799 100.517 14.35 98.4671C25.7134 102.354 39.4642 104.621 54.2781 104.621C78.2845 104.621 99.4881 98.669 112.253 89.5525C118.582 92.7814 122.785 98.53 122.785 105.09Z" fill="#DDDDDD"/>
<path id="Vector_36" d="M14.4089 90.5347C14.2131 90.5348 14.0218 90.4765 13.8594 90.3673C13.697 90.258 13.5709 90.1027 13.4973 89.9214C13.4236 89.74 13.4058 89.5408 13.446 89.3493C13.4863 89.1577 13.5828 88.9826 13.7232 88.8462C14.0641 88.5132 14.418 88.1868 14.7851 87.8695C14.9824 87.7021 15.2377 87.6192 15.4957 87.6388C15.7537 87.6584 15.9936 87.7789 16.1633 87.9742C16.333 88.1694 16.419 88.4237 16.4025 88.682C16.386 88.9402 16.2683 89.1815 16.0751 89.3535C15.7382 89.6472 15.4104 89.9487 15.0945 90.2555C14.9113 90.4347 14.6651 90.5349 14.4089 90.5347ZM7.61018 106.07C7.34941 106.07 7.09932 105.966 6.91493 105.782C6.73054 105.597 6.62695 105.347 6.62695 105.086C6.62695 100.24 8.24075 95.5675 11.2979 91.573C11.4604 91.3783 11.6919 91.2539 11.9439 91.2258C12.196 91.1977 12.4491 91.2681 12.6505 91.4222C12.8519 91.5764 12.9859 91.8024 13.0246 92.0531C13.0632 92.3037 13.0035 92.5596 12.858 92.7673C10.0682 96.4157 8.5934 100.675 8.5934 105.086C8.5934 105.347 8.48981 105.597 8.30542 105.782C8.12103 105.966 7.87095 106.07 7.61018 106.07ZM68.599 129.999C60.2219 129.999 52.3994 126.963 47.0034 121.641C43.4323 123.435 39.3264 124.379 35.0789 124.379C22.2812 124.379 11.8708 115.724 11.8708 105.085C11.8708 98.8371 15.4707 93.0347 21.5366 89.4453C21.5042 89.1063 21.488 88.7659 21.4881 88.4254C21.4881 80.2161 29.4981 73.5354 39.3566 73.5065C43.2003 66.0839 51.9117 61.3237 61.7649 61.3237C69.3213 61.3237 76.5133 64.2695 81.1148 69.2262C81.6352 69.1869 82.1596 69.1659 82.6788 69.1659C94.5155 69.1659 104.462 76.6345 105.72 86.3055C116.226 88.2956 123.772 96.0945 123.772 105.085C123.772 115.724 113.362 124.379 100.566 124.379C96.7205 124.379 92.983 123.599 89.7095 122.117C84.3607 127.134 76.7126 129.999 68.599 129.999ZM47.1922 119.451C47.4544 119.451 47.7127 119.556 47.9041 119.754C52.9408 125.016 60.4841 128.034 68.599 128.034C76.453 128.034 83.8246 125.193 88.822 120.24C88.9672 120.096 89.1535 120.001 89.3551 119.969C89.5566 119.936 89.7635 119.966 89.9468 120.056C93.0983 121.597 96.7703 122.412 100.566 122.412C112.278 122.412 121.806 114.639 121.806 105.085C121.806 96.8536 114.597 89.718 104.665 88.1173C104.448 88.0822 104.249 87.9753 104.099 87.8137C103.95 87.6521 103.859 87.4451 103.842 87.2258C103.102 78.2011 93.8076 71.1324 82.6788 71.1324C82.06 71.1324 81.4333 71.1638 80.8159 71.2281C80.66 71.2448 80.5024 71.2238 80.3563 71.1667C80.2103 71.1097 80.0801 71.0183 79.9769 70.9003C75.7634 66.135 68.9543 63.2902 61.7649 63.2902C52.5514 63.2902 44.1416 67.9743 40.8379 74.9447C40.7438 75.1438 40.5855 75.3055 40.3884 75.404C40.1913 75.5024 39.9669 75.5318 39.7512 75.4874C39.6856 75.4743 39.5112 75.4743 39.4169 75.4743C30.615 75.4743 23.4545 81.2832 23.4545 88.4254C23.4545 88.9039 23.4912 89.3588 23.5646 89.815C23.5973 90.015 23.5673 90.2202 23.4789 90.4026C23.3904 90.5849 23.2477 90.7355 23.0704 90.8336C17.289 94.0363 13.8373 99.3641 13.8373 105.085C13.8373 114.639 23.3654 122.412 35.0789 122.412C39.2648 122.412 43.2921 121.429 46.7242 119.569C46.8679 119.491 47.0288 119.45 47.1922 119.451Z" fill="#0F0F0F" fill-opacity="0.7"/>
<path id="Vector_37" d="M16.5985 68.1471C14.7475 68.5329 13.0495 69.4512 11.7133 70.789C10.3772 72.1268 9.461 73.8258 9.07745 75.6773C9.06981 75.7239 9.04584 75.7664 9.00981 75.797C8.97379 75.8276 8.92807 75.8444 8.8808 75.8444C8.83354 75.8444 8.78782 75.8276 8.75179 75.797C8.71577 75.7664 8.6918 75.7239 8.68416 75.6773C8.30719 73.8217 7.38781 72.1199 6.04256 70.7874C4.71278 69.4441 3.01487 68.5249 1.16314 68.1458C1.1165 68.1382 1.07409 68.1142 1.04349 68.0782C1.01289 68.0421 0.996094 67.9964 0.996094 67.9492C0.996094 67.9019 1.01289 67.8562 1.04349 67.8201C1.07409 67.7841 1.1165 67.7601 1.16314 67.7525C3.01727 67.3716 4.71806 66.4528 6.05305 65.1109C7.36402 63.7999 8.30005 62.114 8.68416 60.221C8.6918 60.1744 8.71577 60.132 8.75179 60.1014C8.78782 60.0708 8.83354 60.054 8.8808 60.054C8.92807 60.054 8.97379 60.0708 9.00981 60.1014C9.04584 60.132 9.06981 60.1744 9.07745 60.221C9.45506 62.0743 10.3707 63.7752 11.7099 65.1109C13.0208 66.4219 14.7067 67.3684 16.5998 67.7525C16.6464 67.7601 16.6888 67.7841 16.7194 67.8201C16.75 67.8562 16.7668 67.9019 16.7668 67.9492C16.7668 67.9964 16.75 68.0421 16.7194 68.0782C16.6888 68.1142 16.6464 68.1382 16.5998 68.1458L16.5985 68.1471Z" fill="#DABCBC"/>
<path id="Vector_38" d="M16.6025 68.1419C14.7493 68.5269 13.0492 69.4457 11.7118 70.7852C10.3745 72.1246 9.45829 73.8261 9.07622 75.6799C9.06777 75.7261 9.0434 75.7679 9.00735 75.7979C8.9713 75.828 8.92585 75.8444 8.87892 75.8444C8.83198 75.8444 8.78654 75.828 8.75049 75.7979C8.71444 75.7679 8.69007 75.7261 8.68162 75.6799C8.32793 73.9136 7.47955 72.2841 6.23535 70.9814C7.67658 70.7172 8.98503 69.9705 9.94564 68.8641C10.9063 67.7577 11.4619 66.3574 11.5212 64.8933C11.5723 64.9707 11.6483 65.0467 11.7126 65.1096C13.0235 66.4219 14.7055 67.3645 16.6025 67.746C16.8188 67.7984 16.8188 68.1026 16.6025 68.1419Z" fill="#BC9595"/>
<path id="Vector_39" d="M8.88099 76.8286C8.60756 76.8292 8.34242 76.7347 8.131 76.5613C7.91957 76.3879 7.77502 76.1464 7.7221 75.8781C7.3847 74.2111 6.55866 72.6823 5.34925 71.4864C4.15706 70.2769 2.63192 69.4495 0.967994 69.1096C0.696765 69.0601 0.451439 68.9172 0.274612 68.7056C0.0977858 68.4941 0.000626091 68.2273 3.01547e-06 67.9516C-0.00062006 67.6759 0.0953328 67.4086 0.271201 67.1963C0.44707 66.984 0.691747 66.8399 0.962751 66.7892C2.62923 66.449 4.15802 65.6239 5.35711 64.4177C6.55998 63.2193 7.38225 61.6924 7.72079 60.0285C7.83877 59.4635 8.31596 59.0715 8.88099 59.0715C9.44602 59.0715 9.92452 59.4635 10.0412 60.0233C10.3788 61.689 11.2012 63.2178 12.4049 64.4177C13.6024 65.6241 15.1299 66.4496 16.7953 66.7905C17.0646 66.8426 17.3074 66.987 17.4818 67.1987C17.6562 67.4105 17.7514 67.6764 17.751 67.9507C17.7517 68.2243 17.6572 68.4896 17.4838 68.7013C17.3105 68.9129 17.0689 69.0577 16.8005 69.1109H16.7979C15.1333 69.454 13.6058 70.2779 12.4048 71.4805C11.2038 72.6831 10.382 74.2117 10.0412 75.8768C9.98877 76.1458 9.84425 76.3881 9.63251 76.562C9.42076 76.736 9.15502 76.8294 8.88099 76.8286ZM3.69218 67.9507C4.81699 68.4751 5.84741 69.1961 6.74018 70.0955C7.62958 70.9772 8.35493 72.0102 8.8823 73.1461C9.94195 70.8542 11.7814 69.0134 14.0724 67.952C12.9355 67.4224 11.9007 66.6968 11.0152 65.8086C10.1301 64.9256 9.40757 63.8933 8.88099 62.7593C8.35511 63.8934 7.63304 64.9257 6.74805 65.8086C5.86284 66.6962 4.82848 67.4213 3.69218 67.9507Z" fill="#0F0F0F" fill-opacity="0.7"/>
<path id="Vector_40" d="M129.017 77.3358C129.017 78.5249 128.544 79.6653 127.704 80.5061C126.863 81.3469 125.722 81.8193 124.533 81.8193C123.344 81.8193 122.204 81.3469 121.363 80.5061C120.522 79.6653 120.05 78.5249 120.05 77.3358C120.05 76.1467 120.522 75.0063 121.363 74.1655C122.204 73.3247 123.344 72.8523 124.533 72.8523C125.722 72.8523 126.863 73.3247 127.704 74.1655C128.544 75.0063 129.017 76.1467 129.017 77.3358Z" fill="#C3C9FB"/>
<path id="Vector_41" d="M129.019 77.3331C129.019 78.5223 128.548 79.6629 127.708 80.5048C126.868 81.3466 125.728 81.8208 124.539 81.8232C123.616 81.8215 122.716 81.5363 121.961 81.0061C121.205 80.476 120.631 79.7265 120.315 78.8591C121.107 79.3413 122.028 79.5671 122.952 79.5053C123.877 79.4435 124.76 79.0973 125.48 78.514C126.2 77.9308 126.722 77.1391 126.974 76.2475C127.227 75.356 127.197 74.4081 126.89 73.5339C127.54 73.9329 128.076 74.4914 128.449 75.1565C128.822 75.8215 129.018 76.5708 129.019 77.3331Z" fill="#8693E2"/>
<path id="Vector_42" d="M124.537 82.8065C123.087 82.8044 121.696 82.2273 120.671 81.2018C119.646 80.1763 119.069 78.786 119.067 77.3358C119.07 75.8867 119.647 74.4979 120.673 73.4738C121.698 72.4498 123.088 71.8741 124.537 71.873C125.985 71.8744 127.374 72.4504 128.398 73.4746C129.422 74.4988 129.998 75.8874 130 77.3358C129.999 78.7852 129.423 80.1751 128.399 81.2007C127.375 82.2262 125.986 82.8037 124.537 82.8065ZM124.537 73.8395C123.609 73.8398 122.719 74.2081 122.063 74.8635C121.406 75.519 121.036 76.4081 121.034 77.3358C121.034 79.2682 122.606 80.8401 124.537 80.8401C125.465 80.8401 126.355 80.4713 127.012 79.8149C127.668 79.1584 128.037 78.2681 128.037 77.3398C128.037 76.4114 127.668 75.5211 127.012 74.8647C126.355 74.2083 125.465 73.8395 124.537 73.8395Z" fill="#0F0F0F" fill-opacity="0.7"/>
<path id="Vector_43" d="M89.469 5.99303C89.469 7.18213 88.9966 8.32253 88.1558 9.16335C87.315 10.0042 86.1746 10.4765 84.9855 10.4765C83.7964 10.4765 82.656 10.0042 81.8151 9.16335C80.9743 8.32253 80.502 7.18213 80.502 5.99303C80.502 4.80393 80.9743 3.66353 81.8151 2.82271C82.656 1.98189 83.7964 1.50952 84.9855 1.50952C86.1746 1.50952 87.315 1.98189 88.1558 2.82271C88.9966 3.66353 89.469 4.80393 89.469 5.99303Z" fill="#ABECEF"/>
<path id="Vector_44" d="M89.4678 5.99166C89.4678 7.1801 88.9965 8.32005 88.1573 9.16152C87.318 10.003 86.1793 10.4773 84.9909 10.4804C84.0677 10.479 83.1672 10.1939 82.4115 9.66375C81.6557 9.13356 81.0811 8.38391 80.7656 7.51631C81.5569 7.99857 82.4779 8.22428 83.4025 8.1625C84.3271 8.10073 85.2099 7.75449 85.93 7.17125C86.6501 6.58802 87.1721 5.79634 87.4246 4.90476C87.677 4.01317 87.6475 3.06533 87.3401 2.19116C87.9899 2.59022 88.5267 3.149 88.8994 3.81426C89.272 4.47952 89.4669 5.22912 89.4678 5.99166Z" fill="#75C5C9"/>
<path id="Vector_45" d="M84.9902 11.4635C83.5398 11.4618 82.1493 10.8848 81.1238 9.85926C80.0982 8.83368 79.5213 7.44321 79.5195 5.99283C79.5223 4.5435 80.0998 3.15443 81.1254 2.13033C82.151 1.10624 83.5409 0.530721 84.9902 0.530029C86.4384 0.531765 87.8267 1.10791 88.8506 2.13204C89.8745 3.15618 90.4503 4.54466 90.4517 5.99283C90.451 7.44194 89.8757 8.83163 88.8519 9.85717C87.828 10.8827 86.4393 11.4604 84.9902 11.4635ZM84.9902 2.49648C84.0622 2.49648 83.1721 2.86459 82.5151 3.52006C81.8582 4.17553 81.4881 5.06482 81.486 5.99283C81.486 7.9252 83.0578 9.49704 84.9902 9.49704C85.9185 9.49704 86.8088 9.12827 87.4653 8.47184C88.1217 7.8154 88.4905 6.92509 88.4905 5.99676C88.4905 5.06843 88.1217 4.17812 87.4653 3.52169C86.8088 2.86526 85.9185 2.49648 84.9902 2.49648Z" fill="#0F0F0F" fill-opacity="0.7"/>
</g>
</svg>
