<svg width="126" height="145" viewBox="0 0 126 145" fill="none" xmlns="http://www.w3.org/2000/svg">
<g id="Group">
<path id="Vector" d="M86.462 98.569L79.4613 95.6353H46.555L39.5543 98.569C37.1638 99.5707 35.1408 101.166 33.7233 103.168C32.3058 105.17 31.5528 107.495 31.5527 109.869V142.869C31.5527 143.434 31.8021 143.976 32.2459 144.375C32.6897 144.775 33.2916 144.999 33.9192 144.999H92.0973C92.725 144.999 93.3269 144.775 93.7707 144.375C94.2145 143.976 94.4638 143.434 94.4638 142.869V109.869C94.4639 107.495 93.7108 105.17 92.2933 103.168C90.8757 101.166 88.8526 99.5706 86.462 98.569Z" fill="#80B4FB"/>
<path id="Vector_2" d="M86.461 98.5693L79.4603 95.6359C73.1707 92.9093 70.0456 93.4227 71.4304 98.5535L78.4311 101.487C80.8216 102.489 82.8446 104.085 84.2621 106.086C85.6796 108.088 86.4326 110.413 86.4327 112.787V144.036C86.4327 144.384 86.3383 144.71 86.1747 145H92.096C92.7236 145 93.3256 144.776 93.7694 144.376C94.2132 143.976 94.4625 143.434 94.4625 142.869V109.869C94.4627 107.495 93.7097 105.17 92.2922 103.168C90.8746 101.167 88.8515 99.5709 86.461 98.5693Z" fill="#61A2F9"/>
<path id="Vector_3" d="M83.63 129.522H72.3332C71.6887 129.522 71.0706 129.292 70.6149 128.881C70.1592 128.471 69.9031 127.914 69.9031 127.334C69.9031 126.754 70.1592 126.197 70.6149 125.787C71.0706 125.377 71.6887 125.146 72.3332 125.146H83.63C84.2745 125.146 84.8925 125.377 85.3483 125.787C85.804 126.197 86.06 126.754 86.06 127.334C86.06 127.914 85.804 128.471 85.3483 128.881C84.8925 129.292 84.2745 129.522 83.63 129.522ZM62.9993 27.4199C44.3291 27.4199 29.173 41.0142 29.1007 57.8248C29.0463 70.4571 27.7649 81.3425 22.707 86.6044C22.2871 87.0411 22.4985 87.7228 23.1134 87.8871C49.7037 94.9923 76.2943 94.9923 102.885 87.8871C103.5 87.7228 103.711 87.0411 103.291 86.6044C98.2334 81.3425 96.9517 70.4571 96.8973 57.8248C96.8256 41.0142 81.6695 27.4199 62.9993 27.4199Z" fill="#365E7D"/>
<path id="Vector_4" d="M54.7791 30.6292C73.4804 30.6292 88.5994 44.2662 88.678 61.1049C88.7368 73.6754 90.0176 84.5062 95.0342 89.7729C97.6697 89.2079 100.288 88.5789 102.885 87.8865C103.5 87.7225 103.711 87.0414 103.291 86.6047C98.2336 81.3431 96.9519 70.4574 96.8975 57.8248C96.8252 41.0142 81.6691 27.4199 62.9989 27.4199C56.6118 27.4199 50.6364 29.0115 45.5352 31.7781C48.5429 31.0135 51.6537 30.6268 54.7791 30.6292Z" fill="#2B4D66"/>
<path id="Vector_5" d="M56.0917 100.302L53.8995 108.496C53.7361 109.106 53.7917 109.748 54.0583 110.328C54.325 110.909 54.789 111.398 55.3837 111.726L61.2817 114.982C61.801 115.269 62.3983 115.42 63.0075 115.42C63.6167 115.42 64.2139 115.269 64.7333 114.982L70.6313 111.726C71.226 111.398 71.69 110.909 71.9566 110.328C72.2233 109.748 72.2789 109.106 72.1155 108.496L69.9233 100.302C67.7263 96.0986 58.2902 95.8001 56.0917 100.302Z" fill="#FFCBBE"/>
<path id="Vector_6" d="M38.746 61.0873C38.6416 61.0765 38.5358 61.0857 38.4356 61.1143C38.3354 61.1428 38.2431 61.1901 38.1646 61.253C38.086 61.3159 38.0231 61.393 37.98 61.4793C37.9368 61.5655 37.9144 61.659 37.9141 61.7537V78.5835C37.9141 91.0623 49.1489 101.179 63.0082 101.179C76.8671 101.179 88.1023 91.0626 88.1023 78.5835V61.5897C88.1023 61.2527 87.8242 60.9703 87.4534 60.9242C81.1657 60.1419 75.6895 58.3623 71.5714 54.9143C71.4417 54.8043 71.2728 54.7393 71.0949 54.7309C70.9169 54.7225 70.7414 54.7712 70.5996 54.8684C62.131 60.6602 51.2789 62.328 38.746 61.0873Z" fill="#FFDDCE"/>
<path id="Vector_7" d="M87.4515 60.9239C81.6095 60.197 75.8889 58.5295 71.5714 54.9144C71.4417 54.8044 71.2729 54.7394 71.0949 54.7309C70.9169 54.7225 70.7414 54.7711 70.5996 54.8682C62.131 60.6603 51.2789 62.3281 38.746 61.0873C38.6416 61.0766 38.5358 61.0858 38.4356 61.1143C38.3354 61.1429 38.2431 61.1902 38.1646 61.2531C38.086 61.316 38.0231 61.3931 37.98 61.4793C37.9368 61.5656 37.9144 61.6591 37.9141 61.7537V65.2719C37.9144 65.1773 37.9368 65.0838 37.98 64.9976C38.0231 64.9113 38.086 64.8342 38.1646 64.7713C38.2431 64.7084 38.3354 64.6611 38.4356 64.6326C38.5358 64.604 38.6416 64.5948 38.746 64.6056C51.2786 65.8463 62.1306 65.0539 70.5989 59.2621C70.8889 59.0639 71.2943 59.0752 71.5604 59.2986C73.5401 60.9602 75.8352 61.754 78.3831 62.4651C80.046 62.9293 81.1862 64.3062 81.1862 65.874V78.5836C81.1862 90.0054 71.7718 99.442 59.55 100.96C60.681 101.1 61.834 101.178 63.0079 101.178C76.8668 101.178 88.102 91.0624 88.102 78.5833V61.5895C88.1014 61.4264 88.0352 61.2691 87.9156 61.1467C87.796 61.0243 87.6311 60.9451 87.4515 60.9239Z" fill="#FFCBBE"/>
<path id="Vector_8" d="M53.682 74.7801C53.0375 74.7801 52.4194 74.5496 51.9637 74.1393C51.508 73.7289 51.252 73.1724 51.252 72.5921V72.3352C51.252 71.7549 51.508 71.1984 51.9637 70.7881C52.4194 70.3777 53.0375 70.1472 53.682 70.1472C54.3265 70.1472 54.9445 70.3777 55.4003 70.7881C55.856 71.1984 56.112 71.7549 56.112 72.3352V72.5921C56.112 72.8794 56.0492 73.164 55.9271 73.4295C55.805 73.695 55.626 73.9362 55.4004 74.1394C55.1747 74.3425 54.9068 74.5037 54.612 74.6137C54.3171 74.7236 54.0011 74.7802 53.682 74.7801ZM72.3337 74.7801C71.6892 74.7801 71.0711 74.5496 70.6154 74.1393C70.1597 73.7289 69.9036 73.1724 69.9036 72.5921V72.3352C69.9036 72.0479 69.9665 71.7634 70.0886 71.4979C70.2107 71.2325 70.3897 70.9913 70.6154 70.7881C70.841 70.5849 71.1089 70.4237 71.4037 70.3138C71.6986 70.2038 72.0145 70.1472 72.3337 70.1472C72.6528 70.1472 72.9688 70.2038 73.2636 70.3138C73.5584 70.4237 73.8263 70.5849 74.0519 70.7881C74.2776 70.9913 74.4566 71.2325 74.5787 71.4979C74.7008 71.7634 74.7637 72.0479 74.7637 72.3352V72.5921C74.7637 72.8794 74.7009 73.164 74.5788 73.4295C74.4567 73.695 74.2777 73.9362 74.052 74.1394C73.8264 74.3425 73.5585 74.5037 73.2636 74.6137C72.9688 74.7236 72.6528 74.7802 72.3337 74.7801Z" fill="#2B4D66"/>
<path id="Vector_9" d="M63.0077 88.0494C61.0491 88.0494 59.0909 87.5365 57.1867 86.5113C56.9128 86.3639 56.6739 86.1693 56.4835 85.9386C56.2932 85.708 56.1551 85.4459 56.0773 85.1672C55.9995 84.8886 55.9833 84.5988 56.0299 84.3146C56.0764 84.0303 56.1847 83.7571 56.3485 83.5105C56.6794 83.0126 57.2164 82.6534 57.8413 82.5119C58.4663 82.3704 59.1281 82.4581 59.6812 82.7558C61.9502 83.9781 64.0635 83.9783 66.3331 82.7558C66.607 82.6083 66.9104 82.5108 67.2261 82.4689C67.5418 82.427 67.8636 82.4416 68.1731 82.5116C68.4826 82.5817 68.7737 82.706 69.0298 82.8774C69.2859 83.0488 69.5021 83.2639 69.6658 83.5105C69.8296 83.7571 69.9379 84.0303 69.9844 84.3146C70.0309 84.5988 70.0148 84.8886 69.937 85.1672C69.8591 85.4459 69.7211 85.708 69.5308 85.9386C69.3404 86.1692 69.1015 86.3638 68.8276 86.5113C66.9241 87.5365 64.9659 88.0494 63.0077 88.0494Z" fill="#DD636E"/>
<path id="Vector_10" d="M64.4775 0.747226L71.5332 11.1623C71.6522 11.338 71.8087 11.4907 71.9936 11.6116C72.1785 11.7326 72.3881 11.8193 72.6105 11.8669L85.7916 14.6904C87.0522 14.9603 87.5486 16.3358 86.705 17.2214L77.8845 26.4818C77.7357 26.638 77.6228 26.8192 77.5522 27.0149C77.4816 27.2106 77.4547 27.4169 77.473 27.622L78.5638 39.7822C78.6682 40.945 77.3686 41.7952 76.1725 41.3466L63.6654 36.6548C63.4544 36.5757 63.2282 36.535 62.9997 36.535C62.7712 36.535 62.5449 36.5757 62.334 36.6548L49.8269 41.3466C48.6307 41.7952 47.3314 40.9453 47.4355 39.7822L48.5263 27.622C48.5447 27.4169 48.5178 27.2106 48.4472 27.0149C48.3766 26.8192 48.2637 26.638 48.1149 26.4818L39.2944 17.2217C38.4508 16.3361 38.9471 14.9606 40.2077 14.6907L53.3889 11.8672C53.6112 11.8196 53.8209 11.7328 54.0058 11.6119C54.1907 11.4909 54.3471 11.3382 54.4661 11.1626L61.5219 0.747509C62.1965 -0.248797 63.8025 -0.248797 64.4775 0.747226Z" fill="#FFD064"/>
<path id="Vector_11" d="M63.6649 36.6546L76.172 41.3465C77.3681 41.795 78.6674 40.9452 78.563 39.782L77.4722 27.6219C77.4539 27.4168 77.4807 27.2105 77.5514 27.0148C77.622 26.8191 77.7349 26.6379 77.8836 26.4817L86.7042 17.2213C87.5478 16.3357 87.0514 14.9602 85.7908 14.6903L72.6097 11.8668C72.3873 11.8192 72.1777 11.7324 71.9928 11.6115C71.8079 11.4905 71.6514 11.3378 71.5324 11.1622L64.477 0.747106C64.3235 0.518052 64.1066 0.328791 63.8476 0.197837C63.5885 0.0668823 63.2961 -0.00127985 62.999 1.81987e-05C67.3445 14.7815 68.2079 27.4772 62.999 36.5348C63.2255 36.5348 63.4516 36.5748 63.6649 36.6546Z" fill="#FFC250"/>
<path id="Vector_12" d="M15.4205 17.736L19.5326 23.8058C19.602 23.9082 19.6932 23.9972 19.8009 24.0677C19.9087 24.1382 20.0308 24.1887 20.1604 24.2165L27.8424 25.8622C28.5771 26.0196 28.8662 26.8211 28.3746 27.3374L23.234 32.7344C23.1472 32.8254 23.0814 32.9309 23.0403 33.045C22.9991 33.159 22.9835 33.2792 22.9943 33.3988L23.6299 40.4859C23.6906 41.1636 22.9333 41.6592 22.2363 41.3975L14.9471 38.6632C14.8242 38.6171 14.6924 38.5933 14.5592 38.5933C14.426 38.5933 14.2941 38.6171 14.1712 38.6632L6.88208 41.3975C6.18509 41.6589 5.42771 41.1636 5.48842 40.4859L6.12407 33.3988C6.13479 33.2793 6.11913 33.159 6.07799 33.045C6.03686 32.931 5.97107 32.8254 5.8844 32.7344L0.743799 27.3374C0.252196 26.8214 0.54156 26.0196 1.27598 25.8622L8.95795 24.2165C9.08752 24.1887 9.20971 24.1382 9.31746 24.0677C9.42521 23.9972 9.51639 23.9082 9.58574 23.8058L13.6979 17.736C14.0913 17.1554 15.0273 17.1554 15.4205 17.736Z" fill="#FFD064"/>
<path id="Vector_13" d="M14.9474 38.6631L22.2365 41.3974C22.9335 41.6588 23.6909 41.1635 23.6302 40.4858L22.9945 33.3989C22.9838 33.2794 22.9995 33.1591 23.0406 33.045C23.0818 32.931 23.1475 32.8253 23.2342 32.7342L28.3748 27.3372C28.8664 26.8212 28.577 26.0195 27.8426 25.862L20.1606 24.2164C20.0311 24.1886 19.9089 24.138 19.8011 24.0676C19.6934 23.9971 19.6022 23.9081 19.5328 23.8057L15.4207 17.7358C15.3313 17.6024 15.2049 17.4921 15.054 17.4158C14.903 17.3395 14.7327 17.2998 14.5596 17.3005C17.0921 25.9153 17.5954 33.3142 14.5596 38.5931C14.6927 38.5931 14.8245 38.6169 14.9474 38.6631Z" fill="#FFC250"/>
<path id="Vector_14" d="M112.3 17.736L116.412 23.8058C116.482 23.9082 116.573 23.9972 116.681 24.0677C116.789 24.1382 116.911 24.1887 117.04 24.2165L124.722 25.8622C125.457 26.0196 125.746 26.8211 125.254 27.3374L120.114 32.7344C120.027 32.8254 119.961 32.9309 119.92 33.045C119.879 33.159 119.863 33.2792 119.874 33.3988L120.51 40.4859C120.571 41.1636 119.813 41.6592 119.116 41.3975L111.827 38.6632C111.704 38.6171 111.572 38.5933 111.439 38.5933C111.306 38.5933 111.174 38.6171 111.051 38.6632L103.762 41.3975C103.065 41.6589 102.308 41.1636 102.368 40.4859L103.004 33.3988C103.015 33.2793 102.999 33.159 102.958 33.045C102.917 32.931 102.851 32.8254 102.764 32.7344L97.6237 27.3374C97.1321 26.8214 97.4214 26.0196 98.1559 25.8622L105.838 24.2165C105.967 24.1887 106.09 24.1382 106.197 24.0677C106.305 23.9972 106.396 23.9082 106.466 23.8058L110.578 17.736C110.971 17.1554 111.907 17.1554 112.3 17.736Z" fill="#FFD064"/>
<path id="Vector_15" d="M111.829 38.6631L119.118 41.3974C119.815 41.6588 120.573 41.1635 120.512 40.4858L119.876 33.3989C119.866 33.2794 119.881 33.1591 119.922 33.045C119.964 32.931 120.029 32.8253 120.116 32.7342L125.257 27.3372C125.748 26.8212 125.459 26.0195 124.724 25.862L117.042 24.2164C116.913 24.1886 116.791 24.138 116.683 24.0676C116.575 23.9971 116.484 23.9081 116.415 23.8057L112.303 17.7358C112.213 17.6024 112.087 17.4921 111.936 17.4158C111.785 17.3395 111.615 17.2998 111.441 17.3005C113.974 25.9153 114.477 33.3142 111.441 38.5931C111.575 38.5931 111.706 38.6169 111.829 38.6631Z" fill="#FFC250"/>
</g>
</svg>
