<svg width="80" height="80" viewBox="0 0 80 80" fill="none" xmlns="http://www.w3.org/2000/svg">
<g id="Group">
<path id="Vector" d="M80 13.1221C80 10.5374 77.8972 8.43457 75.3125 8.43457H62.2656C61.4027 8.43457 60.7031 9.1341 60.7031 9.99707C60.7031 10.86 61.4027 11.5596 62.2656 11.5596H75.3125C76.1741 11.5596 76.875 12.2605 76.875 13.1221V22.5069H3.125V13.1221C3.125 12.2605 3.82594 11.5596 4.6875 11.5596H24.1537C25.0167 11.5596 25.7162 10.86 25.7162 9.99707C25.7162 9.1341 25.0167 8.43457 24.1537 8.43457H4.6875C2.10281 8.43457 0 10.5374 0 13.1221V24.0694C0 24.09 0.00234375 24.1099 0.003125 24.1304C0.00234375 24.1507 0 24.1707 0 24.1913V29.6502C0 32.3155 1.38469 34.6621 3.47109 36.013C3.44877 36.119 3.43752 36.2269 3.4375 36.3352V76.8724H1.5625C0.699531 76.8724 0 77.5719 0 78.4349C0 79.2979 0.699531 79.9974 1.5625 79.9974H78.4375C79.3005 79.9974 80 79.2979 80 78.4349C80 77.5719 79.3005 76.8724 78.4375 76.8724H76.5625V36.3349C76.5625 36.2244 76.5506 36.1168 76.5289 36.0127C78.6153 34.6618 80 32.3152 80 29.6499V24.191C80 24.1704 79.9977 24.1505 79.9969 24.13C79.9977 24.1097 80 24.0897 80 24.0691V13.1221ZM54.3748 25.6318H64.0625V29.6499C64.0625 32.1046 62.0655 34.1016 59.6108 34.1016H58.8266C56.3719 34.1016 54.3748 32.1046 54.3748 29.6499V25.6318ZM41.5623 25.6318H51.25V29.6499C51.25 32.1046 49.253 34.1016 46.7983 34.1016H46.0141C43.5594 34.1016 41.5623 32.1046 41.5623 29.6499V25.6318ZM28.7498 25.6318H38.4375V29.6499C38.4375 32.1046 36.4405 34.1016 33.9858 34.1016H33.2016C30.7469 34.1016 28.7498 32.1046 28.7498 29.6499V25.6318ZM15.9373 25.6318H25.625V29.6499C25.625 32.1046 23.628 34.1016 21.1733 34.1016H20.3891C17.9344 34.1016 15.9373 32.1046 15.9373 29.6499V25.6318ZM3.125 29.6499V25.6318H12.8125V29.6499C12.8125 32.1046 10.8155 34.1016 8.36078 34.1016H7.57656C5.12203 34.1016 3.125 32.1046 3.125 29.6499ZM36.25 76.8721H15V46.2471H36.25V76.8721ZM73.4375 65.6221H48.75V46.2471H73.4375V65.6221ZM73.4384 43.1221H47.1875C46.3245 43.1221 45.625 43.8216 45.625 44.6846V67.1846C45.625 68.0475 46.3245 68.7471 47.1875 68.7471H73.4375V76.8721H39.375V44.6846C39.375 43.8216 38.6755 43.1221 37.8125 43.1221H13.4375C12.5745 43.1221 11.875 43.8216 11.875 44.6846V76.8721H6.5625V37.1568C6.89453 37.2014 7.23266 37.2266 7.57672 37.2266H8.36094C10.8094 37.2266 12.9891 36.0582 14.3752 34.2507C15.7611 36.0582 17.9408 37.2266 20.3894 37.2266H21.1736C23.622 37.2266 25.8017 36.0582 27.1878 34.2507C28.5737 36.0582 30.7534 37.2266 33.202 37.2266H33.9862C36.4347 37.2266 38.6144 36.0582 40.0005 34.2507C41.3864 36.0582 43.5661 37.2266 46.0147 37.2266H46.7989C49.2473 37.2266 51.427 36.0582 52.8131 34.2507C54.1991 36.0582 56.3787 37.2266 58.8273 37.2266H59.6116C62.06 37.2266 64.2397 36.0582 65.6258 34.2507C67.0117 36.0582 69.1914 37.2266 71.64 37.2266H72.4242C72.7683 37.2266 73.1064 37.2014 73.4384 37.1568V43.1221ZM76.8748 29.6499C76.875 32.1046 74.878 34.1016 72.4233 34.1016H71.6391C69.1844 34.1016 67.1873 32.1046 67.1873 29.6499V25.6318H76.8748V29.6499Z" fill="white"/>
<path id="Vector_2" d="M32.3547 60.4549C32.0641 60.1643 31.6609 59.9971 31.25 59.9971C30.8391 59.9971 30.4359 60.1643 30.1453 60.4549C29.8547 60.7455 29.6875 61.1486 29.6875 61.5596C29.6875 61.9705 29.8547 62.3736 30.1453 62.6643C30.4359 62.9549 30.8391 63.1221 31.25 63.1221C31.6609 63.1221 32.0641 62.9549 32.3547 62.6643C32.6453 62.3736 32.8125 61.9705 32.8125 61.5596C32.8125 61.1486 32.6453 60.7455 32.3547 60.4549ZM47.8789 1.80568C45.4712 -0.601816 41.5538 -0.601973 39.1461 1.80568L32.1213 8.83053C30.9548 9.99678 30.3125 11.5476 30.3125 13.1969C30.3125 14.8463 30.9548 16.3971 32.1211 17.5633C33.325 18.7672 34.9062 19.3691 36.4877 19.3691C38.0689 19.3691 39.6502 18.7671 40.8541 17.5633L44.3653 14.0519L44.3666 14.0508L44.3677 14.0496L47.8789 10.5383C49.0452 9.37225 49.6875 7.82146 49.6875 6.17209C49.6875 4.52271 49.0452 2.97209 47.8789 1.80568ZM38.6442 15.3537C37.4552 16.543 35.5202 16.5429 34.3309 15.3537C34.0468 15.0711 33.8215 14.735 33.6681 14.3648C33.5148 13.9946 33.4364 13.5976 33.4375 13.1969C33.4375 12.3822 33.7547 11.6165 34.3309 11.0404L36.7384 8.63287L41.0517 12.9462L38.6442 15.3537ZM45.6691 8.32881L43.2616 10.7363L38.9483 6.42303L41.3558 4.01537C41.9503 3.42068 42.7314 3.1235 43.5125 3.1235C44.2936 3.1235 45.0745 3.42084 45.6691 4.01537C46.2453 4.59146 46.5625 5.3574 46.5625 6.17209C46.5625 6.98678 46.2453 7.75271 45.6691 8.32881ZM66.7917 54.3604H62.6395V50.2082C62.6395 49.3452 61.94 48.6457 61.077 48.6457C60.2141 48.6457 59.5145 49.3452 59.5145 50.2082V54.3604H55.3623C54.4994 54.3604 53.7998 55.0599 53.7998 55.9229C53.7998 56.7858 54.4994 57.4854 55.3623 57.4854H59.5145V61.6376C59.5145 62.5005 60.2141 63.2001 61.077 63.2001C61.94 63.2001 62.6395 62.5005 62.6395 61.6376V57.4854H66.7917C67.6547 57.4854 68.3542 56.7858 68.3542 55.9229C68.3542 55.0599 67.6547 54.3604 66.7917 54.3604ZM20.9375 50.5179C20.0745 50.5179 19.375 51.2174 19.375 52.0804V65.1012C19.375 65.9641 20.0745 66.6637 20.9375 66.6637C21.8005 66.6637 22.5 65.9641 22.5 65.1012V52.0804C22.5 51.2174 21.8005 50.5179 20.9375 50.5179ZM22.0422 69.933C21.7516 69.6424 21.3484 69.4768 20.9375 69.4768C20.5266 69.4768 20.1234 69.6424 19.8328 69.933C19.5408 70.2273 19.3764 70.6247 19.375 71.0393C19.375 71.4502 19.5422 71.8533 19.8328 72.144C20.1234 72.4346 20.5266 72.6018 20.9375 72.6018C21.3484 72.6018 21.7516 72.4346 22.0422 72.144C22.3328 71.8518 22.5 71.4502 22.5 71.0393C22.4986 70.6247 22.3342 70.2273 22.0422 69.933Z" fill="white"/>
</g>
</svg>
