<svg width="80" height="80" viewBox="0 0 80 80" fill="none" xmlns="http://www.w3.org/2000/svg">
<g id="Group">
<path id="Vector" d="M24 60H26.6667V62.6667H24V60Z" fill="white"/>
<path id="Vector_2" d="M76 72H73.3333V35.8667C74.8372 35.5554 76.1882 34.7361 77.1593 33.5464C78.1305 32.3567 78.6627 30.8691 78.6667 29.3333C78.6693 29.262 78.6648 29.1905 78.6533 29.12L76.3467 15.3467C76.1978 14.4114 75.7197 13.5602 74.9984 12.9465C74.2772 12.3328 73.3603 11.9971 72.4133 12H62.6667V4C62.6635 2.94011 62.2411 1.92453 61.4916 1.17507C60.7421 0.425609 59.7266 0.00316545 58.6667 0H21.3333C20.2734 0.00316545 19.2579 0.425609 18.5084 1.17507C17.7589 1.92453 17.3365 2.94011 17.3333 4V12H7.58667C6.63967 11.9971 5.72284 12.3328 5.00158 12.9465C4.28033 13.5602 3.80215 14.4114 3.65333 15.3467L1.34667 29.12C1.33516 29.1905 1.33069 29.262 1.33333 29.3333C1.33726 30.8691 1.86951 32.3567 2.84068 33.5464C3.81185 34.7361 5.1628 35.5554 6.66667 35.8667V72H4C2.93913 72 1.92172 72.4214 1.17157 73.1716C0.421427 73.9217 0 74.9391 0 76C0 77.0609 0.421427 78.0783 1.17157 78.8284C1.92172 79.5786 2.93913 80 4 80H76C77.0609 80 78.0783 79.5786 78.8284 78.8284C79.5786 78.0783 80 77.0609 80 76C80 74.9391 79.5786 73.9217 78.8284 73.1716C78.0783 72.4214 77.0609 72 76 72ZM68 14.6667H72.4133C72.7292 14.6659 73.0348 14.7786 73.2746 14.9841C73.5144 15.1897 73.6724 15.4744 73.72 15.7867L76 29.44C75.9859 30.5009 75.5509 31.5127 74.7907 32.2528C74.0306 32.993 73.0075 33.4008 71.9467 33.3867C70.8858 33.3725 69.874 32.9375 69.1339 32.1774C68.3937 31.4172 67.9859 30.3942 68 29.3333V14.6667ZM62.6667 25.3333V14.6667H65.3333V29.3333C65.3333 30.3942 64.9119 31.4116 64.1618 32.1618C63.4116 32.9119 62.3942 33.3333 61.3333 33.3333C60.2725 33.3333 59.2551 32.9119 58.5049 32.1618C57.7548 31.4116 57.3333 30.3942 57.3333 29.3333H58.6667C59.7266 29.3302 60.7421 28.9077 61.4916 28.1583C62.2411 27.4088 62.6635 26.3932 62.6667 25.3333ZM20 4C20 3.64638 20.1405 3.30724 20.3905 3.05719C20.6406 2.80714 20.9797 2.66667 21.3333 2.66667H58.6667C59.0203 2.66667 59.3594 2.80714 59.6095 3.05719C59.8595 3.30724 60 3.64638 60 4V25.3333C60 25.687 59.8595 26.0261 59.6095 26.2761C59.3594 26.5262 59.0203 26.6667 58.6667 26.6667H21.3333C20.9797 26.6667 20.6406 26.5262 20.3905 26.2761C20.1405 26.0261 20 25.687 20 25.3333V4ZM54.6667 29.3333C54.6667 30.3942 54.2452 31.4116 53.4951 32.1618C52.7449 32.9119 51.7275 33.3333 50.6667 33.3333C49.6058 33.3333 48.5884 32.9119 47.8382 32.1618C47.0881 31.4116 46.6667 30.3942 46.6667 29.3333H54.6667ZM44 29.3333C44 30.3942 43.5786 31.4116 42.8284 32.1618C42.0783 32.9119 41.0609 33.3333 40 33.3333C38.9391 33.3333 37.9217 32.9119 37.1716 32.1618C36.4214 31.4116 36 30.3942 36 29.3333H44ZM33.3333 29.3333C33.3333 30.3942 32.9119 31.4116 32.1618 32.1618C31.4116 32.9119 30.3942 33.3333 29.3333 33.3333C28.2725 33.3333 27.2551 32.9119 26.5049 32.1618C25.7548 31.4116 25.3333 30.3942 25.3333 29.3333H33.3333ZM14.6667 14.6667H17.3333V25.3333C17.3365 26.3932 17.7589 27.4088 18.5084 28.1583C19.2579 28.9077 20.2734 29.3302 21.3333 29.3333H22.6667C22.6667 30.3942 22.2452 31.4116 21.4951 32.1618C20.7449 32.9119 19.7275 33.3333 18.6667 33.3333C17.6058 33.3333 16.5884 32.9119 15.8382 32.1618C15.0881 31.4116 14.6667 30.3942 14.6667 29.3333V14.6667ZM13.3333 33.3333C13.9543 34.1613 14.7595 34.8333 15.6852 35.2962C16.6109 35.759 17.6317 36 18.6667 36C19.7016 36 20.7224 35.759 21.6481 35.2962C22.5738 34.8333 23.379 34.1613 24 33.3333C24.621 34.1613 25.4262 34.8333 26.3519 35.2962C27.2776 35.759 28.2984 36 29.3333 36C30.3683 36 31.3891 35.759 32.3148 35.2962C33.2405 34.8333 34.0457 34.1613 34.6667 33.3333C35.2876 34.1613 36.0929 34.8333 37.0186 35.2962C37.9443 35.759 38.965 36 40 36C41.035 36 42.0557 35.759 42.9814 35.2962C43.9071 34.8333 44.7124 34.1613 45.3333 33.3333C45.9543 34.1613 46.7595 34.8333 47.6852 35.2962C48.6109 35.759 49.6317 36 50.6667 36C51.7016 36 52.7224 35.759 53.6481 35.2962C54.5738 34.8333 55.379 34.1613 56 33.3333C56.621 34.1613 57.4262 34.8333 58.3519 35.2962C59.2776 35.759 60.2984 36 61.3333 36C62.3683 36 63.3891 35.759 64.3148 35.2962C65.2405 34.8333 66.0457 34.1613 66.6667 33.3333C67.6469 34.6343 69.07 35.5309 70.6667 35.8533V72H30.6667V54.6667C30.6667 52.1913 29.6833 49.8173 27.933 48.067C26.1827 46.3167 23.8087 45.3333 21.3333 45.3333C18.858 45.3333 16.484 46.3167 14.7337 48.067C12.9833 49.8173 12 52.1913 12 54.6667V72H9.33333V35.8533C10.93 35.5309 12.3531 34.6343 13.3333 33.3333ZM28 54.6667V72H14.6667V54.6667C14.6667 52.8986 15.369 51.2029 16.6193 49.9526C17.8695 48.7024 19.5652 48 21.3333 48C23.1014 48 24.7971 48.7024 26.0474 49.9526C27.2976 51.2029 28 52.8986 28 54.6667ZM4 29.44L6.28 15.7867C6.32758 15.4744 6.48564 15.1897 6.72544 14.9841C6.96524 14.7786 7.27084 14.6659 7.58667 14.6667H12V29.3333C12.0141 30.3942 11.6063 31.4172 10.8661 32.1774C10.126 32.9375 9.1142 33.3725 8.05333 33.3867C6.99247 33.4008 5.96943 32.993 5.20929 32.2528C4.44914 31.5127 4.01414 30.5009 4 29.44ZM76 77.3333H4C3.64638 77.3333 3.30724 77.1929 3.05719 76.9428C2.80714 76.6928 2.66667 76.3536 2.66667 76C2.66667 75.6464 2.80714 75.3072 3.05719 75.0572C3.30724 74.8071 3.64638 74.6667 4 74.6667H76C76.3536 74.6667 76.6928 74.8071 76.9428 75.0572C77.1929 75.3072 77.3333 75.6464 77.3333 76C77.3333 76.3536 77.1929 76.6928 76.9428 76.9428C76.6928 77.1929 76.3536 77.3333 76 77.3333Z" fill="white"/>
<path id="Vector_3" d="M44 5.3335H36C33.5255 5.33632 31.1532 6.32056 29.4035 8.07028C27.6537 9.82001 26.6695 12.1923 26.6667 14.6668C26.6667 15.0205 26.8072 15.3596 27.0572 15.6096C27.3073 15.8597 27.6464 16.0002 28 16.0002C28.28 16.0002 28.4267 16.1335 28.9334 16.8002C29.0534 16.9602 29.1867 17.1335 29.3334 17.3068V22.6668C29.3334 23.0205 29.4738 23.3596 29.7239 23.6096C29.9739 23.8597 30.3131 24.0002 30.6667 24.0002H49.3334C49.687 24.0002 50.0261 23.8597 50.2762 23.6096C50.5262 23.3596 50.6667 23.0205 50.6667 22.6668V17.3068C50.8134 17.1335 50.9467 16.9602 51.0667 16.8002C51.5734 16.1335 51.72 16.0002 52 16.0002C52.3536 16.0002 52.6928 15.8597 52.9428 15.6096C53.1929 15.3596 53.3334 15.0205 53.3334 14.6668C53.3305 12.1923 52.3463 9.82001 50.5966 8.07028C48.8468 6.32056 46.4745 5.33632 44 5.3335ZM48 21.3335H32V18.6668C32.6269 18.6385 33.2365 18.4526 33.7725 18.1263C34.3085 17.8001 34.7536 17.344 35.0667 16.8002C35.5734 16.1335 35.72 16.0002 36 16.0002C36.28 16.0002 36.4267 16.1335 36.9334 16.8002C37.2241 17.3627 37.664 17.8345 38.2048 18.1638C38.7457 18.4931 39.3668 18.6673 40 18.6673C40.6333 18.6673 41.2543 18.4931 41.7952 18.1638C42.3361 17.8345 42.7759 17.3627 43.0667 16.8002C43.5734 16.1335 43.72 16.0002 44 16.0002C44.28 16.0002 44.4267 16.1335 44.9334 16.8002C45.2465 17.344 45.6916 17.8001 46.2276 18.1263C46.7636 18.4526 47.3732 18.6385 48 18.6668V21.3335ZM48.9334 15.2002C48.4267 15.8668 48.28 16.0002 48 16.0002C47.72 16.0002 47.5734 15.8668 47.0667 15.2002C46.7759 14.6376 46.3361 14.1659 45.7952 13.8365C45.2543 13.5072 44.6333 13.333 44 13.333C43.3668 13.333 42.7457 13.5072 42.2048 13.8365C41.664 14.1659 41.2241 14.6376 40.9334 15.2002C40.4267 15.8668 40.28 16.0002 40 16.0002C39.72 16.0002 39.5734 15.8668 39.0667 15.2002C38.7759 14.6376 38.3361 14.1659 37.7952 13.8365C37.2543 13.5072 36.6333 13.333 36 13.333C35.3668 13.333 34.7457 13.5072 34.2048 13.8365C33.664 14.1659 33.2241 14.6376 32.9334 15.2002C32.4267 15.8668 32.28 16.0002 32 16.0002C31.72 16.0002 31.5734 15.8668 31.0667 15.2002C30.6473 14.5597 30.0803 14.0293 29.4134 13.6535C29.5876 12.5457 30.0381 11.4996 30.7232 10.6118C31.4083 9.72394 32.3059 9.02296 33.3334 8.5735V10.6668H36V8.00016H38.6667V10.6668H41.3334V8.00016H44V10.6668H46.6667V8.5735C47.6941 9.02296 48.5918 9.72394 49.2769 10.6118C49.962 11.4996 50.4124 12.5457 50.5867 13.6535C49.9198 14.0293 49.3528 14.5597 48.9334 15.2002ZM64 40.0002H37.3334C36.2735 40.0033 35.2579 40.4258 34.5084 41.1752C33.759 41.9247 33.3365 42.9403 33.3334 44.0002V65.3335C33.3365 66.3934 33.759 67.409 34.5084 68.1584C35.2579 68.9079 36.2735 69.3303 37.3334 69.3335H64C65.0599 69.3303 66.0755 68.9079 66.8249 68.1584C67.5744 67.409 67.9969 66.3934 68 65.3335V44.0002C67.9969 42.9403 67.5744 41.9247 66.8249 41.1752C66.0755 40.4258 65.0599 40.0033 64 40.0002ZM65.3334 65.3335C65.3334 65.6871 65.1929 66.0263 64.9428 66.2763C64.6928 66.5264 64.3536 66.6668 64 66.6668H37.3334C36.9797 66.6668 36.6406 66.5264 36.3905 66.2763C36.1405 66.0263 36 65.6871 36 65.3335V44.0002C36 43.6465 36.1405 43.3074 36.3905 43.0574C36.6406 42.8073 36.9797 42.6668 37.3334 42.6668H64C64.3536 42.6668 64.6928 42.8073 64.9428 43.0574C65.1929 43.3074 65.3334 43.6465 65.3334 44.0002V65.3335Z" fill="white"/>
<path id="Vector_4" d="M54.6666 45.3335H46.6666C44.1922 45.3363 41.8198 46.3206 40.0701 48.0703C38.3204 49.82 37.3361 52.1923 37.3333 54.6668C37.3333 55.0205 37.4738 55.3596 37.7238 55.6096C37.9739 55.8597 38.313 56.0002 38.6666 56.0002C38.9466 56.0002 39.0933 56.1335 39.6 56.8002C39.72 56.9602 39.8533 57.1335 40 57.3068V62.6668C40 63.0205 40.1405 63.3596 40.3905 63.6096C40.6406 63.8597 40.9797 64.0002 41.3333 64.0002H60C60.3536 64.0002 60.6927 63.8597 60.9428 63.6096C61.1928 63.3596 61.3333 63.0205 61.3333 62.6668V57.3068C61.48 57.1335 61.6133 56.9602 61.7333 56.8002C62.24 56.1335 62.3866 56.0002 62.6666 56.0002C63.0203 56.0002 63.3594 55.8597 63.6095 55.6096C63.8595 55.3596 64 55.0205 64 54.6668C63.9972 52.1923 63.0129 49.82 61.2632 48.0703C59.5135 46.3206 57.1411 45.3363 54.6666 45.3335ZM58.6666 61.3335H42.6666V58.6668C43.2935 58.6385 43.9031 58.4526 44.4391 58.1263C44.9751 57.8001 45.4202 57.344 45.7333 56.8002C46.24 56.1335 46.3866 56.0002 46.6666 56.0002C46.9466 56.0002 47.0933 56.1335 47.6 56.8002C47.8907 57.3627 48.3306 57.8345 48.8715 58.1638C49.4124 58.4931 50.0334 58.6673 50.6666 58.6673C51.2999 58.6673 51.9209 58.4931 52.4618 58.1638C53.0027 57.8345 53.4426 57.3627 53.7333 56.8002C54.24 56.1335 54.3866 56.0002 54.6666 56.0002C54.9466 56.0002 55.0933 56.1335 55.6 56.8002C55.9131 57.344 56.3582 57.8001 56.8942 58.1263C57.4302 58.4526 58.0398 58.6385 58.6666 58.6668V61.3335ZM59.6 55.2002C59.0933 55.8668 58.9466 56.0002 58.6666 56.0002C58.3866 56.0002 58.24 55.8668 57.7333 55.2002C57.4426 54.6376 57.0027 54.1659 56.4618 53.8365C55.9209 53.5072 55.2999 53.333 54.6666 53.333C54.0334 53.333 53.4124 53.5072 52.8715 53.8365C52.3306 54.1659 51.8907 54.6376 51.6 55.2002C51.0933 55.8668 50.9466 56.0002 50.6666 56.0002C50.3866 56.0002 50.24 55.8668 49.7333 55.2002C49.4426 54.6376 49.0027 54.1659 48.4618 53.8365C47.9209 53.5072 47.2999 53.333 46.6666 53.333C46.0334 53.333 45.4124 53.5072 44.8715 53.8365C44.3306 54.1659 43.8907 54.6376 43.6 55.2002C43.0933 55.8668 42.9466 56.0002 42.6666 56.0002C42.3866 56.0002 42.24 55.8668 41.7333 55.2002C41.3139 54.5598 40.7469 54.0293 40.08 53.6535C40.2542 52.5457 40.7047 51.4996 41.3898 50.6118C42.0749 49.7239 42.9726 49.023 44 48.5735V50.6668H46.6666V48.0002H49.3333V50.6668H52V48.0002H54.6666V50.6668H57.3333V48.5735C58.3607 49.023 59.2584 49.7239 59.9435 50.6118C60.6286 51.4996 61.0791 52.5457 61.2533 53.6535C60.5864 54.0293 60.0194 54.5598 59.6 55.2002Z" fill="white"/>
</g>
</svg>
