<svg width="154" height="53" viewBox="0 0 154 53" fill="none" xmlns="http://www.w3.org/2000/svg">
<g id="Group 1171275652">
<path id="Vector" d="M3.23513 34.5317H0.14917V43.1442H3.17646C6.06295 43.1442 7.9638 41.173 7.9638 38.8145C7.9638 36.456 6.10988 34.5317 3.23513 34.5317ZM3.27033 41.4428H2.09696V36.2448H3.27033C4.88957 36.2448 6.016 37.3478 6.016 38.838C6.016 40.3282 4.90131 41.4428 3.27033 41.4428Z" fill="#008D61"/>
<path id="Vector_2" d="M14.8401 39.5655C14.8401 40.7623 14.1009 41.4663 13.1035 41.4663C12.1062 41.4663 11.3552 40.7623 11.3552 39.5655V34.5317H9.37219V39.6241C9.37219 41.8301 10.8154 43.2616 13.0448 43.2616C15.2742 43.2616 16.7644 41.7714 16.7644 39.5655V34.5317H14.8401V39.5655Z" fill="#008D61"/>
<path id="Vector_3" d="M24.1677 38.6385C24.86 38.2396 25.2825 37.5707 25.2825 36.7611C25.2825 35.3296 24.0387 34.5317 22.5602 34.5317H18.6881V43.1442H22.7714C24.3203 43.1442 25.6579 42.2173 25.6579 40.7388C25.6579 39.7884 25.1064 38.9905 24.1677 38.6385ZM20.6476 36.0688H22.1613C22.9357 36.0688 23.3347 36.5264 23.3347 37.0427C23.3347 37.559 22.9357 38.0049 22.1613 38.0049H20.6476V36.0688ZM22.4429 41.6306H20.6476V39.4364H22.4429C23.2056 39.4364 23.7219 39.8705 23.7219 40.5159C23.7219 41.1026 23.276 41.6189 22.4429 41.6189V41.6306Z" fill="#008D61"/>
<path id="Vector_4" d="M31.4905 34.5317H29.5779L26.0813 43.1442H28.1347L28.8152 41.3608H32.1593L32.8399 43.1442H34.9872L31.5023 34.5669V34.5434L31.4905 34.5317ZM29.3667 39.7884L30.4932 36.8432L31.6079 39.7884H29.3667Z" fill="#008D61"/>
<path id="Vector_5" d="M38.0259 34.5317H36.0194V43.1442H38.0259V34.5317Z" fill="#008D61"/>
<path id="Vector_6" d="M46.8608 34.5317H43.1295V43.1442H45.089V40.4455H46.8022C48.8556 40.4455 50.0993 39.1079 50.0993 37.4652C50.0993 35.6347 48.7148 34.5317 46.8608 34.5317ZM46.6731 38.8262H45.0773V36.1979H46.6731C47.6118 36.1979 48.1515 36.7846 48.1515 37.5121C48.1515 38.2396 47.6118 38.8262 46.6731 38.8262Z" fill="#008D61"/>
<path id="Vector_7" d="M55.6493 34.4146C53.0914 34.4146 51.0967 36.3623 51.0967 38.8733C51.0967 41.3843 52.9858 43.2618 55.5789 43.2618C58.1721 43.2618 60.1316 41.3374 60.1316 38.8147C60.1316 36.2919 58.2425 34.4146 55.6493 34.4146ZM55.6259 41.4665C54.124 41.4665 53.0562 40.3401 53.0562 38.8382C53.0562 37.3363 54.1122 36.2216 55.6259 36.2216C57.1395 36.2216 58.1955 37.348 58.1955 38.8382C58.1955 40.3284 57.1043 41.4665 55.6259 41.4665Z" fill="#008D61"/>
<path id="Vector_8" d="M79.0469 40.5278C78.5424 41.1497 77.8736 41.4665 77.0522 41.4665C75.562 41.4665 74.4825 40.3636 74.4825 38.8382C74.4825 37.3128 75.562 36.2216 77.0522 36.2216C77.8384 36.2216 78.4955 36.5149 79 37.1016L79.0352 37.1368L80.4667 35.8695L80.4315 35.8344C79.5632 34.8957 78.425 34.4146 77.0874 34.4146C74.5412 34.4146 72.5347 36.3741 72.5347 38.8733C72.5347 41.3726 74.4591 43.2618 77.017 43.2618C78.4016 43.2618 79.5632 42.7455 80.4667 41.7364L80.5019 41.7012L79.0821 40.4926L79.0469 40.5278Z" fill="#008D61"/>
<path id="Vector_9" d="M63.6635 34.5317H61.704V43.1442H67.829V41.3959H63.6635V34.5317Z" fill="#008D61"/>
<path id="Vector_10" d="M70.9626 34.5317H68.9562V43.1442H70.9626V34.5317Z" fill="#008D61"/>
<path id="Vector_11" d="M83.646 39.5186H87.4478V37.9227H83.646V36.2448H88.0579V34.5317H81.6982V43.1442H88.1752V41.4428H83.646V39.5186Z" fill="#008D61"/>
<path id="Vector_12" d="M47.5184 13.6347C48.2224 13.6347 48.7973 13.0597 48.7973 12.3557C48.7973 11.6516 48.2224 11.0767 47.5184 11.0767C46.8143 11.0767 46.2394 11.6516 46.2394 12.3557C46.2394 13.0597 46.8143 13.6347 47.5184 13.6347Z" fill="#008D61"/>
<path id="Vector_13" d="M81.2057 11.6986C81.9097 11.6986 82.4847 11.1236 82.4847 10.4196C82.4847 9.71554 81.9097 9.14062 81.2057 9.14062C80.5017 9.14062 79.9268 9.71554 79.9268 10.4196C79.9268 11.1236 80.5017 11.6986 81.2057 11.6986Z" fill="#008D61"/>
<path id="Vector_14" d="M79.4216 14.6556C80.1256 14.6556 80.7006 14.0806 80.7006 13.3766C80.7006 12.6726 80.1256 12.0977 79.4216 12.0977C78.7176 12.0977 78.1426 12.6726 78.1426 13.3766C78.1426 14.0806 78.7176 14.6556 79.4216 14.6556Z" fill="#008D61"/>
<path id="Vector_15" d="M81.6982 13.3766C81.6982 14.0806 82.2732 14.6556 82.9772 14.6556C83.6812 14.6556 84.2562 14.0806 84.2562 13.3766C84.2562 12.6726 83.6812 12.0977 82.9772 12.0977C82.2732 12.0977 81.6982 12.6726 81.6982 13.3766Z" fill="#008D61"/>
<path id="Vector_16" d="M87.7295 25.6498C89.0906 20.0998 87.002 16.0634 86.3332 14.9604L84.1742 16.2629C84.6787 17.096 86.1689 19.9942 85.4766 24.0892H82.461V16.2629H79.9383V24.0892H78.0257V16.2629H75.503V24.0892H71.9359V15.242H69.4132V25.1804C69.4132 27.2104 67.7587 28.8648 65.7171 28.8648H65.0717V31.3876H65.7171C68.6505 31.3876 71.1146 29.3459 71.7599 26.612H87.4713L87.706 25.6498H87.7295Z" fill="#008D61"/>
<path id="Vector_17" d="M31.7479 14.9482L30.6215 17.2011C33.8952 18.8438 34.0829 22.0823 33.8365 24.1005H28.2161V26.6232H35.9016L36.1246 25.6376C37.6851 18.5622 33.1677 15.6757 31.7479 14.96V14.9482Z" fill="#008D61"/>
<path id="Vector_18" d="M46.1567 17.7647H46.2388V26.6119H66.456L67.1248 24.3708C67.7232 22.3408 67.336 20.1231 66.0688 18.4218C63.7572 15.3006 59.275 14.7961 56.3298 17.3188L54.1121 19.2196V12.3555H51.5894V24.1009H48.7616V15.2537H46.1567C42.6835 15.2537 39.8557 18.0815 39.8557 21.5547V26.6236H42.3784V21.5547C42.3784 19.4661 44.0798 17.7764 46.1567 17.7764V17.7647ZM54.1121 22.5286L57.9725 19.2431C59.8147 17.6708 62.6073 17.9877 64.0506 19.9355C64.8367 21.0032 65.0831 22.3878 64.7077 23.655L64.5786 24.1009H54.1121V22.5286Z" fill="#008D61"/>
<path id="Vector_19" d="M24.0624 30.7894C24.7688 30.7894 25.3414 30.2167 25.3414 29.5104C25.3414 28.804 24.7688 28.2314 24.0624 28.2314C23.3561 28.2314 22.7834 28.804 22.7834 29.5104C22.7834 30.2167 23.3561 30.7894 24.0624 30.7894Z" fill="#008D61"/>
<path id="Vector_20" d="M10.6157 30.7894C11.322 30.7894 11.8946 30.2167 11.8946 29.5104C11.8946 28.804 11.322 28.2314 10.6157 28.2314C9.9093 28.2314 9.33667 28.804 9.33667 29.5104C9.33667 30.2167 9.9093 30.7894 10.6157 30.7894Z" fill="#008D61"/>
<path id="Vector_21" d="M7.38897 30.7894C8.09533 30.7894 8.66794 30.2167 8.66794 29.5104C8.66794 28.804 8.09533 28.2314 7.38897 28.2314C6.68261 28.2314 6.10999 28.804 6.10999 29.5104C6.10999 30.2167 6.68261 30.7894 7.38897 30.7894Z" fill="#008D61"/>
<path id="Vector_22" d="M44.3741 13.6224C45.0804 13.6224 45.653 13.0497 45.653 12.3434C45.653 11.637 45.0804 11.0645 44.3741 11.0645C43.6677 11.0645 43.0951 11.637 43.0951 12.3434C43.0951 13.0497 43.6677 13.6224 44.3741 13.6224Z" fill="#008D61"/>
<path id="Vector_23" d="M15.2861 21.5426C15.2861 19.3836 16.8115 17.7643 18.8415 17.7643H18.9705V26.6115H22.6432C24.8843 26.6115 26.703 24.7928 26.703 22.5516V15.2416H24.1803V22.5516C24.1803 23.3965 23.488 24.0888 22.6432 24.0888H21.4815V15.2416H18.8297C15.427 15.2416 12.7517 18.0107 12.7517 21.5426V24.0888H2.64896V23.7485C2.64896 21.1084 3.31778 18.398 4.52635 16.1334L2.30869 14.9482C0.900645 17.5766 0.126221 20.6977 0.126221 23.7485V26.6115H15.2627V21.5426H15.2861Z" fill="#008D61"/>
<path id="Vector_24" d="M152.863 29.6627C152.429 29.6393 151.983 29.6627 151.549 29.7449C151.842 29.4281 152.124 29.0526 152.406 28.6184C153.379 27.0578 153.579 25.2391 153.098 23.6786C152.664 23.749 152.241 23.8663 151.831 24.0306C152.054 23.6551 152.253 23.2326 152.429 22.7398C153.051 21.0032 152.863 19.1963 152.065 17.7647C151.655 17.9173 151.267 18.1285 150.904 18.3749C151.044 17.9642 151.15 17.5066 151.22 16.9904C151.467 15.1716 150.892 13.435 149.812 12.203C149.449 12.4377 149.108 12.731 148.803 13.0479C148.85 12.6137 148.862 12.1443 148.815 11.6281C148.674 9.7976 147.747 8.21357 146.433 7.25141C146.128 7.55649 145.858 7.90844 145.624 8.29565C145.577 7.86151 145.494 7.4039 145.342 6.91109C144.814 5.15103 143.582 3.80169 142.092 3.13287C141.857 3.49662 141.669 3.89558 141.528 4.31799C141.399 3.90731 141.212 3.47311 140.953 3.01549C140.062 1.40798 138.583 0.352011 136.976 0C136.671 0.833092 136.565 1.73653 136.659 2.65175C136.459 2.51095 136.248 2.35843 136.025 2.22936C134.453 1.27893 132.634 1.10296 131.074 1.60751C131.355 3.21502 132.353 4.75213 133.925 5.70255C134.16 5.84336 134.383 5.96069 134.594 6.0663C133.737 6.40657 132.975 6.92283 132.388 7.57992C133.268 8.63595 134.559 9.37515 136.025 9.60982C136.671 10.8067 137.762 11.7924 139.135 12.3204C139.51 13.6228 140.367 14.8196 141.599 15.6292C141.693 16.9786 142.279 18.328 143.312 19.384C143.112 20.7216 143.406 22.1649 144.204 23.4086C143.734 24.6759 143.711 26.1426 144.215 27.5389C143.488 28.6771 143.159 30.1086 143.359 31.5753C142.408 32.5375 141.787 33.8634 141.681 35.3419C140.543 36.0811 139.663 37.2544 139.24 38.6742C137.973 39.1553 136.858 40.1174 136.154 41.4081C134.817 41.6194 133.526 42.3116 132.564 43.4381C130.945 43.3442 129.243 43.9544 127.964 45.2451C127.131 46.0782 126.65 46.8878 126.404 47.6505C126.005 49.0116 124.057 49.0116 123.658 47.6505C123.412 46.8878 122.931 46.0782 122.097 45.2451C120.818 43.9544 119.117 43.3442 117.498 43.4381C116.536 42.3234 115.245 41.6194 113.907 41.4081C113.203 40.1057 112.089 39.1553 110.821 38.6742C110.411 37.2544 109.519 36.0928 108.381 35.3419C108.275 33.8634 107.653 32.5375 106.703 31.5753C106.902 30.1086 106.586 28.6771 105.846 27.5389C106.351 26.1544 106.339 24.6876 105.858 23.4086C106.644 22.1649 106.938 20.7216 106.738 19.384C107.771 18.328 108.357 16.9786 108.451 15.6292C109.683 14.8196 110.54 13.6228 110.915 12.3204C112.288 11.7806 113.379 10.8067 114.025 9.60982C115.503 9.37515 116.782 8.62421 117.662 7.57992C117.075 6.92283 116.313 6.40657 115.456 6.0663C115.679 5.96069 115.902 5.84336 116.125 5.70255C117.697 4.75213 118.695 3.22676 118.976 1.60751C117.416 1.10296 115.609 1.27893 114.025 2.22936C113.79 2.37016 113.579 2.51095 113.391 2.65175C113.497 1.73653 113.391 0.821358 113.074 0C111.478 0.340277 109.988 1.39625 109.097 3.01549C108.85 3.47311 108.662 3.90731 108.522 4.31799C108.381 3.89558 108.181 3.49662 107.958 3.13287C106.468 3.80169 105.236 5.15103 104.708 6.91109C104.556 7.41564 104.473 7.87324 104.427 8.29565C104.192 7.92018 103.922 7.56822 103.617 7.25141C102.303 8.22531 101.376 9.7976 101.235 11.6281C101.188 12.1443 101.2 12.6137 101.247 13.0479C100.942 12.731 100.601 12.4377 100.238 12.203C99.1581 13.435 98.5832 15.1599 98.8296 16.9904C98.9 17.5066 99.0056 17.9642 99.1464 18.3749C98.7826 18.1285 98.3954 17.9173 97.9847 17.7647C97.1868 19.1963 96.9991 21.0032 97.621 22.7398C97.797 23.2326 97.9965 23.6551 98.2194 24.0306C97.8087 23.8663 97.3863 23.7372 96.9522 23.6786C96.4711 25.2391 96.6706 27.0578 97.6445 28.6184C97.9143 29.0643 98.2077 29.4281 98.501 29.7449C98.0669 29.6627 97.621 29.6393 97.1869 29.6627C97.046 31.2937 97.621 33.0185 98.9 34.3444C99.2637 34.7199 99.6274 35.025 99.9795 35.2715C99.5336 35.2832 99.0994 35.3536 98.677 35.4709C98.8882 37.0902 99.8152 38.6624 101.341 39.6833C101.775 39.9766 102.185 40.1996 102.584 40.3638C102.15 40.4694 101.74 40.622 101.352 40.8332C101.892 42.3821 103.136 43.7197 104.837 44.4002C105.318 44.588 105.776 44.7171 106.198 44.7992C105.799 44.9987 105.436 45.2333 105.095 45.5149C105.952 46.9113 107.442 47.9555 109.261 48.2606C109.777 48.3427 110.246 48.378 110.681 48.3662C110.329 48.6478 110.023 48.9529 109.754 49.2932C110.88 50.4783 112.558 51.1941 114.4 51.1002C114.916 51.0767 115.386 51.0063 115.808 50.9007C115.527 51.2409 115.292 51.6164 115.092 52.0036C116.442 52.9189 118.237 53.2592 120.021 52.7898C120.877 52.5669 121.558 52.2501 122.097 51.8746C123.822 50.7012 126.11 50.666 127.882 51.8746C128.422 52.2501 129.102 52.5552 129.959 52.7898C131.743 53.2592 133.526 52.9189 134.887 52.0036C134.699 51.6164 134.453 51.2409 134.171 50.9007C134.594 51.0063 135.051 51.0767 135.579 51.1002C137.422 51.1823 139.1 50.4783 140.226 49.2932C139.956 48.9529 139.639 48.6361 139.299 48.3662C139.733 48.3662 140.203 48.3427 140.719 48.2606C142.538 47.9555 144.028 46.9113 144.884 45.5149C144.544 45.2333 144.18 44.9987 143.781 44.7992C144.204 44.7171 144.661 44.588 145.142 44.4002C146.856 43.7197 148.088 42.3821 148.627 40.8332C148.24 40.6337 147.829 40.4812 147.395 40.3638C147.794 40.1996 148.205 39.9766 148.639 39.6833C150.164 38.6624 151.091 37.0902 151.303 35.4709C150.88 35.3536 150.446 35.2949 150 35.2715C150.352 35.025 150.716 34.7199 151.08 34.3444C152.359 33.0185 152.934 31.2937 152.793 29.6627H152.863ZM114.705 42.6754C115.679 43.0392 116.571 43.7314 117.193 44.7053C117.944 45.8787 118.19 46.8995 118.002 47.8148C117.099 47.6036 116.266 46.9464 115.515 45.7848C114.893 44.8109 114.635 43.7197 114.705 42.6754ZM111.338 40.0705C112.206 40.6337 112.933 41.4903 113.344 42.5815C113.837 43.884 113.86 44.94 113.485 45.7965C112.64 45.3976 111.971 44.588 111.478 43.2855C111.068 42.206 111.044 41.0796 111.338 40.0822V40.0705ZM108.592 36.8086C109.331 37.5361 109.847 38.5334 110.023 39.6833C110.223 41.0561 110.023 42.0887 109.484 42.8514C108.745 42.2764 108.252 41.3494 108.052 39.9766C107.888 38.8267 108.099 37.7238 108.592 36.8086ZM106.597 33.042C107.16 33.9103 107.466 35.0016 107.383 36.1515C107.29 37.5361 106.879 38.5099 106.187 39.1318C105.588 38.4161 105.307 37.4069 105.4 36.0224C105.483 34.8607 105.917 33.8282 106.597 33.042ZM102.854 26.917C103.406 25.8962 104.227 25.1335 105.166 24.6876C105.318 25.7085 105.154 26.8232 104.603 27.844C103.945 29.0643 103.171 29.78 102.291 30.0734C102.033 29.1699 102.197 28.1374 102.854 26.9053V26.917ZM101.857 25.1453C101.798 24.2183 102.174 23.2326 103.077 22.1649C103.828 21.2849 104.802 20.7099 105.811 20.4752C105.752 21.5078 105.342 22.5639 104.603 23.4439C103.711 24.4999 102.796 25.0397 101.869 25.1335L101.857 25.1453ZM103.64 31.6105C103.957 30.4958 104.614 29.5806 105.436 28.947C105.799 29.9209 105.87 31.0356 105.553 32.1503C105.166 33.4879 104.567 34.3445 103.758 34.8138C103.324 33.9925 103.265 32.9364 103.64 31.5988V31.6105ZM105.494 19.1493C104.391 19.9941 103.394 20.3227 102.467 20.2289C102.608 19.3019 103.183 18.4219 104.286 17.577C105.201 16.873 106.269 16.521 107.313 16.5092C107.031 17.5066 106.421 18.457 105.506 19.1611L105.494 19.1493ZM116.207 7.60341C115.386 8.23702 114.33 8.63593 113.18 8.65939C111.795 8.68286 110.786 8.35433 110.106 7.72071C110.763 7.06363 111.748 6.69993 113.145 6.66472C114.306 6.64126 115.374 6.99325 116.219 7.60341H116.207ZM114.623 3.10938C115.62 2.51097 116.712 2.2763 117.756 2.3819C117.369 3.34406 116.653 4.21236 115.656 4.81078C114.471 5.52654 113.438 5.74947 112.523 5.53827C112.757 4.63477 113.438 3.82514 114.623 3.10938ZM110.07 3.50836C110.634 2.49926 111.467 1.74831 112.417 1.31417C112.558 2.34673 112.37 3.4497 111.819 4.47053C111.15 5.69083 110.364 6.39485 109.472 6.66472C109.226 5.76123 109.402 4.72866 110.07 3.50836ZM109.437 9.64506C110.563 9.37518 111.69 9.50423 112.64 9.91491C111.971 10.7128 111.021 11.323 109.894 11.5811C108.545 11.898 107.501 11.7923 106.691 11.3112C107.196 10.5251 108.087 9.96186 109.437 9.64506ZM105.764 7.20443C106.093 6.08973 106.762 5.18623 107.595 4.56435C107.947 5.53825 108.005 6.66467 107.665 7.77937C107.266 9.10527 106.644 9.96183 105.835 10.4194C105.412 9.58636 105.365 8.54207 105.764 7.20443ZM106.433 13.3412C107.477 12.8484 108.604 12.7193 109.613 12.9305C109.132 13.8457 108.334 14.6436 107.278 15.1364C106.022 15.7348 104.978 15.8522 104.086 15.5471C104.415 14.6788 105.166 13.9279 106.421 13.3412H106.433ZM102.338 11.7219C102.432 10.572 102.889 9.53944 103.57 8.75328C104.121 9.63331 104.415 10.7246 104.321 11.8745C104.215 13.2591 103.781 14.2212 103.089 14.8431C102.49 14.1273 102.232 13.1065 102.338 11.7219ZM100.519 13.7049C101.247 14.4442 101.751 15.4532 101.904 16.6031C102.092 17.976 101.88 19.0085 101.317 19.7595C100.59 19.1845 100.109 18.2341 99.9208 16.8613C99.7682 15.7114 99.9912 14.6084 100.507 13.7049H100.519ZM98.5714 19.1845C99.4397 19.7595 100.144 20.6278 100.543 21.719C101.012 23.0214 101.024 24.0775 100.637 24.9341C99.8034 24.5234 99.1346 23.702 98.6653 22.3996C98.2781 21.3083 98.2663 20.1819 98.5714 19.1963V19.1845ZM97.8205 24.9458C98.7826 25.3212 99.6627 26.0253 100.285 27.0109C101.024 28.1843 101.247 29.2169 101.059 30.1321C100.155 29.9092 99.3341 29.2403 98.5949 28.067C97.9847 27.0813 97.7383 25.9901 97.8205 24.9458ZM99.7096 33.617C98.9 32.7839 98.4306 31.763 98.3015 30.7305C99.3224 30.8947 100.331 31.3993 101.141 32.2324C102.103 33.2298 102.549 34.1802 102.549 35.1189C101.61 35.0837 100.672 34.6143 99.7096 33.617ZM101.974 38.815C101.012 38.1696 100.331 37.2662 99.9912 36.2923C101.024 36.2336 102.115 36.5152 103.077 37.1606C104.227 37.935 104.872 38.768 105.06 39.6833C104.145 39.8475 103.124 39.5894 101.962 38.815H101.974ZM105.283 43.4146C104.204 42.9922 103.359 42.253 102.807 41.3612C103.805 41.0914 104.931 41.1383 106.011 41.5607C107.301 42.077 108.099 42.7575 108.486 43.6141C107.618 43.9661 106.574 43.9309 105.283 43.4146ZM109.495 47.2163C108.357 47.0286 107.36 46.4888 106.644 45.7379C107.571 45.2568 108.674 45.069 109.824 45.2568C111.197 45.4797 112.124 45.9843 112.675 46.7352C111.901 47.2632 110.868 47.4393 109.495 47.2163ZM114.412 50.0441C113.25 50.1028 112.171 49.7743 111.314 49.1993C112.112 48.5422 113.156 48.1198 114.318 48.0611C115.703 47.9907 116.712 48.2958 117.416 48.906C116.77 49.5865 115.796 49.9737 114.412 50.0441ZM119.809 51.769C118.695 52.0624 117.568 51.9802 116.606 51.593C117.251 50.7834 118.178 50.1497 119.305 49.8447C120.642 49.4927 121.699 49.563 122.508 50.0206C122.027 50.8185 121.147 51.4053 119.809 51.769ZM119.974 47.3689C119.152 46.5475 118.671 45.5267 118.53 44.5059C119.551 44.6584 120.572 45.1512 121.393 45.9726C122.367 46.9582 122.825 47.9086 122.848 48.8356C121.91 48.8121 120.971 48.3545 119.985 47.3689H119.974ZM152.277 24.9341C152.359 25.9666 152.124 27.0696 151.502 28.0552C150.763 29.2286 149.953 29.8974 149.038 30.1204C148.839 29.2051 149.073 28.1843 149.812 26.9992C150.423 26.0135 151.303 25.3096 152.277 24.9341ZM151.526 19.1728C151.831 20.1702 151.819 21.2966 151.432 22.3761C150.962 23.6785 150.305 24.4999 149.46 24.9106C149.073 24.054 149.085 23.0097 149.554 21.6956C149.941 20.6043 150.657 19.736 151.526 19.1611V19.1728ZM148.193 16.5914C148.346 15.4415 148.862 14.4441 149.578 13.6932C150.082 14.5967 150.317 15.6997 150.164 16.8496C149.977 18.2224 149.507 19.1611 148.768 19.7477C148.217 18.9968 148.005 17.9642 148.181 16.5914H148.193ZM145.483 27.8558C144.931 26.8349 144.767 25.7202 144.919 24.6994C145.858 25.1453 146.691 25.8962 147.231 26.9288C147.888 28.1491 148.052 29.1934 147.794 30.0969C146.902 29.8035 146.128 29.0995 145.483 27.8675V27.8558ZM146.328 34.8138C145.518 34.3445 144.908 33.4879 144.532 32.1503C144.215 31.0356 144.286 29.9091 144.65 28.947C145.471 29.5806 146.128 30.4958 146.445 31.6105C146.832 32.9481 146.762 33.9925 146.328 34.8256V34.8138ZM145.494 23.4556C144.743 22.5756 144.345 21.5195 144.286 20.487C145.295 20.7216 146.269 21.2849 147.02 22.1766C147.912 23.2327 148.299 24.2183 148.24 25.157C147.313 25.0631 146.398 24.5234 145.506 23.4674L145.494 23.4556ZM146.515 8.75328C147.196 9.52771 147.653 10.5603 147.747 11.7219C147.853 13.1065 147.595 14.1273 146.996 14.8431C146.292 14.2212 145.87 13.2591 145.764 11.8745C145.67 10.7246 145.964 9.63331 146.515 8.75328ZM142.491 4.56435C143.324 5.18623 143.993 6.08973 144.321 7.20443C144.72 8.53034 144.673 9.58636 144.251 10.4194C143.441 9.96183 142.819 9.10527 142.42 7.77937C142.092 6.66467 142.139 5.54998 142.491 4.56435ZM137.668 1.31417C138.618 1.73658 139.452 2.48753 140.015 3.50836C140.684 4.72866 140.86 5.76123 140.613 6.66472C139.721 6.39485 138.935 5.6791 138.266 4.47053C137.703 3.46143 137.516 2.34673 137.668 1.31417ZM134.43 4.81078C133.432 4.21236 132.716 3.34406 132.329 2.3819C133.362 2.2763 134.465 2.51097 135.462 3.10938C136.647 3.82514 137.328 4.63477 137.562 5.53827C136.647 5.74947 135.626 5.53827 134.43 4.81078ZM136.905 8.65939C135.744 8.63593 134.688 8.24876 133.878 7.60341C134.723 6.99325 135.791 6.64126 136.952 6.66472C138.337 6.68819 139.334 7.05189 139.991 7.72071C139.311 8.35433 138.302 8.68286 136.917 8.65939H136.905ZM137.457 9.91491C138.407 9.50423 139.534 9.38691 140.66 9.64506C142.01 9.96186 142.901 10.5251 143.406 11.3112C142.608 11.7923 141.552 11.898 140.203 11.5811C139.076 11.3113 138.126 10.7128 137.457 9.91491ZM140.472 12.9305C141.493 12.731 142.608 12.8484 143.652 13.3412C144.908 13.9396 145.659 14.6788 145.987 15.5471C145.107 15.8405 144.051 15.7348 142.796 15.1364C141.751 14.6436 140.953 13.8457 140.461 12.9305H140.472ZM142.784 16.5092C143.817 16.521 144.896 16.873 145.811 17.577C146.914 18.4219 147.489 19.3019 147.63 20.2289C146.703 20.3345 145.706 20.0059 144.603 19.1493C143.687 18.4453 143.066 17.4949 142.796 16.4976L142.784 16.5092ZM143.5 33.0538C144.18 33.8399 144.614 34.8725 144.697 36.0341C144.79 37.4187 144.509 38.4395 143.91 39.1436C143.218 38.5217 142.807 37.5477 142.714 36.1632C142.643 35.0015 142.936 33.9221 143.5 33.0538ZM140.073 39.695C140.238 38.5451 140.766 37.5477 141.505 36.8202C141.998 37.7355 142.209 38.8384 142.045 39.9883C141.845 41.3612 141.352 42.2999 140.613 42.8631C140.073 42.1004 139.874 41.0678 140.073 39.695ZM136.753 42.5815C137.164 41.502 137.879 40.6337 138.759 40.0705C139.053 41.0679 139.029 42.1943 138.618 43.2738C138.137 44.5762 137.457 45.3858 136.612 45.7848C136.237 44.9282 136.26 43.8722 136.753 42.5698V42.5815ZM132.904 44.7053C133.526 43.7314 134.418 43.0392 135.392 42.6754C135.462 43.708 135.204 44.8109 134.582 45.7848C133.831 46.9582 132.998 47.6036 132.095 47.8148C131.907 46.8995 132.153 45.8787 132.904 44.7053ZM128.692 45.9726C129.513 45.1512 130.522 44.6584 131.555 44.5059C131.414 45.5384 130.921 46.5475 130.112 47.3689C129.138 48.3545 128.187 48.8121 127.249 48.8356C127.26 47.8969 127.718 46.9465 128.704 45.9726H128.692ZM130.264 51.7807C128.926 51.4287 128.046 50.8303 127.565 50.0324C128.387 49.5748 129.431 49.5044 130.769 49.8564C131.883 50.1498 132.822 50.7834 133.467 51.6047C132.505 51.9919 131.379 52.074 130.264 51.7807ZM135.662 50.0559C134.277 49.9855 133.303 49.5982 132.658 48.9177C133.362 48.3075 134.371 48.0025 135.755 48.0729C136.917 48.1315 137.961 48.5539 138.759 49.211C137.903 49.7977 136.823 50.1145 135.662 50.0559ZM140.578 47.2281C139.205 47.451 138.173 47.275 137.398 46.747C137.95 45.996 138.877 45.4914 140.249 45.2685C141.388 45.0808 142.502 45.2685 143.429 45.7496C142.714 46.5006 141.728 47.0403 140.578 47.2281ZM144.79 43.4263C143.5 43.9426 142.444 43.9778 141.587 43.6258C141.974 42.781 142.772 42.0887 144.063 41.5724C145.142 41.15 146.269 41.103 147.266 41.3729C146.726 42.2529 145.87 42.9922 144.79 43.4263ZM150.094 36.304C149.754 37.2779 149.073 38.1814 148.111 38.8267C146.961 39.6012 145.94 39.8593 145.013 39.695C145.213 38.7798 145.846 37.9467 146.996 37.1723C147.959 36.527 149.05 36.2453 150.082 36.304H150.094ZM147.536 35.1306C147.536 34.1919 147.982 33.2415 148.944 32.2441C149.754 31.4111 150.763 30.9065 151.784 30.7422C151.655 31.7748 151.185 32.7956 150.376 33.6287C149.413 34.6261 148.463 35.0954 147.536 35.1306Z" fill="#008D61"/>
<path id="Vector_25" d="M109.366 28.6533V29.3573C109.578 29.8032 110.645 31.8332 112.405 34.3911H109.883C109.883 34.3911 110.387 35.4236 111.936 35.4236H138.196C139.745 35.4236 140.249 34.3911 140.249 34.3911H137.95C139.346 32.3143 140.027 31.0705 141.129 28.9936H142.397V27.0106H135.544C128.34 21.1672 126.803 11.1819 130.992 3.70752C119.011 6.08946 110.023 16.509 109.366 28.6533ZM121.675 28.6651H109.894C113.438 26.4709 117.498 25.2036 121.675 24.969V28.6651ZM134.922 27.8672L134.324 28.6651H123.294V24.9338C127.249 24.9573 131.238 25.9077 134.922 27.8672ZM132.658 25.6964C125.582 22.9273 117.427 23.338 110.54 27.1045C111.795 16.638 119.317 8.07245 129.114 5.24463C126.345 11.968 127.507 19.9704 132.669 25.6964H132.658Z" fill="#008D61"/>
<path id="Vector_26" d="M123.904 44.1302H126.239C127.788 44.1302 128.292 43.0977 128.292 43.0977H121.851C121.851 43.0977 122.355 44.1302 123.904 44.1302Z" fill="#008D61"/>
<path id="Vector_27" d="M132.975 40.9268H117.17C117.17 40.9268 117.674 41.9593 119.223 41.9593H130.922C132.47 41.9593 132.975 40.9268 132.975 40.9268Z" fill="#008D61"/>
<path id="Vector_28" d="M136.541 38.7446H113.59C113.59 38.7446 114.095 39.7772 115.643 39.7772H134.488C136.037 39.7772 136.541 38.7446 136.541 38.7446Z" fill="#008D61"/>
<path id="Vector_29" d="M138.724 36.5737H111.42C111.42 36.5737 111.924 37.6063 113.473 37.6063H136.671C138.22 37.6063 138.724 36.5737 138.724 36.5737Z" fill="#008D61"/>
</g>
</svg>
