<svg width="60" height="71" viewBox="0 0 60 71" fill="none" xmlns="http://www.w3.org/2000/svg">
<g id="Group">
<path id="Vector" d="M59.8531 41.5506L54.5019 32.2824C54.3771 32.0661 54.1822 31.8989 53.9494 31.8084L42.6512 27.4154C43.0109 26.2007 43.1933 24.9403 43.1926 23.6734C43.1926 16.399 37.2745 10.4809 30.0001 10.4809C22.7257 10.4809 16.8076 16.399 16.8076 23.6734C16.8069 24.9403 16.9893 26.2007 17.349 27.4154L6.0508 31.8084C5.81805 31.8989 5.62314 32.0661 5.49828 32.2824L0.147094 41.5506C0.067958 41.6876 0.0193904 41.8401 0.00472392 41.9976C-0.00994259 42.1551 0.00963882 42.3139 0.0621246 42.4632C0.11461 42.6124 0.198759 42.7485 0.308796 42.8622C0.418833 42.9758 0.552155 43.0643 0.699615 43.1216L5.35113 44.9303V60.0263C5.35115 60.2473 5.41796 60.4633 5.54282 60.6457C5.66767 60.8282 5.84473 60.9687 6.0508 61.0487L29.6024 70.2063C29.8581 70.3058 30.1418 70.3058 30.3975 70.2063L53.9491 61.0487C54.1552 60.9687 54.3323 60.8282 54.4571 60.6457C54.582 60.4633 54.6488 60.2473 54.6488 60.0263V44.9303L59.3003 43.1216C59.4478 43.0643 59.581 42.9758 59.691 42.8621C59.801 42.7485 59.8851 42.6123 59.9376 42.4631C59.9902 42.3139 60.0099 42.1551 59.9953 41.9976C59.9808 41.8401 59.9322 41.6876 59.8531 41.5506ZM30.0002 12.6751C36.0648 12.6751 40.9986 17.609 40.9986 23.6734C40.9986 29.7378 36.0647 34.6717 30.0002 34.6717C23.9358 34.6717 19.0019 29.7378 19.0019 23.6734C19.0019 17.609 23.9357 12.6751 30.0002 12.6751ZM30.0002 36.8659C35.2276 36.8659 39.7546 33.8098 41.8884 29.3905L50.5465 32.8224L30.0002 40.8114L9.45383 32.8224L18.1119 29.3905C20.2458 33.8098 24.7728 36.8659 30.0002 36.8659ZM2.68699 41.54L6.92806 34.1945L28.4106 42.5476L24.1695 49.8933L2.68699 41.54ZM7.54559 45.7834L24.2516 52.2793C24.4959 52.3742 24.766 52.3786 25.0131 52.2916C25.2603 52.2047 25.4682 52.0322 25.5993 51.8054L28.9032 46.0829V67.5801L7.54559 59.2757V45.7834ZM52.4549 59.2757L31.0973 67.5801V46.0829L34.4012 51.8055C34.5323 52.0324 34.7402 52.2049 34.9873 52.2918C35.2345 52.3788 35.5046 52.3744 35.7489 52.2794L52.4549 45.7836V59.2757ZM35.831 49.8933L31.5898 42.5476L53.0724 34.1945L57.3135 41.54L35.831 49.8933ZM27.2706 30.7998C28.03 30.7998 28.7448 30.5033 29.283 29.9651L37.8354 21.4129C38.9466 20.3015 38.9466 18.4932 37.8352 17.3816C37.297 16.8433 36.5811 16.5469 35.8199 16.5469C35.0586 16.5469 34.3428 16.8433 33.8044 17.3816L27.509 23.6771L25.8288 21.5629C25.5628 21.2265 25.2239 20.955 24.8376 20.7687C24.4513 20.5824 24.0278 20.4862 23.599 20.4873C22.956 20.4884 22.3322 20.7063 21.8283 21.1058C20.5996 22.0829 20.3947 23.8775 21.3714 25.1061L24.951 29.6107C25.2156 29.9787 25.5639 30.2785 25.9672 30.4853C26.3706 30.6921 26.8173 30.7999 27.2706 30.7998ZM23.1935 22.8233C23.3085 22.7311 23.4515 22.681 23.5989 22.6814C23.7998 22.6814 23.9864 22.7713 24.1109 22.9279L26.5561 26.005C26.6523 26.126 26.7729 26.2253 26.9102 26.2965C27.0475 26.3676 27.1982 26.4089 27.3525 26.4177C27.5069 26.4265 27.6613 26.4026 27.8058 26.3475C27.9502 26.2925 28.0814 26.2075 28.1907 26.0982L35.3557 18.9332C35.4795 18.8092 35.6444 18.741 35.8198 18.741C35.9951 18.741 36.1597 18.8093 36.2835 18.933C36.4065 19.0562 36.4755 19.2232 36.4756 19.3972C36.4756 19.5712 36.4066 19.7382 36.2837 19.8614L27.7315 28.4136C27.6714 28.4749 27.5996 28.5235 27.5204 28.5565C27.4411 28.5894 27.3561 28.6062 27.2703 28.6056C27.1637 28.6064 27.0586 28.5812 26.964 28.532C26.8695 28.4828 26.7884 28.4113 26.7279 28.3235C26.715 28.305 26.7014 28.2868 26.6873 28.2691L23.089 23.7409C22.9815 23.6052 22.9321 23.4325 22.9517 23.2605C22.9713 23.0885 23.0582 22.9313 23.1935 22.8233ZM28.9032 6.43979V1.30143C28.9032 1.01047 29.0187 0.73142 29.2245 0.525676C29.4302 0.319932 29.7093 0.204346 30.0002 0.204346C30.2912 0.204346 30.5703 0.319932 30.776 0.525676C30.9818 0.73142 31.0973 1.01047 31.0973 1.30143V6.43979C31.0973 6.73075 30.9818 7.0098 30.776 7.21554C30.5703 7.42129 30.2912 7.53687 30.0002 7.53687C29.7093 7.53687 29.4302 7.42129 29.2245 7.21554C29.0187 7.0098 28.9032 6.73075 28.9032 6.43979ZM17.8254 4.70282C17.68 4.45083 17.6405 4.15136 17.7159 3.8703C17.7912 3.58924 17.9751 3.34961 18.227 3.20413C18.479 3.05865 18.7785 3.01923 19.0596 3.09454C19.3406 3.16986 19.5803 3.35374 19.7257 3.60573L22.2948 8.05566C22.4403 8.30765 22.4797 8.60712 22.4044 8.88818C22.3291 9.16924 22.1452 9.40887 21.8932 9.55435C21.6412 9.69983 21.3418 9.73925 21.0607 9.66394C20.7797 9.58862 20.54 9.40474 20.3946 9.15275L17.8254 4.70282ZM9.53104 11.6888C9.60305 11.564 9.69895 11.4546 9.81324 11.3669C9.92754 11.2792 10.058 11.2149 10.1972 11.1776C10.3363 11.1403 10.4815 11.1308 10.6243 11.1496C10.7672 11.1684 10.9049 11.2152 11.0297 11.2873L15.4796 13.8564C15.7295 14.0029 15.9113 14.2423 15.9854 14.5224C16.0594 14.8025 16.0197 15.1005 15.8748 15.3514C15.73 15.6023 15.4918 15.7857 15.2122 15.8616C14.9326 15.9375 14.6343 15.8997 14.3825 15.7565L9.93258 13.1874C9.6806 13.0419 9.49674 12.8023 9.42144 12.5213C9.34614 12.2402 9.38556 11.9408 9.53104 11.6888ZM6.24252 23.3846C6.24252 23.0936 6.3581 22.8146 6.56385 22.6088C6.76959 22.4031 7.04864 22.2875 7.33961 22.2875H12.4778C13.0838 22.2875 13.5749 22.7787 13.5749 23.3846C13.5749 23.9905 13.0838 24.4817 12.4778 24.4817H7.33961C7.04864 24.4817 6.76959 24.3661 6.56385 24.1604C6.3581 23.9546 6.24252 23.6756 6.24252 23.3846ZM37.6283 8.34433L40.1974 3.8944C40.2694 3.76961 40.3653 3.66023 40.4796 3.57251C40.5939 3.48479 40.7244 3.42045 40.8635 3.38316C41.0027 3.34587 41.1479 3.33637 41.2907 3.35519C41.4335 3.37402 41.5713 3.4208 41.696 3.49287C41.8208 3.5649 41.9302 3.66079 42.0179 3.77509C42.1056 3.88938 42.1699 4.01983 42.2072 4.15899C42.2445 4.29815 42.2541 4.4433 42.2353 4.58614C42.2165 4.72898 42.1697 4.86672 42.0977 4.99149L39.5285 9.44142C39.4564 9.56623 39.3605 9.67562 39.2462 9.76336C39.1319 9.85109 39.0015 9.91544 38.8623 9.95273C38.7231 9.99002 38.5779 9.99952 38.4351 9.98068C38.2922 9.96184 38.1545 9.91505 38.0297 9.84295C37.7777 9.69744 37.5939 9.45781 37.5186 9.17677C37.4434 8.89573 37.4828 8.59629 37.6283 8.34433ZM43.8307 15.8551C43.6852 15.6032 43.6458 15.3037 43.7211 15.0227C43.7964 14.7416 43.9803 14.502 44.2322 14.3565L48.6822 11.7874C48.934 11.6442 49.2323 11.6065 49.5118 11.6824C49.7914 11.7583 50.0296 11.9417 50.1745 12.1926C50.3194 12.4435 50.3591 12.7415 50.285 13.0215C50.211 13.3016 50.0292 13.541 49.7792 13.6876L45.3293 16.2567C45.2046 16.3288 45.0668 16.3756 44.924 16.3944C44.7811 16.4133 44.636 16.4038 44.4968 16.3665C44.3576 16.3292 44.2271 16.2648 44.1129 16.1771C43.9986 16.0894 43.9027 15.98 43.8307 15.8551ZM46.9452 22.865H52.0834C52.6894 22.865 53.1805 23.3562 53.1805 23.9621C53.1805 24.5679 52.6894 25.0592 52.0834 25.0592H46.9452C46.6542 25.0592 46.3752 24.9436 46.1694 24.7378C45.9637 24.5321 45.8481 24.253 45.8481 23.9621C45.8481 23.6711 45.9637 23.3921 46.1694 23.1863C46.3752 22.9806 46.6542 22.865 46.9452 22.865Z" fill="#016EB1"/>
</g>
</svg>
