<svg width="60" height="75" viewBox="0 0 60 75" fill="none" xmlns="http://www.w3.org/2000/svg">
<g id="Group">
<path id="Vector" d="M1.05715 54.2401C1.19594 54.2401 1.33338 54.2128 1.46161 54.1597C1.58984 54.1065 1.70635 54.0287 1.80449 53.9305C1.90264 53.8324 1.98049 53.7159 2.0336 53.5877C2.08672 53.4594 2.11405 53.322 2.11405 53.1832V12.9271C2.11405 11.9559 2.90415 11.1657 3.87551 11.1657H44.1928C45.164 11.1657 45.9543 11.9558 45.9543 12.9271V20.1022C45.9543 20.686 46.4274 21.1591 47.0112 21.1591C47.595 21.1591 48.0681 20.686 48.0681 20.1022V12.9271C48.0681 10.7905 46.3296 9.05201 44.193 9.05201H42.9097V3.57909C42.9097 2.46502 42.4047 1.43459 41.5243 0.751855C40.6442 0.0691221 39.5202 -0.162771 38.4416 0.114366L34.3193 1.17403C34.1849 1.20858 34.0586 1.26927 33.9476 1.35262C33.8367 1.43598 33.7432 1.54037 33.6726 1.65985C33.602 1.77932 33.5556 1.91154 33.5361 2.04894C33.5166 2.18634 33.5243 2.32624 33.5589 2.46065C33.5934 2.5951 33.654 2.72144 33.7374 2.83244C33.8207 2.94344 33.9251 3.03692 34.0446 3.10755C34.1641 3.17817 34.2963 3.22455 34.4337 3.24403C34.5712 3.2635 34.7111 3.2557 34.8455 3.22107L38.9678 2.1614C39.861 1.90609 40.8209 2.65094 40.7959 3.57909V9.05201H11.9679L30.0835 4.44527C30.3526 4.37386 30.5827 4.19915 30.7237 3.9591C30.8647 3.71906 30.9053 3.43306 30.8367 3.16324C30.7681 2.89342 30.5958 2.66158 30.3572 2.51807C30.1187 2.37456 29.8331 2.33097 29.5626 2.39679L3.14695 9.11428C3.126 9.11966 3.10607 9.12664 3.08585 9.13319C1.32643 9.49878 0.000244141 11.0611 0.000244141 12.9273V53.1835C0.000263244 53.3223 0.0276161 53.4597 0.0807408 53.5879C0.133866 53.7161 0.211722 53.8326 0.309865 53.9307C0.408007 54.0288 0.524514 54.1066 0.652733 54.1597C0.780953 54.2128 0.918373 54.2401 1.05715 54.2401Z" fill="#016EB1"/>
<path id="Vector_2" d="M12.041 15.7222C11.7607 15.7222 11.4919 15.8335 11.2937 16.0317C11.0955 16.2299 10.9841 16.4988 10.9841 16.7791C10.9841 17.0594 11.0955 17.3282 11.2937 17.5264C11.4919 17.7246 11.7607 17.836 12.041 17.836H36.027C36.6108 17.836 37.0839 17.3629 37.0839 16.7791C37.0839 16.1953 36.6108 15.7222 36.027 15.7222H12.041ZM58.7434 45.9632L48.0679 35.2876V25.2681C48.0679 24.6843 47.5948 24.2112 47.0109 24.2112C46.4271 24.2112 45.954 24.6843 45.954 25.2681V33.174L45.4137 32.6337C44.6018 31.8219 43.5225 31.375 42.3745 31.375C41.2266 31.375 40.1473 31.8219 39.3355 32.6337L37.5762 34.3929C36.9637 27.4587 31.1245 22.0026 24.0339 22.0026C16.5367 22.0026 10.4374 28.102 10.4374 35.5991C10.4374 42.6898 15.8936 48.529 22.8278 49.1415L18.1485 53.8208C16.4727 55.4966 16.4727 58.2233 18.1485 59.899L22.1524 63.9029H17.5948C17.456 63.9029 17.3186 63.9303 17.1903 63.9834C17.0621 64.0365 16.9456 64.1143 16.8475 64.2125C16.7493 64.3106 16.6715 64.4271 16.6184 64.5554C16.5652 64.6836 16.5379 64.821 16.5379 64.9598C16.5379 65.0986 16.5652 65.236 16.6184 65.3643C16.6715 65.4925 16.7493 65.609 16.8475 65.7072C16.9456 65.8053 17.0621 65.8832 17.1903 65.9363C17.3186 65.9894 17.456 66.0167 17.5948 66.0167H24.266L27.6211 69.3718H3.87527C2.90405 69.3718 2.11381 68.5817 2.11381 67.6103V58.293C2.11381 58.1542 2.08647 58.0167 2.03336 57.8885C1.98024 57.7603 1.90239 57.6438 1.80425 57.5456C1.70611 57.4475 1.58959 57.3696 1.46136 57.3165C1.33314 57.2634 1.1957 57.2361 1.0569 57.2361C0.91811 57.2361 0.780675 57.2634 0.652445 57.3165C0.524215 57.3696 0.407703 57.4475 0.30956 57.5456C0.211417 57.6438 0.133566 57.7603 0.0804517 57.8885C0.0273373 58.0167 -4.1364e-09 58.1542 0 58.293V67.6103C0 69.747 1.73833 71.4854 3.87512 71.4854H29.7347L31.4779 73.2286C32.3158 74.0665 33.4161 74.4852 34.5169 74.4852C35.6173 74.4852 36.7182 74.0662 37.5561 73.2286L39.2993 71.4854H44.1927C46.3294 71.4854 48.0679 69.747 48.0679 67.6103V62.7168L58.7434 52.0411C60.4189 50.3655 60.4189 47.6389 58.7434 45.9632ZM12.6017 36.656H16.5593C16.6252 38.2825 16.8424 39.8208 17.186 41.2262C16.2459 41.4728 15.3736 41.7718 14.5879 42.1176C13.4942 40.5374 12.7866 38.6716 12.6017 36.656ZM14.5879 29.0808C15.3739 29.4267 16.2465 29.7258 17.1872 29.9724C16.8434 31.378 16.6259 32.9157 16.5599 34.5422H12.6017C12.7866 32.5267 13.4942 30.661 14.5879 29.0808ZM35.4662 34.5422H31.5075C31.4416 32.9156 31.224 31.378 30.8802 29.9724C31.8209 29.7258 32.6936 29.4267 33.4798 29.0808C34.5737 30.661 35.2813 32.5267 35.4662 34.5422ZM25.0909 24.368C26.0177 24.8017 26.9129 25.7857 27.6468 27.2152C27.8355 27.5826 28.0088 27.9724 28.1688 28.3787C27.1887 28.5297 26.1555 28.6266 25.0908 28.6654V24.368H25.0909ZM22.9771 28.6653C21.9123 28.6264 20.8791 28.5297 19.899 28.3785C20.0592 27.9722 20.2323 27.5825 20.421 27.215C21.155 25.7855 22.0502 24.8017 22.9771 24.3678V28.6653ZM22.9771 30.7797V34.5422H18.6763C18.7407 33.0893 18.9374 31.6946 19.2552 30.4121C20.4386 30.6108 21.69 30.7353 22.9771 30.7797ZM22.9771 36.656V40.4185C21.69 40.4629 20.4386 40.5876 19.255 40.7862C18.9373 39.5035 18.7406 38.1089 18.6762 36.656H22.9771ZM22.9771 42.5329V46.8302C22.0501 46.3966 21.155 45.4125 20.421 43.9831C20.2323 43.6157 20.0591 43.2258 19.899 42.8197C20.8791 42.6687 21.9125 42.5718 22.9771 42.5329ZM25.0909 36.656H29.3934C29.3353 38.0909 29.1537 39.4715 28.8216 40.7857C27.6302 40.5855 26.3755 40.461 25.091 40.4168L25.0909 36.656ZM25.0909 34.5422V30.7797C26.378 30.7353 27.6292 30.6106 28.8128 30.4121C29.1306 31.6946 29.3272 33.0893 29.3917 34.5422H25.0909ZM30.2672 27.9523C29.8888 26.9272 29.435 26.0054 28.9189 25.2102C30.0758 25.7571 31.1335 26.4928 32.0487 27.3871C31.4959 27.5999 30.8999 27.7891 30.2672 27.9523ZM17.8004 27.9522C17.1678 27.7889 16.5719 27.5999 16.0193 27.3871C16.9346 26.4928 17.9924 25.757 19.1493 25.21C18.6329 26.0053 18.1788 26.9268 17.8004 27.9522ZM17.7996 43.2464C18.1779 44.2711 18.6318 45.1924 19.1476 45.9875C17.9914 45.4406 16.9342 44.7051 16.0193 43.8113C16.5718 43.5984 17.1674 43.4094 17.7996 43.2464ZM25.0909 46.8227V42.5334C26.1465 42.5722 27.1766 42.6694 28.1605 42.8216C27.8892 43.4934 27.5712 44.1447 27.1979 44.7717L25.0909 46.8227ZM30.9153 41.0541C31.2404 39.6702 31.4411 38.1827 31.5052 36.656H35.3134L30.9153 41.0541ZM45.954 67.6103C45.954 68.5815 45.1639 69.3718 44.1926 69.3718H41.4129L45.954 64.8306V67.6103ZM57.2486 50.5466L36.0616 71.7338C35.21 72.5854 33.8242 72.5854 32.9728 71.7338L19.6433 58.4042C18.7917 57.5528 18.7917 56.1669 19.6433 55.3154L40.8304 34.1283C41.2562 33.7024 41.8155 33.4895 42.3748 33.4895C42.9342 33.4895 43.4934 33.7024 43.9192 34.1283L57.2487 47.4578C58.1001 48.3095 58.1001 49.6951 57.2486 50.5466Z" fill="#016EB1"/>
<path id="Vector_3" d="M41.362 56.9479C41.362 56.2583 41.0934 55.6102 40.6059 55.1227L33.5439 48.0609C33.3048 47.8204 33.0204 47.6298 32.7071 47.5C32.3938 47.3702 32.0579 47.3039 31.7187 47.3048C31.3797 47.3039 31.0438 47.3702 30.7305 47.4999C30.4172 47.6297 30.1328 47.8203 29.8937 48.0607L22.8317 55.1227C22.5913 55.3618 22.4007 55.6463 22.2709 55.9596C22.1412 56.2729 22.0749 56.6088 22.0758 56.9479C22.0749 57.287 22.1412 57.6229 22.271 57.9362C22.4007 58.2495 22.5913 58.5339 22.8317 58.7731L29.8937 65.835C30.1333 66.0748 30.4178 66.2649 30.731 66.3944C31.0442 66.5239 31.38 66.5902 31.7189 66.5896C32.3797 66.5896 33.0406 66.3381 33.5439 65.835L40.6059 58.7731C40.8463 58.5339 41.0369 58.2495 41.1667 57.9362C41.2965 57.6229 41.3629 57.287 41.362 56.9479ZM32.9165 63.4729C32.811 62.5043 32.9966 61.5111 33.4684 60.6417C33.5902 60.4161 33.645 60.1603 33.6263 59.9046C33.6076 59.6489 33.5162 59.4038 33.3628 59.1983C33.0524 58.7816 32.5184 58.5851 32.0184 58.6936C31.7102 58.7609 31.39 58.7496 31.0873 58.6605C30.7846 58.5715 30.5092 58.4077 30.2865 58.1842C29.5246 57.455 29.561 56.1319 30.3617 55.4436C31.0778 54.7994 32.2273 54.8182 32.9243 55.4849C33.4009 55.9409 33.6031 56.5986 33.4655 57.2445C33.4126 57.4943 33.4321 57.754 33.5218 57.993C33.6115 58.2321 33.7676 58.4405 33.9718 58.5938C34.1769 58.7466 34.4214 58.8375 34.6765 58.8559C34.9316 58.8744 35.1866 58.8195 35.4116 58.6978C36.2815 58.2258 37.2753 58.04 38.2439 58.1453L32.9165 63.4729ZM24.3264 57.2784C24.2829 57.2351 24.2484 57.1835 24.2249 57.1268C24.2014 57.0701 24.1894 57.0093 24.1895 56.9479C24.1895 56.8754 24.2072 56.7365 24.3264 56.6175L31.3885 49.5554C31.4318 49.5119 31.4833 49.4775 31.54 49.454C31.5966 49.4305 31.6574 49.4185 31.7187 49.4186C31.7912 49.4186 31.9301 49.4364 32.0491 49.5555L38.5496 56.0558C37.5546 55.9359 36.5455 56.0309 35.5904 56.3345C35.4766 55.4416 35.061 54.6042 34.3855 53.958C32.8823 52.5196 30.4937 52.4818 28.948 53.8727C28.1216 54.6163 27.6506 55.6361 27.6213 56.7442C27.608 57.2871 27.7048 57.8271 27.906 58.3315C28.1071 58.8359 28.4084 59.2944 28.7917 59.6791C29.4154 60.3049 30.2294 60.7057 31.1057 60.8185C30.8019 61.7739 30.7068 62.7834 30.8267 63.7787L24.3264 57.2784ZM40.0342 51.1786C40.2332 51.3731 40.5008 51.4813 40.7791 51.4797C41.0573 51.4781 41.3237 51.3668 41.5204 51.1701C41.7172 50.9733 41.8284 50.707 41.83 50.4287C41.8316 50.1505 41.7235 49.8828 41.529 49.6838L36.0418 44.1966C35.8428 44.0022 35.5752 43.894 35.2969 43.8956C35.0187 43.8972 34.7523 44.0084 34.5555 44.2052C34.3588 44.4019 34.2475 44.6683 34.2459 44.9466C34.2443 45.2248 34.3525 45.4924 34.547 45.6914L40.0342 51.1786ZM37.7052 42.8658L37.7067 42.8674L42.9395 48.1003C43.3517 48.5498 44.0974 48.6339 44.5343 48.173C44.5797 48.1272 45.6516 47.0473 46.0742 46.6096C47.6912 44.935 47.4568 42.3112 45.5167 40.3711C43.4774 38.332 40.9424 38.1261 39.2092 39.859L37.7011 41.3671C37.2901 41.7621 37.2922 42.473 37.7052 42.8658ZM40.7038 41.3537C42.0059 40.0518 43.5727 41.4165 44.022 41.8658C44.9576 42.8012 45.4848 44.177 44.5536 45.1414C44.2962 45.4063 44.0376 45.6701 43.7778 45.9327C43.1518 45.3106 40.5954 42.7619 39.9446 42.1131L40.7038 41.3537ZM42.6001 58.6116L34.0249 67.1868C33.8304 67.3858 33.7222 67.6535 33.7238 67.9317C33.7254 68.21 33.8366 68.4764 34.0334 68.6731C34.2302 68.8699 34.4965 68.9811 34.7748 68.9827C35.053 68.9843 35.3207 68.8761 35.5197 68.6816L44.0949 60.1064C44.2894 59.9074 44.3976 59.6397 44.396 59.3615C44.3944 59.0832 44.2832 58.8169 44.0864 58.6201C43.8897 58.4233 43.6233 58.3121 43.345 58.3105C43.0668 58.3089 42.7991 58.4171 42.6001 58.6116ZM52.4313 48.7804L45.781 55.4307C45.5865 55.6297 45.4784 55.8973 45.48 56.1756C45.4816 56.4538 45.5928 56.7202 45.7896 56.917C45.9863 57.1137 46.2527 57.2249 46.5309 57.2265C46.8092 57.2281 47.0768 57.12 47.2758 56.9255L53.9261 50.2752C54.1206 50.0762 54.2288 49.8085 54.2272 49.5303C54.2256 49.2521 54.1143 48.9857 53.9176 48.7889C53.7208 48.5922 53.4544 48.4809 53.1762 48.4793C52.898 48.4777 52.6303 48.5859 52.4313 48.7804ZM42.9075 54.052C43.1058 54.2501 43.3746 54.3614 43.6549 54.3614C43.9352 54.3614 44.2041 54.2501 44.4023 54.052L51.0526 47.4017C51.2471 47.2027 51.3553 46.9351 51.3537 46.6568C51.3521 46.3786 51.2408 46.1122 51.0441 45.9154C50.8473 45.7187 50.5809 45.6074 50.3027 45.6058C50.0245 45.6042 49.7568 45.7124 49.5578 45.9069L42.9075 52.5572C42.7094 52.7554 42.5981 53.0243 42.5981 53.3046C42.5981 53.5849 42.7094 53.8537 42.9075 54.052Z" fill="#016EB1"/>
</g>
</svg>
