<svg width="60" height="76" viewBox="0 0 60 76" fill="none" xmlns="http://www.w3.org/2000/svg">
<g id="Group">
<path id="Vector" d="M44.4541 26.9708H41.127C40.9242 26.3267 40.6654 25.7017 40.3536 25.1027L42.7061 22.7501C42.851 22.6059 42.966 22.4344 43.0442 22.2454C43.1225 22.0565 43.1625 21.8539 43.1619 21.6494C43.1619 21.2334 43 20.8424 42.7061 20.5484L39.9375 17.7797C39.3305 17.1731 38.3429 17.1728 37.7358 17.7798L35.3832 20.1324C34.7843 19.8206 34.1592 19.5618 33.5151 19.359V16.0318C33.515 15.1734 32.8166 14.4749 31.9581 14.4749H28.0426C27.1842 14.4749 26.4858 15.1733 26.4858 16.0318V19.359C25.8417 19.5619 25.2166 19.8207 24.6176 20.1324L22.2649 17.7797C21.6579 17.173 20.6703 17.1731 20.0633 17.7798L17.2949 20.5483C17.1498 20.6925 17.0348 20.8641 16.9565 21.053C16.8782 21.242 16.8381 21.4447 16.8387 21.6492C16.8387 22.0651 17.0007 22.456 17.2947 22.75L19.6473 25.1026C19.3355 25.7015 19.0767 26.3266 18.8739 26.9706H15.5466C14.6883 26.9706 13.9899 27.669 13.9899 28.5275V32.4431C13.9899 33.3014 14.6883 33.9998 15.5466 33.9998H18.8739C19.0767 34.6439 19.3355 35.2689 19.6473 35.8679L17.2947 38.2204C16.6877 38.8275 16.6877 39.8152 17.2947 40.4222L20.0633 43.1908C20.6703 43.7979 21.6582 43.7978 22.265 43.1908L24.6176 40.8382C25.2166 41.15 25.8417 41.4088 26.4858 41.6116V44.9388C26.4858 45.7972 27.1842 46.4956 28.0426 46.4956H31.9581C32.8164 46.4956 33.515 45.7972 33.515 44.9388V41.6116C34.159 41.4088 34.7841 41.15 35.383 40.8382L37.7356 43.1908C38.3428 43.7979 39.3305 43.7978 39.9375 43.1908L42.7059 40.4222C42.8509 40.2779 42.9658 40.1064 43.0441 39.9174C43.1223 39.7285 43.1623 39.5259 43.1618 39.3214C43.1618 38.9055 42.9999 38.5146 42.7059 38.2204L40.3533 35.8679C40.6652 35.269 40.924 34.6439 41.1267 33.9998H44.454C45.3123 33.9998 46.0109 33.3014 46.0109 32.4431V28.5275C46.0111 27.6692 45.3125 26.9708 44.4541 26.9708ZM43.814 31.8027H40.2899C40.042 31.8026 39.8014 31.8865 39.6072 32.0405C39.413 32.1945 39.2766 32.4097 39.2202 32.6511C38.9872 33.6492 38.5925 34.6026 38.0516 35.4733C37.9208 35.6838 37.865 35.9325 37.8934 36.1787C37.9218 36.425 38.0326 36.6545 38.2079 36.8298L40.6996 39.3215L38.8367 41.1844L36.3449 38.6927C36.1696 38.5173 35.9402 38.4065 35.6939 38.3781C35.4475 38.3496 35.1989 38.4054 34.9883 38.5363C34.1176 39.0771 33.1643 39.4719 32.1662 39.705C31.9248 39.7614 31.7097 39.8978 31.5556 40.092C31.4016 40.2863 31.3178 40.5269 31.3178 40.7747V44.299H28.6834V40.7747C28.6834 40.5269 28.5996 40.2863 28.4456 40.0921C28.2915 39.8979 28.0764 39.7615 27.835 39.705C26.8368 39.4721 25.8834 39.0773 25.0128 38.5363C24.8022 38.4055 24.5535 38.3499 24.3073 38.3783C24.061 38.4067 23.8316 38.5175 23.6563 38.6927L21.1645 41.1844L19.3016 39.3215L21.7934 36.8298C21.9686 36.6545 22.0795 36.425 22.1079 36.1788C22.1363 35.9325 22.0806 35.6839 21.9498 35.4733C21.4089 34.6026 21.0142 33.6492 20.7812 32.6511C20.7247 32.4097 20.5883 32.1945 20.3941 32.0405C20.1999 31.8865 19.9593 31.8026 19.7115 31.8027H16.1873V29.1682H19.7115C19.9593 29.1682 20.1999 29.0844 20.3941 28.9304C20.5883 28.7764 20.7247 28.5612 20.7812 28.3198C21.0142 27.3217 21.4089 26.3683 21.9498 25.4976C22.0806 25.287 22.1363 25.0384 22.1079 24.7921C22.0795 24.5459 21.9686 24.3164 21.7934 24.1411L19.3016 21.6494L21.1645 19.7864L23.6563 22.2782C23.8316 22.4535 24.061 22.5644 24.3073 22.5928C24.5536 22.6212 24.8022 22.5654 25.0128 22.4346C25.8835 21.8937 26.8368 21.499 27.835 21.266C28.0764 21.2096 28.2916 21.0732 28.4456 20.879C28.5996 20.6848 28.6834 20.4442 28.6834 20.1963V16.672H31.3178V20.1963C31.3178 20.4442 31.4016 20.6848 31.5557 20.879C31.7097 21.0732 31.9249 21.2096 32.1662 21.266C33.1644 21.4991 34.1177 21.8938 34.9884 22.4346C35.1991 22.5653 35.4477 22.6209 35.6939 22.5925C35.9402 22.5641 36.1696 22.4534 36.3449 22.2782L38.8367 19.7864L40.6996 21.6494L38.2079 24.1411C38.0326 24.3164 37.9217 24.5459 37.8934 24.7921C37.865 25.0384 37.9207 25.2871 38.0516 25.4976C38.5924 26.3684 38.9871 27.3217 39.2202 28.3198C39.2766 28.5612 39.413 28.7764 39.6072 28.9304C39.8014 29.0844 40.042 29.1682 40.2899 29.1682H43.814V31.8027Z" fill="#016EB1"/>
<path id="Vector_2" d="M29.9999 24.5998C26.7546 24.5998 24.1144 27.2401 24.1144 30.4853C24.1144 33.7305 26.7547 36.3708 29.9999 36.3708C33.2452 36.3708 35.8854 33.7305 35.8854 30.4853C35.8854 27.2401 33.2453 24.5998 29.9999 24.5998ZM29.9999 34.1736C27.9662 34.1736 26.3116 32.519 26.3116 30.4853C26.3116 28.4516 27.9662 26.797 29.9999 26.797C32.0336 26.797 33.6882 28.4516 33.6882 30.4853C33.6882 32.519 32.0336 34.1736 29.9999 34.1736ZM4.74326 29.3867H1.09859C0.807224 29.3867 0.527794 29.5024 0.321768 29.7085C0.115743 29.9145 0 30.1939 0 30.4853C0 30.7766 0.115743 31.0561 0.321768 31.2621C0.527794 31.4681 0.807224 31.5839 1.09859 31.5839H4.74326C5.03462 31.5839 5.31405 31.4681 5.52008 31.2621C5.7261 31.0561 5.84185 30.7766 5.84185 30.4853C5.84185 30.1939 5.7261 29.9145 5.52008 29.7085C5.31405 29.5024 5.03462 29.3867 4.74326 29.3867ZM58.9014 29.3867H55.2567C54.6499 29.3867 54.1581 29.8786 54.1581 30.4853C54.1581 31.092 54.6499 31.5839 55.2567 31.5839H58.9014C59.1928 31.5839 59.4722 31.4681 59.6782 31.2621C59.8843 31.0561 60 30.7766 60 30.4853C60 30.1939 59.8843 29.9145 59.6782 29.7085C59.4722 29.5024 59.1928 29.3867 58.9014 29.3867ZM12.9175 47.5677C12.8155 47.4657 12.6944 47.3848 12.5611 47.3296C12.4278 47.2743 12.2849 47.2459 12.1406 47.2459C11.9964 47.2459 11.8535 47.2743 11.7202 47.3296C11.5869 47.3848 11.4658 47.4657 11.3638 47.5677L8.78665 50.1449C8.58061 50.3509 8.46487 50.6303 8.46487 50.9217C8.46487 51.2131 8.58061 51.4925 8.78665 51.6986C8.99268 51.9046 9.27212 52.0203 9.56349 52.0203C9.85487 52.0203 10.1343 51.9046 10.3403 51.6986L12.9175 49.1214C13.0195 49.0194 13.1004 48.8983 13.1556 48.765C13.2109 48.6317 13.2393 48.4889 13.2393 48.3446C13.2393 48.2003 13.2109 48.0574 13.1556 47.9241C13.1004 47.7909 13.0195 47.6697 12.9175 47.5677ZM51.2132 9.27229C51.0071 9.06628 50.7277 8.95054 50.4363 8.95054C50.1449 8.95054 49.8654 9.06628 49.6594 9.27229L47.0822 11.8494C46.8762 12.0555 46.7605 12.3349 46.7605 12.6263C46.7605 12.9177 46.8763 13.1972 47.0823 13.4032C47.2884 13.6092 47.5678 13.725 47.8592 13.725C48.1506 13.7249 48.43 13.6092 48.6361 13.4031L51.2132 10.826C51.3152 10.724 51.3962 10.6029 51.4514 10.4696C51.5066 10.3363 51.535 10.1934 51.535 10.0491C51.535 9.90486 51.5066 9.762 51.4514 9.62871C51.3962 9.49542 51.3152 9.37431 51.2132 9.27229ZM30.0001 0.485352C29.7087 0.485352 29.4293 0.601095 29.2233 0.80712C29.0172 1.01315 28.9015 1.29258 28.9015 1.58394V5.22861C28.9015 5.83533 29.3932 6.3272 30.0001 6.3272C30.6069 6.3272 31.0987 5.83533 31.0987 5.22861V1.58394C31.0987 1.29258 30.9829 1.01315 30.7769 0.80712C30.5709 0.601095 30.2914 0.485352 30.0001 0.485352ZM51.2132 50.1449L48.6361 47.5677C48.4287 47.3681 48.1513 47.2578 47.8635 47.2606C47.5757 47.2633 47.3005 47.3788 47.097 47.5823C46.8935 47.7858 46.7779 48.0611 46.7751 48.3489C46.7724 48.6367 46.8826 48.9141 47.0822 49.1214L49.6594 51.6986C49.8667 51.8982 50.1441 52.0085 50.4319 52.0057C50.7197 52.003 50.9949 51.8875 51.1985 51.684C51.402 51.4805 51.5175 51.2052 51.5203 50.9174C51.5231 50.6296 51.4128 50.3522 51.2132 50.1449ZM12.9175 11.8494L10.3403 9.27229C10.1343 9.06626 9.85487 8.95051 9.56349 8.95051C9.27212 8.95051 8.99268 9.06626 8.78665 9.27229C8.58061 9.47832 8.46487 9.75776 8.46487 10.0491C8.46487 10.3405 8.58061 10.62 8.78665 10.826L11.3638 13.4031C11.5698 13.6092 11.8493 13.7249 12.1406 13.7249C12.432 13.7249 12.7114 13.6092 12.9175 13.4031C13.1235 13.1971 13.2393 12.9177 13.2393 12.6263C13.2393 12.3349 13.1235 12.0555 12.9175 11.8494ZM51.9173 27.794C50.7351 17.7053 42.7378 9.70733 32.6964 8.48336C32.0951 8.40939 31.5463 8.83872 31.4728 9.44089C31.4375 9.73015 31.5186 10.0216 31.6982 10.251C31.8778 10.4805 32.1412 10.6293 32.4304 10.6646C41.5497 11.776 48.6657 18.9252 49.7348 28.0498C49.7687 28.3392 49.9162 28.6032 50.1448 28.7839C50.3734 28.9645 50.6644 29.0469 50.9538 29.013C51.0971 28.9963 51.2357 28.9515 51.3617 28.8811C51.4877 28.8108 51.5986 28.7164 51.6881 28.6032C51.7776 28.49 51.8439 28.3602 51.8832 28.2214C51.9225 28.0826 51.9341 27.9373 51.9173 27.794Z" fill="#016EB1"/>
<path id="Vector_3" d="M50.9401 31.9588C50.797 31.9405 50.6516 31.9507 50.5124 31.9887C50.3732 32.0267 50.2428 32.0917 50.1288 32.1802C50.0147 32.2686 49.9192 32.3786 49.8477 32.504C49.7762 32.6293 49.7302 32.7676 49.7122 32.9108C48.9632 38.8267 45.6241 44.0468 40.551 47.2319C38.3639 48.6052 37.0584 50.9553 37.0584 53.5183V58.0397H22.9403V53.4183C22.9403 50.9364 21.6433 48.5915 19.5555 47.2992C13.6516 43.6445 10.1267 37.323 10.1266 30.3888C10.1266 20.3767 17.626 11.8977 27.5708 10.6658C27.714 10.6481 27.8523 10.6023 27.9778 10.5311C28.1033 10.46 28.2135 10.3647 28.3022 10.2509C28.3909 10.1372 28.4563 10.007 28.4947 9.86793C28.5331 9.72885 28.5438 9.58357 28.526 9.44039C28.4514 8.83836 27.903 8.40962 27.3006 8.4852C16.3125 9.84643 7.92881 19.2957 7.92896 30.3888C7.92896 34.2168 8.92457 37.9883 10.8084 41.2958C12.6346 44.5022 15.2593 47.224 18.3986 49.1674C19.8445 50.0623 20.7426 51.6912 20.7426 53.4182V58.1996C19.6255 58.5878 18.8201 59.6486 18.8201 60.8962V62.4623C18.8201 63.1254 19.0491 63.7349 19.4296 64.2202C19.049 64.7055 18.8201 65.3148 18.8201 65.9781V67.5441C18.8201 69.1192 20.1016 70.4006 21.6765 70.4006H25.1305V72.8841C25.1305 74.3168 26.296 75.4823 27.7286 75.4823H32.269C33.7017 75.4823 34.867 74.3168 34.867 72.8841V70.4006H38.321C39.8961 70.4006 41.1775 69.119 41.1775 67.5441V65.9781C41.1775 65.315 40.9484 64.7055 40.5678 64.2202C40.9484 63.7349 41.1775 63.1256 41.1775 62.4623V60.8962C41.1775 59.6485 40.3721 58.5878 39.255 58.1996V53.5182C39.255 51.7158 40.1759 50.0615 41.7187 49.0928C47.3514 45.5562 51.0593 39.7586 51.8912 33.1867C51.9095 33.0436 51.8994 32.8983 51.8614 32.7592C51.8235 32.62 51.7585 32.4896 51.6702 32.3756C51.5819 32.2616 51.4719 32.166 51.3466 32.0945C51.2214 32.023 51.0832 31.9769 50.9401 31.9588ZM32.6702 72.8839C32.6702 73.1012 32.4866 73.2849 32.2694 73.2849H27.729C27.5118 73.2849 27.3283 73.1013 27.3283 72.8839V70.4004H32.6702V72.8839ZM38.9807 67.5439C38.9807 67.9012 38.6789 68.2031 38.3216 68.2031H21.677C21.3197 68.2031 21.0178 67.9012 21.0178 67.5439V65.9779C21.0178 65.6207 21.3197 65.3188 21.677 65.3188H38.3216C38.6789 65.3188 38.9807 65.6207 38.9807 65.9779V67.5439ZM38.9807 62.4622C38.9807 62.8194 38.6789 63.1213 38.3216 63.1213H21.677C21.3197 63.1213 21.0178 62.8194 21.0178 62.4622V60.896C21.0178 60.5388 21.3197 60.2369 21.677 60.2369H38.3216C38.6789 60.2369 38.9807 60.5388 38.9807 60.896V62.4622Z" fill="#016EB1"/>
</g>
</svg>
