<svg width="60" height="70" viewBox="0 0 60 70" fill="none" xmlns="http://www.w3.org/2000/svg">
<g id="Group">
<path id="Vector" d="M48.889 47.4649V44.3089C48.889 41.8065 48.0311 39.3498 46.4731 37.3916C44.9152 35.4332 42.7145 34.045 40.2762 33.4823L34.4446 32.1364V31.5503L34.9364 31.3536C38.0124 30.1231 40.0001 27.1872 40.0001 23.8742V21.9092C42.4508 21.9092 44.4445 19.9155 44.4445 17.4648C44.4453 16.4885 44.1229 15.5394 43.5276 14.7656C44.1362 13.1389 44.4445 11.4339 44.4445 9.68693V2.58975L41.5957 3.5394C40.4196 3.9319 39.1877 4.13186 37.9477 4.13155C35.8568 4.13145 33.8052 3.56319 32.0122 2.48749L31.0853 1.9314C29.8495 1.18986 28.4355 0.798131 26.9942 0.798101C25.7206 0.796694 24.4653 1.10192 23.3344 1.68798C22.2036 2.27404 21.2305 3.12371 20.4973 4.16518C17.7217 4.47142 15.5556 6.831 15.5556 9.68693C15.5556 11.434 15.864 13.1389 16.4724 14.7656C15.8981 15.5145 15.5556 16.4502 15.5556 17.4648C15.5556 19.9155 17.5493 21.9092 20 21.9092V23.8742C20 27.1872 21.9877 30.123 25.0639 31.3536L25.5555 31.5504V32.1364L18.8624 33.681C16.9066 34.1323 15.1299 35.169 13.7729 36.6334C13.2769 36.448 12.7517 36.3533 12.2221 36.3537H9.99993C7.54926 36.3537 5.55552 38.3474 5.55552 40.7981H0V69.6871H60V47.4649H48.889ZM46.6668 51.9093V56.3537H44.4445V49.6871H51.1112V56.3537H48.889V51.9093H46.6668ZM46.6668 44.3089V47.4649H35.5556V57.3472L32.2686 42.0077L32.5457 41.3146L34.8527 44.1984L37.851 35.2034L39.7765 35.6477C43.8334 36.5836 46.6668 40.1454 46.6668 44.3089ZM30.0001 38.1323L30.9503 39.32L30.359 40.7981H29.6412L29.05 39.32L30.0001 38.1323ZM29.7872 43.0203H30.2131L33.2315 57.1065L30.0001 60.3381L26.7686 57.1066L29.7872 43.0203ZM35.676 34.7012L34.0363 39.6201L31.489 36.4359L33.6836 34.2411L35.676 34.7012ZM40.0001 19.687V15.2426C41.2255 15.2426 42.2223 16.2396 42.2223 17.4648C42.2223 18.69 41.2253 19.687 40.0001 19.687ZM17.7778 17.4648C17.7778 16.2395 18.7748 15.2426 20 15.2426V19.687C18.7748 19.687 17.7778 18.6901 17.7778 17.4648ZM20 13.0204C19.4288 13.0201 18.863 13.1306 18.3339 13.3457C17.964 12.1614 17.7765 10.9278 17.7778 9.68707C17.7778 7.84899 19.2732 6.35375 21.1111 6.35375H21.7057L22.2271 5.57162C22.7495 4.7861 23.4582 4.14205 24.29 3.69689C25.1217 3.25173 26.0507 3.0193 26.9941 3.02031C28.0325 3.02041 29.0513 3.3026 29.9418 3.83675L30.8687 4.39284C32.5591 5.40693 34.4475 6.04602 36.4063 6.26684C38.3651 6.48767 40.3485 6.28509 42.2222 5.6728V9.68693C42.2235 10.9276 42.036 12.1612 41.666 13.3454C41.1369 13.1304 40.5711 13.02 40 13.0202H39.7879C39.3063 11.7241 38.057 10.798 36.5951 10.798H36.2422L36.0723 10.458C35.4918 9.29701 34.3249 8.57583 33.0269 8.57583C32.2539 8.57688 31.5042 8.83987 30.8999 9.3219L30.3109 9.79309C27.7095 11.8742 24.4424 13.0202 21.1111 13.0202L20 13.0204ZM22.2223 23.8743V15.2056C25.6661 14.977 28.9953 13.6915 31.699 11.5285L32.2881 11.0573C32.498 10.8898 32.7585 10.7985 33.027 10.7982C33.2468 10.7974 33.4625 10.8583 33.6494 10.9738C33.8364 11.0894 33.9873 11.2551 34.0848 11.4521L34.8691 13.0204H36.5954C37.2474 13.0204 37.7781 13.5509 37.7781 14.2031V23.8743C37.7781 26.2733 36.3388 28.3994 34.1112 29.2904L33.6194 29.4871C33.2062 29.6509 32.8519 29.9353 32.6028 30.3033C32.3536 30.6714 32.2211 31.106 32.2225 31.5504V32.5602L30.0001 34.7823L27.7779 32.5601V31.5503C27.7793 31.1058 27.6468 30.6712 27.3976 30.3032C27.1485 29.9352 26.7942 29.6507 26.381 29.487L25.8893 29.2903C23.6616 28.3994 22.2223 26.2734 22.2223 23.8743ZM26.3165 34.2414L28.5112 36.4362L25.9639 39.6204L24.3241 34.7014L26.3165 34.2414ZM7.77786 40.7981C7.77786 39.5728 8.77487 38.5759 10.0001 38.5759H12.2223C13.4476 38.5759 14.4445 39.5729 14.4445 40.7981V41.9092C14.4445 42.5218 13.946 43.0203 13.3334 43.0203H8.88896C8.27636 43.0203 7.77786 42.5218 7.77786 41.9092V40.7981ZM2.22221 43.0203H5.74671C6.20539 44.3135 7.44041 45.2425 8.88896 45.2425H13.3334C14.7818 45.2425 16.0168 44.3135 16.4756 43.0203H20.0001V67.4647H2.22221V43.0203ZM22.2223 67.4649V40.7981H16.6668C16.6668 39.7041 16.2688 38.7018 15.6109 37.9267C16.6423 36.8962 17.942 36.1754 19.3624 35.8463L22.1491 35.2033L25.1474 44.1983L27.4544 41.3145L27.7316 42.0076L24.3426 57.8231L30.0001 63.4805L35.5556 57.9249V67.4649H22.2223ZM57.7779 67.4649H37.7778V49.6871H42.2222V58.576H53.3334V49.6871H57.7778V67.4649H57.7779Z" fill="#016EB1"/>
<path id="Vector_2" d="M4.44604 65.2426H17.7794V51.9093H4.44604V65.2426ZM6.66825 54.1315H15.5572V63.0204H6.66825V54.1315ZM4.44604 47.4648H6.66825V49.6871H4.44604V47.4648ZM8.89046 47.4648H17.7794V49.6871H8.89046V47.4648Z" fill="#016EB1"/>
<path id="Vector_3" d="M7.8656 60.2488L12.5468 55.5676L14.1182 57.1389L9.43686 61.8202L7.8656 60.2488ZM30.0002 28.576C31.7946 28.576 33.4077 27.579 34.21 25.9744L34.3273 25.7399L32.3398 24.7458L32.2224 24.9806C31.7989 25.8279 30.9473 26.3541 30.0002 26.3541C29.0531 26.3541 28.2016 25.8279 27.778 24.9805L27.6607 24.746L25.6731 25.74L25.7903 25.9744C26.5928 27.579 28.2059 28.576 30.0002 28.576Z" fill="#016EB1"/>
<path id="Vector_4" d="M25.5564 18.576C26.1701 18.576 26.6675 18.0785 26.6675 17.4649C26.6675 16.8512 26.1701 16.3538 25.5564 16.3538C24.9428 16.3538 24.4453 16.8512 24.4453 17.4649C24.4453 18.0785 24.9428 18.576 25.5564 18.576Z" fill="#016EB1"/>
<path id="Vector_5" d="M34.4439 18.576C35.0575 18.576 35.555 18.0785 35.555 17.4649C35.555 16.8512 35.0575 16.3538 34.4439 16.3538C33.8302 16.3538 33.3328 16.8512 33.3328 17.4649C33.3328 18.0785 33.8302 18.576 34.4439 18.576Z" fill="#016EB1"/>
<path id="Vector_6" d="M29.3838 24.014L31.606 22.9029C31.7365 22.8376 31.8529 22.7473 31.9485 22.6371C32.0441 22.5268 32.1171 22.3988 32.1632 22.2604C32.2093 22.122 32.2277 21.9758 32.2174 21.8302C32.207 21.6847 32.1681 21.5426 32.1028 21.4121L31.9856 21.1777C31.4106 20.0244 31.1106 18.7536 31.109 17.4648H28.8868C28.8868 18.807 29.1487 20.1507 29.6494 21.3969L28.3899 22.0266L29.3838 24.014ZM48.8869 63.0204H51.1091V65.2426H48.8869V63.0204ZM53.3313 63.0204H55.5535V65.2426H53.3313V63.0204Z" fill="#016EB1"/>
</g>
</svg>
