<svg width="66" height="66" viewBox="0 0 66 66" fill="none" xmlns="http://www.w3.org/2000/svg">
<g id="Group">
<path id="Vector" d="M59.5387 19.984L65.1195 14.4032C65.7552 13.7673 65.5676 12.6932 64.7568 12.3091L40.0567 0.609033C39.8143 0.494253 39.5424 0.457202 39.2782 0.502956C39.014 0.54871 38.7704 0.67503 38.5808 0.864614L33 6.44553L27.4193 0.864744C27.2297 0.67516 26.9861 0.54884 26.7219 0.503086C26.4577 0.457332 26.1858 0.494383 25.9434 0.609163L1.24335 12.3092C0.430972 12.694 0.245852 13.7686 0.880644 14.4034L6.46143 19.9842L0.880644 25.5648C0.244812 26.2007 0.432402 27.2748 1.24335 27.659L6.99989 30.3858V51.1841C6.99989 51.6668 7.26731 52.1097 7.69436 52.3346C7.80707 52.3939 32.3311 65.3021 32.4116 65.3424C32.7707 65.5255 33.2064 65.5389 33.6054 65.3347L58.3055 52.3346C58.5151 52.2243 58.6906 52.0589 58.813 51.8561C58.9354 51.6533 59.0001 51.421 59.0001 51.1841V30.3858L64.7566 27.659C65.5693 27.2741 65.7537 26.1995 65.1193 25.5648L59.5387 19.984ZM33 30.2456L11.3367 19.984L33 9.72258L54.6631 19.984L33 30.2456ZM39.7715 3.35113L61.9766 13.8693L57.4288 18.4171L35.2235 7.89894L39.7715 3.35113ZM26.2286 3.35113L30.7763 7.89894L8.57134 18.417L4.02353 13.8692L26.2286 3.35113ZM8.57134 21.5512L30.7763 32.0694L26.2286 36.6172L4.02353 26.099L8.57134 21.5512ZM9.60003 31.6174L25.9436 39.3589C26.1859 39.4737 26.4578 39.5107 26.722 39.465C26.9862 39.4192 27.2298 39.2929 27.4195 39.1033L31.7 34.8227V62.031L9.5999 50.3993L9.60003 31.6174ZM56.4001 50.3993L34.3 62.031V34.8227L38.5808 39.1035C38.7704 39.293 39.014 39.4193 39.2782 39.4651C39.5424 39.5108 39.8143 39.4738 40.0567 39.359L56.4001 31.6174V50.3993ZM39.7715 36.6171L35.2236 32.0693L57.4288 21.5511L61.9766 26.0989L39.7715 36.6171Z" fill="#016EB1"/>
</g>
</svg>
