<svg width="60" height="61" viewBox="0 0 60 61" fill="none" xmlns="http://www.w3.org/2000/svg">
<g id="svgexport-16(7) 1" clip-path="url(#clip0_1_10913)">
<g id="Group">
<path id="Vector" d="M53.75 45.9839H46.25C45.9185 45.9839 45.6005 45.8522 45.3661 45.6178C45.1317 45.3834 45 45.0654 45 44.7339C45 44.4024 45.1317 44.0844 45.3661 43.85C45.6005 43.6156 45.9185 43.4839 46.25 43.4839H53.75C55.8175 43.4839 57.5 41.8014 57.5 39.7339V22.2339C57.5 20.1664 55.8175 18.4839 53.75 18.4839H6.25C4.1825 18.4839 2.5 20.1664 2.5 22.2339V39.7339C2.5 41.8014 4.1825 43.4839 6.25 43.4839H13.75C14.0815 43.4839 14.3995 43.6156 14.6339 43.85C14.8683 44.0844 15 44.4024 15 44.7339C15 45.0654 14.8683 45.3834 14.6339 45.6178C14.3995 45.8522 14.0815 45.9839 13.75 45.9839H6.25C4.59301 45.9819 3.00445 45.3228 1.83277 44.1511C0.661102 42.9794 0.00198482 41.3909 0 39.7339V22.2339C0 18.7889 2.8025 15.9839 6.25 15.9839H53.75C57.1975 15.9839 60 18.7889 60 22.2339V39.7339C60 43.1789 57.1975 45.9839 53.75 45.9839ZM36.25 53.4839H21.25C20.9185 53.4839 20.6005 53.3522 20.3661 53.1178C20.1317 52.8834 20 52.5654 20 52.2339C20 51.9024 20.1317 51.5844 20.3661 51.35C20.6005 51.1156 20.9185 50.9839 21.25 50.9839H36.25C36.5815 50.9839 36.8995 51.1156 37.1339 51.35C37.3683 51.5844 37.5 51.9024 37.5 52.2339C37.5 52.5654 37.3683 52.8834 37.1339 53.1178C36.8995 53.3522 36.5815 53.4839 36.25 53.4839ZM36.25 48.4839H21.25C20.9185 48.4839 20.6005 48.3522 20.3661 48.1178C20.1317 47.8834 20 47.5654 20 47.2339C20 46.9024 20.1317 46.5844 20.3661 46.35C20.6005 46.1156 20.9185 45.9839 21.25 45.9839H36.25C36.5815 45.9839 36.8995 46.1156 37.1339 46.35C37.3683 46.5844 37.5 46.9024 37.5 47.2339C37.5 47.5654 37.3683 47.8834 37.1339 48.1178C36.8995 48.3522 36.5815 48.4839 36.25 48.4839Z" fill="#016EB1"/>
<path id="Vector_2" d="M26.25 43.4839H21.25C20.9185 43.4839 20.6005 43.3522 20.3661 43.1178C20.1317 42.8834 20 42.5654 20 42.2339C20 41.9024 20.1317 41.5844 20.3661 41.35C20.6005 41.1156 20.9185 40.9839 21.25 40.9839H26.25C26.5815 40.9839 26.8995 41.1156 27.1339 41.35C27.3683 41.5844 27.5 41.9024 27.5 42.2339C27.5 42.5654 27.3683 42.8834 27.1339 43.1178C26.8995 43.3522 26.5815 43.4839 26.25 43.4839ZM46.25 18.4839C45.9185 18.4839 45.6005 18.3522 45.3661 18.1178C45.1317 17.8834 45 17.5654 45 17.2339V7.23389C45 5.16639 43.3175 3.48389 41.25 3.48389H18.75C16.6825 3.48389 15 5.16639 15 7.23389V17.2339C15 17.5654 14.8683 17.8834 14.6339 18.1178C14.3995 18.3522 14.0815 18.4839 13.75 18.4839C13.4185 18.4839 13.1005 18.3522 12.8661 18.1178C12.6317 17.8834 12.5 17.5654 12.5 17.2339V7.23389C12.5 3.78889 15.3025 0.983887 18.75 0.983887H41.25C44.6975 0.983887 47.5 3.78889 47.5 7.23389V17.2339C47.5 17.5654 47.3683 17.8834 47.1339 18.1178C46.8995 18.3522 46.5815 18.4839 46.25 18.4839Z" fill="#016EB1"/>
<path id="Vector_3" d="M41.25 60.9839H18.75C17.093 60.9819 15.5044 60.3228 14.3328 59.1511C13.1611 57.9794 12.502 56.3909 12.5 54.7339V34.7339C12.5 34.4024 12.6317 34.0844 12.8661 33.85C13.1005 33.6156 13.4185 33.4839 13.75 33.4839H46.25C46.5815 33.4839 46.8995 33.6156 47.1339 33.85C47.3683 34.0844 47.5 34.4024 47.5 34.7339V54.7339C47.5 58.1789 44.6975 60.9839 41.25 60.9839ZM15 35.9839V54.7339C15 56.8014 16.6825 58.4839 18.75 58.4839H41.25C43.3175 58.4839 45 56.8014 45 54.7339V35.9839H15Z" fill="#016EB1"/>
</g>
</g>
<defs>
<clipPath id="clip0_1_10913">
<rect width="60" height="60" fill="white" transform="translate(0 0.983887)"/>
</clipPath>
</defs>
</svg>
