<svg width="16" height="18" viewBox="0 0 16 18" fill="none" xmlns="http://www.w3.org/2000/svg">
<path id="Vector" d="M12.6518 10.9141C12.3238 10.5726 11.9281 10.39 11.5087 10.39C11.0928 10.39 10.6937 10.5692 10.3522 10.9108L9.2835 11.976C9.19557 11.9287 9.10764 11.8847 9.0231 11.8408C8.90135 11.7799 8.78637 11.7224 8.6883 11.6615C7.68728 11.0257 6.77757 10.1972 5.90506 9.12515C5.48233 8.59082 5.19825 8.14104 4.99196 7.68449C5.26927 7.43085 5.52629 7.16707 5.77655 6.91344C5.87124 6.81874 5.96593 6.72067 6.06062 6.62598C6.7708 5.9158 6.7708 4.99594 6.06062 4.28576L5.13738 3.36252C5.03254 3.25768 4.92433 3.14946 4.82287 3.04125C4.61996 2.83157 4.40691 2.61514 4.18709 2.41223C3.85905 2.08757 3.46676 1.9151 3.05418 1.9151C2.64159 1.9151 2.24254 2.08757 1.90436 2.41223L1.89759 2.41899L0.747772 3.57896C0.314898 4.01183 0.0680249 4.53939 0.0139157 5.1515C-0.0672481 6.139 0.223589 7.05885 0.446789 7.66082C0.994645 9.13868 1.81305 10.5083 3.03389 11.976C4.51513 13.7447 6.29735 15.1414 8.33321 16.1255C9.11103 16.4941 10.1492 16.9304 11.3092 17.0048C11.3802 17.0082 11.4546 17.0116 11.5223 17.0116C12.3035 17.0116 12.9595 16.7309 13.4736 16.1729C13.477 16.1661 13.4837 16.1627 13.4871 16.156C13.663 15.9429 13.8659 15.7501 14.0789 15.5439C14.2243 15.4052 14.3731 15.2598 14.5186 15.1076C14.8534 14.7593 15.0292 14.3535 15.0292 13.9375C15.0292 13.5181 14.85 13.1157 14.5084 12.7775L12.6518 10.9141ZM13.8625 14.4752C13.8591 14.4752 13.8591 14.4786 13.8625 14.4752C13.7306 14.6172 13.5953 14.7457 13.4499 14.8878C13.2301 15.0975 13.0069 15.3173 12.7972 15.5641C12.4557 15.9294 12.0532 16.1019 11.5256 16.1019C11.4749 16.1019 11.4208 16.1019 11.3701 16.0985C10.3657 16.0342 9.4323 15.6419 8.73226 15.3071C6.81815 14.3805 5.13738 13.065 3.74069 11.3977C2.58748 10.0078 1.81643 8.72271 1.30577 7.34293C0.991263 6.50085 0.876281 5.84478 0.927009 5.2259C0.960827 4.83023 1.11301 4.50219 1.3937 4.2215L2.5469 3.0683C2.71261 2.91274 2.88847 2.82819 3.06094 2.82819C3.274 2.82819 3.44647 2.9567 3.55469 3.06492L3.56483 3.07506C3.77112 3.26783 3.96727 3.46736 4.17356 3.68041C4.2784 3.78863 4.38662 3.89685 4.49483 4.00845L5.41807 4.93169C5.77655 5.29016 5.77655 5.62158 5.41807 5.98005C5.32 6.07812 5.22531 6.1762 5.12724 6.27089C4.84316 6.56173 4.57262 6.83227 4.2784 7.09605C4.27163 7.10282 4.26487 7.1062 4.26149 7.11296C3.97065 7.4038 4.02476 7.68787 4.08563 7.88064L4.09578 7.91107C4.33589 8.49275 4.67407 9.0406 5.18811 9.6933L5.19149 9.69668C6.12487 10.8465 7.10899 11.7427 8.19455 12.4292C8.33321 12.5171 8.47524 12.5881 8.61052 12.6558C8.73226 12.7166 8.84724 12.7741 8.94532 12.835C8.95884 12.8418 8.97237 12.8519 8.9859 12.8587C9.10088 12.9162 9.2091 12.9432 9.3207 12.9432C9.60139 12.9432 9.77725 12.7674 9.83474 12.7099L10.9913 11.5533C11.1063 11.4383 11.2889 11.2997 11.502 11.2997C11.7116 11.2997 11.8841 11.4316 11.989 11.5465L11.9957 11.5533L13.8591 13.4167C14.2074 13.7616 14.2074 14.1167 13.8625 14.4752ZM8.64772 4.7998C9.53375 4.9486 10.3386 5.36794 10.9812 6.01049C11.6237 6.65304 12.0397 7.45791 12.1919 8.34395C12.2291 8.56715 12.4218 8.72271 12.6417 8.72271C12.6687 8.72271 12.6924 8.71933 12.7194 8.71595C12.9697 8.67537 13.1354 8.43864 13.0948 8.18838C12.9122 7.11635 12.4049 6.139 11.6305 5.36456C10.856 4.59012 9.8787 4.08285 8.80666 3.90023C8.55641 3.85965 8.32306 4.02536 8.2791 4.27223C8.23513 4.5191 8.39746 4.75921 8.64772 4.7998ZM15.993 8.05649C15.6921 6.29118 14.8601 4.68481 13.5818 3.40648C12.3035 2.12815 10.6971 1.29622 8.93179 0.995242C8.68492 0.951278 8.45157 1.12037 8.40761 1.36724C8.36702 1.6175 8.53273 1.85084 8.78299 1.89481C10.3589 2.16197 11.7962 2.90935 12.9393 4.04903C14.0823 5.19209 14.8263 6.62936 15.0935 8.20529C15.1307 8.42849 15.3234 8.58406 15.5433 8.58406C15.5703 8.58406 15.594 8.58068 15.621 8.57729C15.8679 8.54009 16.037 8.30337 15.993 8.05649Z" fill="black"/>
</svg>
