<svg width="89" height="89" viewBox="0 0 89 89" fill="none" xmlns="http://www.w3.org/2000/svg">
<g id="Iocn">
<rect id="Rectangle 229" width="89" height="89" rx="11" fill="#F4F4F4"/>
<g id="Group 16">
<path id="Vector" d="M66.5642 62.0452C64.8082 60.2761 60.5553 57.6942 58.4919 56.6537C55.8048 55.3003 55.5837 55.1898 53.4716 56.7588C52.0628 57.8059 51.1262 58.7413 49.4775 58.3897C47.8287 58.0381 44.2459 56.0555 41.1088 52.9286C37.9716 49.8016 35.874 46.1151 35.5212 44.472C35.1685 42.8289 36.1194 41.9034 37.1567 40.4914C38.6185 38.5011 38.508 38.1694 37.2584 35.4825C36.2842 33.3927 33.627 29.1799 31.8511 27.4328C29.9513 25.5564 29.9513 25.8881 28.7272 26.3968C27.7306 26.816 26.7745 27.3257 25.8709 27.9193C24.1016 29.0947 23.1197 30.0711 22.433 31.5384C21.7463 33.0057 21.4378 36.4456 24.9841 42.8875C28.5304 49.3294 31.0184 52.6234 36.1681 57.7584C41.3178 62.8933 45.2776 65.6543 51.0665 68.9007C58.2276 72.9112 60.9744 72.1294 62.4462 71.4439C63.9181 70.7583 64.8989 69.7853 66.0766 68.0161C66.6718 67.1141 67.1826 66.1591 67.6026 65.1634C68.1123 63.9438 68.4441 63.9438 66.5642 62.0452Z" fill="#E1E1E1"/>
<path id="Vector_2" d="M68.7203 55.1273C67.1551 53.5504 63.3645 51.2492 61.5254 50.3218C59.1304 49.1155 58.9333 49.017 57.0508 50.4154C55.7951 51.3487 54.9603 52.1825 53.4908 51.8691C52.0212 51.5557 48.8279 49.7886 46.0317 47.0015C43.2356 44.2144 41.3659 40.9287 41.0515 39.4642C40.7371 37.9997 41.5847 37.1748 42.5092 35.9162C43.8122 34.1423 43.7136 33.8466 42.5999 31.4518C41.7316 29.5891 39.3632 25.8342 37.7803 24.2771C36.087 22.6046 36.087 22.9003 34.996 23.3536C34.1077 23.7273 33.2556 24.1816 32.4502 24.7107C30.8732 25.7583 29.998 26.6286 29.3859 27.9364C28.7739 29.2442 28.4989 32.3102 31.6597 38.0519C34.8205 43.7936 37.0381 46.7295 41.6281 51.3064C46.218 55.8832 49.7475 58.3441 54.9071 61.2376C61.2898 64.8121 63.7381 64.1154 65.0499 63.5043C66.3617 62.8933 67.236 62.026 68.2856 60.4492C68.8162 59.6452 69.2715 58.794 69.6458 57.9065C70.1001 56.8194 70.3958 56.8194 68.7203 55.1273Z" stroke="#7EB693" stroke-width="3" stroke-miterlimit="10"/>
</g>
</g>
</svg>
