<svg width="118" height="130" viewBox="0 0 118 130" fill="none" xmlns="http://www.w3.org/2000/svg">
<g id="Group">
<g id="Group_2">
<path id="Vector" d="M113.601 49.3667C114.231 49.3667 114.835 49.6169 115.28 50.0622C115.725 50.5075 115.975 51.1115 115.975 51.7413V118.272C115.975 123.696 111.578 128.093 106.154 128.093H11.8479C6.42363 128.093 2.02637 123.696 2.02637 118.272V51.7413C2.02637 51.1115 2.27655 50.5075 2.72187 50.0622C3.16719 49.6169 3.77117 49.3667 4.40095 49.3667H113.601Z" fill="#B3E5EE"/>
<path id="Vector_2" d="M9.22559 49.3667V116.495C9.22559 120.938 12.8389 124.552 17.2807 124.552H100.975C105.416 124.552 109.03 120.938 109.03 116.495V49.3667H9.22559Z" fill="#86D7E5"/>
<path id="Vector_3" d="M101.925 44.5684H16.3294C15.2132 44.5684 14.3105 45.4735 14.3105 46.5898V107.326L41.8943 117.401L59.1273 119.383L100.43 111.928L103.944 107.326V46.5898C103.944 45.4735 103.042 44.5684 101.925 44.5684Z" fill="#F9F7F7"/>
<path id="Vector_4" d="M57.2207 44.5684H61.0347V119.467H57.2207V44.5684Z" fill="#F8F3F2"/>
<path id="Vector_5" d="M35.5903 44.5684L46.7751 61.981V63.3319C46.7751 65.5686 47.8896 67.5489 49.5914 68.7503V70.8744C49.5914 75.3192 53.2075 78.9354 57.6524 78.9354H60.6028C65.0477 78.9354 68.6638 75.3192 68.6638 70.8744V68.7503C70.3656 67.5489 71.4801 65.5686 71.4801 63.3319V61.981L82.6649 44.5684H35.5903ZM24.8964 109.469V44.5684H16.3294C15.2132 44.5684 14.3105 45.4735 14.3105 46.5898V107.326L25.2399 111.318C25.0137 110.728 24.8973 110.101 24.8964 109.469Z" fill="#F8F3F2"/>
<g id="Group_3">
<path id="Vector_6" d="M59.1273 119.383V119.467H17.2804C15.6404 119.467 14.3105 118.138 14.3105 116.495V107.326H47.0701C53.7293 107.326 59.1273 112.724 59.1273 119.383ZM103.944 107.326V116.495C103.944 118.138 102.614 119.467 100.974 119.467H59.1273V119.383C59.1273 112.724 64.5254 107.326 71.1846 107.326H103.944Z" fill="#F2EAE7"/>
</g>
<path id="Vector_7" d="M64.8502 63.0969H53.4062V70.8744C53.4062 73.2197 55.3076 75.1211 57.653 75.1211H60.6035C62.9491 75.1211 64.8502 73.2197 64.8502 70.8744V63.0969Z" fill="#A59CA6"/>
<path id="Vector_8" d="M64.8502 63.0969H53.4062V70.8744C53.4062 73.2197 55.3076 75.1211 57.653 75.1211H60.6035C62.2471 75.1211 63.6699 74.1857 64.3758 72.8195C64.212 72.8386 64.0462 72.8513 63.8772 72.8513H60.9267C59.0609 72.8513 57.4781 71.6474 56.909 69.974C56.6949 69.3447 57.1615 68.6905 57.8264 68.6905H64.8505V63.0969H64.8502Z" fill="#8F8390"/>
<path id="Vector_9" d="M84.489 27.2679C84.489 13.2615 73.1345 1.90674 59.1278 1.90674C45.1211 1.90674 33.7666 13.2612 33.7666 27.2679C33.7666 32.7018 35.4763 37.7358 38.3861 41.8633L50.5896 60.8615V63.3319C50.5896 64.8872 51.8505 66.1481 53.4058 66.1481H64.8498C66.4051 66.1481 67.666 64.8872 67.666 63.3319V60.8615L79.8695 41.8633C82.7793 37.736 84.489 32.7018 84.489 27.2679Z" fill="#FBE88C"/>
<path id="Vector_10" d="M49.081 45.0995C46.0387 40.6379 44.2512 35.1962 44.2512 29.3221C44.2512 16.2547 53.0923 5.32355 64.9286 2.57443C63.0271 2.12981 61.0806 1.90585 59.1278 1.90699C45.1213 1.90699 33.7666 13.2615 33.7666 27.2682C33.7666 32.7021 35.4763 37.736 38.3861 41.8635L50.5896 60.8617V63.3321C50.5896 64.8875 51.8505 66.1484 53.4058 66.1484H60.6536L49.081 45.0995Z" fill="#FBE372"/>
<g id="Group_4">
<path id="Vector_11" d="M60.0766 114.685C59.4479 116.172 59.125 117.769 59.127 119.383V119.467H100.974C102.614 119.467 103.944 118.137 103.944 116.495V114.686H60.0766V114.685Z" fill="#EDE2DD"/>
<path id="Vector_12" d="M30.1129 114.685C27.2318 114.685 24.8964 112.35 24.8964 109.469V107.326H14.3105V116.495C14.3105 118.138 15.6404 119.467 17.2804 119.467H59.1273V119.383C59.1273 117.717 58.7892 116.129 58.1777 114.685H30.1129Z" fill="#EDE2DD"/>
</g>
<path id="Vector_13" d="M113.601 47.4596H105.853V46.5895C105.853 44.4237 104.091 42.6619 101.925 42.6619H86.6443C85.5912 42.6619 84.7374 43.5154 84.7374 44.5689C84.7374 45.6223 85.5912 46.4758 86.6443 46.4758H101.925C101.988 46.4758 102.039 46.5267 102.039 46.5895V69.8413C102.039 70.8947 102.893 71.7483 103.946 71.7483C104.999 71.7483 105.853 70.8947 105.853 69.8413V51.2736H113.601C113.858 51.2736 114.068 51.4833 114.068 51.7412V118.272C114.068 122.636 110.518 126.186 106.154 126.186H11.8474C7.48343 126.186 3.93312 122.636 3.93312 118.272V51.7412C3.93312 51.4833 4.14289 51.2736 4.40071 51.2736H12.4027V116.496C12.4027 119.185 14.5904 121.373 17.2798 121.373H100.975C103.665 121.373 105.853 119.185 105.853 116.496V77.975C105.853 76.9216 104.999 76.068 103.946 76.068C102.892 76.068 102.039 76.9216 102.039 77.975V105.418H71.185C67.189 105.418 63.5825 107.108 61.0347 109.807V85.1397C61.0347 84.0863 60.1809 83.2327 59.1278 83.2327C58.0746 83.2327 57.2208 84.0863 57.2208 85.1397V109.807C54.673 107.108 51.0663 105.418 47.0705 105.418H38.4051C37.352 105.418 36.4981 106.272 36.4981 107.325C36.4981 108.379 37.352 109.232 38.4051 109.232H47.0705C52.0447 109.232 56.1918 112.83 57.0537 117.559H17.2798C16.9979 117.559 16.7276 117.447 16.5283 117.247C16.329 117.048 16.2169 116.778 16.2167 116.496V109.232H30.2712C31.3244 109.232 32.1782 108.379 32.1782 107.325C32.1782 106.272 31.3244 105.418 30.2712 105.418H16.2167V46.5895C16.2167 46.5267 16.2678 46.4758 16.3306 46.4758H31.6112C32.6643 46.4758 33.5182 45.6223 33.5182 44.5689C33.5182 43.5154 32.6643 42.6619 31.6112 42.6619H16.3306C14.1648 42.6619 12.4027 44.4239 12.4027 46.5895V47.4596H4.40071C2.03986 47.4596 0.119141 49.3803 0.119141 51.7412V118.272C0.119141 124.739 5.3804 130 11.8474 130H106.153C112.62 130 117.882 124.739 117.882 118.272V51.7412C117.882 49.3803 115.961 47.4596 113.601 47.4596ZM71.185 109.232H102.039V116.496C102.038 116.778 101.926 117.048 101.727 117.247C101.528 117.447 101.257 117.559 100.975 117.559H61.2021C62.0638 112.83 66.2108 109.232 71.185 109.232Z" fill="black"/>
<path id="Vector_14" d="M33.7019 26.7566C34.7487 26.8537 35.6806 26.0856 35.7795 25.037C36.3249 19.254 38.9952 13.8997 43.2994 9.96059C47.6303 5.9971 53.2513 3.81398 59.1274 3.81398C72.0601 3.81398 82.5816 14.3355 82.5816 27.2679C82.5816 32.1343 81.1045 36.8011 78.3104 40.7646C78.2947 40.787 78.2794 40.8097 78.2644 40.8327L66.0612 59.8309C65.8636 60.1384 65.7586 60.4962 65.7586 60.8617V63.3321C65.7583 63.5732 65.6625 63.8043 65.492 63.9748C65.3215 64.1452 65.0904 64.2411 64.8494 64.2414H64.7248L65.9397 43.6268H68.1121C71.2207 43.6268 73.7497 41.0979 73.7497 37.9895V37.7581C73.7497 34.6497 71.2207 32.1208 68.1121 32.1208C65.1319 32.1208 62.6599 34.4514 62.4844 37.4266L62.3438 39.8129H55.6564L55.5158 37.4266C55.3406 34.4514 52.8684 32.1208 49.8881 32.1208C46.7795 32.1208 44.2506 34.6497 44.2506 37.7581V37.9895C44.2506 41.0979 46.7795 43.6268 49.8881 43.6268H52.0606L53.2747 64.2282C52.8356 64.1641 52.4961 63.7888 52.4961 63.3321V60.8617C52.4961 60.4963 52.3912 60.1385 52.1938 59.8309L39.9904 40.8327C39.9756 40.8097 39.9603 40.787 39.9446 40.7646C38.1961 38.2896 36.9487 35.4965 36.2725 32.5426C36.1592 32.0497 35.8547 31.622 35.426 31.3536C34.9973 31.0852 34.4796 30.9981 33.9866 31.1114C33.4937 31.2247 33.066 31.5292 32.7976 31.9579C32.5292 32.3866 32.4421 32.9043 32.5554 33.3972C33.339 36.8198 34.7819 40.0568 36.8034 42.9276L48.6827 61.4208V63.3316C48.6827 65.2572 49.8424 66.9147 51.4989 67.6493V70.8742C51.4989 74.2676 54.2595 77.0281 57.6529 77.0281H60.6034C63.9966 77.0281 66.7574 74.2676 66.7574 70.8742V67.6493C68.4137 66.9147 69.5736 65.2574 69.5736 63.3316V61.4208L81.4526 42.9276C84.6869 38.3252 86.3963 32.9108 86.3963 27.2677C86.3953 12.2322 74.1628 0 59.1274 0C52.2958 0 45.7601 2.53833 40.7244 7.14714C35.7212 11.7265 32.6167 17.9524 31.9825 24.679C31.9589 24.9283 31.9847 25.1799 32.0583 25.4192C32.1319 25.6586 32.252 25.8811 32.4117 26.0741C32.5714 26.267 32.7675 26.4266 32.9889 26.5437C33.2102 26.6608 33.4525 26.7332 33.7019 26.7566ZM66.2918 37.6508C66.3197 37.1868 66.5235 36.7508 66.8617 36.4319C67.2 36.1129 67.6472 35.9351 68.1121 35.9345C69.1177 35.9345 69.9357 36.7525 69.9357 37.7579V37.9893C69.9357 38.9946 69.1177 39.8126 68.1121 39.8126H66.1644L66.2918 37.6508ZM49.8881 39.8126C48.8825 39.8126 48.0645 38.9946 48.0645 37.9893V37.7579C48.0645 36.7525 48.8825 35.9345 49.8881 35.9345C50.3531 35.935 50.8003 36.1129 51.1385 36.4318C51.4768 36.7508 51.6806 37.1867 51.7084 37.6508L51.8358 39.8126H49.8881ZM62.1191 43.6266L60.9044 64.2411H57.096L55.8814 43.6266H62.1191ZM62.9424 70.8744C62.9424 72.1646 61.8928 73.2144 60.6024 73.2144H57.6519C56.3617 73.2144 55.3119 72.1646 55.3119 70.8744V68.0551H62.9421V70.8744H62.9424ZM92.5312 14.4807C92.9941 14.4811 93.4412 14.3126 93.7886 14.0067L97.9494 10.3534C98.3253 10.0186 98.5537 9.54874 98.5845 9.04625C98.6154 8.54377 98.4464 8.04945 98.1142 7.67113C97.7821 7.29281 97.3138 7.06117 96.8116 7.02674C96.3093 6.99231 95.8138 7.15789 95.4332 7.48735L91.2724 11.1406C90.981 11.3965 90.7745 11.7351 90.6805 12.1113C90.5864 12.4875 90.6093 12.8834 90.7461 13.2462C90.8828 13.6091 91.127 13.9216 91.4459 14.1422C91.7648 14.3627 92.1434 14.4808 92.5312 14.4807ZM91.2724 25.9818L95.4332 29.6354C95.7805 29.9414 96.2278 30.11 96.6907 30.1093C97.0785 30.1095 97.4572 29.9915 97.7762 29.771C98.0951 29.5504 98.3393 29.2379 98.4761 28.875C98.6129 28.5122 98.6358 28.1162 98.5418 27.74C98.4478 27.3638 98.2413 27.0252 97.9499 26.7693L93.7891 23.1158C93.6009 22.9505 93.382 22.8239 93.1449 22.7433C92.9078 22.6626 92.6572 22.6294 92.4072 22.6457C92.1573 22.6619 91.9131 22.7273 91.6884 22.8379C91.4638 22.9486 91.2631 23.1025 91.0979 23.2907C90.9326 23.4788 90.806 23.6977 90.7253 23.9348C90.6446 24.1718 90.6114 24.4225 90.6276 24.6724C90.6438 24.9223 90.7091 25.1666 90.8197 25.3913C90.9303 25.6159 91.0841 25.8166 91.2724 25.9818ZM20.3051 10.3534L24.4659 14.0067C24.8133 14.3127 25.2604 14.4812 25.7233 14.4807C26.111 14.4808 26.4896 14.3627 26.8086 14.1422C27.1275 13.9216 27.3717 13.6091 27.5084 13.2462C27.6452 12.8834 27.6681 12.4875 27.574 12.1113C27.48 11.7351 27.2735 11.3965 26.9821 11.1406L22.8213 7.48735C22.6332 7.32208 22.4143 7.1955 22.1772 7.11484C21.9401 7.03418 21.6894 7.00103 21.4395 7.01727C21.1896 7.03352 20.9454 7.09884 20.7207 7.20952C20.496 7.32019 20.2954 7.47404 20.1302 7.66228C19.7965 8.04236 19.6275 8.5394 19.6603 9.04408C19.6931 9.54877 19.9251 10.0198 20.3051 10.3534ZM21.564 30.1093C22.0269 30.1098 22.4741 29.9412 22.8216 29.6354L26.9824 25.9818C27.3625 25.6481 27.5944 25.1771 27.6272 24.6724C27.66 24.1677 27.4909 23.6706 27.1572 23.2906C26.8235 22.9105 26.3525 22.6786 25.8478 22.6458C25.3431 22.613 24.846 22.7821 24.4659 23.1158L20.3051 26.7693C20.0137 27.0251 19.8073 27.3637 19.7132 27.7399C19.6192 28.1161 19.6421 28.5121 19.7789 28.8749C19.9156 29.2378 20.1597 29.5503 20.4787 29.7708C20.7976 29.9914 21.1762 30.1095 21.564 30.1093ZM42.2551 66.1481C42.2551 65.6424 42.0542 65.1573 41.6965 64.7997C41.3389 64.4421 40.8539 64.2411 40.3481 64.2411H21.5632C20.5101 64.2411 19.6562 65.0947 19.6562 66.1481C19.6562 67.2015 20.5101 68.0551 21.5632 68.0551H40.3481C40.8539 68.0551 41.3389 67.8542 41.6965 67.4966C42.0542 67.1389 42.2551 66.6539 42.2551 66.1481ZM46.1576 73.9416H25.008C23.9549 73.9416 23.101 74.7952 23.101 75.8486C23.101 76.902 23.9549 77.7556 25.008 77.7556H46.1576C47.2107 77.7556 48.0645 76.902 48.0645 75.8486C48.0645 74.7952 47.2107 73.9416 46.1576 73.9416ZM46.1576 83.2327H25.008C23.9549 83.2327 23.101 84.0863 23.101 85.1397C23.101 86.1931 23.9549 87.0467 25.008 87.0467H46.1576C47.2107 87.0467 48.0645 86.1931 48.0645 85.1397C48.0645 84.0863 47.2107 83.2327 46.1576 83.2327ZM46.1576 92.5238H25.008C23.9549 92.5238 23.101 93.3774 23.101 94.4308C23.101 95.4842 23.9549 96.3378 25.008 96.3378H46.1576C47.2107 96.3378 48.0645 95.4842 48.0645 94.4308C48.0645 93.3774 47.2107 92.5238 46.1576 92.5238ZM98.5985 66.1481C98.5985 65.6424 98.3976 65.1573 98.04 64.7997C97.6823 64.4421 97.1973 64.2411 96.6915 64.2411H77.9066C76.8535 64.2411 75.9997 65.0947 75.9997 66.1481C75.9997 67.2015 76.8535 68.0551 77.9066 68.0551H96.6915C97.1973 68.0551 97.6823 67.8542 98.04 67.4966C98.3976 67.1389 98.5985 66.6539 98.5985 66.1481ZM93.2465 73.9416H72.0969C71.0438 73.9416 70.1899 74.7952 70.1899 75.8486C70.1899 76.902 71.0438 77.7556 72.0969 77.7556H93.2465C94.2996 77.7556 95.1535 76.902 95.1535 75.8486C95.1535 74.7952 94.2996 73.9416 93.2465 73.9416ZM93.2465 83.2327H72.0969C71.0438 83.2327 70.1899 84.0863 70.1899 85.1397C70.1899 86.1931 71.0438 87.0467 72.0969 87.0467H93.2465C94.2996 87.0467 95.1535 86.1931 95.1535 85.1397C95.1535 84.0863 94.2996 83.2327 93.2465 83.2327ZM93.2465 92.5238H72.0969C71.0438 92.5238 70.1899 93.3774 70.1899 94.4308C70.1899 95.4842 71.0438 96.3378 72.0969 96.3378H93.2465C94.2996 96.3378 95.1535 95.4842 95.1535 94.4308C95.1535 93.3774 94.2996 92.5238 93.2465 92.5238Z" fill="black"/>
</g>
</g>
</svg>
