<svg width="144" height="130" viewBox="0 0 144 130" fill="none" xmlns="http://www.w3.org/2000/svg">
<g id="Group">
<path id="Vector" d="M142.405 8.42017H116.686V14.6475C116.686 15.8403 115.712 16.8114 114.515 16.8114H43.9029C42.6127 16.8114 40.5659 16.2897 39.4345 15.6736L28.0556 9.47153C27.5841 9.215 27.3146 8.87737 27.3146 8.54534C27.3146 8.50465 27.3188 8.4617 27.3264 8.42017H1.59524C0.800406 8.42017 0.150391 9.0713 0.150391 9.86614V128.554C0.150391 129.349 0.800406 130 1.59524 130H142.405C143.2 130 143.85 129.349 143.85 128.554V9.86614C143.85 9.0713 143.2 8.42017 142.405 8.42017Z" fill="#E6E9ED"/>
<path id="Vector_2" d="M88.3935 102.031C88.3935 111.185 81.0525 118.607 71.9978 118.607C62.9408 118.607 55.5986 111.185 55.5986 102.031C55.5986 92.8757 62.9408 85.4556 71.9978 85.4556C81.0525 85.4556 88.3935 92.8755 88.3935 102.031Z" fill="#FFC502"/>
<g id="Group_2">
<path id="Vector_3" d="M65.0161 101.677C63.8542 101.677 62.9111 100.734 62.9111 99.5717V97.8647C62.9111 97.3065 63.1329 96.7711 63.5277 96.3763C63.9224 95.9815 64.4578 95.7598 65.0161 95.7598C65.5744 95.7598 66.1098 95.9815 66.5045 96.3763C66.8993 96.7711 67.1211 97.3065 67.1211 97.8647V99.5717C67.1211 100.13 66.8993 100.665 66.5045 101.06C66.1098 101.455 65.5744 101.677 65.0161 101.677ZM78.9782 101.677C77.816 101.677 76.8733 100.734 76.8733 99.5717V97.8647C76.8733 97.3065 77.095 96.7711 77.4898 96.3763C77.8846 95.9815 78.42 95.7598 78.9782 95.7598C79.5365 95.7598 80.0719 95.9815 80.4667 96.3763C80.8614 96.7711 81.0832 97.3065 81.0832 97.8647V99.5717C81.0832 100.13 80.8614 100.665 80.4667 101.06C80.0719 101.455 79.5365 101.677 78.9782 101.677ZM76.8039 109.519H67.1904C66.914 109.519 66.6402 109.465 66.3849 109.359C66.1295 109.253 65.8974 109.098 65.702 108.902C65.5065 108.707 65.3514 108.475 65.2457 108.22C65.1399 107.964 65.0854 107.69 65.0854 107.414C65.0854 107.138 65.1399 106.864 65.2457 106.608C65.3514 106.353 65.5065 106.121 65.702 105.926C65.8974 105.73 66.1295 105.575 66.3849 105.469C66.6402 105.363 66.914 105.309 67.1904 105.309H76.8042C77.3625 105.309 77.8979 105.531 78.2927 105.926C78.6874 106.32 78.9092 106.856 78.9092 107.414C78.9092 108.577 77.9676 109.519 76.8042 109.519H76.8039Z" fill="#775436"/>
</g>
<path id="Vector_4" d="M47.1805 102.031C47.1805 111.185 39.8384 118.607 30.7839 118.607C21.7269 118.607 14.3848 111.185 14.3848 102.031C14.3848 92.8757 21.7269 85.4556 30.7839 85.4556C39.8384 85.4556 47.1805 92.8755 47.1805 102.031Z" fill="#89C947"/>
<path id="Vector_5" d="M23.8013 101.677C22.639 101.677 21.6963 100.734 21.6963 99.572V97.865C21.6963 97.3067 21.9181 96.7713 22.3128 96.3765C22.7076 95.9818 23.243 95.76 23.8013 95.76C24.3595 95.76 24.8949 95.9818 25.2897 96.3765C25.6845 96.7713 25.9062 97.3067 25.9062 97.865V99.572C25.9062 100.13 25.6845 100.666 25.2897 101.06C24.8949 101.455 24.3595 101.677 23.8013 101.677ZM37.7631 101.677C37.2049 101.677 36.6694 101.455 36.2747 101.06C35.8799 100.666 35.6581 100.13 35.6581 99.572V97.865C35.6581 96.703 36.5998 95.76 37.7631 95.76C38.9265 95.76 39.8681 96.703 39.8681 97.865V99.572C39.8681 100.734 38.9251 101.677 37.7631 101.677ZM30.7828 112.802C26.7426 112.802 23.4558 109.748 23.4558 105.994C23.4558 105.436 23.6775 104.901 24.0723 104.506C24.4671 104.111 25.0025 103.889 25.5607 103.889C26.119 103.889 26.6544 104.111 27.0492 104.506C27.4439 104.901 27.6657 105.436 27.6657 105.994C27.6657 107.426 29.0645 108.592 30.7828 108.592C32.5004 108.592 33.8984 107.426 33.8984 105.994C33.8984 105.436 34.1202 104.901 34.5149 104.506C34.9097 104.111 35.4451 103.889 36.0034 103.889C36.5616 103.889 37.097 104.111 37.4918 104.506C37.8866 104.901 38.1083 105.436 38.1083 105.994C38.1083 109.748 34.8218 112.802 30.7828 112.802Z" fill="#368C0E"/>
<path id="Vector_6" d="M129.615 102.031C129.615 111.185 122.273 118.607 113.217 118.607C104.162 118.607 96.8203 111.185 96.8203 102.031C96.8203 92.8757 104.162 85.4556 113.217 85.4556C122.273 85.4556 129.615 92.8755 129.615 102.031Z" fill="#FB8276"/>
<path id="Vector_7" d="M106.237 101.677C105.679 101.677 105.143 101.455 104.748 101.06C104.354 100.666 104.132 100.13 104.132 99.572V97.865C104.132 97.3067 104.354 96.7713 104.748 96.3765C105.143 95.9818 105.679 95.76 106.237 95.76C106.795 95.76 107.33 95.9818 107.725 96.3765C108.12 96.7713 108.342 97.3067 108.342 97.865V99.572C108.342 100.13 108.12 100.666 107.725 101.06C107.33 101.455 106.795 101.677 106.237 101.677ZM120.2 101.677C119.642 101.677 119.106 101.455 118.711 101.06C118.317 100.666 118.095 100.13 118.095 99.572V97.865C118.095 97.3067 118.317 96.7713 118.711 96.3765C119.106 95.9818 119.642 95.76 120.2 95.76C120.758 95.76 121.293 95.9818 121.688 96.3765C122.083 96.7713 122.305 97.3067 122.305 97.865V99.572C122.305 100.13 122.083 100.666 121.688 101.06C121.293 101.455 120.758 101.677 120.2 101.677ZM118.44 111.874C117.882 111.874 117.347 111.652 116.952 111.257C116.557 110.863 116.335 110.327 116.335 109.769C116.335 108.337 114.936 107.173 113.217 107.173C111.5 107.173 110.103 108.337 110.103 109.769C110.103 110.327 109.881 110.863 109.486 111.257C109.091 111.652 108.556 111.874 107.998 111.874C107.439 111.874 106.904 111.652 106.509 111.257C106.114 110.863 105.893 110.327 105.893 109.769C105.893 106.017 109.178 102.963 113.217 102.963C117.258 102.963 120.545 106.017 120.545 109.769C120.545 110.931 119.602 111.874 118.44 111.874Z" fill="#C0272D"/>
<path id="Vector_8" d="M25.0643 40.1362C24.8152 40.3883 24.5184 40.5882 24.1912 40.7243C23.864 40.8604 23.5129 40.9299 23.1586 40.9288C22.8038 40.9298 22.4523 40.86 22.1248 40.7235C21.7973 40.5871 21.5003 40.3866 21.2512 40.134L18.5728 37.4315C18.4036 37.2619 18.2698 37.0605 18.1791 36.8388C18.0884 36.6171 18.0426 36.3797 18.0443 36.1401C18.0445 35.9004 18.0923 35.6631 18.1849 35.4419C18.2775 35.2208 18.4131 35.0202 18.5838 34.8519C18.7526 34.6838 18.9528 34.5506 19.1731 34.46C19.3933 34.3693 19.6293 34.3229 19.8675 34.3234C20.3576 34.3234 20.8181 34.5154 21.1633 34.864L23.1588 36.8758L30.879 29.0961C30.7193 28.9434 30.507 28.8578 30.286 28.8569H15.252C15.0222 28.8577 14.8021 28.9493 14.6396 29.1118C14.4771 29.2742 14.3855 29.4944 14.3848 29.7242V44.8275C14.3855 45.0573 14.4771 45.2774 14.6396 45.4399C14.8021 45.6024 15.0222 45.694 15.252 45.6947H30.286C30.5158 45.694 30.7359 45.6024 30.8984 45.4399C31.0609 45.2774 31.1525 45.0573 31.1533 44.8275V33.999L25.0643 40.1362Z" fill="#FCDB67"/>
<path id="Vector_9" d="M23.158 41.2096C23.1569 41.2096 23.1569 41.2096 23.158 41.2096C22.7661 41.211 22.3779 41.1341 22.0163 40.9832C21.6546 40.8324 21.3267 40.6108 21.0519 40.3314L18.3724 37.63C17.9796 37.2335 17.7602 36.6972 17.7627 36.139C17.7652 35.5809 17.9893 35.0465 18.3856 34.6535C18.5818 34.4588 18.8145 34.3047 19.0702 34.1999C19.326 34.0951 19.5999 34.0418 19.8763 34.0429C20.1528 34.044 20.4262 34.0996 20.6812 34.2065C20.9361 34.3133 21.1675 34.4693 21.3621 34.6656L23.158 36.4779L31.1437 28.4307C31.3384 28.2345 31.5697 28.0786 31.8246 27.9719C32.0795 27.8652 32.3529 27.8097 32.6293 27.8086C32.9056 27.8075 33.1795 27.8609 33.4352 27.9657C33.6909 28.0704 33.9234 28.2245 34.1196 28.4192C34.3157 28.6138 34.4716 28.8452 34.5784 29.1001C34.6851 29.355 34.7406 29.6284 34.7417 29.9047C34.7427 30.1811 34.6894 30.4549 34.5846 30.7106C34.4798 30.9663 34.3257 31.1989 34.1311 31.395L25.2619 40.3336C24.987 40.6121 24.6594 40.833 24.2981 40.9834C23.9369 41.1338 23.5493 41.2107 23.158 41.2096Z" fill="#EF5050"/>
<path id="Vector_10" d="M65.9732 35.8288H40.1362C39.5779 35.8288 39.0425 35.6071 38.6478 35.2123C38.253 34.8175 38.0312 34.2821 38.0312 33.7239C38.0312 33.1656 38.253 32.6302 38.6478 32.2354C39.0425 31.8407 39.5779 31.6189 40.1362 31.6189H65.9735C67.1368 31.6189 68.0785 32.5608 68.0785 33.7239C68.0785 34.2821 67.8567 34.8175 67.4619 35.2123C67.0672 35.6071 66.5318 35.8288 65.9735 35.8288H65.9732ZM54.85 42.9333H40.1371C39.8606 42.9334 39.5868 42.879 39.3314 42.7733C39.076 42.6675 38.8439 42.5125 38.6484 42.317C38.4529 42.1215 38.2978 41.8894 38.1921 41.634C38.0864 41.3785 38.032 41.1047 38.0321 40.8283C38.0321 40.27 38.2539 39.7346 38.6486 39.3398C39.0434 38.9451 39.5788 38.7233 40.1371 38.7233H54.85C55.4083 38.7233 55.9437 38.9451 56.3384 39.3398C56.7332 39.7346 56.955 40.27 56.955 40.8283C56.955 41.3866 56.7332 41.922 56.3384 42.3167C55.9437 42.7115 55.4083 42.9333 54.85 42.9333Z" fill="#9EA7AF"/>
<path id="Vector_11" d="M31.153 72.3819C31.1525 72.6118 31.061 72.8322 30.8985 72.9948C30.7361 73.1575 30.5159 73.2492 30.286 73.25H15.252C15.0221 73.2493 14.8018 73.1576 14.6393 72.9949C14.4768 72.8322 14.3853 72.6119 14.3848 72.3819V57.2795C14.3848 56.8029 14.7749 56.4114 15.252 56.4114H30.286C30.7631 56.4114 31.1533 56.8029 31.1533 57.2797L31.153 72.3819Z" fill="#FCDB67"/>
<path id="Vector_12" d="M65.9732 63.384H40.1362C39.5779 63.384 39.0425 63.1622 38.6478 62.7675C38.253 62.3727 38.0312 61.8373 38.0312 61.279C38.0312 60.7208 38.253 60.1854 38.6478 59.7906C39.0425 59.3958 39.5779 59.1741 40.1362 59.1741H65.9735C67.1368 59.1741 68.0785 60.1157 68.0785 61.279C68.0785 61.8373 67.8567 62.3727 67.4619 62.7675C67.0672 63.1622 66.5318 63.384 65.9735 63.384H65.9732ZM54.85 70.4882H40.1371C39.8606 70.4883 39.5868 70.4339 39.3314 70.3282C39.076 70.2224 38.8439 70.0674 38.6484 69.8719C38.4529 69.6764 38.2978 69.4443 38.1921 69.1889C38.0864 68.9334 38.032 68.6596 38.0321 68.3832C38.0321 67.8249 38.2539 67.2895 38.6486 66.8947C39.0434 66.5 39.5788 66.2782 40.1371 66.2782H54.85C56.0119 66.2782 56.955 67.2212 56.955 68.3832C56.955 69.5454 56.0119 70.4882 54.85 70.4882Z" fill="#9EA7AF"/>
<path id="Vector_13" d="M94.795 44.8275C94.7943 45.0573 94.7027 45.2774 94.5402 45.4399C94.3777 45.6024 94.1575 45.694 93.9278 45.6947H78.8935C78.6636 45.6942 78.4432 45.6027 78.2805 45.4402C78.1179 45.2777 78.0261 45.0574 78.0254 44.8275V29.7242C78.0261 29.4942 78.1179 29.2739 78.2806 29.1114C78.4433 28.9489 78.6638 28.8574 78.8938 28.8569H93.9278C94.1575 28.8577 94.3777 28.9493 94.5402 29.1118C94.7027 29.2742 94.7943 29.4944 94.795 29.7242V44.8275Z" fill="#FCDB67"/>
<path id="Vector_14" d="M129.615 35.8288H103.779C103.221 35.8288 102.685 35.6071 102.29 35.2123C101.896 34.8175 101.674 34.2821 101.674 33.7239C101.674 32.5608 102.615 31.6189 103.779 31.6189H129.615C130.778 31.6189 131.72 32.5608 131.72 33.7239C131.72 34.2821 131.498 34.8175 131.103 35.2123C130.709 35.6071 130.173 35.8288 129.615 35.8288ZM118.491 42.9333H103.779C103.502 42.9334 103.229 42.879 102.973 42.7733C102.718 42.6675 102.486 42.5125 102.29 42.317C102.095 42.1215 101.94 41.8894 101.834 41.634C101.728 41.3785 101.674 41.1047 101.674 40.8283C101.674 40.27 101.896 39.7346 102.29 39.3398C102.685 38.9451 103.221 38.7233 103.779 38.7233H118.491C119.05 38.7233 119.585 38.9451 119.98 39.3398C120.375 39.7346 120.596 40.27 120.596 40.8283C120.596 41.3866 120.375 41.922 119.98 42.3167C119.585 42.7115 119.05 42.9333 118.491 42.9333Z" fill="#9EA7AF"/>
<path id="Vector_15" d="M94.795 72.3819C94.7945 72.6119 94.703 72.8322 94.5405 72.9949C94.378 73.1576 94.1577 73.2493 93.9278 73.25H78.8935C78.6634 73.2495 78.4429 73.1579 78.2802 72.9952C78.1175 72.8325 78.0259 72.612 78.0254 72.3819V57.2795C78.0254 56.8029 78.4155 56.4114 78.8938 56.4114H93.9278C94.4049 56.4114 94.795 56.8029 94.795 57.2797V72.3819Z" fill="#FCDB67"/>
<path id="Vector_16" d="M129.615 63.384H103.779C103.221 63.384 102.685 63.1622 102.29 62.7675C101.896 62.3727 101.674 61.8373 101.674 61.279C101.674 60.1157 102.615 59.1741 103.779 59.1741H129.615C130.778 59.1741 131.72 60.1157 131.72 61.279C131.72 61.8373 131.498 62.3727 131.103 62.7675C130.709 63.1622 130.173 63.384 129.615 63.384ZM118.491 70.4882H103.779C103.502 70.4883 103.229 70.4339 102.973 70.3282C102.718 70.2224 102.486 70.0674 102.29 69.8719C102.095 69.6764 101.94 69.4443 101.834 69.1889C101.728 68.9334 101.674 68.6596 101.674 68.3832C101.674 67.8249 101.896 67.2895 102.29 66.8947C102.685 66.5 103.221 66.2782 103.779 66.2782H118.491C119.654 66.2782 120.596 67.2212 120.596 68.3832C120.596 69.5454 119.654 70.4882 118.491 70.4882Z" fill="#9EA7AF"/>
<path id="Vector_17" d="M114.515 0.000244141C115.863 0.000244141 116.966 1.09988 116.966 2.44482V14.6472C116.966 15.9916 115.863 17.0921 114.515 17.0921H43.9028C42.5545 17.0921 40.4824 16.5638 39.2994 15.9189L27.9204 9.71848C26.7375 9.07295 26.7375 8.01794 27.9204 7.37354L39.2994 1.1737C40.4824 0.528733 42.5545 0.000244141 43.9031 0.000244141H114.515Z" fill="#FFC502"/>
<path id="Vector_18" d="M44.8907 0.000244141H43.9028C42.5545 0.000244141 40.4824 0.528733 39.2994 1.17342L27.9204 7.37326C26.7375 8.01879 26.7375 9.07352 27.9204 9.7182L39.2994 15.9192C40.4824 16.5639 42.5545 17.0923 43.9031 17.0923H44.891L44.8907 0.000244141Z" fill="#FFD5B3"/>
<path id="Vector_19" d="M35.5685 3.20605L27.9204 7.37334C26.7375 8.01886 26.7375 9.07359 27.9204 9.71828L35.5685 13.8867V3.20605Z" fill="#775436"/>
<path id="Vector_20" d="M116.966 14.6475V2.44486C116.966 1.09964 115.863 0 114.515 0H102.748V17.091H114.515C115.863 17.0918 116.966 15.9913 116.966 14.647V14.6475Z" fill="#FB8276"/>
<path id="Vector_21" d="M44.8916 6.44141H102.749V10.6514H44.8916V6.44141Z" fill="#C6A07D"/>
</g>
</svg>
