<svg width="130" height="150" viewBox="0 0 130 150" fill="none" xmlns="http://www.w3.org/2000/svg">
<g id="Group">
<path id="Vector" d="M82.1049 114.857C83.9709 108.637 87.703 103.039 92.6791 98.6844C102.009 90.9092 107.918 79.0912 107.918 66.029C107.918 41.7707 87.7032 21.8664 62.8227 23.1105C40.7413 24.0435 22.703 42.7037 22.081 64.7849C21.7699 78.4693 27.6791 90.5984 37.3203 98.6844C42.6073 103.038 46.3393 108.636 48.2054 114.857H82.1049Z" fill="#FFD15C"/>
<path id="Vector_2" d="M60.9565 115.479H63.7556L51.3153 69.1393H52.2483C53.8033 69.1393 55.3585 68.5174 56.6023 67.2732C57.2242 66.6513 57.8464 66.3402 58.7794 66.3402C59.7124 66.3402 60.3343 66.6513 60.9565 67.2732C63.1337 69.7612 66.8657 69.7612 69.0425 67.2732C69.6645 66.6513 70.2867 66.3402 71.2197 66.3402C71.8416 66.3402 72.7746 66.6513 73.3968 67.2732C74.6409 68.5174 75.8847 69.1393 77.7508 69.1393H78.6838L66.5546 115.479H69.3537L82.1047 66.9621C82.1047 66.3402 82.1047 65.718 81.4828 65.4072C80.8609 65.0961 80.2387 65.4072 79.9279 65.7183C79.306 66.3402 78.6838 66.6513 78.0618 66.6513C77.1288 66.6513 76.5069 66.3402 75.5739 65.7183C74.3298 64.4742 73.086 63.8523 71.5308 63.8523C69.9756 63.8523 68.7317 64.4742 67.4876 65.7183C66.2435 66.9624 64.3775 66.9624 63.1337 65.7183C62.2007 64.4742 60.6457 63.8523 59.0905 63.8523C57.5356 63.8523 55.9804 64.4742 55.0474 65.7183C54.4255 66.3402 53.4924 66.6513 52.5594 66.6513C51.9375 66.6513 51.0045 66.3402 50.6934 65.7183C50.3823 65.4072 49.7604 65.0964 49.1385 65.4072C48.5166 65.7183 48.2055 66.3402 48.5166 66.9621L60.9565 115.479Z" fill="white"/>
<path id="Vector_3" d="M55.3584 143.469C56.9136 147.201 60.6457 150 64.9996 150C69.3536 150 73.0856 147.201 74.6408 143.469H55.3584Z" fill="#344A5E"/>
<path id="Vector_4" d="M76.5076 143.78H53.8042C53.0682 143.783 52.3388 143.641 51.6582 143.36C50.9777 143.08 50.3593 142.668 49.8389 142.147C49.3184 141.627 48.9062 141.009 48.6259 140.328C48.3457 139.647 48.203 138.918 48.2061 138.182V114.546H82.1056V138.182C82.1056 141.292 79.6174 143.78 76.5076 143.78Z" fill="#344A5E"/>
<path id="Vector_5" d="M81.7945 126.364H48.2061C46.3401 126.364 44.7852 124.809 44.7852 122.943C44.7852 121.077 46.3401 119.522 48.2061 119.522H81.7945C83.6605 119.522 85.2155 121.077 85.2155 122.943C85.2155 124.809 83.6605 126.364 81.7945 126.364ZM81.7945 137.249H48.2061C46.3401 137.249 44.7852 135.694 44.7852 133.828C44.7852 131.962 46.3401 130.407 48.2061 130.407H81.7945C83.6605 130.407 85.2155 131.962 85.2155 133.828C85.2155 135.694 83.6605 137.249 81.7945 137.249Z" fill="#415A6B"/>
<path id="Vector_6" d="M65 0.718262C63.4451 0.718262 61.8899 1.96237 61.8899 3.8284V14.4026C61.8899 15.9575 63.134 17.5128 65 17.5128C66.866 17.5128 68.1101 16.2686 68.1101 14.4026V3.8284C68.1101 1.96237 66.5549 0.718262 65 0.718262ZM23.3256 19.6896C22.0815 18.4455 20.2154 18.4455 18.9716 19.6896C17.7278 20.9337 17.7275 22.7997 18.9716 24.0436L26.4357 31.5076C27.6798 32.7518 29.5459 32.7518 30.7897 31.5076C32.0335 30.2635 32.0338 28.3975 30.7897 27.1537L23.3256 19.6896ZM13.6844 62.6081H3.11014C1.55521 62.6081 0 63.8522 0 65.7183C0 67.2732 1.24411 68.8284 3.11014 68.8284H13.6844C15.2393 68.8284 16.7945 67.5843 16.7945 65.7183C16.7945 64.1631 15.2393 62.6081 13.6844 62.6081ZM26.4354 99.9286L18.9713 107.393C17.7272 108.637 17.7272 110.503 18.9713 111.747C20.2154 112.99 22.0815 112.991 23.3253 111.747L30.7894 104.283C32.0335 103.038 32.0335 101.172 30.7894 99.9286C29.5453 98.6848 27.6795 98.6845 26.4354 99.9286ZM103.565 99.9286C102.32 98.6845 100.454 98.6845 99.2103 99.9286C97.9662 101.173 97.9662 103.039 99.2103 104.283L106.674 111.747C107.919 112.991 109.785 112.991 111.028 111.747C112.272 110.503 112.272 108.637 111.028 107.393L103.565 99.9286ZM126.89 62.6081H116.316C114.761 62.6081 113.206 63.8522 113.206 65.7183C113.206 67.2732 114.45 68.8284 116.316 68.8284H126.89C128.445 68.8284 130 67.5843 130 65.7183C130 64.1631 128.756 62.6081 126.89 62.6081ZM106.674 19.6896L99.2103 27.1537C97.9662 28.3978 97.9662 30.2638 99.2103 31.5076C100.454 32.7518 102.32 32.7518 103.564 31.5076L111.028 24.0436C112.272 22.7994 112.272 20.9334 111.028 19.6896C109.784 18.4458 107.919 18.4455 106.674 19.6896Z" fill="#FFD15C"/>
</g>
</svg>
