<svg width="146" height="150" viewBox="0 0 146 150" fill="none" xmlns="http://www.w3.org/2000/svg">
<g id="Group">
<g id="Group_2">
<path id="Vector" fill-rule="evenodd" clip-rule="evenodd" d="M8.55942 23.7213C9.06118 24.024 9.42403 24.5116 9.56987 25.0792C9.7157 25.6468 9.63286 26.2489 9.33917 26.7561C9.04549 27.2632 8.56444 27.6347 7.99957 27.7907C7.43469 27.9467 6.83116 27.8747 6.31885 27.5901L1.49295 24.8038C1.23488 24.6588 1.00818 24.464 0.826002 24.2307C0.643828 23.9973 0.509809 23.7301 0.431721 23.4446C0.353633 23.1591 0.333033 22.8609 0.371115 22.5673C0.409198 22.2738 0.505204 21.9907 0.653563 21.7345C0.801923 21.4784 0.99968 21.2542 1.23536 21.0751C1.47104 20.896 1.73994 20.7655 2.02647 20.6911C2.313 20.6168 2.61144 20.6 2.90448 20.642C3.19751 20.6839 3.47931 20.7835 3.73351 20.9352L8.55942 23.7213ZM40.5843 7.81293C40.5843 8.40717 40.3482 8.97706 39.928 9.39725C39.5078 9.81744 38.9379 10.0535 38.3437 10.0535C37.7495 10.0535 37.1796 9.81744 36.7594 9.39725C36.3392 8.97706 36.1031 8.40717 36.1031 7.81293V2.24057C36.1031 1.64633 36.3392 1.07643 36.7594 0.656247C37.1796 0.236059 37.7495 0 38.3437 0C38.9379 0 39.5078 0.236059 39.928 0.656247C40.3482 1.07643 40.5843 1.64633 40.5843 2.24057V7.81293ZM58.1206 13.7055C57.8239 14.2149 57.3378 14.5861 56.7683 14.7381C56.1988 14.8902 55.5922 14.8107 55.0812 14.517C54.5701 14.2233 54.196 13.7393 54.0407 13.1707C53.8853 12.6021 53.9613 11.9951 54.252 11.4823L57.0384 6.6564C57.3363 6.1497 57.8222 5.78106 58.3904 5.6306C58.9587 5.48014 59.5633 5.56002 60.073 5.85288C60.5827 6.14574 60.9562 6.6279 61.1123 7.1946C61.2685 7.76129 61.1947 8.36672 60.9069 8.8793L58.1206 13.7055ZM70.3596 27.5901C70.1055 27.7361 69.8253 27.8306 69.5347 27.8683C69.2442 27.9059 68.9491 27.886 68.6662 27.8096C68.3834 27.7332 68.1184 27.6019 67.8863 27.423C67.6542 27.2442 67.4596 27.0215 67.3137 26.7674C67.1677 26.5134 67.0732 26.2332 67.0355 25.9426C66.9979 25.6521 67.0178 25.357 67.0942 25.0741C67.1706 24.7913 67.3019 24.5263 67.4808 24.2942C67.6596 24.0621 67.8823 23.8675 68.1364 23.7216L72.9623 20.9352C73.4753 20.6406 74.0844 20.5617 74.6556 20.716C75.2268 20.8703 75.7134 21.2451 76.0083 21.7581C76.303 22.2711 76.3818 22.8802 76.2275 23.4514C76.0732 24.0226 75.6984 24.5092 75.1855 24.8041L70.3596 27.5901ZM22.4354 11.4823C22.7153 11.9944 22.7835 12.5958 22.6253 13.1576C22.4671 13.7193 22.0951 14.1968 21.5891 14.4875C21.0831 14.7783 20.4833 14.8593 19.9183 14.7131C19.3532 14.5669 18.868 14.2052 18.5665 13.7055L15.7805 8.8796C15.4857 8.36655 15.4068 7.75742 15.5611 7.18621C15.7155 6.61499 16.0904 6.12849 16.6034 5.83371C17.1165 5.53894 17.7256 5.46004 18.2968 5.61438C18.8681 5.76872 19.3546 6.14366 19.6493 6.6567L22.4354 11.4823Z" fill="#FFE177"/>
<path id="Vector_2" fill-rule="evenodd" clip-rule="evenodd" d="M31.7021 88.8262H45.2606V95.7216C45.2606 97.9829 43.4103 99.8328 41.1494 99.8328H35.8136C33.5527 99.8328 31.7025 97.9829 31.7025 95.7216V88.8262H31.7021Z" fill="#B1B1B5"/>
<path id="Vector_3" fill-rule="evenodd" clip-rule="evenodd" d="M27.4863 78.8975H49.4774V87.4988C49.4774 89.7603 47.6275 91.61 45.3665 91.61H31.5981C29.3363 91.61 27.4866 89.7603 27.4866 87.4988L27.4863 78.8975Z" fill="#D1D1D6"/>
<path id="Vector_4" fill-rule="evenodd" clip-rule="evenodd" d="M44.6881 83.3872V87.4987C44.6881 87.9627 44.6102 88.4093 44.467 88.8262C43.9116 90.4414 42.3744 91.6099 40.5771 91.6099H45.3662C47.6272 91.6099 49.4771 89.7602 49.4771 87.4987V83.3848C49.4316 83.3863 49.3861 83.3869 49.3402 83.3869H44.6881V83.3872Z" fill="#B1B1B5"/>
<path id="Vector_5" fill-rule="evenodd" clip-rule="evenodd" d="M23.2366 71.0579H53.4504V79.2761C53.4504 81.5376 51.6005 83.3873 49.3392 83.3873H27.3475C25.0866 83.3873 23.2363 81.5373 23.2363 79.2761L23.2366 71.0579Z" fill="#ECEFF1"/>
<path id="Vector_6" fill-rule="evenodd" clip-rule="evenodd" d="M48.6617 75.1638V79.2756C48.6617 81.5372 46.8117 83.3868 44.5508 83.3868H49.3398C49.3857 83.3868 49.4315 83.3859 49.4767 83.3847C51.6751 83.3119 53.4507 81.491 53.4507 79.2756V75.1638H48.6617Z" fill="#D1D1D6"/>
<path id="Vector_7" fill-rule="evenodd" clip-rule="evenodd" d="M38.3437 15.9392C52.317 15.9392 63.6445 27.2667 63.6445 41.24C63.6445 55.2917 54.6681 54.4518 53.4508 75.1639H23.2367C22.0193 54.4518 13.043 55.2914 13.043 41.24C13.043 27.267 24.3704 15.9392 38.3437 15.9392Z" fill="#FFE177"/>
<path id="Vector_8" fill-rule="evenodd" clip-rule="evenodd" d="M35.9492 16.0512C48.7992 17.2574 58.8554 28.0745 58.8554 41.2399C58.8554 54.2918 51.1108 54.4958 49.0335 71.0577C48.8645 72.4221 48.7406 73.7916 48.662 75.1641H53.4511C54.6684 54.4521 63.6448 55.2917 63.6448 41.2402C63.6448 27.2669 52.3173 15.9395 38.344 15.9395C37.5362 15.9395 36.7376 15.9772 35.9492 16.0512Z" fill="#FFD064"/>
<path id="Vector_9" fill-rule="evenodd" clip-rule="evenodd" d="M32.0586 75.1637V49.2208H28.0948C23.8077 49.2208 20.2998 45.7131 20.2998 41.4258C20.2998 37.1385 23.8074 33.6309 28.0948 33.6309C30.2404 33.6309 32.1898 34.5073 33.6015 35.9191C35.0133 37.3308 35.8897 39.2802 35.8897 41.4258V45.3896H40.7968V41.4258C40.7968 37.1388 44.3044 33.6309 48.5918 33.6309C50.7374 33.6309 52.6868 34.5073 54.0985 35.9191C55.5103 37.3308 56.3867 39.2802 56.3867 41.4258C56.3867 43.5714 55.5103 45.5205 54.0985 46.9323C52.6868 48.344 50.7374 49.2205 48.5918 49.2205H44.6279V75.1634H40.7968V49.2205H35.8897V75.1634H32.0586V75.1637ZM32.0586 45.3899V41.4261C32.0586 40.3382 31.612 39.3476 30.8928 38.6281C30.1736 37.9089 29.1827 37.4623 28.0948 37.4623C25.9147 37.4623 24.1309 39.2461 24.1309 41.4261C24.1309 43.6062 25.9147 45.3899 28.0948 45.3899H32.0586ZM44.6279 45.3899H48.5918C49.6797 45.3899 50.6703 44.9433 51.3898 44.2241C52.1093 43.5049 52.5556 42.5141 52.5556 41.4261C52.5556 40.3382 52.109 39.3476 51.3898 38.6281C50.6703 37.9089 49.6797 37.4623 48.5918 37.4623C46.4117 37.4623 44.6279 39.2461 44.6279 41.4261V45.3899Z" fill="#FFC338"/>
<path id="Vector_10" fill-rule="evenodd" clip-rule="evenodd" d="M117.085 90.3513C119.426 90.9503 121.669 91.8806 123.747 93.1139L132.086 87.0764L138.758 93.749L132.721 102.088C133.954 104.166 134.884 106.409 135.483 108.75L145.646 110.376V119.813L135.483 121.439C134.884 123.78 133.954 126.023 132.72 128.101L138.758 136.44L132.085 143.113L123.746 137.075C121.669 138.308 119.425 139.238 117.085 139.837L115.458 150H106.021L104.395 139.838C102.054 139.239 99.8106 138.309 97.7328 137.075L89.3939 143.113L82.7213 136.44L88.7589 128.101C87.5258 126.023 86.5957 123.78 85.9968 121.439L75.834 119.813V110.376L85.9971 108.749C86.596 106.409 87.5261 104.165 88.7592 102.088L82.7216 93.7487L89.3942 87.0761L97.7328 93.1133C99.8107 91.8802 102.054 90.95 104.395 90.351L106.022 80.1887H115.458L117.085 90.3513Z" fill="#837683"/>
<path id="Vector_11" fill-rule="evenodd" clip-rule="evenodd" d="M132.43 121.439C131.831 123.78 130.9 126.023 129.667 128.101L135.705 136.44L130.315 141.83L132.087 143.113L138.759 136.44L132.722 128.101C133.955 126.023 134.885 123.78 135.484 121.439L145.647 119.812V110.376L135.484 108.749C134.885 106.409 133.955 104.165 132.722 102.087L138.76 93.7485L132.087 87.0759L130.315 88.3589L135.705 93.7485L129.667 102.087C130.9 104.165 131.83 106.409 132.429 108.749L142.592 110.376V119.812L132.43 121.439Z" fill="#685E68"/>
<path id="Vector_12" d="M124.098 119.174C126.331 111.804 122.168 104.02 114.798 101.786C107.429 99.5531 99.6444 103.717 97.4111 111.086C95.1777 118.455 99.3412 126.24 106.711 128.473C114.08 130.707 121.865 126.543 124.098 119.174Z" fill="#ECEFF1"/>
<path id="Vector_13" fill-rule="evenodd" clip-rule="evenodd" d="M99.8523 115.095C99.8523 122.279 105.286 128.194 112.268 128.955C111.761 129.01 111.251 129.037 110.741 129.037C103.04 129.037 96.7979 122.795 96.7979 115.095C96.7948 112.976 97.2764 110.885 98.2057 108.982C100.471 104.345 105.233 101.152 110.741 101.152C111.257 101.152 111.766 101.18 112.268 101.235C106.764 101.834 102.222 105.637 100.546 110.74C100.085 112.145 99.8508 113.615 99.8523 115.095Z" fill="#D1D1D6"/>
<path id="Vector_14" fill-rule="evenodd" clip-rule="evenodd" d="M49.6089 125.032V117.075L70.572 132.455L49.6089 150V142.35C20.3509 142.35 10.7545 120.84 19.2549 105.543C23.9568 123.853 39.3104 125.032 49.6089 125.032Z" fill="#6CF5C2"/>
<path id="Vector_15" fill-rule="evenodd" clip-rule="evenodd" d="M68.2618 130.759L52.3247 144.098V139.413C27.7647 139.413 16.2707 125.119 17.019 111.115C13.2654 125.573 23.7694 142.35 49.6091 142.35V150L70.5721 132.455L68.2618 130.759Z" fill="#00E499"/>
<path id="Vector_16" fill-rule="evenodd" clip-rule="evenodd" d="M96.7082 52.312V60.8409L74.2402 44.3571L96.7082 25.5522V33.7513C128.067 33.7513 138.353 56.8058 129.242 73.2011C124.202 53.5761 107.746 52.312 96.7082 52.312Z" fill="#FE646F"/>
<path id="Vector_17" fill-rule="evenodd" clip-rule="evenodd" d="M94.0129 49.0925V55.6028L76.3161 42.6191L74.2402 44.3565L96.7082 60.8402V52.3114C106.577 52.3114 120.778 53.3217 127.277 67.5646C120.563 50.6864 105.091 49.0925 94.0129 49.0925Z" fill="#FD4755"/>
</g>
</g>
</svg>
