<svg width="130" height="130" viewBox="0 0 130 130" fill="none" xmlns="http://www.w3.org/2000/svg">
<g id="Group">
<path id="Vector" d="M100.645 2.09668L104.839 14.6773H46.1289L50.3225 2.09668H100.645Z" fill="#CF9E76"/>
<path id="Vector_2" d="M106.936 14.6775C108.089 14.6775 109.032 15.621 109.032 16.7743V20.9678C109.032 22.121 108.089 23.0646 106.936 23.0646H44.0323C42.8791 23.0646 41.9355 22.121 41.9355 20.9678V16.7743C41.9355 15.621 42.8791 14.6775 44.0323 14.6775H104.839H106.936Z" fill="#DFB28B"/>
<path id="Vector_3" d="M90.1611 116.308C97.7304 117.419 102.742 119.39 102.742 121.613C102.742 125.094 90.5385 127.903 75.4837 127.903C60.4288 127.903 48.2256 125.094 48.2256 121.613C48.2256 119.39 53.2369 117.419 60.8062 116.308V119.516H90.1611V116.308Z" fill="#969FAA"/>
<path id="Vector_4" d="M119.516 106.936H31.4515C29.2272 106.936 27.0939 106.052 25.521 104.479C23.9481 102.906 23.0645 100.773 23.0645 98.5484V39.8388C23.0645 37.6144 23.9481 35.4811 25.521 33.9082C27.0939 32.3353 29.2272 31.4517 31.4515 31.4517H119.516C121.74 31.4517 123.874 32.3353 125.447 33.9082C127.02 35.4811 127.903 37.6144 127.903 39.8388V98.5484C127.903 100.773 127.02 102.906 125.447 104.479C123.874 106.052 121.74 106.936 119.516 106.936Z" fill="#CCD1D9"/>
<path id="Vector_5" d="M90.1615 116.308V119.516H60.8066V106.936H90.1615V116.308Z" fill="#AAB2BD"/>
<path id="Vector_6" d="M119.516 41.9354V83.8709C119.516 85.0241 118.572 85.9677 117.419 85.9677H100.645L102.511 58.0806L103.727 39.8386H117.419C118.572 39.8386 119.516 40.7822 119.516 41.9354ZM48.9173 64.9999L50.3221 85.9677H33.5479C32.3947 85.9677 31.4512 85.0241 31.4512 83.8709V64.9999H48.9173ZM47.2399 39.8386L47.806 48.2257H31.4512V41.9354C31.4512 40.7822 32.3947 39.8386 33.5479 39.8386H47.2399Z" fill="#75B1F2"/>
<path id="Vector_7" d="M102.512 58.0808L100.645 85.9679H50.3228L48.918 65.0001H56.2567C59.5067 72.4017 66.8873 77.5808 75.4841 77.5808C86.7018 77.5808 95.8647 68.7743 96.4309 57.6824L102.512 58.0808Z" fill="#ECC19C"/>
<path id="Vector_8" d="M103.727 39.8386L102.511 58.0806L96.4305 57.6822C96.4515 57.3257 96.4515 56.9693 96.4515 56.6128C96.4515 45.0386 87.0579 35.6451 75.4837 35.6451C66.887 35.6451 59.5063 40.8241 56.2563 48.2257H47.8063L47.2402 39.8386L46.695 31.4516L46.1289 23.0645H104.839L104.272 31.4516L103.727 39.8386Z" fill="#ECC19C"/>
<path id="Vector_9" d="M14.6773 56.6129V65H6.29023C3.98378 65 2.09668 63.1129 2.09668 60.8065V52.4194C2.09668 50.1129 3.98378 48.2258 6.29023 48.2258H14.6773V56.6129Z" fill="#AAB2BD"/>
<path id="Vector_10" d="M75.4843 77.5807C87.0645 77.5807 96.4521 68.1932 96.4521 56.613C96.4521 45.0328 87.0645 35.6453 75.4843 35.6453C63.9042 35.6453 54.5166 45.0328 54.5166 56.613C54.5166 68.1932 63.9042 77.5807 75.4843 77.5807Z" fill="#B4DD7F"/>
<path id="Vector_11" d="M81.8998 53.7823C83.095 54.2226 83.8708 55.3549 83.8708 56.6129C83.8708 57.871 83.095 59.0033 81.8998 59.4436L69.1934 65V48.2258L81.8998 53.7823Z" fill="#AAB2BD"/>
<path id="Vector_12" d="M75.4836 100.645C77.7996 100.645 79.6771 98.7676 79.6771 96.4516C79.6771 94.1356 77.7996 92.2581 75.4836 92.2581C73.1676 92.2581 71.29 94.1356 71.29 96.4516C71.29 98.7676 73.1676 100.645 75.4836 100.645Z" fill="#FF826E"/>
<path id="Vector_13" d="M69.1939 56.6128V64.9999H14.6777V56.6128H69.1939Z" fill="#FCD770"/>
<path id="Vector_14" d="M69.1939 48.2258V56.6129H14.6777V48.2258H56.2568H69.1939Z" fill="#FF826E"/>
<path id="Vector_15" d="M119.516 29.3548H106.52L106.799 25.1613H106.935C109.248 25.1613 111.129 23.2805 111.129 20.9677V16.7742C111.129 14.4615 109.248 12.5806 106.935 12.5806H106.35L102.157 0H48.8108L44.6173 12.5806H44.0323C41.7195 12.5806 39.8387 14.4615 39.8387 16.7742V20.9677C39.8387 23.2805 41.7195 25.1613 44.0323 25.1613H44.1685L44.4474 29.3548H31.4516C25.6708 29.3548 20.9677 34.0579 20.9677 39.8387V46.129H6.29032C2.82226 46.129 0 48.9513 0 52.4194V60.8064C0 64.2745 2.82226 67.0968 6.29032 67.0968H20.9677V98.5484C20.9677 104.329 25.6708 109.032 31.4516 109.032H58.7097V114.534C46.1626 116.711 46.129 120.374 46.129 121.613C46.129 129.765 72.4792 130 75.4839 130C78.4885 130 104.839 129.765 104.839 121.613C104.839 120.372 104.805 116.709 92.2581 114.534V109.032H119.516C125.297 109.032 130 104.329 130 98.5484V39.8387C130 34.0579 125.297 29.3548 119.516 29.3548ZM105.682 41.9355H117.419V83.871H102.887L105.682 41.9355ZM51.8344 4.19355H99.1355L101.93 12.5806H49.0394L51.8344 4.19355ZM44.0323 16.7742H106.935V20.9677H44.0323V16.7742ZM102.597 25.1613L98.6826 83.871H52.2831L51.1655 67.0968H54.9439C58.869 74.7814 66.7802 79.6774 75.4839 79.6774C88.2008 79.6774 98.5484 69.3298 98.5484 56.6129C98.5484 43.896 88.2008 33.5484 75.4839 33.5484C71.2335 33.5496 67.0661 34.7251 63.4416 36.9451C59.817 39.1651 56.8763 42.3433 54.9439 46.129H49.7669L48.3684 25.1613H102.597ZM45.565 46.129H33.5484V41.9355H45.2861L45.565 46.129ZM67.0968 50.3226V54.5161H16.7742V50.3226H67.0968ZM81.1724 55.7427C81.5331 55.879 81.7742 56.2271 81.7742 56.6129C81.7742 56.9987 81.5331 57.3468 81.0676 57.525L71.2903 61.7961V51.4297L81.1724 55.7427ZM69.6318 67.0968L82.6423 61.4103C84.6321 60.666 85.9677 58.7369 85.9677 56.6129C85.9677 54.4889 84.6321 52.5598 82.7471 51.8574L69.6318 46.129H59.8294C61.5492 43.5529 63.8772 41.4401 66.6075 39.9773C69.3378 38.5145 72.3864 37.7468 75.4839 37.7419C85.8881 37.7419 94.3548 46.2087 94.3548 56.6129C94.3548 67.0171 85.8881 75.4839 75.4839 75.4839C72.3863 75.4797 69.3374 74.7123 66.607 73.2495C63.8766 71.7866 61.5487 69.6734 59.8294 67.0968H69.6318ZM16.7742 58.7097H67.0968V62.9032H16.7742V58.7097ZM33.5484 67.0968H46.9635L48.0811 83.871H33.5484V67.0968ZM25.1613 39.8387C25.1613 36.3706 27.9835 33.5484 31.4516 33.5484H44.7263L45.0052 37.7419H33.5484C31.2356 37.7419 29.3548 39.6227 29.3548 41.9355V46.129H25.1613V39.8387ZM4.19355 60.8064V52.4194C4.19355 51.264 5.135 50.3226 6.29032 50.3226H12.5806V62.9032H6.29032C5.135 62.9032 4.19355 61.9618 4.19355 60.8064ZM100.519 121.623C98.9866 123.232 89.9831 125.806 75.4839 125.806C60.9847 125.806 51.9811 123.232 50.4484 121.623C51.0753 121.03 53.3377 119.793 58.7097 118.789V121.613H92.2581V118.786C97.63 119.793 99.8924 121.03 100.519 121.623ZM88.0645 117.419H62.9032V109.032H88.0645V117.419ZM125.806 98.5484C125.806 102.016 122.984 104.839 119.516 104.839H31.4516C27.9835 104.839 25.1613 102.016 25.1613 98.5484V67.0968H29.3548V83.871C29.3548 86.1837 31.2356 88.0645 33.5484 88.0645H117.419C119.732 88.0645 121.613 86.1837 121.613 83.871V41.9355C121.613 39.6227 119.732 37.7419 117.419 37.7419H105.96L106.239 33.5484H119.516C122.984 33.5484 125.806 36.3706 125.806 39.8387V98.5484Z" fill="black"/>
<path id="Vector_16" d="M75.4837 90.1614C72.0156 90.1614 69.1934 92.9836 69.1934 96.4517C69.1934 99.9198 72.0156 102.742 75.4837 102.742C78.9517 102.742 81.774 99.9198 81.774 96.4517C81.774 92.9836 78.9517 90.1614 75.4837 90.1614ZM75.4837 98.5485C74.9438 98.5243 74.4341 98.2929 74.0606 97.9023C73.6871 97.5117 73.4786 96.9921 73.4786 96.4517C73.4786 95.9113 73.6871 95.3917 74.0606 95.0011C74.4341 94.6105 74.9438 94.3791 75.4837 94.3549C76.0236 94.3791 76.5333 94.6105 76.9068 95.0011C77.2803 95.3917 77.4888 95.9113 77.4888 96.4517C77.4888 96.9921 77.2803 97.5117 76.9068 97.9023C76.5333 98.2929 76.0236 98.5243 75.4837 98.5485Z" fill="black"/>
</g>
</svg>
