<svg width="130" height="130" viewBox="0 0 130 130" fill="none" xmlns="http://www.w3.org/2000/svg">
<g id="Group">
<path id="Vector" d="M15.2344 3.80859H22.8516V19.043H15.2344V3.80859Z" fill="#5A5A5A"/>
<path id="Vector_2" d="M38.0859 3.80859H45.7031V19.043H38.0859V3.80859Z" fill="#444444"/>
<path id="Vector_3" d="M21.7356 62.0534L7.61719 47.9347V38.819L10.9566 30.4688L14.4409 22.8516L2.75336 30.4688L0.27168 36.6727C0.0928272 37.1224 0.000647403 37.6019 7.49372e-09 38.0859L7.49372e-09 49.5117C-3.13753e-05 50.0119 0.0985077 50.5071 0.289984 50.9691C0.481461 51.4311 0.76212 51.8509 1.11592 52.2044L16.3503 67.4388C17.8379 68.9267 20.248 68.9267 21.7356 67.4388C23.2233 65.9509 23.2235 63.5411 21.7356 62.0534Z" fill="#5A5A5A"/>
<path id="Vector_4" d="M60.6658 36.6727L58.1841 30.4688L46.9727 22.8516L53.3203 38.819V47.9347L39.2019 62.0534C37.714 63.5411 37.714 65.9511 39.2019 67.4388C39.9458 68.1827 40.9208 68.5547 41.8945 68.5547C42.8683 68.5547 43.8435 68.1827 44.5872 67.4388L59.8216 52.2044C60.1754 51.8509 60.456 51.4311 60.6475 50.9691C60.839 50.5071 60.9375 50.0119 60.9375 49.5117V38.0859C60.9375 37.603 60.8443 37.1229 60.6658 36.6727Z" fill="#444444"/>
<path id="Vector_5" d="M118.574 68.5547H95.7227C93.5893 68.5547 91.9141 70.23 91.9141 72.3633V95.7227C91.9141 97.855 93.5893 99.5312 95.7227 99.5312H118.574C120.708 99.5312 122.383 97.855 122.383 95.7227V72.3633C122.383 70.23 120.708 68.5547 118.574 68.5547Z" fill="#FDBF00"/>
<path id="Vector_6" d="M122.383 72.3633V95.7227C122.383 97.855 120.708 99.5312 118.574 99.5312H107.148V68.5547H118.574C120.708 68.5547 122.383 70.23 122.383 72.3633Z" fill="#FF9F00"/>
<path id="Vector_7" d="M79.9805 68.5547H57.1289C54.9956 68.5547 53.3203 70.23 53.3203 72.3633V95.7227C53.3203 97.855 54.9956 99.5312 57.1289 99.5312H79.9805C82.1138 99.5312 83.7891 97.855 83.7891 95.7227V72.3633C83.7891 70.23 82.1138 68.5547 79.9805 68.5547Z" fill="#FDBF00"/>
<path id="Vector_8" d="M83.7891 72.3633V95.7227C83.7891 97.855 82.1138 99.5312 79.9805 99.5312H64.7461V68.5547H79.9805C82.1138 68.5547 83.7891 70.23 83.7891 72.3633Z" fill="#FF9F00"/>
<path id="Vector_9" d="M130 3.80859C130 5.9409 128.325 7.61719 126.191 7.61719H3.80859C1.67527 7.61719 0 5.9409 0 3.80859C0 1.67527 1.67527 0 3.80859 0H126.191C128.325 0 130 1.67527 130 3.80859Z" fill="#6E6E6E"/>
<path id="Vector_10" d="M19.043 91.9141H110.957V130H19.043V91.9141Z" fill="#5A5A5A"/>
<path id="Vector_11" d="M64.7461 91.9141H110.957V130H64.7461V91.9141Z" fill="#444444"/>
<path id="Vector_12" d="M22.8516 99.5312H107.148V122.383H22.8516V99.5312Z" fill="#D3D3D8"/>
<path id="Vector_13" d="M64.7461 99.5312H107.148V122.383H64.7461V99.5312Z" fill="#BABAC0"/>
<path id="Vector_14" d="M64.7461 91.9141C54.2349 91.9141 45.7031 100.446 45.7031 110.957C45.7031 121.468 54.2349 130 64.7461 130C75.2573 130 83.7891 121.468 83.7891 110.957C83.7891 100.446 75.2573 91.9141 64.7461 91.9141Z" fill="#5A5A5A"/>
<path id="Vector_15" d="M83.7891 110.957C83.7891 121.468 75.2573 130 64.7461 130V91.9141C75.2573 91.9141 83.7891 100.446 83.7891 110.957Z" fill="#444444"/>
<path id="Vector_16" d="M64.7461 99.5312C58.4233 99.5312 53.3203 104.634 53.3203 110.957C53.3203 117.279 58.4233 122.383 64.7461 122.383C71.0689 122.383 76.1719 117.279 76.1719 110.957C76.1719 104.634 71.0689 99.5312 64.7461 99.5312Z" fill="#ECECF1"/>
<path id="Vector_17" d="M76.1719 110.957C76.1719 117.279 71.0689 122.383 64.7461 122.383V99.5312C71.0689 99.5312 76.1719 104.634 76.1719 110.957Z" fill="#E2E2E7"/>
<path id="Vector_18" d="M19.043 130C8.54344 130 0 121.457 0 110.957C0 100.457 8.54344 91.9141 19.043 91.9141C29.5425 91.9141 38.0859 100.457 38.0859 110.957C38.0859 121.457 29.5425 130 19.043 130Z" fill="#5A5A5A"/>
<path id="Vector_19" d="M19.043 99.5312C12.7428 99.5312 7.61719 104.657 7.61719 110.957C7.61719 117.257 12.743 122.383 19.043 122.383C25.3429 122.383 30.4688 117.257 30.4688 110.957C30.4688 104.657 25.3429 99.5312 19.043 99.5312Z" fill="#ECECF1"/>
<path id="Vector_20" d="M110.957 130C100.457 130 91.9141 121.457 91.9141 110.957C91.9141 100.457 100.457 91.9141 110.957 91.9141C121.457 91.9141 130 100.457 130 110.957C130 121.457 121.457 130 110.957 130Z" fill="#444444"/>
<path id="Vector_21" d="M110.957 99.5312C104.657 99.5312 99.5312 104.657 99.5312 110.957C99.5312 117.257 104.657 122.383 110.957 122.383C117.257 122.383 122.383 117.257 122.383 110.957C122.383 104.657 117.257 99.5312 110.957 99.5312Z" fill="#E2E2E7"/>
<path id="Vector_22" d="M114.766 110.957C114.766 113.061 113.061 114.766 110.957 114.766C108.853 114.766 107.148 113.061 107.148 110.957C107.148 108.853 108.853 107.148 110.957 107.148C113.061 107.148 114.766 108.853 114.766 110.957Z" fill="#444444"/>
<path id="Vector_23" d="M22.8516 110.957C22.8516 113.061 21.1466 114.766 19.043 114.766C16.9394 114.766 15.2344 113.061 15.2344 110.957C15.2344 108.853 16.9394 107.148 19.043 107.148C21.1466 107.148 22.8516 108.853 22.8516 110.957ZM68.5547 110.957C68.5547 113.089 66.8794 114.766 64.7461 114.766C62.6128 114.766 60.9375 113.089 60.9375 110.957C60.9375 108.824 62.6128 107.148 64.7461 107.148C66.8794 107.148 68.5547 108.824 68.5547 110.957Z" fill="#5A5A5A"/>
<path id="Vector_24" d="M68.5547 110.957C68.5547 113.089 66.8794 114.766 64.7461 114.766V107.148C66.8794 107.148 68.5547 108.824 68.5547 110.957Z" fill="#444444"/>
<path id="Vector_25" d="M41.8945 45.7031H19.043C16.9096 45.7031 15.2344 47.3784 15.2344 49.5117V72.3633C15.2344 74.4956 16.9096 76.1719 19.043 76.1719H41.8945C44.0279 76.1719 45.7031 74.4956 45.7031 72.3633V49.5117C45.7031 47.3784 44.0279 45.7031 41.8945 45.7031Z" fill="#FDBF00"/>
<path id="Vector_26" d="M45.7031 49.5117V72.3633C45.7031 74.4956 44.0279 76.1719 41.8945 76.1719H30.4688V45.7031H41.8945C44.0279 45.7031 45.7031 47.3784 45.7031 49.5117Z" fill="#FF9F00"/>
<path id="Vector_27" d="M130 3.80859C130 5.9409 128.325 7.61719 126.191 7.61719H30.4688V0H126.191C128.325 0 130 1.67527 130 3.80859Z" fill="#5A5A5A"/>
<path id="Vector_28" d="M58.1953 30.4688H2.74219L7.92188 17.5957C8.45508 16.1492 9.90234 15.2344 11.4258 15.2344H49.5117C51.0352 15.2344 52.4824 16.1489 53.0156 17.5957L58.1953 30.4688Z" fill="#FF7816"/>
<path id="Vector_29" d="M58.1953 30.4688H30.4688V15.2344H49.5117C51.0352 15.2344 52.4824 16.1489 53.0156 17.5957L58.1953 30.4688Z" fill="#DD3400"/>
</g>
</svg>
