<svg width="138" height="130" viewBox="0 0 138 130" fill="none" xmlns="http://www.w3.org/2000/svg">
<g id="Group">
<path id="Vector" d="M9.67266 58.6245C9.7928 58.6916 9.88231 58.8026 9.92243 58.9343C9.96255 59.0659 9.95018 59.208 9.8879 59.3307L4.01183 70.9068C3.1702 72.5647 2.75568 74.4065 2.80582 76.2651C2.85597 78.1238 3.3692 79.9406 4.299 81.5507L22.5037 113.08L31.0706 86.4148L37.098 74.5782C37.1305 74.5142 37.1756 74.4576 37.2306 74.4115C37.2856 74.3654 37.3493 74.3309 37.418 74.3101C37.4866 74.2892 37.5587 74.2825 37.63 74.2902C37.7013 74.2979 37.7704 74.3199 37.833 74.3549L43.2959 77.4126C44.1949 77.9158 45.2381 77.0378 44.8958 76.066L35.1091 48.2903C34.8777 47.6335 34.4093 47.0869 33.7958 46.7574C33.1823 46.428 32.4678 46.3396 31.7925 46.5095L4.31578 53.4208C3.33493 53.6675 3.16044 54.9866 4.04353 55.48L9.67266 58.6245Z" fill="#B3E59F"/>
<path id="Vector_2" d="M31.0706 86.415L55.2564 87.6745C57.6126 87.7968 59.4035 89.839 59.2171 92.1907L57.3864 115.272C57.2069 117.535 55.2585 119.244 52.9918 119.126L30.4683 117.952C28.8394 117.868 27.2574 117.378 25.8661 116.527C24.4749 115.675 23.3185 114.489 22.5022 113.077C21.6859 111.665 21.2355 110.071 21.192 108.441C21.1484 106.81 21.5132 105.195 22.253 103.741L31.0706 86.415Z" fill="#95D6A4"/>
<path id="Vector_3" d="M105.357 18.1147C105.239 18.1852 105.098 18.2072 104.964 18.1762C104.83 18.1451 104.713 18.0633 104.638 17.948L97.5498 7.07146C96.5346 5.51366 95.1467 4.23383 93.5119 3.34796C91.8771 2.46209 90.0471 1.99818 88.1877 1.99829H51.7783L70.5893 22.7494L77.8272 33.8873C77.8663 33.9474 77.8929 34.0148 77.9053 34.0855C77.9177 34.1561 77.9157 34.2285 77.8994 34.2984C77.8832 34.3683 77.8529 34.4341 77.8106 34.492C77.7682 34.5499 77.7146 34.5986 77.653 34.6353L72.2735 37.8371C71.3882 38.364 71.6269 39.7064 72.6395 39.8958L101.59 45.3088C102.274 45.4368 102.982 45.3046 103.574 44.938C104.166 44.5714 104.6 43.9969 104.79 43.3271L112.543 16.0779C112.82 15.105 111.764 14.2941 110.896 14.8123L105.357 18.1147Z" fill="#B3E59F"/>
<path id="Vector_4" d="M70.5885 22.749L57.4048 43.063C56.1208 45.0423 53.4566 45.5722 51.513 44.2346L32.4375 31.1084C30.5677 29.8217 30.0621 27.2801 31.2973 25.3759L43.5756 6.45835C44.4633 5.08989 45.6789 3.96499 47.112 3.18594C48.5451 2.40689 50.1501 1.99838 51.7813 1.99756C53.4124 1.99674 55.0179 2.40363 56.4518 3.18124C57.8857 3.95885 59.1024 5.08252 59.9915 6.45009L70.5885 22.749Z" fill="#95D6A4"/>
<path id="Vector_5" d="M90.9258 120.482C90.931 120.345 90.9893 120.215 91.0883 120.119C91.1874 120.023 91.3196 119.97 91.4572 119.97L104.44 119.949C106.3 119.947 108.129 119.48 109.762 118.591C111.396 117.703 112.782 116.421 113.794 114.861L133.624 84.3284L105.974 88.8016L92.6904 88.8051C92.6186 88.8051 92.5476 88.7906 92.4816 88.7625C92.4156 88.7345 92.356 88.6933 92.3063 88.6417C92.2565 88.59 92.2178 88.5288 92.1923 88.4617C92.1668 88.3947 92.155 88.3232 92.1578 88.2515L92.4021 81.9964C92.4424 80.9667 91.1863 80.4358 90.4761 81.1823L70.1688 102.512C69.6886 103.016 69.4141 103.681 69.3991 104.378C69.3841 105.074 69.6296 105.751 70.0875 106.275L88.7203 127.618C89.3855 128.38 90.6402 127.936 90.6788 126.925L90.9258 120.482Z" fill="#B3E59F"/>
<path id="Vector_6" d="M105.974 88.8016L96.1164 66.6818C95.1555 64.5272 96.1622 62.0045 98.3426 61.1027L119.741 52.255C121.839 51.3877 124.246 52.348 125.17 54.4211L134.35 75.0209C135.015 76.5113 135.296 78.1443 135.169 79.7712C135.041 81.3981 134.509 82.9673 133.62 84.3358C132.732 85.7031 131.516 86.8268 130.084 87.605C128.651 88.3832 127.047 88.7912 125.417 88.792L105.974 88.8016Z" fill="#95D6A4"/>
<path id="Vector_7" d="M55.3602 85.6791L49.0976 85.3528C48.5743 85.3354 48.0652 85.524 47.6795 85.8781C47.2939 86.2321 47.0626 86.7233 47.0353 87.2461C47.0081 87.7689 47.187 88.2816 47.5338 88.6738C47.8805 89.066 48.3673 89.3065 48.8895 89.3436L55.1529 89.67C56.0685 89.7379 57.2641 90.5187 57.2254 92.0329L55.3945 115.115C55.3507 115.684 55.0856 116.214 54.6559 116.591C54.2263 116.968 53.6662 117.162 53.0956 117.131L30.5716 115.957C29.2743 115.892 28.014 115.503 26.9061 114.825C25.7983 114.147 24.8784 113.201 24.2307 112.075L24.2288 112.072C23.5781 110.95 23.2193 109.682 23.1852 108.385C23.1511 107.088 23.4428 105.803 24.0335 104.648L32.2629 88.4781L39.5732 88.8591C40.0964 88.8762 40.6053 88.6875 40.9907 88.3334C41.3762 87.9793 41.6073 87.4881 41.6345 86.9654C41.6617 86.4428 41.4827 85.9303 41.1361 85.5381C40.7895 85.146 40.3028 84.9054 39.7808 84.8682L34.2475 84.58L38.1872 76.8432L42.3208 79.1568C43.4626 79.7953 44.847 79.664 45.8484 78.8214C46.8497 77.9788 47.2155 76.637 46.7805 75.4028L36.9938 47.6272C36.1664 45.2781 33.7201 43.9653 31.3052 44.5722L3.82849 51.4832C2.58231 51.797 1.66832 52.8226 1.49996 54.0965C1.3316 55.3704 1.94776 56.5982 3.06928 57.2245L7.46954 59.6825L2.23067 70.0025C0.206893 73.9875 0.333429 78.6781 2.56926 82.5501L20.7686 114.07L20.7694 114.071L20.7705 114.073L20.774 114.079C20.775 114.081 20.7764 114.082 20.7772 114.084C22.7831 117.548 26.3661 119.74 30.3643 119.948C31.1001 119.977 52.4733 121.117 53.221 121.13C56.446 121.13 59.12 118.685 59.3782 115.43L61.2091 92.3485C61.5096 89.2621 58.9517 85.8187 55.3602 85.6791ZM5.79367 71.8113L11.9015 59.7786C12.1351 59.3184 12.1815 58.7856 12.0311 58.2919C11.8806 57.7982 11.5449 57.3819 11.0943 57.1302L6.95434 54.8174L32.28 48.4471C32.4724 48.3977 32.6764 48.4224 32.8515 48.5164C33.0266 48.6103 33.1599 48.7666 33.2251 48.9543L42.2366 74.5301L38.3257 72.3409C38.091 72.2096 37.8322 72.1271 37.5648 72.0982C37.2974 72.0693 37.0269 72.0947 36.7695 72.1728C36.5122 72.2509 36.2732 72.3802 36.067 72.5528C35.8608 72.7255 35.6915 72.938 35.5694 73.1776C31.5849 81.2411 19.8102 104.419 19.8102 104.419L6.02969 80.5522C4.4721 77.8549 4.38392 74.5874 5.79367 71.8113ZM135.303 85.4122C137.479 82.0519 137.806 77.8643 136.175 74.2075L133.87 69.0336C133.648 68.5591 133.249 68.1905 132.758 68.0073C132.267 67.8241 131.724 67.841 131.246 68.0541C130.768 68.2673 130.392 68.6599 130.2 69.1472C130.008 69.6346 130.015 70.1778 130.22 70.66L132.526 75.8344C133.057 77.019 133.282 78.3179 133.181 79.6121C133.08 80.9064 132.656 82.1546 131.947 83.2425L131.941 83.2523C131.236 84.3408 130.269 85.2352 129.129 85.8538C127.99 86.4724 126.713 86.7956 125.416 86.7937L107.271 86.8025L97.9419 65.8678C97.5868 65.0207 97.7397 63.6019 99.1068 62.9487L120.505 54.101C121.033 53.8797 121.626 53.8744 122.157 54.0863C122.689 54.2982 123.116 54.7104 123.346 55.234L126.377 62.035C126.482 62.2765 126.635 62.4948 126.825 62.6772C127.015 62.8596 127.24 63.0025 127.485 63.0978C127.731 63.1931 127.993 63.2387 128.257 63.2322C128.52 63.2257 128.78 63.1672 129.021 63.0599C129.262 62.9526 129.479 62.7987 129.66 62.6072C129.841 62.4156 129.982 62.1901 130.076 61.9437C130.169 61.6972 130.213 61.4347 130.205 61.1713C130.196 60.9078 130.136 60.6486 130.027 60.4087L126.996 53.6071C125.62 50.5236 122.099 49.1179 118.978 50.4083L97.5799 59.2562C94.64 60.4217 92.8096 64.2191 94.292 67.4947L102.897 86.8041L94.2145 86.8065L94.3991 82.0741C94.4503 80.7666 93.7049 79.5926 92.4995 79.0827C91.2943 78.5734 89.932 78.8563 89.0297 79.8039L68.7224 101.133C67.0055 102.937 66.9456 105.712 68.5836 107.588L87.2161 128.931C87.6252 129.403 88.1673 129.74 88.7715 129.899C89.3756 130.057 90.0136 130.029 90.6017 129.819C91.1912 129.613 91.7046 129.234 92.0748 128.731C92.445 128.228 92.6545 127.625 92.6761 127.001L92.869 121.965L104.444 121.947C108.913 121.941 113.035 119.699 115.471 115.949L135.292 85.4282L135.296 85.4234L135.299 85.4184L135.3 85.4157C135.301 85.4147 135.302 85.4135 135.303 85.4122ZM112.119 113.773C110.423 116.385 107.551 117.947 104.437 117.952L90.9424 117.973C90.4263 117.974 89.9305 118.174 89.559 118.532C89.1874 118.89 88.9689 119.379 88.9493 119.894L88.7679 124.633L71.5933 104.961C71.4622 104.812 71.3918 104.619 71.396 104.421C71.4003 104.222 71.4788 104.033 71.6162 103.889L90.3151 84.2492L90.1403 88.7275C90.1298 88.9962 90.1736 89.2643 90.2692 89.5157C90.3648 89.7671 90.5101 89.9966 90.6965 90.1905C90.883 90.3843 91.1066 90.5385 91.3541 90.6439C91.6015 90.7492 91.8677 90.8035 92.1367 90.8035L127.129 90.6609L112.119 113.773ZM31.3052 32.7545L50.3808 45.8807C52.8286 47.693 57.2172 47.1826 59.0809 44.1508L70.5898 26.4176L75.3209 33.6975L71.2513 36.1201C70.1265 36.7893 69.548 38.0541 69.7773 39.3426C70.0061 40.6312 70.9854 41.619 72.2718 41.8595C72.8491 41.9312 82.2572 43.7951 82.915 43.8148C83.4129 43.8145 83.8928 43.6283 84.2606 43.2926C84.6284 42.957 84.8577 42.496 84.9033 42.0002C84.949 41.5043 84.8079 41.0092 84.5076 40.612C84.2073 40.2148 83.7695 39.944 83.2799 39.8528L75.2996 38.3605L79.1506 36.0684C79.3817 35.9308 79.5827 35.748 79.7415 35.5309C79.9002 35.3138 80.0135 35.0668 80.0745 34.8048C80.1356 34.5429 80.143 34.2713 80.0966 34.0064C80.0501 33.7414 79.9506 33.4886 79.804 33.263C77.6686 29.9771 71.2014 20.0252 69.2102 16.9633C69.0672 16.7433 68.8822 16.5536 68.6659 16.4051C68.4496 16.2566 68.2062 16.1521 67.9495 16.0977C67.6928 16.0433 67.428 16.04 67.17 16.0879C66.912 16.1359 66.666 16.2342 66.4461 16.3773C66.2261 16.5203 66.0364 16.7052 65.8879 16.9215C65.7394 17.1378 65.635 17.3812 65.5806 17.6379C65.5262 17.8946 65.5228 18.1595 65.5708 18.4174C65.6187 18.6754 65.717 18.9214 65.86 19.1413L68.2064 22.7504L55.7289 41.9762C55.2118 42.7349 53.9387 43.3798 52.6462 42.5892L33.5704 29.463C33.0975 29.1412 32.77 28.6466 32.6584 28.0857C32.5468 27.5247 32.66 26.9424 32.9736 26.4642L45.2522 7.54609C45.9572 6.45469 46.9249 5.55776 48.0666 4.93752C49.2083 4.31729 50.4875 3.9936 51.7868 3.99615C53.0847 3.99372 54.3626 4.31678 55.5034 4.93578C56.6442 5.55478 57.6116 6.44996 58.3171 7.53943L60.7986 11.3566C61.0874 11.8008 61.5409 12.1121 62.0592 12.2221C62.5776 12.332 63.1184 12.2314 63.5626 11.9426C64.0069 11.6538 64.3182 11.2003 64.4281 10.682C64.538 10.1636 64.4375 9.6228 64.1487 9.17854L60.6265 3.99588H88.1874C91.3021 3.99588 94.1762 5.55321 95.8757 8.16199L103.243 19.4677C103.525 19.9 103.963 20.2065 104.466 20.323C104.969 20.4396 105.497 20.3571 105.941 20.0929L110.014 17.6639L102.868 42.7802C102.815 42.9716 102.691 43.136 102.522 43.2406C102.353 43.3452 102.151 43.3823 101.956 43.3447L92.553 41.5865C92.2951 41.5383 92.0303 41.5413 91.7736 41.5955C91.5168 41.6496 91.2733 41.7538 91.0569 41.9021C90.6197 42.2015 90.3195 42.6624 90.2221 43.1832C90.1247 43.7041 90.2383 44.2422 90.5377 44.6794C90.8372 45.1165 91.298 45.4168 91.8189 45.5141C93.6274 45.8 100.854 47.3184 102.119 47.356C104.226 47.356 106.114 45.9739 106.712 43.8737L114.464 16.6245C114.815 15.3887 114.384 14.0844 113.366 13.3015C112.347 12.5186 110.975 12.4384 109.872 13.0961L105.543 15.6774L99.2235 5.9805C96.7839 2.23556 92.658 0 88.1871 0H51.778L51.7636 0.000798991C47.7637 0.00852436 44.0777 2.01446 41.9002 5.37073L29.6216 24.2888C27.7838 27.1216 28.5236 30.8402 31.3052 32.7545Z" fill="black"/>
</g>
</svg>
