<svg width="130" height="130" viewBox="0 0 130 130" fill="none" xmlns="http://www.w3.org/2000/svg">
<g id="Group">
<g id="Clip path group">
<mask id="mask0_157_893" style="mask-type:luminance" maskUnits="userSpaceOnUse" x="0" y="0" width="130" height="130">
<g id="a">
<path id="Vector" d="M0 0H130V130H0V0Z" fill="white"/>
</g>
</mask>
<g mask="url(#mask0_157_893)">
<g id="Group_2">
<path id="Vector_2" d="M96.6264 75.6641C96.6264 98.9422 77.8059 117.812 54.5895 117.812C31.3733 117.812 12.5527 98.9422 12.5527 75.6641C12.5527 52.3859 31.3733 33.5156 54.5895 33.5156C77.8059 33.5156 96.6264 52.3859 96.6264 75.6641Z" fill="#97C9E8"/>
<path id="Vector_3" d="M54.5898 33.5156C52.4321 33.5156 50.3123 33.6794 48.2422 33.9937C68.4465 37.0622 83.9315 54.5497 83.9315 75.6641C83.9315 96.7784 68.4465 114.266 48.2422 117.334C50.343 117.653 52.4649 117.813 54.5898 117.812C77.8063 117.812 96.6268 98.9422 96.6268 75.6641C96.6268 52.3859 77.8063 33.5156 54.5898 33.5156Z" fill="#60B6FF"/>
<path id="Vector_4" d="M49.1256 49.8959C42.65 53.9538 37.7932 60.4467 41.4358 67.7511C45.0783 75.0555 53.1726 72.2148 60.6603 71.2004C68.1477 70.1858 62.4816 93.3164 66.9335 98.9976C71.3853 104.679 83.9318 93.3164 82.7179 86.012C80.9202 75.1969 80.2893 71.4033 94.8594 63.6932L94.8988 63.6787C89.988 47.0489 75.122 34.7095 57.2219 33.6002L57.2201 33.6639C57.2201 33.6639 55.6012 45.838 49.1256 49.8959Z" fill="#BAEB6C"/>
<path id="Vector_5" d="M26.6636 94.7366C24.7194 91.7705 30.1038 84.7947 31.3177 79.5193C32.5319 74.2439 25.247 74.6499 23.0208 72.8235C20.795 70.9974 17.7596 63.0844 15.5336 61.2581L15.1774 60.9773C13.4813 65.5509 12.5527 70.4985 12.5527 75.6642C12.5527 89.5958 19.2952 101.947 29.6856 109.62L29.6988 108.737C29.6988 108.737 31.3177 101.838 26.6636 94.7366Z" fill="#BAEB6C"/>
<path id="Vector_6" d="M82.7179 86.0121L82.6914 85.8544C81.8964 89.0652 80.7242 92.1706 79.1992 95.106C81.5908 92.284 83.1886 88.8434 82.7179 86.0121Z" fill="#BAEB6C"/>
<path id="Vector_7" d="M57.2225 33.6004L57.2207 33.6639C57.2207 33.6639 57.0854 34.68 56.7373 36.2212C71.4786 41.8008 82.2711 55.447 83.756 71.7922C85.6136 69.2519 89.0116 66.788 94.8601 63.6931L94.8997 63.6789C89.9886 47.0491 75.1227 34.7095 57.2225 33.6004Z" fill="#96D629"/>
<path id="Vector_8" d="M42.9722 47.9807C22.644 44.5319 10.0332 18.9374 10.0332 18.9374C10.0332 18.9374 30.3815 -1.06585 50.7097 2.38271C71.038 5.83126 83.6485 31.426 83.6485 31.426C83.6485 31.426 63.3007 51.4293 42.9722 47.9807Z" fill="#49CB5C"/>
<path id="Vector_9" d="M50.71 2.38266C46.8288 1.72403 42.9471 1.92258 39.2061 2.67161C58.6842 7.04591 70.6998 31.426 70.6998 31.426C70.6998 31.426 57.3799 44.5179 41.5275 47.6915C42.0054 47.7989 42.486 47.8982 42.9725 47.9804C63.301 51.4292 83.649 31.426 83.649 31.426C83.649 31.426 71.0385 5.83122 50.71 2.38266Z" fill="#07B128"/>
<path id="Vector_10" d="M97.4746 23.1366C102.928 10.2329 121.823 5.88802 121.823 5.88802C121.823 5.88802 131.876 22.4651 126.423 35.3691C120.97 48.2728 102.075 52.6174 102.075 52.6174C102.075 52.6174 92.0212 36.0404 97.4746 23.1366Z" fill="#49CB5C"/>
<path id="Vector_11" d="M121.824 5.88802C121.824 5.88802 117.527 6.87724 112.44 9.31017C115.05 14.839 119.187 26.0591 115.252 35.3688C112.4 42.1194 105.869 46.5265 100.288 49.1953C101.296 51.3301 102.076 52.6174 102.076 52.6174C102.076 52.6174 120.971 48.2728 126.424 35.3688C131.878 22.4651 121.824 5.88802 121.824 5.88802Z" fill="#07B128"/>
<path id="Vector_12" d="M92.6385 63.1465C85.7731 66.8038 82.4111 69.6773 80.8158 73.1817C79.103 76.9453 79.7311 80.9847 80.6002 86.5752C81.1126 89.8714 77.1951 96.0099 72.0611 98.209C70.1624 99.0222 68.8093 98.9255 68.039 97.9226C66.526 95.953 66.5668 89.9933 66.5996 85.2046C66.6448 78.5792 66.6839 72.8577 63.9514 70.426C62.9685 69.5521 61.7104 69.1824 60.3134 69.354C59.116 69.5026 57.9015 69.6963 56.7275 69.8834C49.7283 71.0001 45.3223 71.446 43.0401 66.7546C39.3435 59.1554 46.8274 53.5271 50.2168 51.4603C50.9067 51.0393 51.5475 50.5434 52.1429 49.9914C60.3342 49.0128 68.0758 45.4975 74.9737 41.0958C83.2437 46.0358 89.5931 53.8559 92.6385 63.1465ZM40.9645 25.9587L56.7582 29.037L36.4881 43.8959C32.665 42.1305 29.2251 39.5919 26.2143 36.771L40.9645 25.9587ZM42.1497 22.3095L30.9474 7.02945C34.3007 5.65125 37.9003 4.56681 41.5906 4.08414L57.0875 25.2213L42.1497 22.3095ZM27.4003 8.63287L36.6397 21.2355L14.4125 16.9029C17.2105 14.6928 21.8296 11.3758 27.4003 8.63287ZM23.499 34.0392C18.9914 29.1818 15.6876 23.9868 13.7909 20.6619L35.8757 24.9667L23.499 34.0392ZM42.7614 45.9548C42.0877 45.8228 41.4245 45.662 40.7697 45.4792L61.847 30.029L79.2 33.4116C72.879 38.3922 57.4927 48.8407 42.7614 45.9548ZM111.43 47.0392C109.296 48.1097 107.259 48.9209 105.602 49.5054L111.339 35.7892L125.942 29.7632C125.73 31.3994 125.326 33.0218 124.669 34.5765C122.089 40.6819 116.046 44.7236 111.43 47.0392ZM99.2291 23.8266C99.7907 22.4977 100.516 21.267 101.356 20.1303L107.516 35.0584L101.987 48.2775C101.211 46.6297 100.297 44.4651 99.5196 42.0066C97.9629 37.0831 96.6489 29.9323 99.2291 23.8266ZM121.997 10.3074C122.754 11.9314 123.63 14.0274 124.379 16.3961C125.201 18.9958 125.955 22.2169 126.104 25.5768L113.422 30.8098L121.997 10.3074ZM109.59 30.1001L104.178 16.9859C106.811 14.523 109.867 12.6687 112.47 11.3636C114.686 10.2518 116.796 9.41998 118.487 8.83117L109.59 30.1001ZM17.4543 67.5239C18.8721 70.211 20.2112 72.7493 21.6036 73.9139C22.5898 74.7386 23.9621 75.1606 25.4152 75.6072C29.1373 76.7514 29.5699 77.3127 29.2132 78.7849C28.7747 80.595 27.7182 82.7555 26.6967 84.8454C24.73 88.8685 22.8721 92.6685 24.633 95.4132C26.5708 98.4227 27.5737 101.939 27.5151 105.518C16.1726 95.2896 11.5527 79.135 15.7787 64.4519C16.3389 65.4114 16.9279 66.5268 17.4543 67.5239ZM127.983 15.1608C126.104 9.25519 123.559 5.02639 123.451 4.84891C123.034 4.16057 122.175 3.80231 121.397 3.9808C121.195 4.02727 116.388 5.14953 110.843 7.91812C103.359 11.6554 98.1299 16.6439 95.7211 22.3438C93.7158 27.0888 93.4278 32.8923 94.8505 39.3022C91.8477 35.9447 88.4367 32.9759 84.697 30.465C83.5618 28.2238 80.5622 22.7061 75.872 16.9381C74.3283 15.0404 71.3568 17.4226 72.9168 19.3409C76.0774 23.2271 78.4555 27.0497 79.9431 29.6761L62.5978 26.2951L46.1155 3.81424C47.7166 3.83759 49.322 3.99197 50.9201 4.30529C55.9861 5.2973 60.9906 7.87699 65.7957 11.9722C67.6792 13.5767 70.1236 10.6565 68.2665 9.07365C62.9576 4.54878 57.3676 1.68701 51.6521 0.567535C42.9267 -1.14075 32.7496 1.10124 22.2198 7.05154C14.3711 11.487 9.1226 16.3582 8.90322 16.5634C8.20142 17.219 8.08894 18.4113 8.67724 19.1778C9.44709 20.7571 12.3637 26.4523 17.2184 32.5851C20.0802 36.2005 23.0981 39.2953 26.2206 41.8382C25.3287 42.5838 24.466 43.3637 23.6346 44.1762C19.1735 48.5411 15.7564 53.689 13.5129 59.3176C11.5304 64.2917 10.464 69.6407 10.4041 75.1558C10.3058 84.1725 12.919 92.8696 17.9618 100.307C22.8876 107.572 29.7746 113.149 37.8777 116.437C40.1443 117.354 41.5782 113.828 39.3095 112.907C36.3959 111.724 33.6311 110.204 31.072 108.376C31.3978 106.572 32.1524 100.079 27.8385 93.3561C27.235 92.4158 29.04 88.7238 30.1184 86.5181C31.2297 84.2451 32.3784 81.895 32.9146 79.6819C33.4841 77.3315 32.8435 75.3577 31.0621 73.9734C29.7535 72.9565 28.0434 72.4306 26.5342 71.9667C25.5544 71.6656 24.4438 71.3241 24.0472 70.9925C23.2299 70.3087 21.8951 67.7791 20.8223 65.7465C19.6333 63.4926 18.4993 61.3474 17.3428 60.0255C19.9456 53.8434 24.1277 48.3728 29.3637 44.1869C34.1471 47.446 39.6071 49.6943 45.4104 50.1496C38.6798 55.3646 36.5028 62.023 39.6155 68.4207C43.2486 75.8896 50.7282 74.6967 57.3275 73.6448C58.4693 73.4625 59.6502 73.2744 60.7821 73.1339C61.2064 73.0804 61.3343 73.1956 61.4197 73.2716C62.8636 74.5566 62.8215 80.6958 62.791 85.1785C62.7486 91.3789 62.7087 97.2357 65.019 100.243C66.1966 101.776 67.8562 102.559 69.8014 102.559C70.966 102.559 72.233 102.279 73.5604 101.71C79.3043 99.2495 85.2744 91.8468 84.3636 85.9902C83.5674 80.8692 83.0413 77.4861 84.2824 74.7592C85.4311 72.2351 88.2065 69.8984 93.6716 66.9168C94.3388 69.9235 94.658 72.997 94.6227 76.0767C94.5059 86.8152 90.2139 96.8653 82.5373 104.376C73.9588 112.768 61.9011 116.912 49.9738 115.598C47.5432 115.334 47.1232 119.117 49.5572 119.384C62.6123 120.822 75.8118 116.283 85.2008 107.098C93.6046 98.8762 98.3033 87.8742 98.4313 76.1184C98.6012 60.529 90.6024 46.7191 78.4268 38.7642C80.9428 36.9698 82.8168 35.4182 83.8563 34.5181C88.2961 37.7023 92.2335 41.6254 95.5091 46.1968C103.373 57.1719 106.493 70.5522 104.292 83.8734C99.7509 111.372 73.6846 130.052 46.181 125.508C32.859 123.308 21.191 116.052 13.3268 105.077C5.46228 94.1023 2.34279 80.7219 4.54289 67.4007C4.93873 65.0041 1.18244 64.3755 0.785328 66.7804C-1.58057 81.1051 1.77404 95.4937 10.2309 107.296C18.6878 119.097 31.2348 126.9 45.5607 129.266C48.5265 129.757 51.5275 130.004 54.5337 130.005C65.7924 130.005 76.7444 126.508 86.0785 119.821C97.8811 111.365 105.684 98.8186 108.05 84.4937C109.784 73.9962 108.442 63.466 104.275 53.9429C106.198 53.375 109.472 52.274 113.055 50.4845C120.54 46.7472 125.769 41.759 128.178 36.0588C130.587 30.3586 130.519 23.1322 127.983 15.1608Z" fill="black"/>
</g>
</g>
</g>
</g>
</svg>
