<svg width="144" height="130" viewBox="0 0 144 130" fill="none" xmlns="http://www.w3.org/2000/svg">
<g id="Group">
<path id="Vector" fill-rule="evenodd" clip-rule="evenodd" d="M39.9414 22.5451L44.6061 82.5944C44.7097 83.9833 45.3352 85.2815 46.3568 86.2281C47.3785 87.1747 48.7205 87.6996 50.1133 87.6971H93.8893C96.7768 87.6971 99.1678 85.4819 99.3965 82.5944L104.061 22.5451C104.184 20.952 103.693 19.5348 102.605 18.363C101.517 17.1913 100.147 16.5942 98.5512 16.5942H45.4431C43.8417 16.5942 42.4718 17.1913 41.3838 18.363C40.3097 19.5348 39.8103 20.952 39.9414 22.5451Z" fill="#7CA1B1"/>
<path id="Vector_2" fill-rule="evenodd" clip-rule="evenodd" d="M35.0146 13.2295H108.991C110.048 13.2295 110.913 14.0944 110.913 15.1517V21.9841C110.913 23.0499 110.048 23.9147 108.991 23.9147H35.0146C33.9488 23.9147 33.084 23.0499 33.084 21.9841V15.1545C33.084 14.0971 33.9488 13.2295 35.0146 13.2295Z" fill="#537983"/>
<path id="Vector_3" fill-rule="evenodd" clip-rule="evenodd" d="M58.5504 110.803H63.96C64.8193 110.803 65.5223 110.097 65.5223 109.241V82.2345C65.5223 81.3753 66.2281 80.6722 67.0846 80.6722H76.9134C77.7782 80.6722 78.4757 81.378 78.4757 82.2345V109.241C78.4757 110.1 79.1816 110.803 80.038 110.803H85.4476C86.0921 110.803 86.6417 111.171 86.8956 111.768C87.1411 112.357 87.01 113.01 86.5496 113.47L73.1052 126.914C72.4914 127.528 71.5038 127.528 70.89 126.914L57.4456 113.47C56.9853 113.01 56.8569 112.36 57.108 111.768C57.3563 111.171 57.9059 110.803 58.5504 110.803ZM112.721 70.9969H118.131C118.99 70.9969 119.693 70.2911 119.693 69.4346V42.4285C119.693 41.5637 120.399 40.8662 121.256 40.8662H131.084C131.949 40.8662 132.647 41.5637 132.647 42.4285V69.4346C132.647 70.2939 133.353 70.9969 134.209 70.9969H139.619C140.263 70.9969 140.813 71.3652 141.067 71.9538C141.312 72.5509 141.181 73.2037 140.721 73.6612L127.276 87.1057C126.663 87.7194 125.675 87.7194 125.061 87.1057L111.617 73.6612C111.156 73.2009 111.028 72.5509 111.279 71.9538C111.527 71.3624 112.08 70.9969 112.721 70.9969ZM4.37931 70.9969H9.7861C10.6454 70.9969 11.3484 70.2911 11.3484 69.4346V42.4285C11.3484 41.5637 12.0543 40.8662 12.9108 40.8662H22.7395C23.6044 40.8662 24.3018 41.5637 24.3018 42.4285V69.4346C24.3018 70.2939 25.0077 70.9969 25.8642 70.9969H31.2737C31.9182 70.9969 32.4678 71.3652 32.7217 71.9538C32.9672 72.5509 32.8361 73.2037 32.3758 73.6612L18.9313 87.1057C18.3175 87.7194 17.3299 87.7194 16.7162 87.1057L3.27452 73.6612C2.81419 73.2009 2.68585 72.5509 2.93694 71.9538C3.18245 71.3624 3.73485 70.9969 4.37931 70.9969Z" fill="#70DA40"/>
<path id="Vector_4" fill-rule="evenodd" clip-rule="evenodd" d="M40.0391 23.9177L44.6061 82.5945C44.7097 83.9834 45.3352 85.2816 46.3568 86.2282C47.3785 87.1748 48.7205 87.6996 50.1133 87.6972H54.4655C51.5696 87.6972 49.1787 85.482 48.9583 82.5945L44.3996 23.9177H40.0391Z" fill="#70919F"/>
<path id="Vector_5" fill-rule="evenodd" clip-rule="evenodd" d="M35.0146 13.2295H39.3668C38.3011 13.2295 37.4362 14.0944 37.4362 15.1517V21.9841C37.4362 23.0499 38.3011 23.9147 39.3668 23.9147H35.0146C33.9488 23.9147 33.084 23.0499 33.084 21.9841V15.1545C33.084 14.0971 33.9488 13.2295 35.0146 13.2295Z" fill="#4B6D76"/>
<path id="Vector_6" fill-rule="evenodd" clip-rule="evenodd" d="M58.5504 110.803H61.8982C61.2538 110.803 60.7042 111.171 60.4587 111.768C60.2048 112.357 60.3359 113.01 60.7962 113.47L73.6743 126.348L73.108 126.914C72.4942 127.528 71.5066 127.528 70.8928 126.914L57.4484 113.47C56.9881 113.01 56.8597 112.36 57.1108 111.768C57.3563 111.171 57.9059 110.803 58.5504 110.803ZM63.96 110.803C64.8192 110.803 65.5223 110.097 65.5223 109.241V82.2345C65.5223 81.3753 66.2281 80.6722 67.0846 80.6722H70.4325C69.5732 80.6722 68.8702 81.378 68.8702 82.2345V109.241C68.8702 110.1 68.1643 110.803 67.3078 110.803H63.96ZM112.721 70.9969H116.069C115.425 70.9969 114.875 71.3652 114.63 71.9538C114.376 72.5509 114.507 73.2037 114.967 73.6612L127.845 86.5393L127.279 87.1057C126.665 87.7194 125.678 87.7194 125.064 87.1057L111.619 73.6612C111.159 73.2009 111.031 72.5509 111.282 71.9538C111.527 71.3624 112.08 70.9969 112.721 70.9969ZM118.131 70.9969C118.99 70.9969 119.693 70.2911 119.693 69.4346V42.4285C119.693 41.5637 120.399 40.8662 121.256 40.8662H124.604C123.744 40.8662 123.041 41.5637 123.041 42.4285V69.4346C123.041 70.2939 122.335 70.9969 121.479 70.9969H118.131ZM4.37931 70.9969H7.72717C7.0827 70.9969 6.5331 71.3652 6.28759 71.9538C6.03371 72.5509 6.16483 73.2037 6.62516 73.6612L19.5032 86.5393L18.9369 87.1057C18.3231 87.7194 17.3355 87.7194 16.7217 87.1057L3.27452 73.6612C2.81419 73.2009 2.68585 72.5509 2.93694 71.9538C3.18245 71.3624 3.73485 70.9969 4.37931 70.9969ZM9.7861 70.9969C10.6454 70.9969 11.3484 70.2911 11.3484 69.4346V42.4285C11.3484 41.5637 12.0543 40.8662 12.9108 40.8662H16.2586C15.3993 40.8662 14.6963 41.5637 14.6963 42.4285V69.4346C14.6963 70.2939 13.9904 70.9969 13.134 70.9969H9.7861Z" fill="#65C43A"/>
<path id="Vector_7" d="M108.992 26.5485C111.282 26.5485 113.143 24.6821 113.143 22.3888V15.5564C113.143 13.2631 111.279 11.3967 108.992 11.3967H91.0945V10.6601C91.0945 4.78185 86.3126 0 80.4343 0H63.5751C57.6968 0 52.915 4.78185 52.915 10.6601V11.3967H35.0179C32.7246 11.3967 30.8582 13.2631 30.8582 15.5564V22.3888C30.8582 24.6821 32.7246 26.5485 35.0179 26.5485H37.9835L42.3804 83.1747C42.704 87.2479 46.0296 90.3195 50.1167 90.3195H63.2933V108.967H58.5533C56.9966 108.967 55.6546 109.86 55.0464 111.311C54.4634 112.717 54.7814 114.332 55.8695 115.44L69.3223 128.892C70.0616 129.632 71.0324 130 72.0033 130C72.9742 130 73.9451 129.632 74.6844 128.892L88.1372 115.44C89.2253 114.352 89.5489 112.731 88.9658 111.319C88.3827 109.891 87.0045 108.967 85.4533 108.967H80.7161V90.3195H93.8927C97.9213 90.3195 101.319 87.1781 101.629 83.1691L106.026 26.5457H108.992V26.5485ZM57.3732 10.6601C57.3732 7.24253 60.1547 4.46102 63.5723 4.46102H80.4315C83.8492 4.46102 86.6307 7.24253 86.6307 10.6601V11.3967H57.3732V10.6601ZM35.3192 15.8577H108.685V22.0903H35.3192V15.8577ZM83.838 113.431L72.0005 125.266L60.1631 113.428H63.9601C66.0497 113.428 67.7488 111.726 67.7488 109.631V83.2974H76.2495V109.631C76.2495 111.723 77.9486 113.428 80.0382 113.428H83.838V113.431ZM97.1764 82.8287C97.0425 84.5584 95.6308 85.8613 93.8871 85.8613H80.7105V82.6278C80.7105 80.5382 79.0087 78.8392 76.9135 78.8392H67.0848C64.9924 78.8392 63.2878 80.5382 63.2878 82.6278V85.8613H50.1111C48.3731 85.8613 46.9614 84.5557 46.8219 82.8259L42.4529 26.5485H101.545L97.1764 82.8287ZM54.9376 69.9423V42.4675C54.9376 41.2344 55.9364 40.2384 57.1668 40.2384C58.3971 40.2384 59.3959 41.2372 59.3959 42.4675V69.9423C59.3959 71.1754 58.3971 72.1714 57.1668 72.1714C55.9364 72.1714 54.9376 71.1726 54.9376 69.9423ZM69.7742 69.9423V42.4675C69.7742 41.2344 70.773 40.2384 72.0033 40.2384C73.2337 40.2384 74.2324 41.2372 74.2324 42.4675V69.9423C74.2324 71.1754 73.2337 72.1714 72.0033 72.1714C70.773 72.1714 69.7742 71.1726 69.7742 69.9423ZM84.6024 69.9423V42.4675C84.6024 41.2344 85.6012 40.2384 86.8315 40.2384C88.0619 40.2384 89.0606 41.2372 89.0606 42.4675V69.9423C89.0606 71.1754 88.0619 72.1714 86.8315 72.1714C85.6012 72.1714 84.6024 71.1726 84.6024 69.9423ZM143.129 71.5018C142.54 70.079 141.164 69.1583 139.622 69.1583H134.884V42.8246C134.884 40.7322 133.183 39.0276 131.087 39.0276H121.259C119.166 39.0276 117.462 40.7294 117.462 42.8246V69.1583H112.724C111.176 69.1583 109.837 70.0483 109.218 71.5018C108.632 72.9219 108.952 74.5428 110.041 75.6308L123.493 89.0836C124.21 89.8006 125.162 90.194 126.174 90.194C127.187 90.194 128.138 89.8006 128.855 89.0836L142.294 75.6448C143.394 74.5623 143.723 72.9358 143.129 71.5018ZM126.172 85.4568L114.334 73.6193H118.131C120.221 73.6193 121.92 71.9203 121.92 69.8307V43.4886H130.421V69.8307C130.421 71.9203 132.12 73.6193 134.209 73.6193H138.006L126.172 85.4568ZM31.2767 69.1583H26.5395V42.8246C26.5395 40.7322 24.8376 39.0276 22.7424 39.0276H12.9137C10.8213 39.0276 9.11666 40.7294 9.11666 42.8246V69.1583H4.37945C2.83106 69.1583 1.49192 70.0483 0.86978 71.5018C0.278325 72.9358 0.607531 74.5623 1.69279 75.6308L15.1456 89.0836C15.8849 89.8229 16.8558 90.1912 17.8267 90.1912C18.7975 90.1912 19.7684 89.8229 20.5077 89.0836L33.9466 75.6448C35.0486 74.5623 35.3778 72.9358 34.7836 71.5018C34.1977 70.079 32.8195 69.1583 31.2767 69.1583ZM17.8295 85.4568L5.992 73.6193H9.78902C11.8786 73.6193 13.5777 71.9203 13.5777 69.8307V43.4886H22.0784V69.8307C22.0784 71.9203 23.7775 73.6193 25.8671 73.6193H29.6641L17.8295 85.4568Z" fill="black"/>
</g>
</svg>
