<svg width="228" height="53" viewBox="0 0 228 53" fill="none" xmlns="http://www.w3.org/2000/svg">
<g id="Group 1171275656">
<path id="Vector" d="M137.752 26.4999C137.752 41.0106 125.997 52.765 111.498 52.765C96.9993 52.765 85.2333 41.0106 85.2333 26.4999C85.2333 11.9893 96.9877 0.234863 111.498 0.234863C126.009 0.234863 137.752 11.9893 137.752 26.4999Z" fill="url(#paint0_radial_1_10965)"/>
<path id="Vector_2" d="M104.91 23.5931C104.771 26.8589 105.304 30.0088 106.369 32.904C107.029 32.9851 107.689 33.043 108.361 33.0661C114.661 33.3325 120.497 31.1321 124.944 27.3452C124.944 27.3452 131.684 18.4397 132.495 15.5908C129.438 9.71939 123.983 5.23766 117.301 3.54688C110.214 7.47274 105.28 14.896 104.91 23.5815V23.5931Z" fill="url(#paint1_radial_1_10965)"/>
<path id="Vector_3" d="M132.495 15.6021C131.695 18.4509 124.944 27.3565 124.944 27.3565C120.497 31.1434 114.672 33.3321 108.36 33.0774C107.689 33.0542 107.017 32.9963 106.368 32.9152C108.708 39.2615 113.664 44.3801 119.976 46.9047C120.045 46.9279 120.115 46.9627 120.184 46.9858C120.277 47.0206 120.381 47.0553 120.474 47.1016C120.636 47.1595 120.798 47.2174 120.96 47.2753C120.983 47.2753 120.995 47.2869 121.018 47.2985C121.4 47.4259 121.771 47.5533 122.164 47.6575C129.263 44.0559 134.394 36.9685 135.077 28.4451C135.459 23.836 134.475 19.4353 132.495 15.6136V15.6021Z" fill="url(#paint2_radial_1_10965)"/>
<path id="Vector_4" style="mix-blend-mode:multiply" d="M132.495 15.6021C131.695 18.4509 124.944 27.3565 124.944 27.3565C120.497 31.1434 114.672 33.3321 108.36 33.0774C107.689 33.0542 107.017 32.9963 106.368 32.9152C108.708 39.2615 113.664 44.3801 119.976 46.9047C120.045 46.9279 120.115 46.9627 120.184 46.9858C120.277 47.0206 120.381 47.0553 120.474 47.1016C120.636 47.1595 120.798 47.2174 120.96 47.2753C120.983 47.2753 120.995 47.2869 121.018 47.2985C121.4 47.4259 121.771 47.5533 122.164 47.6575C129.263 44.0559 134.394 36.9685 135.077 28.4451C135.459 23.836 134.475 19.4353 132.495 15.6136V15.6021Z" fill="url(#paint3_linear_1_10965)"/>
<path id="Vector_5" d="M106.368 32.9043C105.303 30.0091 104.77 26.8707 104.909 23.5934C105.268 14.9078 110.213 7.4846 117.301 3.55874C116.038 3.24606 114.741 3.01444 113.409 2.91022C101.632 1.94902 91.1628 9.78917 88.4761 20.9182C92.124 27.334 98.6556 31.9315 106.38 32.9043H106.368Z" fill="url(#paint4_radial_1_10965)"/>
<path id="Vector_6" style="mix-blend-mode:multiply" d="M106.368 32.9043C105.303 30.0091 104.77 26.8707 104.909 23.5934C105.268 14.9078 110.213 7.4846 117.301 3.55874C116.038 3.24606 114.741 3.01444 113.409 2.91022C101.632 1.94902 91.1628 9.78917 88.4761 20.9182C92.124 27.334 98.6556 31.9315 106.38 32.9043H106.368Z" fill="url(#paint5_linear_1_10965)"/>
<path id="Vector_7" d="M120.959 47.2642C120.959 47.2642 120.994 47.2757 121.017 47.2873C120.994 47.2873 120.983 47.2757 120.959 47.2642Z" fill="url(#paint6_radial_1_10965)"/>
<path id="Vector_8" style="mix-blend-mode:multiply" d="M120.959 47.2642C120.959 47.2642 120.994 47.2757 121.017 47.2873C120.994 47.2873 120.983 47.2757 120.959 47.2642Z" fill="url(#paint7_linear_1_10965)"/>
<path id="Vector_9" style="mix-blend-mode:multiply" d="M120.959 47.2642C120.959 47.2642 120.994 47.2757 121.017 47.2873C120.994 47.2873 120.983 47.2757 120.959 47.2642Z" fill="url(#paint8_linear_1_10965)"/>
<path id="Vector_10" d="M120.183 46.9746C120.276 47.0094 120.38 47.0441 120.473 47.0904C120.38 47.0557 120.276 47.0209 120.183 46.9746Z" fill="url(#paint9_radial_1_10965)"/>
<path id="Vector_11" style="mix-blend-mode:multiply" d="M120.183 46.9746C120.276 47.0094 120.38 47.0441 120.473 47.0904C120.38 47.0557 120.276 47.0209 120.183 46.9746Z" fill="url(#paint10_linear_1_10965)"/>
<path id="Vector_12" style="mix-blend-mode:multiply" d="M120.183 46.9746C120.276 47.0094 120.38 47.0441 120.473 47.0904C120.38 47.0557 120.276 47.0209 120.183 46.9746Z" fill="url(#paint11_linear_1_10965)"/>
<path id="Vector_13" d="M88.0822 22.898C88.0937 22.7938 88.1169 22.6895 88.1285 22.5737C88.1169 22.678 88.0937 22.7938 88.0822 22.898Z" fill="url(#paint12_radial_1_10965)"/>
<path id="Vector_14" style="mix-blend-mode:multiply" d="M88.0822 22.898C88.0937 22.7938 88.1169 22.6895 88.1285 22.5737C88.1169 22.678 88.0937 22.7938 88.0822 22.898Z" fill="url(#paint13_linear_1_10965)"/>
<path id="Vector_15" style="mix-blend-mode:multiply" d="M88.0822 22.898C88.0937 22.7938 88.1169 22.6895 88.1285 22.5737C88.1169 22.678 88.0937 22.7938 88.0822 22.898Z" fill="url(#paint14_linear_1_10965)"/>
<path id="Vector_16" d="M106.368 32.904C108.742 39.2618 113.687 44.3921 119.975 46.8935C113.664 44.3689 108.707 39.2502 106.368 32.904C98.6435 31.9428 92.112 27.3337 88.4641 20.918C88.383 21.2654 88.3019 21.6128 88.2324 21.9718C88.3019 21.6244 88.3714 21.277 88.4525 20.9411C92.112 27.38 98.6783 31.9428 106.356 32.904H106.368Z" fill="url(#paint15_radial_1_10965)"/>
<path id="Vector_17" style="mix-blend-mode:multiply" d="M106.368 32.904C108.742 39.2618 113.687 44.3921 119.975 46.8935C113.664 44.3689 108.707 39.2502 106.368 32.904C98.6435 31.9428 92.112 27.3337 88.4641 20.918C88.383 21.2654 88.3019 21.6128 88.2324 21.9718C88.3019 21.6244 88.3714 21.277 88.4525 20.9411C92.112 27.38 98.6783 31.9428 106.356 32.904H106.368Z" fill="url(#paint16_linear_1_10965)"/>
<path id="Vector_18" style="mix-blend-mode:multiply" d="M106.368 32.904C108.742 39.2618 113.687 44.3921 119.975 46.8935C113.664 44.3689 108.707 39.2502 106.368 32.904C98.6435 31.9428 92.112 27.3337 88.4641 20.918C88.383 21.2654 88.3019 21.6128 88.2324 21.9718C88.3019 21.6244 88.3714 21.277 88.4525 20.9411C92.112 27.38 98.6783 31.9428 106.356 32.904H106.368Z" fill="url(#paint17_linear_1_10965)"/>
<path id="Vector_19" d="M122.153 47.6461C121.77 47.5303 121.388 47.4145 121.006 47.2871C121.377 47.4145 121.759 47.5419 122.141 47.6577L122.153 47.6461Z" fill="url(#paint18_radial_1_10965)"/>
<path id="Vector_20" style="mix-blend-mode:multiply" d="M122.153 47.6461C121.77 47.5303 121.388 47.4145 121.006 47.2871C121.377 47.4145 121.759 47.5419 122.141 47.6577L122.153 47.6461Z" fill="url(#paint19_linear_1_10965)"/>
<path id="Vector_21" style="mix-blend-mode:multiply" d="M122.153 47.6461C121.77 47.5303 121.388 47.4145 121.006 47.2871C121.377 47.4145 121.759 47.5419 122.141 47.6577L122.153 47.6461Z" fill="url(#paint20_linear_1_10965)"/>
<path id="Vector_22" d="M109.553 50.101C114.07 50.4716 118.389 49.5452 122.153 47.6459C121.771 47.5301 121.389 47.4143 121.018 47.2753C120.995 47.2753 120.983 47.2638 120.96 47.2522C120.798 47.1943 120.636 47.1364 120.474 47.0785C120.381 47.0437 120.277 47.009 120.184 46.9627C120.115 46.9395 120.045 46.9048 119.976 46.8816C113.676 44.3802 108.743 39.2499 106.369 32.8921C98.679 31.9309 92.1243 27.3681 88.4648 20.9292C88.3837 21.265 88.3142 21.6125 88.2448 21.9599C88.21 22.1568 88.1753 22.3652 88.1406 22.5621C88.129 22.6663 88.1058 22.7821 88.0942 22.8863C88.0131 23.4422 87.9437 23.9981 87.8974 24.5655C86.8319 37.5939 96.5366 49.024 109.565 50.0894L109.553 50.101Z" fill="url(#paint21_radial_1_10965)"/>
<path id="Vector_23" style="mix-blend-mode:multiply" d="M109.553 50.101C114.07 50.4716 118.389 49.5452 122.153 47.6459C121.771 47.5301 121.389 47.4143 121.018 47.2753C120.995 47.2753 120.983 47.2638 120.96 47.2522C120.798 47.1943 120.636 47.1364 120.474 47.0785C120.381 47.0437 120.277 47.009 120.184 46.9627C120.115 46.9395 120.045 46.9048 119.976 46.8816C113.676 44.3802 108.743 39.2499 106.369 32.8921C98.679 31.9309 92.1243 27.3681 88.4648 20.9292C88.3837 21.265 88.3142 21.6125 88.2448 21.9599C88.21 22.1568 88.1753 22.3652 88.1406 22.5621C88.129 22.6663 88.1058 22.7821 88.0942 22.8863C88.0131 23.4422 87.9437 23.9981 87.8974 24.5655C86.8319 37.5939 96.5366 49.024 109.565 50.0894L109.553 50.101Z" fill="url(#paint22_linear_1_10965)"/>
<path id="Vector_24" style="mix-blend-mode:multiply" d="M109.553 50.101C114.07 50.4716 118.389 49.5452 122.153 47.6459C121.771 47.5301 121.389 47.4143 121.018 47.2753C120.995 47.2753 120.983 47.2638 120.96 47.2522C120.798 47.1943 120.636 47.1364 120.474 47.0785C120.381 47.0437 120.277 47.009 120.184 46.9627C120.115 46.9395 120.045 46.9048 119.976 46.8816C113.676 44.3802 108.743 39.2499 106.369 32.8921C98.679 31.9309 92.1243 27.3681 88.4648 20.9292C88.3837 21.265 88.3142 21.6125 88.2448 21.9599C88.21 22.1568 88.1753 22.3652 88.1406 22.5621C88.129 22.6663 88.1058 22.7821 88.0942 22.8863C88.0131 23.4422 87.9437 23.9981 87.8974 24.5655C86.8319 37.5939 96.5366 49.024 109.565 50.0894L109.553 50.101Z" fill="url(#paint23_linear_1_10965)"/>
<path id="Vector_25" style="mix-blend-mode:multiply" d="M109.553 50.1013C114.07 50.4718 118.389 49.5454 122.153 47.6461C121.771 47.5303 121.389 47.4145 121.018 47.2756C120.995 47.2756 120.983 47.264 120.96 47.2524C120.798 47.1945 120.636 47.1366 120.474 47.0787C120.381 47.0439 120.277 47.0092 120.184 46.9629C120.115 46.9397 120.045 46.905 119.976 46.8818C113.676 44.3804 108.742 39.2501 106.368 32.8923C98.6788 31.9311 92.1241 27.3451 88.4646 20.9062C88.453 20.9757 88.3603 21.3347 88.2329 21.9601C88.1982 22.157 88.1635 22.3654 88.1287 22.5623C88.1172 22.6665 88.0939 22.7823 88.0824 22.8866C88.0013 23.4424 87.9318 23.9983 87.8855 24.5658C86.8201 37.5941 96.5248 49.0242 109.553 50.0897V50.1013Z" fill="url(#paint24_linear_1_10965)"/>
<path id="Vector_26" d="M133.409 33.1814C132.935 35.5208 132.135 37.7442 131.058 39.794C130.908 40.0372 130.757 40.2804 130.595 40.5236C137.254 31.4675 136.698 18.6708 128.696 10.2169C120.694 1.76295 107.955 0.500646 98.5398 6.65001C98.9104 6.42998 99.2925 6.22153 99.6863 6.02466C101.481 5.24875 103.357 4.65813 105.326 4.32229C111.186 3.54638 117.729 5.42245 123.195 9.74206L110.352 8.24816L124.539 13.2394L104.712 18.7635L124.353 16.5747L109.762 29.9967L125.627 19.4467L118.667 39.7477L129.368 21.566L128.858 33.5984L132.367 22.6546C133.56 26.1983 133.907 29.8115 133.398 33.1814H133.409Z" fill="white"/>
<path id="Vector_27" d="M182.477 31.0046C181.249 31.0046 180.485 32.5912 180.45 35.1853C180.45 35.1853 180.473 36.4591 180.3 37.2003C180.126 37.9183 179.767 38.3584 179.362 38.3584H156.386V31.5952C154.799 31.5605 153.525 31.7342 153.525 35.3705V38.3584H149.692C149.692 38.3584 149.842 36.5286 150.132 35.5095C150.665 33.6334 151.429 33.4713 152.193 33.4713V32.1279C150.607 32.1048 149.773 33.147 149.194 35.5095C148.823 37.0845 148.731 38.81 148.673 39.806H154.44V35.6948C154.44 33.3092 154.996 33.1934 155.494 33.1934V39.7944H179.466C180.184 39.7944 180.636 39.1574 180.902 38.4626C181.261 39.3427 181.794 39.7944 182.488 39.7944C183.785 39.7944 184.55 38.1962 184.55 35.4053C184.55 32.6143 183.774 30.9814 182.488 30.9814L182.477 31.0046ZM182.477 38.5089C181.747 38.5089 181.365 37.4898 181.365 35.4516C181.365 33.4134 181.747 32.3132 182.477 32.3132C183.206 32.3132 183.6 33.3671 183.6 35.4864C183.6 37.4782 183.218 38.5089 182.477 38.5089Z" fill="#164680"/>
<path id="Vector_28" d="M178.25 15.8804C176.883 15.8804 176.049 17.8839 175.586 19.6441V19.6094L175.713 13.4253H174.81V22.2614H170.56C169.807 22.2614 169.344 21.6708 169.344 20.5822V16.5058H168.429V20.5359C168.429 21.6129 168.024 22.2614 167.352 22.2614H156.455V15.4982C154.868 15.4635 153.594 15.6372 153.594 19.2736V22.2614H149.761C149.761 22.2614 149.912 20.4432 150.19 19.4125C150.722 17.5364 151.487 17.3743 152.251 17.3743V16.031C150.664 16.0078 149.831 17.05 149.263 19.4009C148.893 20.9759 148.788 22.7014 148.73 23.709H154.498V19.5978C154.498 17.2122 155.053 17.108 155.563 17.108V23.709H167.572V23.6858C168.163 23.6163 168.626 23.2342 168.939 22.5741C169.275 23.2805 169.819 23.6626 170.525 23.6974H177.972C179.744 23.6974 180.184 20.9064 180.184 19.482C180.184 17.8723 179.616 15.8688 178.261 15.8688L178.25 15.8804ZM177.983 22.2498H175.667C175.922 21.0222 176.582 17.2238 178.215 17.2238C178.956 17.2238 179.257 18.4397 179.257 19.4357C179.257 20.8601 178.944 22.2498 177.972 22.2498H177.983Z" fill="#164680"/>
<path id="Vector_29" d="M223.241 39.8177H221.006V38.3586H221.898V28.3991H222.824V38.3586H223.206C223.577 38.3586 223.948 37.8606 224.098 37.2468C224.249 36.5751 224.249 35.9266 224.249 35.197V28.376H225.152V36.2393C225.152 38.4628 224.307 39.8062 223.241 39.8062" fill="#164680"/>
<path id="Vector_30" d="M227.074 28.3872H226.171V39.8174H227.074V28.3872Z" fill="#164680"/>
<path id="Vector_31" d="M219.072 32.5798V36.274C219.072 37.9996 218.875 38.3586 218.308 38.3586H217.347V32.5682H216.443V38.3586H214.718V32.5682H213.838V38.3586H191.244C190.607 38.3586 190.132 37.8606 190.132 37.2352C190.132 36.7952 190.132 28.3991 190.132 28.3991H189.217V35.197C189.217 37.2931 188.87 38.347 188.186 38.347H187.804V28.376H186.878V38.347H185.974V39.8062H188.209C188.8 39.8062 189.286 39.4472 189.634 38.6828C190.004 39.4472 190.537 39.8062 191.244 39.8062H218.342C219.362 39.8062 219.987 38.845 219.987 36.992V32.5566H219.084L219.072 32.5798Z" fill="#164680"/>
<path id="Vector_32" d="M190.711 16.5059V20.1654C190.711 21.4856 190.329 22.25 189.483 22.25H185.152V15.4868H183.149C181.956 15.4868 181.192 16.8533 181.192 19.7138C181.192 22.5742 182.338 23.7091 183.149 23.7091H184.203C184.203 24.5198 183.786 25.5041 183.207 25.5389V26.8707H183.241C184.237 26.8707 185.036 25.701 185.141 23.7323C185.141 23.7323 189.761 23.7207 189.842 23.7207C189.923 23.7207 191.626 23.4775 191.626 20.2465V16.5175H190.711V16.5059ZM184.237 22.2615H183.172C182.408 22.2615 182.13 20.7908 182.13 19.7254C182.13 18.6599 182.327 16.8533 183.172 16.8533H184.237V22.2615Z" fill="#164680"/>
<path id="Vector_33" d="M191.881 11.3406V10.5184H192.332V10.3562C192.332 9.93934 192.39 8.61914 193.166 8.61914C193.618 8.61914 193.815 9.02447 193.965 9.67299H193.421C193.352 9.49928 193.305 9.40664 193.166 9.40664C192.888 9.40664 192.842 9.91619 192.842 10.3099V10.5068H194.035V11.329H191.869L191.881 11.3406ZM192.645 12.2902H193.56V23.7204H192.645V12.2902Z" fill="#164680"/>
<path id="Vector_34" d="M201.239 23.7205H198.494C197.174 23.7205 196.386 22.4003 196.386 20.2463V16.5173H197.29V20.1768C197.29 21.497 197.66 22.2613 198.482 22.2613H199.594C199.328 21.5433 199.189 20.918 199.189 19.6672C199.189 16.9805 199.965 15.5098 201.227 15.5098C202.489 15.5098 203.254 16.9921 203.254 19.7251C203.254 22.4582 202.501 23.7321 201.227 23.7321M201.227 16.8184C200.497 16.8184 200.115 17.6406 200.115 19.6788C200.115 21.717 200.497 22.2729 201.227 22.2729C201.957 22.2729 202.339 21.6244 202.339 19.702C202.339 17.629 201.968 16.8068 201.227 16.8068" fill="#164680"/>
<path id="Vector_35" d="M225.012 14.896C223.785 14.896 223.02 16.4826 222.974 19.0766C222.974 19.0766 222.997 20.3505 222.823 21.1033C222.638 21.8097 222.291 22.2613 221.885 22.2613H220.183C220.554 21.3696 220.669 20.2463 220.669 19.4935C220.669 17.8838 220.102 15.8804 218.747 15.8804C217.392 15.8804 216.547 17.8838 216.083 19.5978V17.2469H215.215V22.2498H206.842C206.124 22.2498 205.649 21.6939 205.649 20.6748V16.5057H204.734V22.354C204.734 22.8288 204.769 23.7089 204.595 24.3922C204.433 25.0523 204.051 25.5039 203.704 25.5387V26.8705C204.943 26.94 205.649 25.1797 205.649 23.3036V23.1762C205.973 23.5121 206.367 23.7089 206.842 23.7089H222.082C222.569 23.7089 223.159 23.0952 223.437 22.3656C223.796 23.2457 224.329 23.7089 225.024 23.7089C226.321 23.7089 227.085 22.0992 227.085 19.3198C227.085 16.5405 226.298 14.896 225.024 14.896H225.012ZM218.608 22.2613H216.176C216.431 20.999 217.091 17.2353 218.724 17.2353C219.465 17.2353 219.766 18.4513 219.766 19.4472C219.766 20.8369 219.488 22.2613 218.608 22.2613ZM225.012 22.4003C224.283 22.4003 223.9 21.3696 223.9 19.343C223.9 17.3164 224.283 16.193 225.012 16.193C225.742 16.193 226.135 17.2469 226.135 19.3777C226.135 21.3696 225.753 22.4003 225.012 22.4003Z" fill="#164680"/>
<path id="Vector_36" d="M151.719 26.0369C151.719 26.4769 151.499 26.8359 151.244 26.8359C150.989 26.8359 150.758 26.4769 150.758 26.0369C150.758 25.5968 150.978 25.2378 151.244 25.2378C151.51 25.2378 151.719 25.5968 151.719 26.0369Z" fill="#164680"/>
<path id="Vector_37" d="M153.073 26.0369C153.073 26.4769 152.865 26.8359 152.587 26.8359C152.309 26.8359 152.101 26.4769 152.101 26.0369C152.101 25.5968 152.321 25.2378 152.587 25.2378C152.853 25.2378 153.073 25.5968 153.073 26.0369Z" fill="#164680"/>
<path id="Vector_38" d="M169.333 26.0369C169.333 26.4769 169.113 26.8359 168.858 26.8359C168.603 26.8359 168.371 26.4769 168.371 26.0369C168.371 25.5968 168.591 25.2378 168.858 25.2378C169.124 25.2378 169.333 25.5968 169.333 26.0369Z" fill="#164680"/>
<path id="Vector_39" d="M191.603 26.0369C191.603 26.4769 191.382 26.8359 191.116 26.8359C190.85 26.8359 190.63 26.4769 190.63 26.0369C190.63 25.5968 190.85 25.2378 191.116 25.2378C191.382 25.2378 191.603 25.5968 191.603 26.0369Z" fill="#164680"/>
<path id="Vector_40" d="M178.516 13.0544C178.516 13.4945 178.296 13.8535 178.029 13.8535C177.763 13.8535 177.543 13.4945 177.543 13.0544C177.543 12.6144 177.763 12.2554 178.029 12.2554C178.296 12.2554 178.516 12.6144 178.516 13.0544Z" fill="#164680"/>
<path id="Vector_41" d="M201.701 13.0544C201.701 13.4945 201.493 13.8535 201.215 13.8535C200.937 13.8535 200.728 13.4945 200.728 13.0544C200.728 12.6144 200.948 12.2554 201.215 12.2554C201.481 12.2554 201.701 12.6144 201.701 13.0544Z" fill="#164680"/>
<path id="Vector_42" d="M151.719 42.1915C151.719 42.6316 151.499 42.9906 151.244 42.9906C150.989 42.9906 150.758 42.6316 150.758 42.1915C150.758 41.7514 150.978 41.3809 151.244 41.3809C151.51 41.3809 151.719 41.7399 151.719 42.1915Z" fill="#164680"/>
<path id="Vector_43" d="M153.073 42.1915C153.073 42.6316 152.865 42.9906 152.587 42.9906C152.309 42.9906 152.101 42.6316 152.101 42.1915C152.101 41.7514 152.321 41.3809 152.587 41.3809C152.853 41.3809 153.073 41.7399 153.073 42.1915Z" fill="#164680"/>
<path id="Vector_44" d="M17.6375 39.5855L15.1939 33.3551H6.14936L3.8564 39.5855H0L9.44991 15.0923H12.1482L21.8181 39.5855H17.6259H17.6375ZM11.6734 23.5694C11.2681 22.3418 10.9322 21.3459 10.7816 20.57H10.7469C10.5269 21.4269 10.2258 22.3881 9.77413 23.5346L7.36539 30.1009H13.9201L11.6618 23.5809L11.6734 23.5694Z" fill="#164680"/>
<path id="Vector_45" d="M31.4646 39.5858H24.8983V15.1621H31.6036C40.6134 15.1621 45.0604 20.1302 45.0604 27.125C45.0604 34.1198 40.2776 39.5858 31.4646 39.5858ZM31.6499 18.5321H28.801V36.239H31.6499C38.4362 36.239 40.9493 31.9773 40.9493 27.1945C40.9493 22.4116 37.9498 18.5205 31.6499 18.5205V18.5321Z" fill="#164680"/>
<path id="Vector_46" d="M49.8086 39.5858V15.1621H53.6997V39.5858H49.8086Z" fill="#164680"/>
<path id="Vector_47" d="M65.7082 39.5858H58.5166V15.1621H65.9282C70.5953 15.1621 72.7493 18.2657 72.7493 21.1609C72.7493 23.4192 71.6723 25.4226 69.6341 26.3491V26.3838C72.1934 26.9397 74.3011 29.279 74.3011 32.3132C74.3011 35.7295 71.9618 39.5743 65.6967 39.5743L65.7082 39.5858ZM62.4077 18.5321V25.4574H65.1871C67.0053 25.4574 68.7887 24.1256 68.7887 21.9021C68.7887 19.8639 67.5612 18.5321 64.8976 18.5321H62.4193H62.4077ZM65.7082 28.7926H62.4077V36.239H65.5229C68.6729 36.239 70.271 34.6756 70.271 32.3479C70.271 30.2749 68.5686 28.7926 65.7082 28.7926Z" fill="#164680"/>
<path id="Vector_48" d="M220.995 43.1414V42.3192H221.447V42.157C221.447 41.7401 221.516 40.4199 222.281 40.4199C222.732 40.4199 222.929 40.8253 223.091 41.4738H222.547C222.477 41.2885 222.431 41.219 222.292 41.219C222.014 41.219 221.968 41.7285 221.968 42.1223V42.3192H223.161V43.1414H220.995Z" fill="#164680"/>
</g>
<defs>
<radialGradient id="paint0_radial_1_10965" cx="0" cy="0" r="1" gradientUnits="userSpaceOnUse" gradientTransform="translate(111.487 26.4999) scale(26.2651 26.2651)">
<stop offset="0.92" stop-color="#B3B3B3"/>
<stop offset="0.93" stop-color="#BCBCBC"/>
<stop offset="0.98" stop-color="#ECECEC"/>
<stop offset="1" stop-color="white"/>
</radialGradient>
<radialGradient id="paint1_radial_1_10965" cx="0" cy="0" r="1" gradientUnits="userSpaceOnUse" gradientTransform="translate(118.701 22.5262) rotate(-175.34) scale(23.7386 23.7386)">
<stop stop-color="white"/>
<stop offset="0.03" stop-color="#F0F5F5"/>
<stop offset="1" stop-color="#00AEEF"/>
</radialGradient>
<radialGradient id="paint2_radial_1_10965" cx="0" cy="0" r="1" gradientUnits="userSpaceOnUse" gradientTransform="translate(118.701 22.5258) rotate(-175.34) scale(23.7386 23.7386)">
<stop stop-color="white"/>
<stop offset="0.03" stop-color="#F0F5F5"/>
<stop offset="1" stop-color="#00AEEF"/>
</radialGradient>
<linearGradient id="paint3_linear_1_10965" x1="120.763" y1="61.867" x2="120.763" y2="15.2199" gradientUnits="userSpaceOnUse">
<stop offset="0.02" stop-color="#00AEEF"/>
<stop offset="0.09" stop-color="#13B4F0"/>
<stop offset="0.73" stop-color="#BBE9FA"/>
<stop offset="1" stop-color="white"/>
</linearGradient>
<radialGradient id="paint4_radial_1_10965" cx="0" cy="0" r="1" gradientUnits="userSpaceOnUse" gradientTransform="translate(118.7 22.5264) rotate(-175.34) scale(23.7386 23.7386)">
<stop stop-color="white"/>
<stop offset="0.03" stop-color="#F0F5F5"/>
<stop offset="1" stop-color="#00AEEF"/>
</radialGradient>
<linearGradient id="paint5_linear_1_10965" x1="99.6056" y1="49.7663" x2="103.361" y2="1.84161" gradientUnits="userSpaceOnUse">
<stop offset="0.02" stop-color="#0081C4"/>
<stop offset="0.03" stop-color="#0583C5"/>
<stop offset="0.34" stop-color="#6EB7DD"/>
<stop offset="0.59" stop-color="#BCDEEF"/>
<stop offset="0.76" stop-color="#ECF5FA"/>
<stop offset="0.85" stop-color="white"/>
</linearGradient>
<radialGradient id="paint6_radial_1_10965" cx="0" cy="0" r="1" gradientUnits="userSpaceOnUse" gradientTransform="translate(118.529 22.5259) rotate(-175.341) scale(23.8141 23.8069)">
<stop stop-color="white"/>
<stop offset="0.03" stop-color="#F0F5F5"/>
<stop offset="1" stop-color="#00AEEF"/>
</radialGradient>
<linearGradient id="paint7_linear_1_10965" x1="120.983" y1="61.9173" x2="120.983" y2="15.1106" gradientUnits="userSpaceOnUse">
<stop offset="0.02" stop-color="#00AEEF"/>
<stop offset="0.09" stop-color="#13B4F0"/>
<stop offset="0.73" stop-color="#BBE9FA"/>
<stop offset="1" stop-color="white"/>
</linearGradient>
<linearGradient id="paint8_linear_1_10965" x1="120.334" y1="51.3299" x2="124.039" y2="4.01979" gradientUnits="userSpaceOnUse">
<stop offset="0.02" stop-color="#0081C4"/>
<stop offset="0.03" stop-color="#0583C5"/>
<stop offset="0.34" stop-color="#6EB7DD"/>
<stop offset="0.59" stop-color="#BCDEEF"/>
<stop offset="0.76" stop-color="#ECF5FA"/>
<stop offset="0.85" stop-color="white"/>
</linearGradient>
<radialGradient id="paint9_radial_1_10965" cx="0" cy="0" r="1" gradientUnits="userSpaceOnUse" gradientTransform="translate(118.696 22.2382) rotate(-175.34) scale(24.0277 24.0255)">
<stop stop-color="white"/>
<stop offset="0.03" stop-color="#F0F5F5"/>
<stop offset="1" stop-color="#00AEEF"/>
</radialGradient>
<linearGradient id="paint10_linear_1_10965" x1="120.334" y1="62.0397" x2="120.334" y2="14.841" gradientUnits="userSpaceOnUse">
<stop offset="0.02" stop-color="#00AEEF"/>
<stop offset="0.09" stop-color="#13B4F0"/>
<stop offset="0.73" stop-color="#BBE9FA"/>
<stop offset="1" stop-color="white"/>
</linearGradient>
<linearGradient id="paint11_linear_1_10965" x1="119.655" y1="51.3946" x2="123.465" y2="2.75852" gradientUnits="userSpaceOnUse">
<stop offset="0.02" stop-color="#0081C4"/>
<stop offset="0.03" stop-color="#0583C5"/>
<stop offset="0.34" stop-color="#6EB7DD"/>
<stop offset="0.59" stop-color="#BCDEEF"/>
<stop offset="0.76" stop-color="#ECF5FA"/>
<stop offset="0.85" stop-color="white"/>
</linearGradient>
<radialGradient id="paint12_radial_1_10965" cx="0" cy="0" r="1" gradientUnits="userSpaceOnUse" gradientTransform="translate(117.532 22.4193) rotate(-175.345) scale(22.5591 22.5373)">
<stop stop-color="white"/>
<stop offset="0.03" stop-color="#F0F5F5"/>
<stop offset="1" stop-color="#00AEEF"/>
</radialGradient>
<linearGradient id="paint13_linear_1_10965" x1="88.1053" y1="61.8322" x2="88.1053" y2="15.2316" gradientUnits="userSpaceOnUse">
<stop offset="0.02" stop-color="#00AEEF"/>
<stop offset="0.09" stop-color="#13B4F0"/>
<stop offset="0.73" stop-color="#BBE9FA"/>
<stop offset="1" stop-color="white"/>
</linearGradient>
<linearGradient id="paint14_linear_1_10965" x1="85.7399" y1="48.6446" x2="89.4867" y2="0.777268" gradientUnits="userSpaceOnUse">
<stop offset="0.02" stop-color="#0081C4"/>
<stop offset="0.03" stop-color="#0583C5"/>
<stop offset="0.34" stop-color="#6EB7DD"/>
<stop offset="0.59" stop-color="#BCDEEF"/>
<stop offset="0.76" stop-color="#ECF5FA"/>
<stop offset="0.85" stop-color="white"/>
</linearGradient>
<radialGradient id="paint15_radial_1_10965" cx="0" cy="0" r="1" gradientUnits="userSpaceOnUse" gradientTransform="translate(118.71 22.5179) rotate(-175.34) scale(23.7387 23.7386)">
<stop stop-color="white"/>
<stop offset="0.03" stop-color="#F0F5F5"/>
<stop offset="1" stop-color="#00AEEF"/>
</radialGradient>
<linearGradient id="paint16_linear_1_10965" x1="104.11" y1="61.8558" x2="104.11" y2="15.2203" gradientUnits="userSpaceOnUse">
<stop offset="0.02" stop-color="#00AEEF"/>
<stop offset="0.09" stop-color="#13B4F0"/>
<stop offset="0.73" stop-color="#BBE9FA"/>
<stop offset="1" stop-color="white"/>
</linearGradient>
<linearGradient id="paint17_linear_1_10965" x1="102.549" y1="49.9967" x2="106.304" y2="2.07201" gradientUnits="userSpaceOnUse">
<stop offset="0.02" stop-color="#0081C4"/>
<stop offset="0.03" stop-color="#0583C5"/>
<stop offset="0.34" stop-color="#6EB7DD"/>
<stop offset="0.59" stop-color="#BCDEEF"/>
<stop offset="0.76" stop-color="#ECF5FA"/>
<stop offset="0.85" stop-color="white"/>
</linearGradient>
<radialGradient id="paint18_radial_1_10965" cx="0" cy="0" r="1" gradientUnits="userSpaceOnUse" gradientTransform="translate(118.7 22.5254) rotate(-175.34) scale(23.7399 23.7392)">
<stop stop-color="white"/>
<stop offset="0.03" stop-color="#F0F5F5"/>
<stop offset="1" stop-color="#00AEEF"/>
</radialGradient>
<linearGradient id="paint19_linear_1_10965" x1="121.585" y1="61.856" x2="121.585" y2="15.2309" gradientUnits="userSpaceOnUse">
<stop offset="0.02" stop-color="#00AEEF"/>
<stop offset="0.09" stop-color="#13B4F0"/>
<stop offset="0.73" stop-color="#BBE9FA"/>
<stop offset="1" stop-color="white"/>
</linearGradient>
<linearGradient id="paint20_linear_1_10965" x1="131.915" y1="76.0642" x2="83.9211" y2="73.2884" gradientUnits="userSpaceOnUse">
<stop offset="0.02" stop-color="#003E7E"/>
<stop offset="0.09" stop-color="#134C87"/>
<stop offset="0.73" stop-color="#BBCBDC"/>
<stop offset="1" stop-color="white"/>
</linearGradient>
<radialGradient id="paint21_radial_1_10965" cx="0" cy="0" r="1" gradientUnits="userSpaceOnUse" gradientTransform="translate(118.711 22.5176) rotate(-175.34) scale(23.7386 23.7386)">
<stop stop-color="white"/>
<stop offset="0.03" stop-color="#F0F5F5"/>
<stop offset="1" stop-color="#00AEEF"/>
</radialGradient>
<linearGradient id="paint22_linear_1_10965" x1="104.979" y1="61.8555" x2="104.979" y2="15.2199" gradientUnits="userSpaceOnUse">
<stop offset="0.02" stop-color="#00AEEF"/>
<stop offset="0.09" stop-color="#13B4F0"/>
<stop offset="0.73" stop-color="#BBE9FA"/>
<stop offset="1" stop-color="white"/>
</linearGradient>
<linearGradient id="paint23_linear_1_10965" x1="103.578" y1="50.0769" x2="107.332" y2="2.15217" gradientUnits="userSpaceOnUse">
<stop stop-color="#003E7E"/>
<stop offset="0.21" stop-color="#007DC4"/>
<stop offset="0.24" stop-color="#1286C8"/>
<stop offset="0.34" stop-color="#50A6D6"/>
<stop offset="0.44" stop-color="#85C1E2"/>
<stop offset="0.53" stop-color="#B1D7ED"/>
<stop offset="0.62" stop-color="#D3E8F4"/>
<stop offset="0.71" stop-color="#EBF4FA"/>
<stop offset="0.78" stop-color="#F9FCFD"/>
<stop offset="0.85" stop-color="white"/>
</linearGradient>
<linearGradient id="paint24_linear_1_10965" x1="132.525" y1="65.5081" x2="84.5338" y2="62.7325" gradientUnits="userSpaceOnUse">
<stop offset="0.02" stop-color="#003E7E"/>
<stop offset="0.09" stop-color="#134C87"/>
<stop offset="0.73" stop-color="#BBCBDC"/>
<stop offset="1" stop-color="white"/>
</linearGradient>
</defs>
</svg>
