<svg width="204" height="49" viewBox="0 0 204 49" fill="none" xmlns="http://www.w3.org/2000/svg">
<g id="Group 1171275654">
<path id="Vector" d="M0.28815 28.1674L0.498783 27.9568C0.969616 27.6222 1.57675 27.6842 1.97324 28.1054C7.58606 34.09 14.6114 37.6584 22.2438 37.6584C28.3894 37.6584 34.1385 35.3538 39.0699 31.3269C37.3476 35.7379 35.0554 39.517 32.3791 42.3915C30.0993 43.011 27.7327 43.3456 25.2918 43.3456C14.8716 43.3456 5.67794 37.3115 0.275757 28.155" fill="#FFD331"/>
<path id="Vector_2" d="M42.5763 11.7624V11.4031C42.5763 10.8703 42.3904 10.3871 42.0931 10.0153L41.8577 9.76754L41.7833 9.70558L41.5727 9.5569L41.3992 9.47016L41.2505 9.39582L40.9036 9.30908H40.5815H40.4576H40.346C39.615 9.44538 38.9831 10.0277 38.7725 10.8455C35.7864 22.3809 28.885 30.6948 22.5907 34.1889C29.2071 33.2968 35.0306 28.9478 38.9459 22.5544C37.1493 29.1336 33.7916 34.7465 29.4426 38.6122C27.0636 39.4796 24.5484 39.9504 21.9464 39.9504C13.6573 39.9504 6.23545 35.2173 1.26692 27.7459C1.00673 27.7087 0.721745 27.7831 0.498719 27.9565L0.288086 28.1672C5.09554 36.32 12.9014 41.9948 21.9092 43.1471C19.84 43.8781 17.6593 44.2746 15.4043 44.2746C12.6908 44.2746 10.0765 43.7047 7.62316 42.6639C7.89575 42.9488 8.19312 43.2338 8.4781 43.5064L8.67634 43.6799L9.07284 44.0516L9.28347 44.2251C9.43216 44.3614 9.59323 44.4976 9.7543 44.6215L9.80387 44.6587C10.3986 45.1295 11.0057 45.5632 11.6129 45.9597L11.7863 46.0712C11.9474 46.1579 12.0961 46.2571 12.2572 46.3438L12.5174 46.4925L12.951 46.7279L13.2484 46.889L13.6697 47.0872L14.0042 47.2359L14.4131 47.4094L14.7724 47.5457L15.1689 47.682L15.553 47.8059L15.9371 47.9298L16.3336 48.0413L16.7053 48.128L17.1389 48.2147L17.4859 48.2891C17.6469 48.3139 17.7956 48.3387 17.9567 48.351L18.2912 48.4006C18.4647 48.4254 18.6382 48.4378 18.8116 48.4502L19.0842 48.4749C19.3568 48.4873 19.6294 48.4997 19.902 48.4997C24.5236 48.4997 28.8106 46.2571 32.3914 42.4285L32.4162 42.4037C32.6764 42.1311 32.9242 41.8461 33.172 41.5611L33.3083 41.4124C33.5438 41.1399 33.7792 40.8425 34.0146 40.5327L34.1633 40.3469C34.3863 40.0495 34.6093 39.7521 34.8323 39.4424L34.9934 39.2194C35.2041 38.9096 35.4147 38.5998 35.6129 38.2901L35.774 38.0423C35.9723 37.7325 36.1705 37.4104 36.3563 37.0758L36.5174 36.7909C36.7033 36.4687 36.8768 36.1342 37.0626 35.7996L37.2237 35.4899C37.3972 35.1553 37.5706 34.8084 37.7317 34.4615L37.8804 34.1393C38.0538 33.7924 38.2149 33.4331 38.3636 33.0738L38.4627 32.8631C40.7302 27.6344 42.1798 21.4021 42.502 14.6617V14.6369C42.5144 14.4139 42.5267 14.1909 42.5267 13.9802V13.5218C42.5639 12.9519 42.5763 12.3819 42.5763 11.8119" fill="#ED1C24"/>
<path id="Vector_3" d="M7.62292 5.51778C7.62292 5.51778 32.9116 7.0418 22.2064 33.7925C22.2064 33.7925 61.682 -3.86171 7.62292 5.51778Z" fill="#ED1C24"/>
<path id="Vector_4" fill-rule="evenodd" clip-rule="evenodd" d="M54.5952 32.8634H61.1373C62.3887 32.8634 63.8632 33.3342 63.8632 35.2176C63.8632 36.9894 62.5374 37.6337 61.4099 37.6337H54.5952V32.8634ZM49.4656 48.1655H54.5952V41.2269H60.9762C62.5622 41.2269 63.7021 41.8712 63.7021 44.5351C63.7021 46.5176 63.7393 47.2734 64.2101 48.1531H69.8229C68.9184 47.199 68.8441 44.9812 68.8441 44.0519C68.8441 42.1933 68.4971 39.3435 66.2545 38.9966V38.947C68.398 38.1788 69.3273 36.692 69.3273 34.3998C69.3273 32.4669 68.4476 29.2578 63.2065 29.2578H49.4656V48.1531V48.1655Z" fill="#ED1C24"/>
<path id="Vector_5" fill-rule="evenodd" clip-rule="evenodd" d="M83.489 40.8304H77.5664L80.5277 33.3342L83.489 40.8304ZM86.4007 48.1531H91.9392L83.6253 29.2578H77.4301L69.1162 48.1531H74.6547L76.1911 44.2625H84.8767L86.4131 48.1531H86.4007Z" fill="#ED1C24"/>
<path id="Vector_6" d="M97.7872 37.3859V29.2578H92.6453V48.1655H97.7872V42.5403L100.773 39.9754L107.204 48.1655H114.143L104.8 36.8531L113.486 29.2578H106.572L97.7872 37.3859Z" fill="#ED1C24"/>
<path id="Vector_7" fill-rule="evenodd" clip-rule="evenodd" d="M121.788 40.062H128.826C130.623 40.062 131.552 40.855 131.552 42.3418C131.552 43.5313 130.945 44.5597 129.359 44.5597H121.788V40.062ZM116.646 48.1653H130.127C135.851 48.1653 137.004 44.9686 137.004 42.4533C137.004 40.4089 135.851 38.2406 133.646 37.8689V37.8194C135.418 37.2618 136.161 35.49 136.161 34.0279C136.161 30.5215 133.596 29.27 130.833 29.27H116.634V48.1653H116.646ZM121.788 32.7021H128.219C130.35 32.7021 130.871 33.5571 130.871 34.7342C130.871 36.1467 130.127 36.7786 128.938 36.7786H121.788V32.6898V32.7021Z" fill="#ED1C24"/>
<path id="Vector_8" fill-rule="evenodd" clip-rule="evenodd" d="M149.976 40.8304H144.041L147.014 33.3342L149.976 40.8304ZM152.887 48.1531H158.426L150.112 29.2578H143.917L135.603 48.1531H141.129L142.665 44.2625H151.351L152.887 48.1531Z" fill="#ED1C24"/>
<path id="Vector_9" d="M175.067 42.4411H175.017L165.08 29.2578H159.121V48.1655H164.102V34.9821H164.151L174.46 48.1655H180.035V29.2578H175.067V42.4411Z" fill="#ED1C24"/>
<path id="Vector_10" d="M186.775 37.3859V29.2578H181.645V48.1655H186.775V42.5403L189.773 39.9754L196.204 48.1655H203.143L193.8 36.8531L202.473 29.2578H195.572L186.775 37.3859Z" fill="#ED1C24"/>
<path id="Vector_11" d="M49.4532 10.9326H51.6339V16.9172C51.7207 17.5367 51.9065 17.673 52.588 17.673H55.7599C56.429 17.673 56.6025 17.5491 56.7016 16.9172V16.2853H54.5085V14.1046H59.0186V16.2853H58.8947V16.6322C58.8947 18.7261 57.7052 19.8784 55.5617 19.8784H52.811C50.6675 19.8784 49.478 18.7261 49.478 16.6322V10.9326H49.4532ZM51.5844 21.2538H53.7651V23.4592H51.5844V21.2538ZM54.682 21.2538H56.8627V23.4592H54.682V21.2538Z" fill="#ED1C24"/>
<path id="Vector_12" d="M58.8819 14.1044H61.5706V7.98358H63.7513V14.1044H63.8628V16.2851H58.8695V14.1044H58.8819ZM61.5706 4.43994H63.7513V6.62063H61.5706V4.43994Z" fill="#ED1C24"/>
<path id="Vector_13" d="M66.3915 14.1044V4.43994H68.5722V7.98358H72.2645C74.3213 7.98358 75.709 9.34651 75.709 11.3042V16.2851H63.7523V14.1044H66.3915ZM73.5035 14.1044V11.5024C73.5035 10.5979 73.0947 10.1643 72.3264 10.1643H68.5722V14.1044H73.5035Z" fill="#ED1C24"/>
<path id="Vector_14" d="M77.3563 19.8783V17.6604H80.3671C80.8008 17.6604 81.061 17.5613 81.1725 17.3631C81.2468 17.2516 81.2964 17.0905 81.2964 16.9046V16.2727H80.8008C78.7688 16.2727 77.3563 14.9346 77.3563 12.9397V11.2918C77.3563 9.33414 78.7688 7.97119 80.8008 7.97119H83.4895V14.092H83.601V16.2727H83.4895V16.6197C83.4895 18.7136 82.3 19.8659 80.1565 19.8659H77.3439L77.3563 19.8783ZM81.2964 10.1643H80.7264C79.9459 10.1643 79.537 10.6103 79.537 11.5024V12.7539C79.537 13.646 79.9459 14.1044 80.7264 14.1044H81.2964V10.1643Z" fill="#ED1C24"/>
<path id="Vector_15" d="M83.5012 14.1044H86.1899V4.43994H88.383V16.2851H83.5012V14.1044Z" fill="#ED1C24"/>
<path id="Vector_16" d="M92.2121 4.43994H90.0314V16.2851H92.2121V4.43994Z" fill="#ED1C24"/>
<path id="Vector_17" d="M105.06 7.98358V14.1044H105.184V16.2851H102.879V10.6599C101.306 11.1927 100.104 13.2866 99.5464 16.2851H97.3037C97.7622 11.1927 100.773 8.25617 105.06 7.98358ZM99.757 4.43994H101.975V6.62063H99.757V4.43994ZM102.879 4.43994H105.06V6.62063H102.879V4.43994Z" fill="#ED1C24"/>
<path id="Vector_18" d="M105.06 16.2854V14.1047H107.774V11.3045C107.774 9.34681 109.174 7.98389 111.218 7.98389H113.907V14.1047H113.994V16.2854H113.486C112.817 17.4377 111.776 18.0077 110.388 18.0077H107.762V16.2854H105.048H105.06ZM109.955 15.8146H110.5C111.305 15.8146 111.689 15.3685 111.689 14.4764V10.1646H111.132C110.326 10.1646 109.942 10.6106 109.942 11.5027V15.8146H109.955Z" fill="#ED1C24"/>
<path id="Vector_19" d="M113.92 14.1047H118.529V7.98389H120.71V14.1047H120.821V16.2854H113.92V14.1047ZM115.419 17.6607H117.612V19.8786H115.419V17.6607ZM118.529 17.6607H120.71V19.8786H118.529V17.6607Z" fill="#ED1C24"/>
<path id="Vector_20" d="M127.797 14.1044V11.5024C127.797 10.5979 127.413 10.1643 126.645 10.1643H123.411V7.98358H126.583C128.615 7.98358 130.027 9.34651 130.027 11.3042V14.1044H130.139V16.2851H120.71V14.1044H127.81H127.797ZM124.898 4.43994H127.091V6.62063H124.898V4.43994Z" fill="#ED1C24"/>
<path id="Vector_21" d="M130.015 14.1044H132.716V4.43994H134.896V16.2851H130.015V14.1044Z" fill="#ED1C24"/>
<path id="Vector_22" d="M138.726 4.43994H136.545V16.2851H138.726V4.43994Z" fill="#ED1C24"/>
<path id="Vector_23" d="M143.817 10.9328H145.998V16.9173C146.097 17.5368 146.27 17.6731 146.952 17.6731H149.901C150.31 17.6731 150.57 17.574 150.743 17.3758C150.805 17.2643 150.83 17.1156 150.83 16.9173V10.9328H153.036V14.1047H155.489V9.47072H157.67V14.1047H160.123V7.98389H162.328V16.2854H153.036V16.6323C153.036 18.7263 151.846 19.8786 149.69 19.8786H147.15C145.007 19.8786 143.817 18.7263 143.817 16.6323V10.9328Z" fill="#ED1C24"/>
<path id="Vector_24" d="M166.133 0.5V1.34255H165.402C165.055 1.34255 164.869 1.54079 164.869 1.94967C164.869 2.27182 165.08 2.44529 165.464 2.44529H166.505V3.28783H163.68V2.44529H164.151C164.076 2.28422 164.039 2.13553 164.039 1.97445C164.039 1.11952 164.659 0.512402 165.501 0.512402H166.121L166.133 0.5ZM166.17 16.2853H163.99V4.44014H166.17V16.2853Z" fill="#ED1C24"/>
<path id="Vector_25" d="M167.496 17.7351H167.768C168.859 17.7351 169.379 17.2271 169.379 16.2359V7.98389H171.56V15.8146C171.56 16.1119 171.56 16.3597 171.547 16.5704C171.473 17.4005 171.275 18.0696 170.903 18.59C170.37 19.3087 169.676 19.7299 168.809 19.8414C168.549 19.8538 168.202 19.891 167.781 19.891H167.496V17.7475V17.7351Z" fill="#ED1C24"/>
<path id="Vector_26" d="M191.223 14.1044H191.372V16.2851H179.973C177.978 16.2851 176.64 14.8974 176.64 12.8406V8.83851H178.82V12.9149C178.82 13.7203 179.279 14.1044 180.171 14.1044H189.042V4.43994H191.223V14.1044ZM184.929 7.22777V8.0703H184.198C183.851 8.0703 183.665 8.29333 183.665 8.67743C183.665 9.02436 183.851 9.19783 184.235 9.19783H185.276V10.0404H182.426V9.19783H182.922C182.847 8.99958 182.785 8.8509 182.785 8.70222C182.785 7.85968 183.417 7.24015 184.272 7.24015H184.916L184.929 7.22777Z" fill="#ED1C24"/>
<path id="Vector_27" d="M191.223 14.1044H193.912V7.98358H196.093V14.1044H196.204V16.2851H191.223V14.1044ZM193.912 4.43994H196.093V6.62063H193.912V4.43994Z" fill="#ED1C24"/>
<path id="Vector_28" d="M196.093 14.1047H198.794V7.98389H200.975V16.2854H196.093V14.1047ZM198.794 17.6607H200.975V19.8786H198.794V17.6607Z" fill="#ED1C24"/>
</g>
</svg>
