<svg width="78" height="57" viewBox="0 0 78 57" fill="none" xmlns="http://www.w3.org/2000/svg">
<g id="Group 1171275653">
<path id="Vector" fill-rule="evenodd" clip-rule="evenodd" d="M77.1261 57V0H0.159302V57H77.1261Z" fill="#EF454E"/>
<path id="Vector_2" fill-rule="evenodd" clip-rule="evenodd" d="M48.1893 49.3076C38.4203 51.0142 28.1973 53.1244 18.9663 52.7545C11.8203 52.4771 7.06185 51.1151 3.34592 49.6271L0.142822 48.4164V39.1519L3.32911 41.0518C12.6862 46.8864 22.2871 49.2319 31.2827 49.77C45.457 50.6107 57.8406 46.9788 64.1964 45.5076C69.0052 44.3979 73.5619 43.7001 77.1265 44.3811V49.0133C69.3079 45.9952 59.0596 47.3992 48.1893 49.2992V49.3076Z" fill="white"/>
<path id="Vector_3" fill-rule="evenodd" clip-rule="evenodd" d="M31.4673 32.8881C28.8359 31.2572 25.2629 30.9629 19.4873 32.5014C13.3165 33.8802 11.2819 34.7713 8.57485 32.9806C7.54078 32.1147 7.17086 30.7107 7.43989 28.6594C8.10405 25.3638 9.84432 22.1607 12.9129 18.6381C14.6448 16.7802 16.2505 15.208 18.3523 14.5691C19.9496 14.1824 19.8151 15.4014 19.6218 15.5612C19.42 15.5612 19.0585 15.5948 18.7894 15.7545C18.5877 15.9142 17.9908 16.4607 17.9572 17.1669C17.8899 18.2262 19.0585 17.9992 19.5545 17.4191C20.0925 16.7466 20.8912 15.4687 20.2523 14.2833C20.0169 13.8629 19.5545 13.5771 18.9828 13.4846C17.0492 13.3585 15.2417 14.2497 13.6107 15.2165C9.97042 17.6461 7.06998 21.0089 5.39697 24.666C4.46379 26.8771 3.59786 30.0465 4.90096 32.6443C5.9014 34.435 7.93591 35.4019 10.4076 35.2085C12.1394 35.0151 14.2076 34.4687 15.6452 34.1492C17.0492 33.8297 24.2204 31.4589 26.5912 35.5868C26.5912 35.5868 27.3563 34.1156 29.3235 34.082C30.9209 33.9559 33.2581 34.5275 34.9647 35.7465C34.4014 34.9142 32.7957 33.7289 31.4589 32.8966L31.4673 32.8881Z" fill="white"/>
<path id="Vector_4" fill-rule="evenodd" clip-rule="evenodd" d="M20.2191 19.0586C18.8488 18.1927 16.1501 19.8237 14.0147 22.5812C12.0138 25.0781 11.1815 27.9617 12.1147 29.3069C13.485 30.879 16.0492 28.6007 17.1505 27.3901L17.2851 27.2303C18.0165 26.4653 18.5882 25.5321 19.1514 24.6662C19.1514 24.6662 19.6474 23.8675 19.6811 23.8003C19.9837 23.7666 20.3788 23.6742 20.816 23.5481C20.7824 23.5817 19.185 26.2047 19.3448 27.5162C19.3784 27.9029 19.3448 29.3742 20.816 29.8197C22.7833 30.1056 24.389 28.668 25.751 27.3565C25.751 27.3565 25.9864 27.1295 26.1209 27.0033C26.0873 27.1295 26.0536 27.3228 26.0536 27.3228C25.4904 29.248 26.2554 29.6264 26.7514 29.7861C28.2227 30.2064 29.9881 28.1551 29.9881 28.1551C29.9209 28.7941 29.7864 29.3405 30.5178 29.7525C31.182 29.9794 31.8545 29.66 32.3842 29.3069C34.2169 28.0542 35.7218 26.0702 36.924 24.4056H36.1589C36.1589 24.4056 34.259 27.0286 33.0231 27.6087C33.0231 27.6087 32.8213 27.7011 32.6868 27.6087C32.5187 27.4826 32.5859 27.1967 32.6868 27.0033L37.42 19.0923H35.1837C35.1837 19.0923 34.9483 19.479 34.9147 19.5126C34.9147 19.479 34.8811 19.4454 34.8474 19.4118C33.4435 17.5538 30.316 20.4038 27.9452 23.6742C27.0457 24.952 25.8771 26.3644 24.6749 27.3901C24.6749 27.3901 22.901 28.9622 22.1359 27.8356C21.8669 27.3564 21.9342 26.6839 22.1023 26.2383C22.9682 23.8002 24.4983 21.5976 26.2386 20.2777C26.743 19.9246 27.2727 19.7985 27.5417 19.9582C27.7771 20.1179 27.8443 20.471 27.6762 20.6896C27.2727 20.6896 26.9364 20.8157 26.6758 21.0764C26.1713 21.5892 25.978 22.102 26.1461 22.5812C26.9448 23.6741 28.5421 21.4883 28.4833 20.1768C28.4496 19.6976 28.1806 19.252 27.7855 19.025C27.2138 18.7056 26.3142 18.798 25.751 19.0586C24.9859 19.3445 23.7501 20.3113 23.0523 21.0764C22.1527 22.0348 20.589 23.0941 20.1182 22.968C20.2864 22.5476 21.5895 20.0171 20.2191 19.0586ZM30.997 22.8418C31.4342 22.2617 32.7036 20.698 32.9979 20.4374C34.0656 19.5715 34.4691 19.9582 34.5027 20.2104C33.5359 21.875 32.401 23.8002 31.2996 25.5237C31.3333 25.4901 30.9634 26.0029 30.9634 26.0029C30.4926 26.7091 30.0302 27.2808 29.2315 27.7011C29.1306 27.7348 28.9625 27.7684 28.828 27.6675C28.6598 27.575 28.6262 27.4153 28.6262 27.2556C28.6935 26.7427 29.2567 25.0781 30.997 22.8334V22.8418ZM18.8151 23.8339C18.8151 23.8339 18.8151 23.9011 18.7815 23.9011L17.8147 25.4396C17.2178 26.1795 16.478 27.1379 15.5784 27.5834C15.3094 27.6759 14.9479 27.7432 14.7461 27.4826C14.351 27.037 14.5444 26.398 14.7125 25.8516L14.7797 25.6918C15.2421 24.414 16.0492 23.2874 16.7806 22.2365H16.8143V22.2702C17.3103 23.1361 18.1846 23.5228 18.8488 23.7078V23.7414C18.8488 23.7414 18.8488 23.775 18.8151 23.8339ZM19.7483 22.0432L19.3111 23.0016C19.2439 23.0352 19.143 23.0352 19.0421 23.0016L18.8403 22.968C18.2434 22.7746 17.7727 22.3879 17.6381 21.9423C17.4364 21.0427 18.2351 20.3365 18.5713 20.0843C18.9413 19.8573 19.4373 19.7312 19.7399 19.9582C19.9417 20.1768 20.0089 20.4711 20.0089 20.7569C20.0089 21.1436 19.8744 21.6228 19.7399 22.0348L19.7483 22.0432Z" fill="white"/>
<path id="Vector_5" fill-rule="evenodd" clip-rule="evenodd" d="M48.0461 24.9184C47.8443 24.4728 47.3063 24.1786 46.7766 24.2122C45.0111 24.3719 43.2709 25.7843 42.3377 27.7684C41.8669 28.8277 41.6062 29.66 41.4381 31.0387C42.0098 30.4334 43.1027 29.4078 44.4058 28.8613C44.4058 28.8613 44.574 27.5834 45.4399 26.398C45.7762 25.9188 46.474 25.1454 47.2054 25.3724C47.8695 25.5657 47.6425 27.3228 46.7682 29.021C46.104 30.2737 45.1372 31.5179 44.1368 32.3502C43.2372 33.0901 41.9341 33.9476 40.7656 33.2834C40.0678 32.8631 39.6978 32.0056 39.7651 30.9126C40.1014 27.7768 41.5979 25.0865 43.7332 22.0432C45.9359 19.2268 48.3403 16.3096 51.6107 14.7711C52.2748 14.418 52.9138 14.3507 53.4434 14.5441C53.4434 14.5441 50.3748 16.175 48.9036 19.1596C48.5337 19.9246 48.004 20.9503 48.5337 21.8498C48.8027 22.329 49.2987 22.3627 49.6686 22.3627C51.4678 21.9507 52.6363 20.3449 53.5695 18.8737C54.0992 17.7471 54.6036 16.6626 54.6036 15.4184C54.6036 15.2923 54.6036 15.0653 54.57 14.9392C55.4359 14.4936 57.2014 15.2587 57.2014 15.2587C58.5717 15.7042 61.4722 17.8564 62.4726 18.2684C62.935 17.7219 63.7421 16.9233 64.1709 16.5113L63.5403 16.1246C62.5063 15.5193 61.4049 14.9728 60.3372 14.3927C57.8992 13.1149 55.9319 13.5604 54.9315 13.9135C54.5364 14.0396 54.1664 14.1658 54.1664 14.1658C53.4014 13.3671 52.1992 13.4595 51.2996 13.6529C48.0293 14.5525 45.0279 16.7635 41.7912 20.5383C39.3868 23.5144 37.9239 26.0786 37.1589 28.6091C36.5284 30.3073 36.3602 32.8042 37.8231 34.3091C39.0925 35.5618 40.7571 35.2675 41.9257 34.8219C44.4983 33.6365 46.8018 31.0135 47.9284 28.029C48.1974 27.1295 48.5001 25.8852 48.0293 24.9268L48.0461 24.9184ZM53.9142 15.5361C53.5779 19.252 50.5766 21.4631 49.8116 21.6228C49.3828 21.7153 48.6094 21.5219 49.2819 19.9582C50.316 17.848 52.0142 16.0826 53.889 15.1494C53.9226 15.3091 53.9226 15.41 53.9226 15.5361H53.9142Z" fill="white"/>
<path id="Vector_6" fill-rule="evenodd" clip-rule="evenodd" d="M71.8049 16.0153C70.1739 16.9148 68.5009 17.4529 66.4664 17.268C65.8947 17.8733 65.3315 18.5206 64.8354 19.1596C67.7023 19.8657 70.7372 18.3273 72.4102 16.8224C74.2093 15.3511 75.1089 13.4932 75.1089 13.4932C75.1089 13.4932 73.7722 14.9308 71.8049 16.0237V16.0153Z" fill="white"/>
<path id="Vector_7" fill-rule="evenodd" clip-rule="evenodd" d="M41.1776 19.084H39.0422L37.84 21.0092H39.9754L41.1776 19.084Z" fill="white"/>
<path id="Vector_8" fill-rule="evenodd" clip-rule="evenodd" d="M66.4665 33.0819C66.2311 33.2417 65.8948 33.1155 66.0293 32.7625C66.3319 31.8965 67.5005 30.1058 67.5005 30.1058L70.8381 24.4394H68.5682C68.4337 24.6328 68.1983 25.0195 68.1983 25.0195C68.0974 24.8598 67.7948 24.4731 67.6603 24.4142C67.0886 24.0611 66.2899 24.2209 65.7267 24.5403C63.2886 25.9191 61.5231 28.6094 60.1191 30.7195C60.1191 30.7195 58.6227 33.0567 57.8156 33.2501C57.1851 33.2837 57.2523 32.4514 57.2523 32.258C57.5213 30.8793 58.0846 29.5678 58.6479 28.3487C59.8501 27.5837 61.1868 26.558 62.4143 25.3978C65.0541 22.9682 67.282 20.2107 67.6182 19.6054C67.6182 19.6054 67.2483 19.6642 66.8532 19.6978C64.8187 22.4217 60.6488 26.3899 59.3793 26.97C59.9089 25.6837 63.5492 19.5045 66.6178 16.562L67.1222 16.1164C67.8536 15.4102 68.6607 14.6788 69.2576 14.5779C69.3249 14.5443 69.3921 14.5779 69.4594 14.704C69.493 15.2505 69.2912 15.6624 69.0306 16.1164L68.6943 16.789C68.6943 16.789 69.1988 16.6965 69.493 16.5956C69.8629 15.9231 70.2917 15.1832 70.1235 14.2921C70.0899 14.0063 69.8545 13.8129 69.5939 13.7456C68.6607 13.5859 67.6603 14.2248 66.8616 14.7713H66.828C62.6917 17.9071 59.1859 22.3965 56.1174 28.5421C55.882 28.7018 55.0497 28.8952 54.8815 28.8027C55.1842 28.1974 55.5793 27.3903 55.7474 26.5244C55.7811 26.2638 55.8147 26.0116 55.8147 25.7593C55.8147 25.2465 55.6802 24.7337 55.1842 24.3806C54.6125 24.0948 53.8811 24.2208 53.3851 24.4478C51.216 25.3138 49.5851 27.4576 48.4165 29.2483C47.7859 30.3664 47.147 31.5518 46.9452 32.9642C46.8443 34.0235 47.0798 34.7297 47.7103 35.0744C48.3744 35.3939 49.2151 35.0744 49.543 34.9147C51.7457 33.7965 53.3094 31.5518 54.5116 29.4669C54.5789 29.4669 55.243 29.4669 55.7474 29.3408C55.7138 29.4332 55.4784 30.1731 55.4784 30.1731C54.6797 32.3505 54.3435 33.8217 55.0749 34.7213C56.1089 35.9403 57.8408 34.654 59.2448 32.9894C58.9421 35.0071 60.0435 35.3266 60.8842 35.1669C61.8173 34.9062 62.885 33.9478 63.3811 33.435C63.2466 34.0151 63.2802 35.066 64.1461 35.2005C64.743 35.293 65.1802 35.0071 65.7098 34.7213C67.5762 33.7629 69.7789 30.4925 70.3505 29.6014H69.6191C68.7868 30.7868 67.7527 32.3589 66.4496 33.0903L66.4665 33.0819ZM49.7868 32.8549C49.6523 32.6616 49.6187 32.4682 49.6187 32.2748C49.5851 31.0558 50.9554 28.8784 51.9222 27.6593C52.3258 28.5589 53.2589 29.0717 53.8222 29.2903C53.1244 30.7616 50.7536 33.931 49.7868 32.8465V32.8549ZM54.1921 28.6598C54.1249 28.727 52.9899 28.3403 52.7545 27.3147C52.5528 26.4151 53.1917 25.7425 53.8222 25.3894C54.0576 25.1961 54.4527 25.1036 54.7554 25.2297C55.0244 25.3894 55.0917 25.7089 55.0917 26.0284C55.0917 26.2554 55.0917 26.4487 55.0581 26.6337V26.701C54.8563 27.3735 54.5536 28.0461 54.1921 28.6514V28.6598ZM63.4651 32.443L63.2297 32.6364C62.9271 32.897 62.5992 33.1828 62.2293 33.0567C62.0948 33.0231 62.0275 32.8633 62.0275 32.7708C61.9939 32.0058 62.3638 31.2996 62.6917 30.627L62.7926 30.4337C63.793 28.8363 64.9616 26.9447 66.6598 25.6332C66.9625 25.4399 67.2567 25.2465 67.593 25.3726C67.6603 25.4651 67.7611 25.566 67.7611 25.6921C67.7611 25.7257 67.7275 25.8182 67.6939 25.8518C67.2231 26.5917 66.7607 27.3903 66.3235 28.1217C65.4576 29.593 64.5581 31.1315 63.4567 32.443H63.4651Z" fill="white"/>
<path id="Vector_9" d="M71.0565 29.6011C71.1994 29.6011 71.3339 29.6347 71.46 29.702C71.5861 29.7692 71.687 29.8701 71.7626 30.0046C71.8383 30.1391 71.8719 30.2736 71.8719 30.4166C71.8719 30.5595 71.8383 30.694 71.7626 30.8201C71.687 30.9462 71.5861 31.0471 71.46 31.1228C71.3339 31.1984 71.1994 31.2321 71.0565 31.2321C70.9135 31.2321 70.779 31.1984 70.6529 31.1228C70.5268 31.0471 70.4259 30.9462 70.3503 30.8201C70.283 30.694 70.241 30.5595 70.241 30.4166C70.241 30.2736 70.2746 30.1391 70.3503 30.0046C70.4259 29.8701 70.5268 29.7692 70.6529 29.702C70.779 29.6347 70.9135 29.6011 71.0565 29.6011ZM71.0565 29.7608C70.9472 29.7608 70.8379 29.786 70.737 29.8449C70.6361 29.9037 70.552 29.9794 70.4932 30.0887C70.4343 30.1896 70.4007 30.3073 70.4007 30.4166C70.4007 30.5259 70.4259 30.6436 70.4848 30.7445C70.5436 30.8453 70.6277 30.9294 70.7286 30.9882C70.8295 31.0471 70.9388 31.0723 71.0565 31.0723C71.1742 31.0723 71.2834 31.0387 71.3843 30.9882C71.4852 30.9294 71.5693 30.8453 71.6281 30.7445C71.687 30.6436 71.7122 30.5343 71.7122 30.4166C71.7122 30.2989 71.6786 30.1896 71.6197 30.0887C71.5609 29.9878 71.4768 29.9037 71.3759 29.8449C71.275 29.786 71.1657 29.7608 71.048 29.7608H71.0565ZM70.6865 30.8537V29.9878H70.8631C71.0312 29.9878 71.1237 29.9878 71.1405 29.9878C71.1994 29.9878 71.2414 30.0046 71.275 30.0214C71.3087 30.0382 71.3339 30.0635 71.3591 30.1055C71.3843 30.1391 71.3927 30.1812 71.3927 30.2316C71.3927 30.2905 71.3759 30.3493 71.3339 30.3913C71.2918 30.4334 71.233 30.467 71.1658 30.4754C71.191 30.4838 71.2162 30.4922 71.2246 30.5091C71.2414 30.5175 71.2582 30.5427 71.2834 30.5763C71.2834 30.5847 71.3087 30.6183 71.3507 30.6856L71.4516 30.8621H71.233L71.1573 30.7192C71.1069 30.6268 71.0649 30.5679 71.0396 30.5427C71.006 30.5174 70.964 30.5091 70.9219 30.5091H70.8799V30.8621H70.7033L70.6865 30.8537ZM70.8631 30.3577H70.9304C71.0312 30.3577 71.0985 30.3577 71.1153 30.3493C71.1405 30.3493 71.1573 30.3241 71.1741 30.3073C71.191 30.2905 71.1994 30.2652 71.1994 30.24C71.1994 30.2148 71.1994 30.198 71.1826 30.1727C71.1657 30.1559 71.1489 30.1391 71.1237 30.1307C71.0985 30.1307 71.0312 30.1223 70.9387 30.1223H70.8715V30.3577H70.8631Z" fill="white"/>
</g>
</svg>
